G04 MADE WITH FRITZING*
G04 WWW.FRITZING.ORG*
G04 DOUBLE SIDED*
G04 HOLES PLATED*
G04 CONTOUR ON CENTER OF CONTOUR VECTOR*
%ASAXBY*%
%FSLAX23Y23*%
%MOIN*%
%OFA0B0*%
%SFA1.0B1.0*%
%ADD10C,0.070000*%
%ADD11C,0.074000*%
%ADD12C,0.075000*%
%ADD13C,0.080000*%
%ADD14C,0.039370*%
%ADD15C,0.062992*%
%ADD16C,0.078000*%
%ADD17R,0.069972X0.070000*%
%ADD18R,0.074000X0.074000*%
%ADD19R,0.080000X0.080000*%
%ADD20R,0.062992X0.062992*%
%ADD21C,0.024000*%
%ADD22C,0.012000*%
%ADD23C,0.016000*%
%LNCOPPER1*%
G90*
G70*
G54D10*
X244Y1480D03*
X244Y1380D03*
X244Y1280D03*
X244Y1180D03*
X244Y1080D03*
X244Y980D03*
X244Y880D03*
X244Y780D03*
X244Y680D03*
X244Y580D03*
X244Y480D03*
X244Y380D03*
X244Y280D03*
X244Y180D03*
X244Y80D03*
X844Y1480D03*
X844Y1380D03*
X844Y1280D03*
X844Y1180D03*
X844Y1080D03*
X844Y980D03*
X844Y880D03*
X844Y780D03*
X844Y680D03*
X844Y580D03*
X844Y480D03*
X844Y380D03*
X844Y280D03*
X844Y180D03*
X844Y80D03*
G54D11*
X944Y1780D03*
X944Y1680D03*
X944Y1580D03*
X944Y1880D03*
G54D12*
X144Y1280D03*
X144Y1180D03*
X144Y1080D03*
X474Y1880D03*
X844Y1880D03*
X474Y1880D03*
X844Y1880D03*
X1244Y310D03*
X1244Y680D03*
X1244Y310D03*
X1244Y680D03*
G54D13*
X1114Y96D03*
X976Y96D03*
G54D12*
X1044Y780D03*
X1044Y380D03*
X44Y280D03*
X44Y680D03*
X1356Y780D03*
X1356Y380D03*
X1344Y1280D03*
X1344Y880D03*
X427Y1862D03*
X144Y1580D03*
G54D14*
X1246Y1179D03*
X1146Y1279D03*
X945Y1279D03*
X645Y1779D03*
X644Y880D03*
X1176Y931D03*
G54D15*
X273Y1812D03*
X273Y1910D03*
G54D16*
X1355Y103D03*
X1255Y103D03*
G54D14*
X978Y681D03*
G54D17*
X244Y1480D03*
G54D18*
X944Y1880D03*
G54D19*
X1114Y96D03*
G54D20*
X273Y1812D03*
G54D21*
X45Y1079D02*
X45Y1579D01*
D02*
X45Y1579D02*
X45Y1680D01*
D02*
X45Y1680D02*
X913Y1680D01*
D02*
X116Y1079D02*
X45Y1079D01*
D02*
X1144Y204D02*
X1146Y779D01*
D02*
X1146Y779D02*
X1073Y779D01*
D02*
X1144Y96D02*
X1144Y204D01*
D02*
X1145Y96D02*
X1144Y96D01*
D02*
X1045Y1379D02*
X1438Y1379D01*
D02*
X1045Y1179D02*
X1045Y1379D01*
D02*
X874Y1180D02*
X1045Y1179D01*
D02*
X1438Y1379D02*
X1438Y780D01*
D02*
X1438Y780D02*
X1385Y780D01*
D02*
X1245Y708D02*
X1246Y1160D01*
D02*
X1316Y1280D02*
X1165Y1279D01*
D02*
X945Y1379D02*
X874Y1379D01*
D02*
X945Y1298D02*
X945Y1379D01*
D02*
X922Y1858D02*
X844Y1780D01*
D02*
X844Y1780D02*
X664Y1779D01*
D02*
X645Y679D02*
X274Y680D01*
D02*
X644Y861D02*
X645Y679D01*
G54D22*
D02*
X644Y931D02*
X644Y894D01*
D02*
X1163Y931D02*
X644Y931D01*
G54D21*
D02*
X454Y1872D02*
X447Y1870D01*
D02*
X1356Y310D02*
X1273Y310D01*
D02*
X1356Y351D02*
X1356Y310D01*
G54D23*
D02*
X1192Y880D02*
X874Y880D01*
D02*
X1192Y578D02*
X1192Y880D01*
D02*
X1487Y578D02*
X1192Y578D01*
D02*
X1355Y236D02*
X1487Y236D01*
D02*
X1355Y133D02*
X1355Y236D01*
D02*
X1487Y236D02*
X1487Y578D01*
D02*
X1171Y841D02*
X956Y841D01*
D02*
X956Y780D02*
X868Y780D01*
D02*
X1442Y537D02*
X1171Y537D01*
D02*
X956Y841D02*
X956Y780D01*
D02*
X1171Y537D02*
X1171Y841D01*
D02*
X1255Y128D02*
X1255Y224D01*
D02*
X1255Y224D02*
X1306Y224D01*
D02*
X1442Y272D02*
X1442Y537D01*
D02*
X1306Y224D02*
X1306Y272D01*
D02*
X1306Y272D02*
X1442Y272D01*
G54D21*
D02*
X978Y331D02*
X978Y662D01*
D02*
X974Y96D02*
X978Y331D01*
D02*
X945Y96D02*
X974Y96D01*
D02*
X45Y278D02*
X215Y279D01*
D02*
X53Y252D02*
X45Y278D01*
G04 End of Copper1*
M02*