G04 MADE WITH FRITZING*
G04 WWW.FRITZING.ORG*
G04 DOUBLE SIDED*
G04 HOLES PLATED*
G04 CONTOUR ON CENTER OF CONTOUR VECTOR*
%ASAXBY*%
%FSLAX23Y23*%
%MOIN*%
%OFA0B0*%
%SFA1.0B1.0*%
%ADD10R,0.001000X0.001000*%
%LNSILK0*%
G90*
G70*
G54D10*
X0Y1969D02*
X1573Y1969D01*
X0Y1968D02*
X1573Y1968D01*
X0Y1967D02*
X1573Y1967D01*
X0Y1966D02*
X1573Y1966D01*
X0Y1965D02*
X1573Y1965D01*
X0Y1964D02*
X1573Y1964D01*
X0Y1963D02*
X1573Y1963D01*
X0Y1962D02*
X1573Y1962D01*
X0Y1961D02*
X7Y1961D01*
X1566Y1961D02*
X1573Y1961D01*
X0Y1960D02*
X7Y1960D01*
X1566Y1960D02*
X1573Y1960D01*
X0Y1959D02*
X7Y1959D01*
X1566Y1959D02*
X1573Y1959D01*
X0Y1958D02*
X7Y1958D01*
X1566Y1958D02*
X1573Y1958D01*
X0Y1957D02*
X7Y1957D01*
X1566Y1957D02*
X1573Y1957D01*
X0Y1956D02*
X7Y1956D01*
X1566Y1956D02*
X1573Y1956D01*
X0Y1955D02*
X7Y1955D01*
X1566Y1955D02*
X1573Y1955D01*
X0Y1954D02*
X7Y1954D01*
X1566Y1954D02*
X1573Y1954D01*
X0Y1953D02*
X7Y1953D01*
X1566Y1953D02*
X1573Y1953D01*
X0Y1952D02*
X7Y1952D01*
X1566Y1952D02*
X1573Y1952D01*
X0Y1951D02*
X7Y1951D01*
X1566Y1951D02*
X1573Y1951D01*
X0Y1950D02*
X7Y1950D01*
X1566Y1950D02*
X1573Y1950D01*
X0Y1949D02*
X7Y1949D01*
X1566Y1949D02*
X1573Y1949D01*
X0Y1948D02*
X7Y1948D01*
X1566Y1948D02*
X1573Y1948D01*
X0Y1947D02*
X7Y1947D01*
X1566Y1947D02*
X1573Y1947D01*
X0Y1946D02*
X7Y1946D01*
X1566Y1946D02*
X1573Y1946D01*
X0Y1945D02*
X7Y1945D01*
X1566Y1945D02*
X1573Y1945D01*
X0Y1944D02*
X7Y1944D01*
X1566Y1944D02*
X1573Y1944D01*
X0Y1943D02*
X7Y1943D01*
X1566Y1943D02*
X1573Y1943D01*
X0Y1942D02*
X7Y1942D01*
X1566Y1942D02*
X1573Y1942D01*
X0Y1941D02*
X7Y1941D01*
X1566Y1941D02*
X1573Y1941D01*
X0Y1940D02*
X7Y1940D01*
X1566Y1940D02*
X1573Y1940D01*
X0Y1939D02*
X7Y1939D01*
X1566Y1939D02*
X1573Y1939D01*
X0Y1938D02*
X7Y1938D01*
X1566Y1938D02*
X1573Y1938D01*
X0Y1937D02*
X7Y1937D01*
X1566Y1937D02*
X1573Y1937D01*
X0Y1936D02*
X7Y1936D01*
X1566Y1936D02*
X1573Y1936D01*
X0Y1935D02*
X7Y1935D01*
X1566Y1935D02*
X1573Y1935D01*
X0Y1934D02*
X7Y1934D01*
X1566Y1934D02*
X1573Y1934D01*
X0Y1933D02*
X7Y1933D01*
X1566Y1933D02*
X1573Y1933D01*
X0Y1932D02*
X7Y1932D01*
X1566Y1932D02*
X1573Y1932D01*
X0Y1931D02*
X7Y1931D01*
X1566Y1931D02*
X1573Y1931D01*
X0Y1930D02*
X7Y1930D01*
X1566Y1930D02*
X1573Y1930D01*
X0Y1929D02*
X7Y1929D01*
X1566Y1929D02*
X1573Y1929D01*
X0Y1928D02*
X7Y1928D01*
X1566Y1928D02*
X1573Y1928D01*
X0Y1927D02*
X7Y1927D01*
X1566Y1927D02*
X1573Y1927D01*
X0Y1926D02*
X7Y1926D01*
X1566Y1926D02*
X1573Y1926D01*
X0Y1925D02*
X7Y1925D01*
X1566Y1925D02*
X1573Y1925D01*
X0Y1924D02*
X7Y1924D01*
X1566Y1924D02*
X1573Y1924D01*
X0Y1923D02*
X7Y1923D01*
X1566Y1923D02*
X1573Y1923D01*
X0Y1922D02*
X7Y1922D01*
X1566Y1922D02*
X1573Y1922D01*
X0Y1921D02*
X7Y1921D01*
X1566Y1921D02*
X1573Y1921D01*
X0Y1920D02*
X7Y1920D01*
X1566Y1920D02*
X1573Y1920D01*
X0Y1919D02*
X7Y1919D01*
X1566Y1919D02*
X1573Y1919D01*
X0Y1918D02*
X7Y1918D01*
X1566Y1918D02*
X1573Y1918D01*
X0Y1917D02*
X7Y1917D01*
X1566Y1917D02*
X1573Y1917D01*
X0Y1916D02*
X7Y1916D01*
X1566Y1916D02*
X1573Y1916D01*
X0Y1915D02*
X7Y1915D01*
X1566Y1915D02*
X1573Y1915D01*
X0Y1914D02*
X7Y1914D01*
X1566Y1914D02*
X1573Y1914D01*
X0Y1913D02*
X7Y1913D01*
X1566Y1913D02*
X1573Y1913D01*
X0Y1912D02*
X7Y1912D01*
X1566Y1912D02*
X1573Y1912D01*
X0Y1911D02*
X7Y1911D01*
X1566Y1911D02*
X1573Y1911D01*
X0Y1910D02*
X7Y1910D01*
X1566Y1910D02*
X1573Y1910D01*
X0Y1909D02*
X7Y1909D01*
X1566Y1909D02*
X1573Y1909D01*
X0Y1908D02*
X7Y1908D01*
X1566Y1908D02*
X1573Y1908D01*
X0Y1907D02*
X7Y1907D01*
X1566Y1907D02*
X1573Y1907D01*
X0Y1906D02*
X7Y1906D01*
X1566Y1906D02*
X1573Y1906D01*
X0Y1905D02*
X7Y1905D01*
X1566Y1905D02*
X1573Y1905D01*
X0Y1904D02*
X7Y1904D01*
X1566Y1904D02*
X1573Y1904D01*
X0Y1903D02*
X7Y1903D01*
X1566Y1903D02*
X1573Y1903D01*
X0Y1902D02*
X7Y1902D01*
X1566Y1902D02*
X1573Y1902D01*
X0Y1901D02*
X7Y1901D01*
X1566Y1901D02*
X1573Y1901D01*
X0Y1900D02*
X7Y1900D01*
X1566Y1900D02*
X1573Y1900D01*
X0Y1899D02*
X7Y1899D01*
X1566Y1899D02*
X1573Y1899D01*
X0Y1898D02*
X7Y1898D01*
X1566Y1898D02*
X1573Y1898D01*
X0Y1897D02*
X7Y1897D01*
X1566Y1897D02*
X1573Y1897D01*
X0Y1896D02*
X7Y1896D01*
X1566Y1896D02*
X1573Y1896D01*
X0Y1895D02*
X7Y1895D01*
X1566Y1895D02*
X1573Y1895D01*
X0Y1894D02*
X7Y1894D01*
X1566Y1894D02*
X1573Y1894D01*
X0Y1893D02*
X7Y1893D01*
X1566Y1893D02*
X1573Y1893D01*
X0Y1892D02*
X7Y1892D01*
X1566Y1892D02*
X1573Y1892D01*
X0Y1891D02*
X7Y1891D01*
X1566Y1891D02*
X1573Y1891D01*
X0Y1890D02*
X7Y1890D01*
X1566Y1890D02*
X1573Y1890D01*
X0Y1889D02*
X7Y1889D01*
X1566Y1889D02*
X1573Y1889D01*
X0Y1888D02*
X7Y1888D01*
X1566Y1888D02*
X1573Y1888D01*
X0Y1887D02*
X7Y1887D01*
X1566Y1887D02*
X1573Y1887D01*
X0Y1886D02*
X7Y1886D01*
X1566Y1886D02*
X1573Y1886D01*
X0Y1885D02*
X7Y1885D01*
X1566Y1885D02*
X1573Y1885D01*
X0Y1884D02*
X7Y1884D01*
X1566Y1884D02*
X1573Y1884D01*
X0Y1883D02*
X7Y1883D01*
X1566Y1883D02*
X1573Y1883D01*
X0Y1882D02*
X7Y1882D01*
X1566Y1882D02*
X1573Y1882D01*
X0Y1881D02*
X7Y1881D01*
X1566Y1881D02*
X1573Y1881D01*
X0Y1880D02*
X7Y1880D01*
X1566Y1880D02*
X1573Y1880D01*
X0Y1879D02*
X7Y1879D01*
X1566Y1879D02*
X1573Y1879D01*
X0Y1878D02*
X7Y1878D01*
X1566Y1878D02*
X1573Y1878D01*
X0Y1877D02*
X7Y1877D01*
X1566Y1877D02*
X1573Y1877D01*
X0Y1876D02*
X7Y1876D01*
X1566Y1876D02*
X1573Y1876D01*
X0Y1875D02*
X7Y1875D01*
X1566Y1875D02*
X1573Y1875D01*
X0Y1874D02*
X7Y1874D01*
X1566Y1874D02*
X1573Y1874D01*
X0Y1873D02*
X7Y1873D01*
X1566Y1873D02*
X1573Y1873D01*
X0Y1872D02*
X7Y1872D01*
X1566Y1872D02*
X1573Y1872D01*
X0Y1871D02*
X7Y1871D01*
X1566Y1871D02*
X1573Y1871D01*
X0Y1870D02*
X7Y1870D01*
X1566Y1870D02*
X1573Y1870D01*
X0Y1869D02*
X7Y1869D01*
X1566Y1869D02*
X1573Y1869D01*
X0Y1868D02*
X7Y1868D01*
X1566Y1868D02*
X1573Y1868D01*
X0Y1867D02*
X7Y1867D01*
X1566Y1867D02*
X1573Y1867D01*
X0Y1866D02*
X7Y1866D01*
X1566Y1866D02*
X1573Y1866D01*
X0Y1865D02*
X7Y1865D01*
X1566Y1865D02*
X1573Y1865D01*
X0Y1864D02*
X7Y1864D01*
X1566Y1864D02*
X1573Y1864D01*
X0Y1863D02*
X7Y1863D01*
X1566Y1863D02*
X1573Y1863D01*
X0Y1862D02*
X7Y1862D01*
X1566Y1862D02*
X1573Y1862D01*
X0Y1861D02*
X7Y1861D01*
X1566Y1861D02*
X1573Y1861D01*
X0Y1860D02*
X7Y1860D01*
X1566Y1860D02*
X1573Y1860D01*
X0Y1859D02*
X7Y1859D01*
X1566Y1859D02*
X1573Y1859D01*
X0Y1858D02*
X7Y1858D01*
X1566Y1858D02*
X1573Y1858D01*
X0Y1857D02*
X7Y1857D01*
X1566Y1857D02*
X1573Y1857D01*
X0Y1856D02*
X7Y1856D01*
X1566Y1856D02*
X1573Y1856D01*
X0Y1855D02*
X7Y1855D01*
X1566Y1855D02*
X1573Y1855D01*
X0Y1854D02*
X7Y1854D01*
X1566Y1854D02*
X1573Y1854D01*
X0Y1853D02*
X7Y1853D01*
X1566Y1853D02*
X1573Y1853D01*
X0Y1852D02*
X7Y1852D01*
X1566Y1852D02*
X1573Y1852D01*
X0Y1851D02*
X7Y1851D01*
X1566Y1851D02*
X1573Y1851D01*
X0Y1850D02*
X7Y1850D01*
X1566Y1850D02*
X1573Y1850D01*
X0Y1849D02*
X7Y1849D01*
X1566Y1849D02*
X1573Y1849D01*
X0Y1848D02*
X7Y1848D01*
X1566Y1848D02*
X1573Y1848D01*
X0Y1847D02*
X7Y1847D01*
X1566Y1847D02*
X1573Y1847D01*
X0Y1846D02*
X7Y1846D01*
X1566Y1846D02*
X1573Y1846D01*
X0Y1845D02*
X7Y1845D01*
X1566Y1845D02*
X1573Y1845D01*
X0Y1844D02*
X7Y1844D01*
X1566Y1844D02*
X1573Y1844D01*
X0Y1843D02*
X7Y1843D01*
X1566Y1843D02*
X1573Y1843D01*
X0Y1842D02*
X7Y1842D01*
X1566Y1842D02*
X1573Y1842D01*
X0Y1841D02*
X7Y1841D01*
X1566Y1841D02*
X1573Y1841D01*
X0Y1840D02*
X7Y1840D01*
X1566Y1840D02*
X1573Y1840D01*
X0Y1839D02*
X7Y1839D01*
X1566Y1839D02*
X1573Y1839D01*
X0Y1838D02*
X7Y1838D01*
X1566Y1838D02*
X1573Y1838D01*
X0Y1837D02*
X7Y1837D01*
X1566Y1837D02*
X1573Y1837D01*
X0Y1836D02*
X7Y1836D01*
X1566Y1836D02*
X1573Y1836D01*
X0Y1835D02*
X7Y1835D01*
X1566Y1835D02*
X1573Y1835D01*
X0Y1834D02*
X7Y1834D01*
X1566Y1834D02*
X1573Y1834D01*
X0Y1833D02*
X7Y1833D01*
X1566Y1833D02*
X1573Y1833D01*
X0Y1832D02*
X7Y1832D01*
X1566Y1832D02*
X1573Y1832D01*
X0Y1831D02*
X7Y1831D01*
X1566Y1831D02*
X1573Y1831D01*
X0Y1830D02*
X7Y1830D01*
X1566Y1830D02*
X1573Y1830D01*
X0Y1829D02*
X7Y1829D01*
X1566Y1829D02*
X1573Y1829D01*
X0Y1828D02*
X7Y1828D01*
X1566Y1828D02*
X1573Y1828D01*
X0Y1827D02*
X7Y1827D01*
X1566Y1827D02*
X1573Y1827D01*
X0Y1826D02*
X7Y1826D01*
X1566Y1826D02*
X1573Y1826D01*
X0Y1825D02*
X7Y1825D01*
X1566Y1825D02*
X1573Y1825D01*
X0Y1824D02*
X7Y1824D01*
X1566Y1824D02*
X1573Y1824D01*
X0Y1823D02*
X7Y1823D01*
X1566Y1823D02*
X1573Y1823D01*
X0Y1822D02*
X7Y1822D01*
X1566Y1822D02*
X1573Y1822D01*
X0Y1821D02*
X7Y1821D01*
X1566Y1821D02*
X1573Y1821D01*
X0Y1820D02*
X7Y1820D01*
X1566Y1820D02*
X1573Y1820D01*
X0Y1819D02*
X7Y1819D01*
X1566Y1819D02*
X1573Y1819D01*
X0Y1818D02*
X7Y1818D01*
X1566Y1818D02*
X1573Y1818D01*
X0Y1817D02*
X7Y1817D01*
X1566Y1817D02*
X1573Y1817D01*
X0Y1816D02*
X7Y1816D01*
X1566Y1816D02*
X1573Y1816D01*
X0Y1815D02*
X7Y1815D01*
X1566Y1815D02*
X1573Y1815D01*
X0Y1814D02*
X7Y1814D01*
X1566Y1814D02*
X1573Y1814D01*
X0Y1813D02*
X7Y1813D01*
X1566Y1813D02*
X1573Y1813D01*
X0Y1812D02*
X7Y1812D01*
X1566Y1812D02*
X1573Y1812D01*
X0Y1811D02*
X7Y1811D01*
X1566Y1811D02*
X1573Y1811D01*
X0Y1810D02*
X7Y1810D01*
X1566Y1810D02*
X1573Y1810D01*
X0Y1809D02*
X7Y1809D01*
X1566Y1809D02*
X1573Y1809D01*
X0Y1808D02*
X7Y1808D01*
X1566Y1808D02*
X1573Y1808D01*
X0Y1807D02*
X7Y1807D01*
X1566Y1807D02*
X1573Y1807D01*
X0Y1806D02*
X7Y1806D01*
X1566Y1806D02*
X1573Y1806D01*
X0Y1805D02*
X7Y1805D01*
X1566Y1805D02*
X1573Y1805D01*
X0Y1804D02*
X7Y1804D01*
X1566Y1804D02*
X1573Y1804D01*
X0Y1803D02*
X7Y1803D01*
X1566Y1803D02*
X1573Y1803D01*
X0Y1802D02*
X7Y1802D01*
X1566Y1802D02*
X1573Y1802D01*
X0Y1801D02*
X7Y1801D01*
X1566Y1801D02*
X1573Y1801D01*
X0Y1800D02*
X7Y1800D01*
X1566Y1800D02*
X1573Y1800D01*
X0Y1799D02*
X7Y1799D01*
X1566Y1799D02*
X1573Y1799D01*
X0Y1798D02*
X7Y1798D01*
X1566Y1798D02*
X1573Y1798D01*
X0Y1797D02*
X7Y1797D01*
X1566Y1797D02*
X1573Y1797D01*
X0Y1796D02*
X7Y1796D01*
X1566Y1796D02*
X1573Y1796D01*
X0Y1795D02*
X7Y1795D01*
X1566Y1795D02*
X1573Y1795D01*
X0Y1794D02*
X7Y1794D01*
X1566Y1794D02*
X1573Y1794D01*
X0Y1793D02*
X7Y1793D01*
X1566Y1793D02*
X1573Y1793D01*
X0Y1792D02*
X7Y1792D01*
X1566Y1792D02*
X1573Y1792D01*
X0Y1791D02*
X7Y1791D01*
X1566Y1791D02*
X1573Y1791D01*
X0Y1790D02*
X7Y1790D01*
X1566Y1790D02*
X1573Y1790D01*
X0Y1789D02*
X7Y1789D01*
X1566Y1789D02*
X1573Y1789D01*
X0Y1788D02*
X7Y1788D01*
X1566Y1788D02*
X1573Y1788D01*
X0Y1787D02*
X7Y1787D01*
X1566Y1787D02*
X1573Y1787D01*
X0Y1786D02*
X7Y1786D01*
X1566Y1786D02*
X1573Y1786D01*
X0Y1785D02*
X7Y1785D01*
X1566Y1785D02*
X1573Y1785D01*
X0Y1784D02*
X7Y1784D01*
X1566Y1784D02*
X1573Y1784D01*
X0Y1783D02*
X7Y1783D01*
X1566Y1783D02*
X1573Y1783D01*
X0Y1782D02*
X7Y1782D01*
X1566Y1782D02*
X1573Y1782D01*
X0Y1781D02*
X7Y1781D01*
X1566Y1781D02*
X1573Y1781D01*
X0Y1780D02*
X7Y1780D01*
X1566Y1780D02*
X1573Y1780D01*
X0Y1779D02*
X7Y1779D01*
X1566Y1779D02*
X1573Y1779D01*
X0Y1778D02*
X7Y1778D01*
X1566Y1778D02*
X1573Y1778D01*
X0Y1777D02*
X7Y1777D01*
X1566Y1777D02*
X1573Y1777D01*
X0Y1776D02*
X7Y1776D01*
X1566Y1776D02*
X1573Y1776D01*
X0Y1775D02*
X7Y1775D01*
X1566Y1775D02*
X1573Y1775D01*
X0Y1774D02*
X7Y1774D01*
X1566Y1774D02*
X1573Y1774D01*
X0Y1773D02*
X7Y1773D01*
X1566Y1773D02*
X1573Y1773D01*
X0Y1772D02*
X7Y1772D01*
X1566Y1772D02*
X1573Y1772D01*
X0Y1771D02*
X7Y1771D01*
X1566Y1771D02*
X1573Y1771D01*
X0Y1770D02*
X7Y1770D01*
X1566Y1770D02*
X1573Y1770D01*
X0Y1769D02*
X7Y1769D01*
X1566Y1769D02*
X1573Y1769D01*
X0Y1768D02*
X7Y1768D01*
X1566Y1768D02*
X1573Y1768D01*
X0Y1767D02*
X7Y1767D01*
X1566Y1767D02*
X1573Y1767D01*
X0Y1766D02*
X7Y1766D01*
X1566Y1766D02*
X1573Y1766D01*
X0Y1765D02*
X7Y1765D01*
X1566Y1765D02*
X1573Y1765D01*
X0Y1764D02*
X7Y1764D01*
X1566Y1764D02*
X1573Y1764D01*
X0Y1763D02*
X7Y1763D01*
X1566Y1763D02*
X1573Y1763D01*
X0Y1762D02*
X7Y1762D01*
X1566Y1762D02*
X1573Y1762D01*
X0Y1761D02*
X7Y1761D01*
X1566Y1761D02*
X1573Y1761D01*
X0Y1760D02*
X7Y1760D01*
X1566Y1760D02*
X1573Y1760D01*
X0Y1759D02*
X7Y1759D01*
X1566Y1759D02*
X1573Y1759D01*
X0Y1758D02*
X7Y1758D01*
X1566Y1758D02*
X1573Y1758D01*
X0Y1757D02*
X7Y1757D01*
X1566Y1757D02*
X1573Y1757D01*
X0Y1756D02*
X7Y1756D01*
X1566Y1756D02*
X1573Y1756D01*
X0Y1755D02*
X7Y1755D01*
X1566Y1755D02*
X1573Y1755D01*
X0Y1754D02*
X7Y1754D01*
X1566Y1754D02*
X1573Y1754D01*
X0Y1753D02*
X7Y1753D01*
X1566Y1753D02*
X1573Y1753D01*
X0Y1752D02*
X7Y1752D01*
X1566Y1752D02*
X1573Y1752D01*
X0Y1751D02*
X7Y1751D01*
X1566Y1751D02*
X1573Y1751D01*
X0Y1750D02*
X7Y1750D01*
X1566Y1750D02*
X1573Y1750D01*
X0Y1749D02*
X7Y1749D01*
X1566Y1749D02*
X1573Y1749D01*
X0Y1748D02*
X7Y1748D01*
X1566Y1748D02*
X1573Y1748D01*
X0Y1747D02*
X7Y1747D01*
X1566Y1747D02*
X1573Y1747D01*
X0Y1746D02*
X7Y1746D01*
X1566Y1746D02*
X1573Y1746D01*
X0Y1745D02*
X7Y1745D01*
X1566Y1745D02*
X1573Y1745D01*
X0Y1744D02*
X7Y1744D01*
X1566Y1744D02*
X1573Y1744D01*
X0Y1743D02*
X7Y1743D01*
X1566Y1743D02*
X1573Y1743D01*
X0Y1742D02*
X7Y1742D01*
X1566Y1742D02*
X1573Y1742D01*
X0Y1741D02*
X7Y1741D01*
X1566Y1741D02*
X1573Y1741D01*
X0Y1740D02*
X7Y1740D01*
X1566Y1740D02*
X1573Y1740D01*
X0Y1739D02*
X7Y1739D01*
X1566Y1739D02*
X1573Y1739D01*
X0Y1738D02*
X7Y1738D01*
X1566Y1738D02*
X1573Y1738D01*
X0Y1737D02*
X7Y1737D01*
X1566Y1737D02*
X1573Y1737D01*
X0Y1736D02*
X7Y1736D01*
X1566Y1736D02*
X1573Y1736D01*
X0Y1735D02*
X7Y1735D01*
X1566Y1735D02*
X1573Y1735D01*
X0Y1734D02*
X7Y1734D01*
X1566Y1734D02*
X1573Y1734D01*
X0Y1733D02*
X7Y1733D01*
X1566Y1733D02*
X1573Y1733D01*
X0Y1732D02*
X7Y1732D01*
X1566Y1732D02*
X1573Y1732D01*
X0Y1731D02*
X7Y1731D01*
X1566Y1731D02*
X1573Y1731D01*
X0Y1730D02*
X7Y1730D01*
X1566Y1730D02*
X1573Y1730D01*
X0Y1729D02*
X7Y1729D01*
X1566Y1729D02*
X1573Y1729D01*
X0Y1728D02*
X7Y1728D01*
X1566Y1728D02*
X1573Y1728D01*
X0Y1727D02*
X7Y1727D01*
X1566Y1727D02*
X1573Y1727D01*
X0Y1726D02*
X7Y1726D01*
X1566Y1726D02*
X1573Y1726D01*
X0Y1725D02*
X7Y1725D01*
X1566Y1725D02*
X1573Y1725D01*
X0Y1724D02*
X7Y1724D01*
X1566Y1724D02*
X1573Y1724D01*
X0Y1723D02*
X7Y1723D01*
X1566Y1723D02*
X1573Y1723D01*
X0Y1722D02*
X7Y1722D01*
X1566Y1722D02*
X1573Y1722D01*
X0Y1721D02*
X7Y1721D01*
X1566Y1721D02*
X1573Y1721D01*
X0Y1720D02*
X7Y1720D01*
X1566Y1720D02*
X1573Y1720D01*
X0Y1719D02*
X7Y1719D01*
X1566Y1719D02*
X1573Y1719D01*
X0Y1718D02*
X7Y1718D01*
X1566Y1718D02*
X1573Y1718D01*
X0Y1717D02*
X7Y1717D01*
X1566Y1717D02*
X1573Y1717D01*
X0Y1716D02*
X7Y1716D01*
X1566Y1716D02*
X1573Y1716D01*
X0Y1715D02*
X7Y1715D01*
X1566Y1715D02*
X1573Y1715D01*
X0Y1714D02*
X7Y1714D01*
X1566Y1714D02*
X1573Y1714D01*
X0Y1713D02*
X7Y1713D01*
X1566Y1713D02*
X1573Y1713D01*
X0Y1712D02*
X7Y1712D01*
X1566Y1712D02*
X1573Y1712D01*
X0Y1711D02*
X7Y1711D01*
X1566Y1711D02*
X1573Y1711D01*
X0Y1710D02*
X7Y1710D01*
X1566Y1710D02*
X1573Y1710D01*
X0Y1709D02*
X7Y1709D01*
X1566Y1709D02*
X1573Y1709D01*
X0Y1708D02*
X7Y1708D01*
X1566Y1708D02*
X1573Y1708D01*
X0Y1707D02*
X7Y1707D01*
X1566Y1707D02*
X1573Y1707D01*
X0Y1706D02*
X7Y1706D01*
X1566Y1706D02*
X1573Y1706D01*
X0Y1705D02*
X7Y1705D01*
X1566Y1705D02*
X1573Y1705D01*
X0Y1704D02*
X7Y1704D01*
X1566Y1704D02*
X1573Y1704D01*
X0Y1703D02*
X7Y1703D01*
X1566Y1703D02*
X1573Y1703D01*
X0Y1702D02*
X7Y1702D01*
X1566Y1702D02*
X1573Y1702D01*
X0Y1701D02*
X7Y1701D01*
X1566Y1701D02*
X1573Y1701D01*
X0Y1700D02*
X7Y1700D01*
X1566Y1700D02*
X1573Y1700D01*
X0Y1699D02*
X7Y1699D01*
X1566Y1699D02*
X1573Y1699D01*
X0Y1698D02*
X7Y1698D01*
X1566Y1698D02*
X1573Y1698D01*
X0Y1697D02*
X7Y1697D01*
X1566Y1697D02*
X1573Y1697D01*
X0Y1696D02*
X7Y1696D01*
X1566Y1696D02*
X1573Y1696D01*
X0Y1695D02*
X7Y1695D01*
X1566Y1695D02*
X1573Y1695D01*
X0Y1694D02*
X7Y1694D01*
X1566Y1694D02*
X1573Y1694D01*
X0Y1693D02*
X7Y1693D01*
X1566Y1693D02*
X1573Y1693D01*
X0Y1692D02*
X7Y1692D01*
X1566Y1692D02*
X1573Y1692D01*
X0Y1691D02*
X7Y1691D01*
X1566Y1691D02*
X1573Y1691D01*
X0Y1690D02*
X7Y1690D01*
X1566Y1690D02*
X1573Y1690D01*
X0Y1689D02*
X7Y1689D01*
X1566Y1689D02*
X1573Y1689D01*
X0Y1688D02*
X7Y1688D01*
X1566Y1688D02*
X1573Y1688D01*
X0Y1687D02*
X7Y1687D01*
X1566Y1687D02*
X1573Y1687D01*
X0Y1686D02*
X7Y1686D01*
X1566Y1686D02*
X1573Y1686D01*
X0Y1685D02*
X7Y1685D01*
X1566Y1685D02*
X1573Y1685D01*
X0Y1684D02*
X7Y1684D01*
X1566Y1684D02*
X1573Y1684D01*
X0Y1683D02*
X7Y1683D01*
X1566Y1683D02*
X1573Y1683D01*
X0Y1682D02*
X7Y1682D01*
X1566Y1682D02*
X1573Y1682D01*
X0Y1681D02*
X7Y1681D01*
X1566Y1681D02*
X1573Y1681D01*
X0Y1680D02*
X7Y1680D01*
X1566Y1680D02*
X1573Y1680D01*
X0Y1679D02*
X7Y1679D01*
X1566Y1679D02*
X1573Y1679D01*
X0Y1678D02*
X7Y1678D01*
X1566Y1678D02*
X1573Y1678D01*
X0Y1677D02*
X7Y1677D01*
X1566Y1677D02*
X1573Y1677D01*
X0Y1676D02*
X7Y1676D01*
X1566Y1676D02*
X1573Y1676D01*
X0Y1675D02*
X7Y1675D01*
X1566Y1675D02*
X1573Y1675D01*
X0Y1674D02*
X7Y1674D01*
X1566Y1674D02*
X1573Y1674D01*
X0Y1673D02*
X7Y1673D01*
X1566Y1673D02*
X1573Y1673D01*
X0Y1672D02*
X7Y1672D01*
X1566Y1672D02*
X1573Y1672D01*
X0Y1671D02*
X7Y1671D01*
X1566Y1671D02*
X1573Y1671D01*
X0Y1670D02*
X7Y1670D01*
X1566Y1670D02*
X1573Y1670D01*
X0Y1669D02*
X7Y1669D01*
X1566Y1669D02*
X1573Y1669D01*
X0Y1668D02*
X7Y1668D01*
X1566Y1668D02*
X1573Y1668D01*
X0Y1667D02*
X7Y1667D01*
X1566Y1667D02*
X1573Y1667D01*
X0Y1666D02*
X7Y1666D01*
X1566Y1666D02*
X1573Y1666D01*
X0Y1665D02*
X7Y1665D01*
X1566Y1665D02*
X1573Y1665D01*
X0Y1664D02*
X7Y1664D01*
X1566Y1664D02*
X1573Y1664D01*
X0Y1663D02*
X7Y1663D01*
X1566Y1663D02*
X1573Y1663D01*
X0Y1662D02*
X7Y1662D01*
X1566Y1662D02*
X1573Y1662D01*
X0Y1661D02*
X7Y1661D01*
X1566Y1661D02*
X1573Y1661D01*
X0Y1660D02*
X7Y1660D01*
X1566Y1660D02*
X1573Y1660D01*
X0Y1659D02*
X7Y1659D01*
X1566Y1659D02*
X1573Y1659D01*
X0Y1658D02*
X7Y1658D01*
X1566Y1658D02*
X1573Y1658D01*
X0Y1657D02*
X7Y1657D01*
X1566Y1657D02*
X1573Y1657D01*
X0Y1656D02*
X7Y1656D01*
X1566Y1656D02*
X1573Y1656D01*
X0Y1655D02*
X7Y1655D01*
X1566Y1655D02*
X1573Y1655D01*
X0Y1654D02*
X7Y1654D01*
X1566Y1654D02*
X1573Y1654D01*
X0Y1653D02*
X7Y1653D01*
X1566Y1653D02*
X1573Y1653D01*
X0Y1652D02*
X7Y1652D01*
X1566Y1652D02*
X1573Y1652D01*
X0Y1651D02*
X7Y1651D01*
X1566Y1651D02*
X1573Y1651D01*
X0Y1650D02*
X7Y1650D01*
X1566Y1650D02*
X1573Y1650D01*
X0Y1649D02*
X7Y1649D01*
X1566Y1649D02*
X1573Y1649D01*
X0Y1648D02*
X7Y1648D01*
X1566Y1648D02*
X1573Y1648D01*
X0Y1647D02*
X7Y1647D01*
X1566Y1647D02*
X1573Y1647D01*
X0Y1646D02*
X7Y1646D01*
X1566Y1646D02*
X1573Y1646D01*
X0Y1645D02*
X7Y1645D01*
X1566Y1645D02*
X1573Y1645D01*
X0Y1644D02*
X7Y1644D01*
X1566Y1644D02*
X1573Y1644D01*
X0Y1643D02*
X7Y1643D01*
X1566Y1643D02*
X1573Y1643D01*
X0Y1642D02*
X7Y1642D01*
X1566Y1642D02*
X1573Y1642D01*
X0Y1641D02*
X7Y1641D01*
X1566Y1641D02*
X1573Y1641D01*
X0Y1640D02*
X7Y1640D01*
X1566Y1640D02*
X1573Y1640D01*
X0Y1639D02*
X7Y1639D01*
X1566Y1639D02*
X1573Y1639D01*
X0Y1638D02*
X7Y1638D01*
X1566Y1638D02*
X1573Y1638D01*
X0Y1637D02*
X7Y1637D01*
X1566Y1637D02*
X1573Y1637D01*
X0Y1636D02*
X7Y1636D01*
X1566Y1636D02*
X1573Y1636D01*
X0Y1635D02*
X7Y1635D01*
X1566Y1635D02*
X1573Y1635D01*
X0Y1634D02*
X7Y1634D01*
X1566Y1634D02*
X1573Y1634D01*
X0Y1633D02*
X7Y1633D01*
X1566Y1633D02*
X1573Y1633D01*
X0Y1632D02*
X7Y1632D01*
X1566Y1632D02*
X1573Y1632D01*
X0Y1631D02*
X7Y1631D01*
X1566Y1631D02*
X1573Y1631D01*
X0Y1630D02*
X7Y1630D01*
X1566Y1630D02*
X1573Y1630D01*
X0Y1629D02*
X7Y1629D01*
X1566Y1629D02*
X1573Y1629D01*
X0Y1628D02*
X7Y1628D01*
X1566Y1628D02*
X1573Y1628D01*
X0Y1627D02*
X7Y1627D01*
X1566Y1627D02*
X1573Y1627D01*
X0Y1626D02*
X7Y1626D01*
X1566Y1626D02*
X1573Y1626D01*
X0Y1625D02*
X7Y1625D01*
X1566Y1625D02*
X1573Y1625D01*
X0Y1624D02*
X7Y1624D01*
X1566Y1624D02*
X1573Y1624D01*
X0Y1623D02*
X7Y1623D01*
X1566Y1623D02*
X1573Y1623D01*
X0Y1622D02*
X7Y1622D01*
X1566Y1622D02*
X1573Y1622D01*
X0Y1621D02*
X7Y1621D01*
X1566Y1621D02*
X1573Y1621D01*
X0Y1620D02*
X7Y1620D01*
X1566Y1620D02*
X1573Y1620D01*
X0Y1619D02*
X7Y1619D01*
X1566Y1619D02*
X1573Y1619D01*
X0Y1618D02*
X7Y1618D01*
X1566Y1618D02*
X1573Y1618D01*
X0Y1617D02*
X7Y1617D01*
X1566Y1617D02*
X1573Y1617D01*
X0Y1616D02*
X7Y1616D01*
X1566Y1616D02*
X1573Y1616D01*
X0Y1615D02*
X7Y1615D01*
X1566Y1615D02*
X1573Y1615D01*
X0Y1614D02*
X7Y1614D01*
X1566Y1614D02*
X1573Y1614D01*
X0Y1613D02*
X7Y1613D01*
X1566Y1613D02*
X1573Y1613D01*
X0Y1612D02*
X7Y1612D01*
X1566Y1612D02*
X1573Y1612D01*
X0Y1611D02*
X7Y1611D01*
X1566Y1611D02*
X1573Y1611D01*
X0Y1610D02*
X7Y1610D01*
X1566Y1610D02*
X1573Y1610D01*
X0Y1609D02*
X7Y1609D01*
X1566Y1609D02*
X1573Y1609D01*
X0Y1608D02*
X7Y1608D01*
X1566Y1608D02*
X1573Y1608D01*
X0Y1607D02*
X7Y1607D01*
X1566Y1607D02*
X1573Y1607D01*
X0Y1606D02*
X7Y1606D01*
X1566Y1606D02*
X1573Y1606D01*
X0Y1605D02*
X7Y1605D01*
X1566Y1605D02*
X1573Y1605D01*
X0Y1604D02*
X7Y1604D01*
X1566Y1604D02*
X1573Y1604D01*
X0Y1603D02*
X7Y1603D01*
X1566Y1603D02*
X1573Y1603D01*
X0Y1602D02*
X7Y1602D01*
X1566Y1602D02*
X1573Y1602D01*
X0Y1601D02*
X7Y1601D01*
X1566Y1601D02*
X1573Y1601D01*
X0Y1600D02*
X7Y1600D01*
X1566Y1600D02*
X1573Y1600D01*
X0Y1599D02*
X7Y1599D01*
X1566Y1599D02*
X1573Y1599D01*
X0Y1598D02*
X7Y1598D01*
X1566Y1598D02*
X1573Y1598D01*
X0Y1597D02*
X7Y1597D01*
X1566Y1597D02*
X1573Y1597D01*
X0Y1596D02*
X7Y1596D01*
X1566Y1596D02*
X1573Y1596D01*
X0Y1595D02*
X7Y1595D01*
X1566Y1595D02*
X1573Y1595D01*
X0Y1594D02*
X7Y1594D01*
X1566Y1594D02*
X1573Y1594D01*
X0Y1593D02*
X7Y1593D01*
X1566Y1593D02*
X1573Y1593D01*
X0Y1592D02*
X7Y1592D01*
X1566Y1592D02*
X1573Y1592D01*
X0Y1591D02*
X7Y1591D01*
X1566Y1591D02*
X1573Y1591D01*
X0Y1590D02*
X7Y1590D01*
X1566Y1590D02*
X1573Y1590D01*
X0Y1589D02*
X7Y1589D01*
X1566Y1589D02*
X1573Y1589D01*
X0Y1588D02*
X7Y1588D01*
X1566Y1588D02*
X1573Y1588D01*
X0Y1587D02*
X7Y1587D01*
X1566Y1587D02*
X1573Y1587D01*
X0Y1586D02*
X7Y1586D01*
X1566Y1586D02*
X1573Y1586D01*
X0Y1585D02*
X7Y1585D01*
X1566Y1585D02*
X1573Y1585D01*
X0Y1584D02*
X7Y1584D01*
X1566Y1584D02*
X1573Y1584D01*
X0Y1583D02*
X7Y1583D01*
X1566Y1583D02*
X1573Y1583D01*
X0Y1582D02*
X7Y1582D01*
X1566Y1582D02*
X1573Y1582D01*
X0Y1581D02*
X7Y1581D01*
X1566Y1581D02*
X1573Y1581D01*
X0Y1580D02*
X7Y1580D01*
X1566Y1580D02*
X1573Y1580D01*
X0Y1579D02*
X7Y1579D01*
X1566Y1579D02*
X1573Y1579D01*
X0Y1578D02*
X7Y1578D01*
X1566Y1578D02*
X1573Y1578D01*
X0Y1577D02*
X7Y1577D01*
X1566Y1577D02*
X1573Y1577D01*
X0Y1576D02*
X7Y1576D01*
X1566Y1576D02*
X1573Y1576D01*
X0Y1575D02*
X7Y1575D01*
X1566Y1575D02*
X1573Y1575D01*
X0Y1574D02*
X7Y1574D01*
X1566Y1574D02*
X1573Y1574D01*
X0Y1573D02*
X7Y1573D01*
X1566Y1573D02*
X1573Y1573D01*
X0Y1572D02*
X7Y1572D01*
X1566Y1572D02*
X1573Y1572D01*
X0Y1571D02*
X7Y1571D01*
X1566Y1571D02*
X1573Y1571D01*
X0Y1570D02*
X7Y1570D01*
X1566Y1570D02*
X1573Y1570D01*
X0Y1569D02*
X7Y1569D01*
X1566Y1569D02*
X1573Y1569D01*
X0Y1568D02*
X7Y1568D01*
X1566Y1568D02*
X1573Y1568D01*
X0Y1567D02*
X7Y1567D01*
X1566Y1567D02*
X1573Y1567D01*
X0Y1566D02*
X7Y1566D01*
X1566Y1566D02*
X1573Y1566D01*
X0Y1565D02*
X7Y1565D01*
X1566Y1565D02*
X1573Y1565D01*
X0Y1564D02*
X7Y1564D01*
X1566Y1564D02*
X1573Y1564D01*
X0Y1563D02*
X7Y1563D01*
X1566Y1563D02*
X1573Y1563D01*
X0Y1562D02*
X7Y1562D01*
X1566Y1562D02*
X1573Y1562D01*
X0Y1561D02*
X7Y1561D01*
X1566Y1561D02*
X1573Y1561D01*
X0Y1560D02*
X7Y1560D01*
X1566Y1560D02*
X1573Y1560D01*
X0Y1559D02*
X7Y1559D01*
X1566Y1559D02*
X1573Y1559D01*
X0Y1558D02*
X7Y1558D01*
X1566Y1558D02*
X1573Y1558D01*
X0Y1557D02*
X7Y1557D01*
X1566Y1557D02*
X1573Y1557D01*
X0Y1556D02*
X7Y1556D01*
X1566Y1556D02*
X1573Y1556D01*
X0Y1555D02*
X7Y1555D01*
X1566Y1555D02*
X1573Y1555D01*
X0Y1554D02*
X7Y1554D01*
X1566Y1554D02*
X1573Y1554D01*
X0Y1553D02*
X7Y1553D01*
X1566Y1553D02*
X1573Y1553D01*
X0Y1552D02*
X7Y1552D01*
X1566Y1552D02*
X1573Y1552D01*
X0Y1551D02*
X7Y1551D01*
X1566Y1551D02*
X1573Y1551D01*
X0Y1550D02*
X7Y1550D01*
X1566Y1550D02*
X1573Y1550D01*
X0Y1549D02*
X7Y1549D01*
X1566Y1549D02*
X1573Y1549D01*
X0Y1548D02*
X7Y1548D01*
X1566Y1548D02*
X1573Y1548D01*
X0Y1547D02*
X7Y1547D01*
X1566Y1547D02*
X1573Y1547D01*
X0Y1546D02*
X7Y1546D01*
X1566Y1546D02*
X1573Y1546D01*
X0Y1545D02*
X7Y1545D01*
X1566Y1545D02*
X1573Y1545D01*
X0Y1544D02*
X7Y1544D01*
X1566Y1544D02*
X1573Y1544D01*
X0Y1543D02*
X7Y1543D01*
X1566Y1543D02*
X1573Y1543D01*
X0Y1542D02*
X7Y1542D01*
X1566Y1542D02*
X1573Y1542D01*
X0Y1541D02*
X7Y1541D01*
X1566Y1541D02*
X1573Y1541D01*
X0Y1540D02*
X7Y1540D01*
X1566Y1540D02*
X1573Y1540D01*
X0Y1539D02*
X7Y1539D01*
X1566Y1539D02*
X1573Y1539D01*
X0Y1538D02*
X7Y1538D01*
X1566Y1538D02*
X1573Y1538D01*
X0Y1537D02*
X7Y1537D01*
X1566Y1537D02*
X1573Y1537D01*
X0Y1536D02*
X7Y1536D01*
X1566Y1536D02*
X1573Y1536D01*
X0Y1535D02*
X7Y1535D01*
X1566Y1535D02*
X1573Y1535D01*
X0Y1534D02*
X7Y1534D01*
X1566Y1534D02*
X1573Y1534D01*
X0Y1533D02*
X7Y1533D01*
X1566Y1533D02*
X1573Y1533D01*
X0Y1532D02*
X7Y1532D01*
X1566Y1532D02*
X1573Y1532D01*
X0Y1531D02*
X7Y1531D01*
X1566Y1531D02*
X1573Y1531D01*
X0Y1530D02*
X7Y1530D01*
X1566Y1530D02*
X1573Y1530D01*
X0Y1529D02*
X7Y1529D01*
X1566Y1529D02*
X1573Y1529D01*
X0Y1528D02*
X7Y1528D01*
X1566Y1528D02*
X1573Y1528D01*
X0Y1527D02*
X7Y1527D01*
X1566Y1527D02*
X1573Y1527D01*
X0Y1526D02*
X7Y1526D01*
X1566Y1526D02*
X1573Y1526D01*
X0Y1525D02*
X7Y1525D01*
X1566Y1525D02*
X1573Y1525D01*
X0Y1524D02*
X7Y1524D01*
X1566Y1524D02*
X1573Y1524D01*
X0Y1523D02*
X7Y1523D01*
X1566Y1523D02*
X1573Y1523D01*
X0Y1522D02*
X7Y1522D01*
X1566Y1522D02*
X1573Y1522D01*
X0Y1521D02*
X7Y1521D01*
X1566Y1521D02*
X1573Y1521D01*
X0Y1520D02*
X7Y1520D01*
X1566Y1520D02*
X1573Y1520D01*
X0Y1519D02*
X7Y1519D01*
X1566Y1519D02*
X1573Y1519D01*
X0Y1518D02*
X7Y1518D01*
X1566Y1518D02*
X1573Y1518D01*
X0Y1517D02*
X7Y1517D01*
X1566Y1517D02*
X1573Y1517D01*
X0Y1516D02*
X7Y1516D01*
X1566Y1516D02*
X1573Y1516D01*
X0Y1515D02*
X7Y1515D01*
X1566Y1515D02*
X1573Y1515D01*
X0Y1514D02*
X7Y1514D01*
X1566Y1514D02*
X1573Y1514D01*
X0Y1513D02*
X7Y1513D01*
X1566Y1513D02*
X1573Y1513D01*
X0Y1512D02*
X7Y1512D01*
X1566Y1512D02*
X1573Y1512D01*
X0Y1511D02*
X7Y1511D01*
X1566Y1511D02*
X1573Y1511D01*
X0Y1510D02*
X7Y1510D01*
X1566Y1510D02*
X1573Y1510D01*
X0Y1509D02*
X7Y1509D01*
X1566Y1509D02*
X1573Y1509D01*
X0Y1508D02*
X7Y1508D01*
X1566Y1508D02*
X1573Y1508D01*
X0Y1507D02*
X7Y1507D01*
X1566Y1507D02*
X1573Y1507D01*
X0Y1506D02*
X7Y1506D01*
X1566Y1506D02*
X1573Y1506D01*
X0Y1505D02*
X7Y1505D01*
X1566Y1505D02*
X1573Y1505D01*
X0Y1504D02*
X7Y1504D01*
X1566Y1504D02*
X1573Y1504D01*
X0Y1503D02*
X7Y1503D01*
X1566Y1503D02*
X1573Y1503D01*
X0Y1502D02*
X7Y1502D01*
X1566Y1502D02*
X1573Y1502D01*
X0Y1501D02*
X7Y1501D01*
X1566Y1501D02*
X1573Y1501D01*
X0Y1500D02*
X7Y1500D01*
X1566Y1500D02*
X1573Y1500D01*
X0Y1499D02*
X7Y1499D01*
X1566Y1499D02*
X1573Y1499D01*
X0Y1498D02*
X7Y1498D01*
X1566Y1498D02*
X1573Y1498D01*
X0Y1497D02*
X7Y1497D01*
X1566Y1497D02*
X1573Y1497D01*
X0Y1496D02*
X7Y1496D01*
X1566Y1496D02*
X1573Y1496D01*
X0Y1495D02*
X7Y1495D01*
X1566Y1495D02*
X1573Y1495D01*
X0Y1494D02*
X7Y1494D01*
X1566Y1494D02*
X1573Y1494D01*
X0Y1493D02*
X7Y1493D01*
X1566Y1493D02*
X1573Y1493D01*
X0Y1492D02*
X7Y1492D01*
X1566Y1492D02*
X1573Y1492D01*
X0Y1491D02*
X7Y1491D01*
X1566Y1491D02*
X1573Y1491D01*
X0Y1490D02*
X7Y1490D01*
X1566Y1490D02*
X1573Y1490D01*
X0Y1489D02*
X7Y1489D01*
X1566Y1489D02*
X1573Y1489D01*
X0Y1488D02*
X7Y1488D01*
X1566Y1488D02*
X1573Y1488D01*
X0Y1487D02*
X7Y1487D01*
X1566Y1487D02*
X1573Y1487D01*
X0Y1486D02*
X7Y1486D01*
X1566Y1486D02*
X1573Y1486D01*
X0Y1485D02*
X7Y1485D01*
X1566Y1485D02*
X1573Y1485D01*
X0Y1484D02*
X7Y1484D01*
X1566Y1484D02*
X1573Y1484D01*
X0Y1483D02*
X7Y1483D01*
X1566Y1483D02*
X1573Y1483D01*
X0Y1482D02*
X7Y1482D01*
X1566Y1482D02*
X1573Y1482D01*
X0Y1481D02*
X7Y1481D01*
X1566Y1481D02*
X1573Y1481D01*
X0Y1480D02*
X7Y1480D01*
X1566Y1480D02*
X1573Y1480D01*
X0Y1479D02*
X7Y1479D01*
X1566Y1479D02*
X1573Y1479D01*
X0Y1478D02*
X7Y1478D01*
X1566Y1478D02*
X1573Y1478D01*
X0Y1477D02*
X7Y1477D01*
X1566Y1477D02*
X1573Y1477D01*
X0Y1476D02*
X7Y1476D01*
X1566Y1476D02*
X1573Y1476D01*
X0Y1475D02*
X7Y1475D01*
X1566Y1475D02*
X1573Y1475D01*
X0Y1474D02*
X7Y1474D01*
X1566Y1474D02*
X1573Y1474D01*
X0Y1473D02*
X7Y1473D01*
X1566Y1473D02*
X1573Y1473D01*
X0Y1472D02*
X7Y1472D01*
X1566Y1472D02*
X1573Y1472D01*
X0Y1471D02*
X7Y1471D01*
X1566Y1471D02*
X1573Y1471D01*
X0Y1470D02*
X7Y1470D01*
X1566Y1470D02*
X1573Y1470D01*
X0Y1469D02*
X7Y1469D01*
X1566Y1469D02*
X1573Y1469D01*
X0Y1468D02*
X7Y1468D01*
X1566Y1468D02*
X1573Y1468D01*
X0Y1467D02*
X7Y1467D01*
X1566Y1467D02*
X1573Y1467D01*
X0Y1466D02*
X7Y1466D01*
X1566Y1466D02*
X1573Y1466D01*
X0Y1465D02*
X7Y1465D01*
X1566Y1465D02*
X1573Y1465D01*
X0Y1464D02*
X7Y1464D01*
X1566Y1464D02*
X1573Y1464D01*
X0Y1463D02*
X7Y1463D01*
X1566Y1463D02*
X1573Y1463D01*
X0Y1462D02*
X7Y1462D01*
X1566Y1462D02*
X1573Y1462D01*
X0Y1461D02*
X7Y1461D01*
X1566Y1461D02*
X1573Y1461D01*
X0Y1460D02*
X7Y1460D01*
X1566Y1460D02*
X1573Y1460D01*
X0Y1459D02*
X7Y1459D01*
X1566Y1459D02*
X1573Y1459D01*
X0Y1458D02*
X7Y1458D01*
X1566Y1458D02*
X1573Y1458D01*
X0Y1457D02*
X7Y1457D01*
X1566Y1457D02*
X1573Y1457D01*
X0Y1456D02*
X7Y1456D01*
X1566Y1456D02*
X1573Y1456D01*
X0Y1455D02*
X7Y1455D01*
X1566Y1455D02*
X1573Y1455D01*
X0Y1454D02*
X7Y1454D01*
X1566Y1454D02*
X1573Y1454D01*
X0Y1453D02*
X7Y1453D01*
X1566Y1453D02*
X1573Y1453D01*
X0Y1452D02*
X7Y1452D01*
X1566Y1452D02*
X1573Y1452D01*
X0Y1451D02*
X7Y1451D01*
X1566Y1451D02*
X1573Y1451D01*
X0Y1450D02*
X7Y1450D01*
X1566Y1450D02*
X1573Y1450D01*
X0Y1449D02*
X7Y1449D01*
X1566Y1449D02*
X1573Y1449D01*
X0Y1448D02*
X7Y1448D01*
X1566Y1448D02*
X1573Y1448D01*
X0Y1447D02*
X7Y1447D01*
X1566Y1447D02*
X1573Y1447D01*
X0Y1446D02*
X7Y1446D01*
X1566Y1446D02*
X1573Y1446D01*
X0Y1445D02*
X7Y1445D01*
X1566Y1445D02*
X1573Y1445D01*
X0Y1444D02*
X7Y1444D01*
X1566Y1444D02*
X1573Y1444D01*
X0Y1443D02*
X7Y1443D01*
X1566Y1443D02*
X1573Y1443D01*
X0Y1442D02*
X7Y1442D01*
X1566Y1442D02*
X1573Y1442D01*
X0Y1441D02*
X7Y1441D01*
X1566Y1441D02*
X1573Y1441D01*
X0Y1440D02*
X7Y1440D01*
X1566Y1440D02*
X1573Y1440D01*
X0Y1439D02*
X7Y1439D01*
X1566Y1439D02*
X1573Y1439D01*
X0Y1438D02*
X7Y1438D01*
X1566Y1438D02*
X1573Y1438D01*
X0Y1437D02*
X7Y1437D01*
X1566Y1437D02*
X1573Y1437D01*
X0Y1436D02*
X7Y1436D01*
X1566Y1436D02*
X1573Y1436D01*
X0Y1435D02*
X7Y1435D01*
X1566Y1435D02*
X1573Y1435D01*
X0Y1434D02*
X7Y1434D01*
X1566Y1434D02*
X1573Y1434D01*
X0Y1433D02*
X7Y1433D01*
X1566Y1433D02*
X1573Y1433D01*
X0Y1432D02*
X7Y1432D01*
X1566Y1432D02*
X1573Y1432D01*
X0Y1431D02*
X7Y1431D01*
X1566Y1431D02*
X1573Y1431D01*
X0Y1430D02*
X7Y1430D01*
X1566Y1430D02*
X1573Y1430D01*
X0Y1429D02*
X7Y1429D01*
X1566Y1429D02*
X1573Y1429D01*
X0Y1428D02*
X7Y1428D01*
X1566Y1428D02*
X1573Y1428D01*
X0Y1427D02*
X7Y1427D01*
X1566Y1427D02*
X1573Y1427D01*
X0Y1426D02*
X7Y1426D01*
X1566Y1426D02*
X1573Y1426D01*
X0Y1425D02*
X7Y1425D01*
X1566Y1425D02*
X1573Y1425D01*
X0Y1424D02*
X7Y1424D01*
X1566Y1424D02*
X1573Y1424D01*
X0Y1423D02*
X7Y1423D01*
X1566Y1423D02*
X1573Y1423D01*
X0Y1422D02*
X7Y1422D01*
X1566Y1422D02*
X1573Y1422D01*
X0Y1421D02*
X7Y1421D01*
X1566Y1421D02*
X1573Y1421D01*
X0Y1420D02*
X7Y1420D01*
X1566Y1420D02*
X1573Y1420D01*
X0Y1419D02*
X7Y1419D01*
X1566Y1419D02*
X1573Y1419D01*
X0Y1418D02*
X7Y1418D01*
X1566Y1418D02*
X1573Y1418D01*
X0Y1417D02*
X7Y1417D01*
X1566Y1417D02*
X1573Y1417D01*
X0Y1416D02*
X7Y1416D01*
X1566Y1416D02*
X1573Y1416D01*
X0Y1415D02*
X7Y1415D01*
X1566Y1415D02*
X1573Y1415D01*
X0Y1414D02*
X7Y1414D01*
X1566Y1414D02*
X1573Y1414D01*
X0Y1413D02*
X7Y1413D01*
X1566Y1413D02*
X1573Y1413D01*
X0Y1412D02*
X7Y1412D01*
X1566Y1412D02*
X1573Y1412D01*
X0Y1411D02*
X7Y1411D01*
X1566Y1411D02*
X1573Y1411D01*
X0Y1410D02*
X7Y1410D01*
X1566Y1410D02*
X1573Y1410D01*
X0Y1409D02*
X7Y1409D01*
X1566Y1409D02*
X1573Y1409D01*
X0Y1408D02*
X7Y1408D01*
X1566Y1408D02*
X1573Y1408D01*
X0Y1407D02*
X7Y1407D01*
X1566Y1407D02*
X1573Y1407D01*
X0Y1406D02*
X7Y1406D01*
X1566Y1406D02*
X1573Y1406D01*
X0Y1405D02*
X7Y1405D01*
X1566Y1405D02*
X1573Y1405D01*
X0Y1404D02*
X7Y1404D01*
X1566Y1404D02*
X1573Y1404D01*
X0Y1403D02*
X7Y1403D01*
X1566Y1403D02*
X1573Y1403D01*
X0Y1402D02*
X7Y1402D01*
X1566Y1402D02*
X1573Y1402D01*
X0Y1401D02*
X7Y1401D01*
X1566Y1401D02*
X1573Y1401D01*
X0Y1400D02*
X7Y1400D01*
X1566Y1400D02*
X1573Y1400D01*
X0Y1399D02*
X7Y1399D01*
X1566Y1399D02*
X1573Y1399D01*
X0Y1398D02*
X7Y1398D01*
X1566Y1398D02*
X1573Y1398D01*
X0Y1397D02*
X7Y1397D01*
X1566Y1397D02*
X1573Y1397D01*
X0Y1396D02*
X7Y1396D01*
X1566Y1396D02*
X1573Y1396D01*
X0Y1395D02*
X7Y1395D01*
X1566Y1395D02*
X1573Y1395D01*
X0Y1394D02*
X7Y1394D01*
X1566Y1394D02*
X1573Y1394D01*
X0Y1393D02*
X7Y1393D01*
X1566Y1393D02*
X1573Y1393D01*
X0Y1392D02*
X7Y1392D01*
X1566Y1392D02*
X1573Y1392D01*
X0Y1391D02*
X7Y1391D01*
X1566Y1391D02*
X1573Y1391D01*
X0Y1390D02*
X7Y1390D01*
X1566Y1390D02*
X1573Y1390D01*
X0Y1389D02*
X7Y1389D01*
X1566Y1389D02*
X1573Y1389D01*
X0Y1388D02*
X7Y1388D01*
X1566Y1388D02*
X1573Y1388D01*
X0Y1387D02*
X7Y1387D01*
X1566Y1387D02*
X1573Y1387D01*
X0Y1386D02*
X7Y1386D01*
X1566Y1386D02*
X1573Y1386D01*
X0Y1385D02*
X7Y1385D01*
X1566Y1385D02*
X1573Y1385D01*
X0Y1384D02*
X7Y1384D01*
X1566Y1384D02*
X1573Y1384D01*
X0Y1383D02*
X7Y1383D01*
X1566Y1383D02*
X1573Y1383D01*
X0Y1382D02*
X7Y1382D01*
X1566Y1382D02*
X1573Y1382D01*
X0Y1381D02*
X7Y1381D01*
X1566Y1381D02*
X1573Y1381D01*
X0Y1380D02*
X7Y1380D01*
X1566Y1380D02*
X1573Y1380D01*
X0Y1379D02*
X7Y1379D01*
X1566Y1379D02*
X1573Y1379D01*
X0Y1378D02*
X7Y1378D01*
X1566Y1378D02*
X1573Y1378D01*
X0Y1377D02*
X7Y1377D01*
X1566Y1377D02*
X1573Y1377D01*
X0Y1376D02*
X7Y1376D01*
X1566Y1376D02*
X1573Y1376D01*
X0Y1375D02*
X7Y1375D01*
X1566Y1375D02*
X1573Y1375D01*
X0Y1374D02*
X7Y1374D01*
X1566Y1374D02*
X1573Y1374D01*
X0Y1373D02*
X7Y1373D01*
X1566Y1373D02*
X1573Y1373D01*
X0Y1372D02*
X7Y1372D01*
X1566Y1372D02*
X1573Y1372D01*
X0Y1371D02*
X7Y1371D01*
X1566Y1371D02*
X1573Y1371D01*
X0Y1370D02*
X7Y1370D01*
X1566Y1370D02*
X1573Y1370D01*
X0Y1369D02*
X7Y1369D01*
X1566Y1369D02*
X1573Y1369D01*
X0Y1368D02*
X7Y1368D01*
X1566Y1368D02*
X1573Y1368D01*
X0Y1367D02*
X7Y1367D01*
X1566Y1367D02*
X1573Y1367D01*
X0Y1366D02*
X7Y1366D01*
X1566Y1366D02*
X1573Y1366D01*
X0Y1365D02*
X7Y1365D01*
X1566Y1365D02*
X1573Y1365D01*
X0Y1364D02*
X7Y1364D01*
X1566Y1364D02*
X1573Y1364D01*
X0Y1363D02*
X7Y1363D01*
X1566Y1363D02*
X1573Y1363D01*
X0Y1362D02*
X7Y1362D01*
X1566Y1362D02*
X1573Y1362D01*
X0Y1361D02*
X7Y1361D01*
X1566Y1361D02*
X1573Y1361D01*
X0Y1360D02*
X7Y1360D01*
X1566Y1360D02*
X1573Y1360D01*
X0Y1359D02*
X7Y1359D01*
X1566Y1359D02*
X1573Y1359D01*
X0Y1358D02*
X7Y1358D01*
X1566Y1358D02*
X1573Y1358D01*
X0Y1357D02*
X7Y1357D01*
X1566Y1357D02*
X1573Y1357D01*
X0Y1356D02*
X7Y1356D01*
X1566Y1356D02*
X1573Y1356D01*
X0Y1355D02*
X7Y1355D01*
X1566Y1355D02*
X1573Y1355D01*
X0Y1354D02*
X7Y1354D01*
X1566Y1354D02*
X1573Y1354D01*
X0Y1353D02*
X7Y1353D01*
X1566Y1353D02*
X1573Y1353D01*
X0Y1352D02*
X7Y1352D01*
X1566Y1352D02*
X1573Y1352D01*
X0Y1351D02*
X7Y1351D01*
X1566Y1351D02*
X1573Y1351D01*
X0Y1350D02*
X7Y1350D01*
X1566Y1350D02*
X1573Y1350D01*
X0Y1349D02*
X7Y1349D01*
X1566Y1349D02*
X1573Y1349D01*
X0Y1348D02*
X7Y1348D01*
X1566Y1348D02*
X1573Y1348D01*
X0Y1347D02*
X7Y1347D01*
X1566Y1347D02*
X1573Y1347D01*
X0Y1346D02*
X7Y1346D01*
X1566Y1346D02*
X1573Y1346D01*
X0Y1345D02*
X7Y1345D01*
X1566Y1345D02*
X1573Y1345D01*
X0Y1344D02*
X7Y1344D01*
X1566Y1344D02*
X1573Y1344D01*
X0Y1343D02*
X7Y1343D01*
X1566Y1343D02*
X1573Y1343D01*
X0Y1342D02*
X7Y1342D01*
X1566Y1342D02*
X1573Y1342D01*
X0Y1341D02*
X7Y1341D01*
X1566Y1341D02*
X1573Y1341D01*
X0Y1340D02*
X7Y1340D01*
X1566Y1340D02*
X1573Y1340D01*
X0Y1339D02*
X7Y1339D01*
X1566Y1339D02*
X1573Y1339D01*
X0Y1338D02*
X7Y1338D01*
X1566Y1338D02*
X1573Y1338D01*
X0Y1337D02*
X7Y1337D01*
X1566Y1337D02*
X1573Y1337D01*
X0Y1336D02*
X7Y1336D01*
X1566Y1336D02*
X1573Y1336D01*
X0Y1335D02*
X7Y1335D01*
X1566Y1335D02*
X1573Y1335D01*
X0Y1334D02*
X7Y1334D01*
X1566Y1334D02*
X1573Y1334D01*
X0Y1333D02*
X7Y1333D01*
X1566Y1333D02*
X1573Y1333D01*
X0Y1332D02*
X7Y1332D01*
X1566Y1332D02*
X1573Y1332D01*
X0Y1331D02*
X7Y1331D01*
X1566Y1331D02*
X1573Y1331D01*
X0Y1330D02*
X7Y1330D01*
X1566Y1330D02*
X1573Y1330D01*
X0Y1329D02*
X7Y1329D01*
X1566Y1329D02*
X1573Y1329D01*
X0Y1328D02*
X7Y1328D01*
X1566Y1328D02*
X1573Y1328D01*
X0Y1327D02*
X7Y1327D01*
X1566Y1327D02*
X1573Y1327D01*
X0Y1326D02*
X7Y1326D01*
X1566Y1326D02*
X1573Y1326D01*
X0Y1325D02*
X7Y1325D01*
X1566Y1325D02*
X1573Y1325D01*
X0Y1324D02*
X7Y1324D01*
X1566Y1324D02*
X1573Y1324D01*
X0Y1323D02*
X7Y1323D01*
X1566Y1323D02*
X1573Y1323D01*
X0Y1322D02*
X7Y1322D01*
X1566Y1322D02*
X1573Y1322D01*
X0Y1321D02*
X7Y1321D01*
X1566Y1321D02*
X1573Y1321D01*
X0Y1320D02*
X7Y1320D01*
X1566Y1320D02*
X1573Y1320D01*
X0Y1319D02*
X7Y1319D01*
X1566Y1319D02*
X1573Y1319D01*
X0Y1318D02*
X7Y1318D01*
X1566Y1318D02*
X1573Y1318D01*
X0Y1317D02*
X7Y1317D01*
X1566Y1317D02*
X1573Y1317D01*
X0Y1316D02*
X7Y1316D01*
X1566Y1316D02*
X1573Y1316D01*
X0Y1315D02*
X7Y1315D01*
X1566Y1315D02*
X1573Y1315D01*
X0Y1314D02*
X7Y1314D01*
X1566Y1314D02*
X1573Y1314D01*
X0Y1313D02*
X7Y1313D01*
X1566Y1313D02*
X1573Y1313D01*
X0Y1312D02*
X7Y1312D01*
X1566Y1312D02*
X1573Y1312D01*
X0Y1311D02*
X7Y1311D01*
X1566Y1311D02*
X1573Y1311D01*
X0Y1310D02*
X7Y1310D01*
X1566Y1310D02*
X1573Y1310D01*
X0Y1309D02*
X7Y1309D01*
X1566Y1309D02*
X1573Y1309D01*
X0Y1308D02*
X7Y1308D01*
X1566Y1308D02*
X1573Y1308D01*
X0Y1307D02*
X7Y1307D01*
X1566Y1307D02*
X1573Y1307D01*
X0Y1306D02*
X7Y1306D01*
X1566Y1306D02*
X1573Y1306D01*
X0Y1305D02*
X7Y1305D01*
X1566Y1305D02*
X1573Y1305D01*
X0Y1304D02*
X7Y1304D01*
X1566Y1304D02*
X1573Y1304D01*
X0Y1303D02*
X7Y1303D01*
X1566Y1303D02*
X1573Y1303D01*
X0Y1302D02*
X7Y1302D01*
X1566Y1302D02*
X1573Y1302D01*
X0Y1301D02*
X7Y1301D01*
X1566Y1301D02*
X1573Y1301D01*
X0Y1300D02*
X7Y1300D01*
X1566Y1300D02*
X1573Y1300D01*
X0Y1299D02*
X7Y1299D01*
X1566Y1299D02*
X1573Y1299D01*
X0Y1298D02*
X7Y1298D01*
X1566Y1298D02*
X1573Y1298D01*
X0Y1297D02*
X7Y1297D01*
X1566Y1297D02*
X1573Y1297D01*
X0Y1296D02*
X7Y1296D01*
X1566Y1296D02*
X1573Y1296D01*
X0Y1295D02*
X7Y1295D01*
X1566Y1295D02*
X1573Y1295D01*
X0Y1294D02*
X7Y1294D01*
X1566Y1294D02*
X1573Y1294D01*
X0Y1293D02*
X7Y1293D01*
X1566Y1293D02*
X1573Y1293D01*
X0Y1292D02*
X7Y1292D01*
X1566Y1292D02*
X1573Y1292D01*
X0Y1291D02*
X7Y1291D01*
X1566Y1291D02*
X1573Y1291D01*
X0Y1290D02*
X7Y1290D01*
X1566Y1290D02*
X1573Y1290D01*
X0Y1289D02*
X7Y1289D01*
X1566Y1289D02*
X1573Y1289D01*
X0Y1288D02*
X7Y1288D01*
X1566Y1288D02*
X1573Y1288D01*
X0Y1287D02*
X7Y1287D01*
X1566Y1287D02*
X1573Y1287D01*
X0Y1286D02*
X7Y1286D01*
X1566Y1286D02*
X1573Y1286D01*
X0Y1285D02*
X7Y1285D01*
X1566Y1285D02*
X1573Y1285D01*
X0Y1284D02*
X7Y1284D01*
X1566Y1284D02*
X1573Y1284D01*
X0Y1283D02*
X7Y1283D01*
X1566Y1283D02*
X1573Y1283D01*
X0Y1282D02*
X7Y1282D01*
X1566Y1282D02*
X1573Y1282D01*
X0Y1281D02*
X7Y1281D01*
X1566Y1281D02*
X1573Y1281D01*
X0Y1280D02*
X7Y1280D01*
X1566Y1280D02*
X1573Y1280D01*
X0Y1279D02*
X7Y1279D01*
X1566Y1279D02*
X1573Y1279D01*
X0Y1278D02*
X7Y1278D01*
X1566Y1278D02*
X1573Y1278D01*
X0Y1277D02*
X7Y1277D01*
X1566Y1277D02*
X1573Y1277D01*
X0Y1276D02*
X7Y1276D01*
X1566Y1276D02*
X1573Y1276D01*
X0Y1275D02*
X7Y1275D01*
X1566Y1275D02*
X1573Y1275D01*
X0Y1274D02*
X7Y1274D01*
X1566Y1274D02*
X1573Y1274D01*
X0Y1273D02*
X7Y1273D01*
X1566Y1273D02*
X1573Y1273D01*
X0Y1272D02*
X7Y1272D01*
X1566Y1272D02*
X1573Y1272D01*
X0Y1271D02*
X7Y1271D01*
X1566Y1271D02*
X1573Y1271D01*
X0Y1270D02*
X7Y1270D01*
X1566Y1270D02*
X1573Y1270D01*
X0Y1269D02*
X7Y1269D01*
X1566Y1269D02*
X1573Y1269D01*
X0Y1268D02*
X7Y1268D01*
X1566Y1268D02*
X1573Y1268D01*
X0Y1267D02*
X7Y1267D01*
X1566Y1267D02*
X1573Y1267D01*
X0Y1266D02*
X7Y1266D01*
X1566Y1266D02*
X1573Y1266D01*
X0Y1265D02*
X7Y1265D01*
X1566Y1265D02*
X1573Y1265D01*
X0Y1264D02*
X7Y1264D01*
X1566Y1264D02*
X1573Y1264D01*
X0Y1263D02*
X7Y1263D01*
X1566Y1263D02*
X1573Y1263D01*
X0Y1262D02*
X7Y1262D01*
X1566Y1262D02*
X1573Y1262D01*
X0Y1261D02*
X7Y1261D01*
X1566Y1261D02*
X1573Y1261D01*
X0Y1260D02*
X7Y1260D01*
X1566Y1260D02*
X1573Y1260D01*
X0Y1259D02*
X7Y1259D01*
X1566Y1259D02*
X1573Y1259D01*
X0Y1258D02*
X7Y1258D01*
X1566Y1258D02*
X1573Y1258D01*
X0Y1257D02*
X7Y1257D01*
X1566Y1257D02*
X1573Y1257D01*
X0Y1256D02*
X7Y1256D01*
X1566Y1256D02*
X1573Y1256D01*
X0Y1255D02*
X7Y1255D01*
X1566Y1255D02*
X1573Y1255D01*
X0Y1254D02*
X7Y1254D01*
X1566Y1254D02*
X1573Y1254D01*
X0Y1253D02*
X7Y1253D01*
X1566Y1253D02*
X1573Y1253D01*
X0Y1252D02*
X7Y1252D01*
X1566Y1252D02*
X1573Y1252D01*
X0Y1251D02*
X7Y1251D01*
X1566Y1251D02*
X1573Y1251D01*
X0Y1250D02*
X7Y1250D01*
X1566Y1250D02*
X1573Y1250D01*
X0Y1249D02*
X7Y1249D01*
X1566Y1249D02*
X1573Y1249D01*
X0Y1248D02*
X7Y1248D01*
X1566Y1248D02*
X1573Y1248D01*
X0Y1247D02*
X7Y1247D01*
X1566Y1247D02*
X1573Y1247D01*
X0Y1246D02*
X7Y1246D01*
X1566Y1246D02*
X1573Y1246D01*
X0Y1245D02*
X7Y1245D01*
X1566Y1245D02*
X1573Y1245D01*
X0Y1244D02*
X7Y1244D01*
X1566Y1244D02*
X1573Y1244D01*
X0Y1243D02*
X7Y1243D01*
X1566Y1243D02*
X1573Y1243D01*
X0Y1242D02*
X7Y1242D01*
X1566Y1242D02*
X1573Y1242D01*
X0Y1241D02*
X7Y1241D01*
X1566Y1241D02*
X1573Y1241D01*
X0Y1240D02*
X7Y1240D01*
X1566Y1240D02*
X1573Y1240D01*
X0Y1239D02*
X7Y1239D01*
X1566Y1239D02*
X1573Y1239D01*
X0Y1238D02*
X7Y1238D01*
X1566Y1238D02*
X1573Y1238D01*
X0Y1237D02*
X7Y1237D01*
X1566Y1237D02*
X1573Y1237D01*
X0Y1236D02*
X7Y1236D01*
X1566Y1236D02*
X1573Y1236D01*
X0Y1235D02*
X7Y1235D01*
X1566Y1235D02*
X1573Y1235D01*
X0Y1234D02*
X7Y1234D01*
X1566Y1234D02*
X1573Y1234D01*
X0Y1233D02*
X7Y1233D01*
X1566Y1233D02*
X1573Y1233D01*
X0Y1232D02*
X7Y1232D01*
X1566Y1232D02*
X1573Y1232D01*
X0Y1231D02*
X7Y1231D01*
X1566Y1231D02*
X1573Y1231D01*
X0Y1230D02*
X7Y1230D01*
X1566Y1230D02*
X1573Y1230D01*
X0Y1229D02*
X7Y1229D01*
X1566Y1229D02*
X1573Y1229D01*
X0Y1228D02*
X7Y1228D01*
X1566Y1228D02*
X1573Y1228D01*
X0Y1227D02*
X7Y1227D01*
X1566Y1227D02*
X1573Y1227D01*
X0Y1226D02*
X7Y1226D01*
X1566Y1226D02*
X1573Y1226D01*
X0Y1225D02*
X7Y1225D01*
X1566Y1225D02*
X1573Y1225D01*
X0Y1224D02*
X7Y1224D01*
X1566Y1224D02*
X1573Y1224D01*
X0Y1223D02*
X7Y1223D01*
X1566Y1223D02*
X1573Y1223D01*
X0Y1222D02*
X7Y1222D01*
X1566Y1222D02*
X1573Y1222D01*
X0Y1221D02*
X7Y1221D01*
X1566Y1221D02*
X1573Y1221D01*
X0Y1220D02*
X7Y1220D01*
X1566Y1220D02*
X1573Y1220D01*
X0Y1219D02*
X7Y1219D01*
X1566Y1219D02*
X1573Y1219D01*
X0Y1218D02*
X7Y1218D01*
X1566Y1218D02*
X1573Y1218D01*
X0Y1217D02*
X7Y1217D01*
X1566Y1217D02*
X1573Y1217D01*
X0Y1216D02*
X7Y1216D01*
X1566Y1216D02*
X1573Y1216D01*
X0Y1215D02*
X7Y1215D01*
X1566Y1215D02*
X1573Y1215D01*
X0Y1214D02*
X7Y1214D01*
X1566Y1214D02*
X1573Y1214D01*
X0Y1213D02*
X7Y1213D01*
X1566Y1213D02*
X1573Y1213D01*
X0Y1212D02*
X7Y1212D01*
X1566Y1212D02*
X1573Y1212D01*
X0Y1211D02*
X7Y1211D01*
X1566Y1211D02*
X1573Y1211D01*
X0Y1210D02*
X7Y1210D01*
X1566Y1210D02*
X1573Y1210D01*
X0Y1209D02*
X7Y1209D01*
X1566Y1209D02*
X1573Y1209D01*
X0Y1208D02*
X7Y1208D01*
X1566Y1208D02*
X1573Y1208D01*
X0Y1207D02*
X7Y1207D01*
X1566Y1207D02*
X1573Y1207D01*
X0Y1206D02*
X7Y1206D01*
X1566Y1206D02*
X1573Y1206D01*
X0Y1205D02*
X7Y1205D01*
X1566Y1205D02*
X1573Y1205D01*
X0Y1204D02*
X7Y1204D01*
X1566Y1204D02*
X1573Y1204D01*
X0Y1203D02*
X7Y1203D01*
X1566Y1203D02*
X1573Y1203D01*
X0Y1202D02*
X7Y1202D01*
X1566Y1202D02*
X1573Y1202D01*
X0Y1201D02*
X7Y1201D01*
X1566Y1201D02*
X1573Y1201D01*
X0Y1200D02*
X7Y1200D01*
X1566Y1200D02*
X1573Y1200D01*
X0Y1199D02*
X7Y1199D01*
X1566Y1199D02*
X1573Y1199D01*
X0Y1198D02*
X7Y1198D01*
X1566Y1198D02*
X1573Y1198D01*
X0Y1197D02*
X7Y1197D01*
X1566Y1197D02*
X1573Y1197D01*
X0Y1196D02*
X7Y1196D01*
X1566Y1196D02*
X1573Y1196D01*
X0Y1195D02*
X7Y1195D01*
X1566Y1195D02*
X1573Y1195D01*
X0Y1194D02*
X7Y1194D01*
X1566Y1194D02*
X1573Y1194D01*
X0Y1193D02*
X7Y1193D01*
X1566Y1193D02*
X1573Y1193D01*
X0Y1192D02*
X7Y1192D01*
X1566Y1192D02*
X1573Y1192D01*
X0Y1191D02*
X7Y1191D01*
X1566Y1191D02*
X1573Y1191D01*
X0Y1190D02*
X7Y1190D01*
X1566Y1190D02*
X1573Y1190D01*
X0Y1189D02*
X7Y1189D01*
X1566Y1189D02*
X1573Y1189D01*
X0Y1188D02*
X7Y1188D01*
X1566Y1188D02*
X1573Y1188D01*
X0Y1187D02*
X7Y1187D01*
X1566Y1187D02*
X1573Y1187D01*
X0Y1186D02*
X7Y1186D01*
X1566Y1186D02*
X1573Y1186D01*
X0Y1185D02*
X7Y1185D01*
X1566Y1185D02*
X1573Y1185D01*
X0Y1184D02*
X7Y1184D01*
X1566Y1184D02*
X1573Y1184D01*
X0Y1183D02*
X7Y1183D01*
X1566Y1183D02*
X1573Y1183D01*
X0Y1182D02*
X7Y1182D01*
X1566Y1182D02*
X1573Y1182D01*
X0Y1181D02*
X7Y1181D01*
X1566Y1181D02*
X1573Y1181D01*
X0Y1180D02*
X7Y1180D01*
X1566Y1180D02*
X1573Y1180D01*
X0Y1179D02*
X7Y1179D01*
X1566Y1179D02*
X1573Y1179D01*
X0Y1178D02*
X7Y1178D01*
X1566Y1178D02*
X1573Y1178D01*
X0Y1177D02*
X7Y1177D01*
X1566Y1177D02*
X1573Y1177D01*
X0Y1176D02*
X7Y1176D01*
X1566Y1176D02*
X1573Y1176D01*
X0Y1175D02*
X7Y1175D01*
X1566Y1175D02*
X1573Y1175D01*
X0Y1174D02*
X7Y1174D01*
X1566Y1174D02*
X1573Y1174D01*
X0Y1173D02*
X7Y1173D01*
X1566Y1173D02*
X1573Y1173D01*
X0Y1172D02*
X7Y1172D01*
X1566Y1172D02*
X1573Y1172D01*
X0Y1171D02*
X7Y1171D01*
X1566Y1171D02*
X1573Y1171D01*
X0Y1170D02*
X7Y1170D01*
X1566Y1170D02*
X1573Y1170D01*
X0Y1169D02*
X7Y1169D01*
X1566Y1169D02*
X1573Y1169D01*
X0Y1168D02*
X7Y1168D01*
X1566Y1168D02*
X1573Y1168D01*
X0Y1167D02*
X7Y1167D01*
X1566Y1167D02*
X1573Y1167D01*
X0Y1166D02*
X7Y1166D01*
X1566Y1166D02*
X1573Y1166D01*
X0Y1165D02*
X7Y1165D01*
X1566Y1165D02*
X1573Y1165D01*
X0Y1164D02*
X7Y1164D01*
X1566Y1164D02*
X1573Y1164D01*
X0Y1163D02*
X7Y1163D01*
X1566Y1163D02*
X1573Y1163D01*
X0Y1162D02*
X7Y1162D01*
X1566Y1162D02*
X1573Y1162D01*
X0Y1161D02*
X7Y1161D01*
X1566Y1161D02*
X1573Y1161D01*
X0Y1160D02*
X7Y1160D01*
X1566Y1160D02*
X1573Y1160D01*
X0Y1159D02*
X7Y1159D01*
X1566Y1159D02*
X1573Y1159D01*
X0Y1158D02*
X7Y1158D01*
X1566Y1158D02*
X1573Y1158D01*
X0Y1157D02*
X7Y1157D01*
X1566Y1157D02*
X1573Y1157D01*
X0Y1156D02*
X7Y1156D01*
X1566Y1156D02*
X1573Y1156D01*
X0Y1155D02*
X7Y1155D01*
X1566Y1155D02*
X1573Y1155D01*
X0Y1154D02*
X7Y1154D01*
X1566Y1154D02*
X1573Y1154D01*
X0Y1153D02*
X7Y1153D01*
X1566Y1153D02*
X1573Y1153D01*
X0Y1152D02*
X7Y1152D01*
X1566Y1152D02*
X1573Y1152D01*
X0Y1151D02*
X7Y1151D01*
X1566Y1151D02*
X1573Y1151D01*
X0Y1150D02*
X7Y1150D01*
X1566Y1150D02*
X1573Y1150D01*
X0Y1149D02*
X7Y1149D01*
X1566Y1149D02*
X1573Y1149D01*
X0Y1148D02*
X7Y1148D01*
X1566Y1148D02*
X1573Y1148D01*
X0Y1147D02*
X7Y1147D01*
X1566Y1147D02*
X1573Y1147D01*
X0Y1146D02*
X7Y1146D01*
X1566Y1146D02*
X1573Y1146D01*
X0Y1145D02*
X7Y1145D01*
X1566Y1145D02*
X1573Y1145D01*
X0Y1144D02*
X7Y1144D01*
X1566Y1144D02*
X1573Y1144D01*
X0Y1143D02*
X7Y1143D01*
X1566Y1143D02*
X1573Y1143D01*
X0Y1142D02*
X7Y1142D01*
X1566Y1142D02*
X1573Y1142D01*
X0Y1141D02*
X7Y1141D01*
X1566Y1141D02*
X1573Y1141D01*
X0Y1140D02*
X7Y1140D01*
X1566Y1140D02*
X1573Y1140D01*
X0Y1139D02*
X7Y1139D01*
X1566Y1139D02*
X1573Y1139D01*
X0Y1138D02*
X7Y1138D01*
X1566Y1138D02*
X1573Y1138D01*
X0Y1137D02*
X7Y1137D01*
X1566Y1137D02*
X1573Y1137D01*
X0Y1136D02*
X7Y1136D01*
X1566Y1136D02*
X1573Y1136D01*
X0Y1135D02*
X7Y1135D01*
X1566Y1135D02*
X1573Y1135D01*
X0Y1134D02*
X7Y1134D01*
X1566Y1134D02*
X1573Y1134D01*
X0Y1133D02*
X7Y1133D01*
X1566Y1133D02*
X1573Y1133D01*
X0Y1132D02*
X7Y1132D01*
X1566Y1132D02*
X1573Y1132D01*
X0Y1131D02*
X7Y1131D01*
X1566Y1131D02*
X1573Y1131D01*
X0Y1130D02*
X7Y1130D01*
X1566Y1130D02*
X1573Y1130D01*
X0Y1129D02*
X7Y1129D01*
X1566Y1129D02*
X1573Y1129D01*
X0Y1128D02*
X7Y1128D01*
X1566Y1128D02*
X1573Y1128D01*
X0Y1127D02*
X7Y1127D01*
X1566Y1127D02*
X1573Y1127D01*
X0Y1126D02*
X7Y1126D01*
X1566Y1126D02*
X1573Y1126D01*
X0Y1125D02*
X7Y1125D01*
X1566Y1125D02*
X1573Y1125D01*
X0Y1124D02*
X7Y1124D01*
X1566Y1124D02*
X1573Y1124D01*
X0Y1123D02*
X7Y1123D01*
X1566Y1123D02*
X1573Y1123D01*
X0Y1122D02*
X7Y1122D01*
X1566Y1122D02*
X1573Y1122D01*
X0Y1121D02*
X7Y1121D01*
X1566Y1121D02*
X1573Y1121D01*
X0Y1120D02*
X7Y1120D01*
X1566Y1120D02*
X1573Y1120D01*
X0Y1119D02*
X7Y1119D01*
X1566Y1119D02*
X1573Y1119D01*
X0Y1118D02*
X7Y1118D01*
X1566Y1118D02*
X1573Y1118D01*
X0Y1117D02*
X7Y1117D01*
X1566Y1117D02*
X1573Y1117D01*
X0Y1116D02*
X7Y1116D01*
X1566Y1116D02*
X1573Y1116D01*
X0Y1115D02*
X7Y1115D01*
X1566Y1115D02*
X1573Y1115D01*
X0Y1114D02*
X7Y1114D01*
X1566Y1114D02*
X1573Y1114D01*
X0Y1113D02*
X7Y1113D01*
X1566Y1113D02*
X1573Y1113D01*
X0Y1112D02*
X7Y1112D01*
X1566Y1112D02*
X1573Y1112D01*
X0Y1111D02*
X7Y1111D01*
X1566Y1111D02*
X1573Y1111D01*
X0Y1110D02*
X7Y1110D01*
X1566Y1110D02*
X1573Y1110D01*
X0Y1109D02*
X7Y1109D01*
X1566Y1109D02*
X1573Y1109D01*
X0Y1108D02*
X7Y1108D01*
X1566Y1108D02*
X1573Y1108D01*
X0Y1107D02*
X7Y1107D01*
X1566Y1107D02*
X1573Y1107D01*
X0Y1106D02*
X7Y1106D01*
X1566Y1106D02*
X1573Y1106D01*
X0Y1105D02*
X7Y1105D01*
X1566Y1105D02*
X1573Y1105D01*
X0Y1104D02*
X7Y1104D01*
X1566Y1104D02*
X1573Y1104D01*
X0Y1103D02*
X7Y1103D01*
X1566Y1103D02*
X1573Y1103D01*
X0Y1102D02*
X7Y1102D01*
X1566Y1102D02*
X1573Y1102D01*
X0Y1101D02*
X7Y1101D01*
X1566Y1101D02*
X1573Y1101D01*
X0Y1100D02*
X7Y1100D01*
X1566Y1100D02*
X1573Y1100D01*
X0Y1099D02*
X7Y1099D01*
X1566Y1099D02*
X1573Y1099D01*
X0Y1098D02*
X7Y1098D01*
X1566Y1098D02*
X1573Y1098D01*
X0Y1097D02*
X7Y1097D01*
X1566Y1097D02*
X1573Y1097D01*
X0Y1096D02*
X7Y1096D01*
X1566Y1096D02*
X1573Y1096D01*
X0Y1095D02*
X7Y1095D01*
X1566Y1095D02*
X1573Y1095D01*
X0Y1094D02*
X7Y1094D01*
X1566Y1094D02*
X1573Y1094D01*
X0Y1093D02*
X7Y1093D01*
X1566Y1093D02*
X1573Y1093D01*
X0Y1092D02*
X7Y1092D01*
X1566Y1092D02*
X1573Y1092D01*
X0Y1091D02*
X7Y1091D01*
X1566Y1091D02*
X1573Y1091D01*
X0Y1090D02*
X7Y1090D01*
X1566Y1090D02*
X1573Y1090D01*
X0Y1089D02*
X7Y1089D01*
X1566Y1089D02*
X1573Y1089D01*
X0Y1088D02*
X7Y1088D01*
X1566Y1088D02*
X1573Y1088D01*
X0Y1087D02*
X7Y1087D01*
X1566Y1087D02*
X1573Y1087D01*
X0Y1086D02*
X7Y1086D01*
X1566Y1086D02*
X1573Y1086D01*
X0Y1085D02*
X7Y1085D01*
X1566Y1085D02*
X1573Y1085D01*
X0Y1084D02*
X7Y1084D01*
X1566Y1084D02*
X1573Y1084D01*
X0Y1083D02*
X7Y1083D01*
X1566Y1083D02*
X1573Y1083D01*
X0Y1082D02*
X7Y1082D01*
X1566Y1082D02*
X1573Y1082D01*
X0Y1081D02*
X7Y1081D01*
X1566Y1081D02*
X1573Y1081D01*
X0Y1080D02*
X7Y1080D01*
X1566Y1080D02*
X1573Y1080D01*
X0Y1079D02*
X7Y1079D01*
X1566Y1079D02*
X1573Y1079D01*
X0Y1078D02*
X7Y1078D01*
X1566Y1078D02*
X1573Y1078D01*
X0Y1077D02*
X7Y1077D01*
X1566Y1077D02*
X1573Y1077D01*
X0Y1076D02*
X7Y1076D01*
X1566Y1076D02*
X1573Y1076D01*
X0Y1075D02*
X7Y1075D01*
X1566Y1075D02*
X1573Y1075D01*
X0Y1074D02*
X7Y1074D01*
X1566Y1074D02*
X1573Y1074D01*
X0Y1073D02*
X7Y1073D01*
X1566Y1073D02*
X1573Y1073D01*
X0Y1072D02*
X7Y1072D01*
X1566Y1072D02*
X1573Y1072D01*
X0Y1071D02*
X7Y1071D01*
X1566Y1071D02*
X1573Y1071D01*
X0Y1070D02*
X7Y1070D01*
X1566Y1070D02*
X1573Y1070D01*
X0Y1069D02*
X7Y1069D01*
X1566Y1069D02*
X1573Y1069D01*
X0Y1068D02*
X7Y1068D01*
X1566Y1068D02*
X1573Y1068D01*
X0Y1067D02*
X7Y1067D01*
X1566Y1067D02*
X1573Y1067D01*
X0Y1066D02*
X7Y1066D01*
X1566Y1066D02*
X1573Y1066D01*
X0Y1065D02*
X7Y1065D01*
X1566Y1065D02*
X1573Y1065D01*
X0Y1064D02*
X7Y1064D01*
X1566Y1064D02*
X1573Y1064D01*
X0Y1063D02*
X7Y1063D01*
X1566Y1063D02*
X1573Y1063D01*
X0Y1062D02*
X7Y1062D01*
X1566Y1062D02*
X1573Y1062D01*
X0Y1061D02*
X7Y1061D01*
X1566Y1061D02*
X1573Y1061D01*
X0Y1060D02*
X7Y1060D01*
X1566Y1060D02*
X1573Y1060D01*
X0Y1059D02*
X7Y1059D01*
X1566Y1059D02*
X1573Y1059D01*
X0Y1058D02*
X7Y1058D01*
X1566Y1058D02*
X1573Y1058D01*
X0Y1057D02*
X7Y1057D01*
X1566Y1057D02*
X1573Y1057D01*
X0Y1056D02*
X7Y1056D01*
X1566Y1056D02*
X1573Y1056D01*
X0Y1055D02*
X7Y1055D01*
X1566Y1055D02*
X1573Y1055D01*
X0Y1054D02*
X7Y1054D01*
X1566Y1054D02*
X1573Y1054D01*
X0Y1053D02*
X7Y1053D01*
X1566Y1053D02*
X1573Y1053D01*
X0Y1052D02*
X7Y1052D01*
X1566Y1052D02*
X1573Y1052D01*
X0Y1051D02*
X7Y1051D01*
X1566Y1051D02*
X1573Y1051D01*
X0Y1050D02*
X7Y1050D01*
X1566Y1050D02*
X1573Y1050D01*
X0Y1049D02*
X7Y1049D01*
X1566Y1049D02*
X1573Y1049D01*
X0Y1048D02*
X7Y1048D01*
X1566Y1048D02*
X1573Y1048D01*
X0Y1047D02*
X7Y1047D01*
X1566Y1047D02*
X1573Y1047D01*
X0Y1046D02*
X7Y1046D01*
X1566Y1046D02*
X1573Y1046D01*
X0Y1045D02*
X7Y1045D01*
X1566Y1045D02*
X1573Y1045D01*
X0Y1044D02*
X7Y1044D01*
X1566Y1044D02*
X1573Y1044D01*
X0Y1043D02*
X7Y1043D01*
X1566Y1043D02*
X1573Y1043D01*
X0Y1042D02*
X7Y1042D01*
X1566Y1042D02*
X1573Y1042D01*
X0Y1041D02*
X7Y1041D01*
X1566Y1041D02*
X1573Y1041D01*
X0Y1040D02*
X7Y1040D01*
X1566Y1040D02*
X1573Y1040D01*
X0Y1039D02*
X7Y1039D01*
X1566Y1039D02*
X1573Y1039D01*
X0Y1038D02*
X7Y1038D01*
X1566Y1038D02*
X1573Y1038D01*
X0Y1037D02*
X7Y1037D01*
X1566Y1037D02*
X1573Y1037D01*
X0Y1036D02*
X7Y1036D01*
X1566Y1036D02*
X1573Y1036D01*
X0Y1035D02*
X7Y1035D01*
X1566Y1035D02*
X1573Y1035D01*
X0Y1034D02*
X7Y1034D01*
X1566Y1034D02*
X1573Y1034D01*
X0Y1033D02*
X7Y1033D01*
X1566Y1033D02*
X1573Y1033D01*
X0Y1032D02*
X7Y1032D01*
X1566Y1032D02*
X1573Y1032D01*
X0Y1031D02*
X7Y1031D01*
X1566Y1031D02*
X1573Y1031D01*
X0Y1030D02*
X7Y1030D01*
X1566Y1030D02*
X1573Y1030D01*
X0Y1029D02*
X7Y1029D01*
X1566Y1029D02*
X1573Y1029D01*
X0Y1028D02*
X7Y1028D01*
X1566Y1028D02*
X1573Y1028D01*
X0Y1027D02*
X7Y1027D01*
X1566Y1027D02*
X1573Y1027D01*
X0Y1026D02*
X7Y1026D01*
X1566Y1026D02*
X1573Y1026D01*
X0Y1025D02*
X7Y1025D01*
X1566Y1025D02*
X1573Y1025D01*
X0Y1024D02*
X7Y1024D01*
X1566Y1024D02*
X1573Y1024D01*
X0Y1023D02*
X7Y1023D01*
X1566Y1023D02*
X1573Y1023D01*
X0Y1022D02*
X7Y1022D01*
X1566Y1022D02*
X1573Y1022D01*
X0Y1021D02*
X7Y1021D01*
X1566Y1021D02*
X1573Y1021D01*
X0Y1020D02*
X7Y1020D01*
X1566Y1020D02*
X1573Y1020D01*
X0Y1019D02*
X7Y1019D01*
X1566Y1019D02*
X1573Y1019D01*
X0Y1018D02*
X7Y1018D01*
X1566Y1018D02*
X1573Y1018D01*
X0Y1017D02*
X7Y1017D01*
X1566Y1017D02*
X1573Y1017D01*
X0Y1016D02*
X7Y1016D01*
X1566Y1016D02*
X1573Y1016D01*
X0Y1015D02*
X7Y1015D01*
X1566Y1015D02*
X1573Y1015D01*
X0Y1014D02*
X7Y1014D01*
X1566Y1014D02*
X1573Y1014D01*
X0Y1013D02*
X7Y1013D01*
X1566Y1013D02*
X1573Y1013D01*
X0Y1012D02*
X7Y1012D01*
X1566Y1012D02*
X1573Y1012D01*
X0Y1011D02*
X7Y1011D01*
X1566Y1011D02*
X1573Y1011D01*
X0Y1010D02*
X7Y1010D01*
X1566Y1010D02*
X1573Y1010D01*
X0Y1009D02*
X7Y1009D01*
X1566Y1009D02*
X1573Y1009D01*
X0Y1008D02*
X7Y1008D01*
X1566Y1008D02*
X1573Y1008D01*
X0Y1007D02*
X7Y1007D01*
X1566Y1007D02*
X1573Y1007D01*
X0Y1006D02*
X7Y1006D01*
X1566Y1006D02*
X1573Y1006D01*
X0Y1005D02*
X7Y1005D01*
X1566Y1005D02*
X1573Y1005D01*
X0Y1004D02*
X7Y1004D01*
X1566Y1004D02*
X1573Y1004D01*
X0Y1003D02*
X7Y1003D01*
X1566Y1003D02*
X1573Y1003D01*
X0Y1002D02*
X7Y1002D01*
X1566Y1002D02*
X1573Y1002D01*
X0Y1001D02*
X7Y1001D01*
X1566Y1001D02*
X1573Y1001D01*
X0Y1000D02*
X7Y1000D01*
X1566Y1000D02*
X1573Y1000D01*
X0Y999D02*
X7Y999D01*
X1566Y999D02*
X1573Y999D01*
X0Y998D02*
X7Y998D01*
X1566Y998D02*
X1573Y998D01*
X0Y997D02*
X7Y997D01*
X1566Y997D02*
X1573Y997D01*
X0Y996D02*
X7Y996D01*
X1566Y996D02*
X1573Y996D01*
X0Y995D02*
X7Y995D01*
X1566Y995D02*
X1573Y995D01*
X0Y994D02*
X7Y994D01*
X1566Y994D02*
X1573Y994D01*
X0Y993D02*
X7Y993D01*
X1566Y993D02*
X1573Y993D01*
X0Y992D02*
X7Y992D01*
X1566Y992D02*
X1573Y992D01*
X0Y991D02*
X7Y991D01*
X1566Y991D02*
X1573Y991D01*
X0Y990D02*
X7Y990D01*
X1566Y990D02*
X1573Y990D01*
X0Y989D02*
X7Y989D01*
X1566Y989D02*
X1573Y989D01*
X0Y988D02*
X7Y988D01*
X1566Y988D02*
X1573Y988D01*
X0Y987D02*
X7Y987D01*
X1566Y987D02*
X1573Y987D01*
X0Y986D02*
X7Y986D01*
X1566Y986D02*
X1573Y986D01*
X0Y985D02*
X7Y985D01*
X1566Y985D02*
X1573Y985D01*
X0Y984D02*
X7Y984D01*
X1566Y984D02*
X1573Y984D01*
X0Y983D02*
X7Y983D01*
X1566Y983D02*
X1573Y983D01*
X0Y982D02*
X7Y982D01*
X1566Y982D02*
X1573Y982D01*
X0Y981D02*
X7Y981D01*
X1566Y981D02*
X1573Y981D01*
X0Y980D02*
X7Y980D01*
X1566Y980D02*
X1573Y980D01*
X0Y979D02*
X7Y979D01*
X1566Y979D02*
X1573Y979D01*
X0Y978D02*
X7Y978D01*
X1566Y978D02*
X1573Y978D01*
X0Y977D02*
X7Y977D01*
X1566Y977D02*
X1573Y977D01*
X0Y976D02*
X7Y976D01*
X1566Y976D02*
X1573Y976D01*
X0Y975D02*
X7Y975D01*
X1566Y975D02*
X1573Y975D01*
X0Y974D02*
X7Y974D01*
X1566Y974D02*
X1573Y974D01*
X0Y973D02*
X7Y973D01*
X1566Y973D02*
X1573Y973D01*
X0Y972D02*
X7Y972D01*
X1566Y972D02*
X1573Y972D01*
X0Y971D02*
X7Y971D01*
X1566Y971D02*
X1573Y971D01*
X0Y970D02*
X7Y970D01*
X1566Y970D02*
X1573Y970D01*
X0Y969D02*
X7Y969D01*
X1566Y969D02*
X1573Y969D01*
X0Y968D02*
X7Y968D01*
X1566Y968D02*
X1573Y968D01*
X0Y967D02*
X7Y967D01*
X1566Y967D02*
X1573Y967D01*
X0Y966D02*
X7Y966D01*
X1566Y966D02*
X1573Y966D01*
X0Y965D02*
X7Y965D01*
X1566Y965D02*
X1573Y965D01*
X0Y964D02*
X7Y964D01*
X1566Y964D02*
X1573Y964D01*
X0Y963D02*
X7Y963D01*
X1566Y963D02*
X1573Y963D01*
X0Y962D02*
X7Y962D01*
X1566Y962D02*
X1573Y962D01*
X0Y961D02*
X7Y961D01*
X1566Y961D02*
X1573Y961D01*
X0Y960D02*
X7Y960D01*
X1566Y960D02*
X1573Y960D01*
X0Y959D02*
X7Y959D01*
X1566Y959D02*
X1573Y959D01*
X0Y958D02*
X7Y958D01*
X1566Y958D02*
X1573Y958D01*
X0Y957D02*
X7Y957D01*
X1566Y957D02*
X1573Y957D01*
X0Y956D02*
X7Y956D01*
X1566Y956D02*
X1573Y956D01*
X0Y955D02*
X7Y955D01*
X1566Y955D02*
X1573Y955D01*
X0Y954D02*
X7Y954D01*
X1566Y954D02*
X1573Y954D01*
X0Y953D02*
X7Y953D01*
X1566Y953D02*
X1573Y953D01*
X0Y952D02*
X7Y952D01*
X1566Y952D02*
X1573Y952D01*
X0Y951D02*
X7Y951D01*
X1566Y951D02*
X1573Y951D01*
X0Y950D02*
X7Y950D01*
X1566Y950D02*
X1573Y950D01*
X0Y949D02*
X7Y949D01*
X1566Y949D02*
X1573Y949D01*
X0Y948D02*
X7Y948D01*
X1566Y948D02*
X1573Y948D01*
X0Y947D02*
X7Y947D01*
X1566Y947D02*
X1573Y947D01*
X0Y946D02*
X7Y946D01*
X1566Y946D02*
X1573Y946D01*
X0Y945D02*
X7Y945D01*
X1566Y945D02*
X1573Y945D01*
X0Y944D02*
X7Y944D01*
X1566Y944D02*
X1573Y944D01*
X0Y943D02*
X7Y943D01*
X1566Y943D02*
X1573Y943D01*
X0Y942D02*
X7Y942D01*
X1566Y942D02*
X1573Y942D01*
X0Y941D02*
X7Y941D01*
X1566Y941D02*
X1573Y941D01*
X0Y940D02*
X7Y940D01*
X1566Y940D02*
X1573Y940D01*
X0Y939D02*
X7Y939D01*
X1566Y939D02*
X1573Y939D01*
X0Y938D02*
X7Y938D01*
X1566Y938D02*
X1573Y938D01*
X0Y937D02*
X7Y937D01*
X1566Y937D02*
X1573Y937D01*
X0Y936D02*
X7Y936D01*
X1566Y936D02*
X1573Y936D01*
X0Y935D02*
X7Y935D01*
X1566Y935D02*
X1573Y935D01*
X0Y934D02*
X7Y934D01*
X1566Y934D02*
X1573Y934D01*
X0Y933D02*
X7Y933D01*
X1566Y933D02*
X1573Y933D01*
X0Y932D02*
X7Y932D01*
X1566Y932D02*
X1573Y932D01*
X0Y931D02*
X7Y931D01*
X1566Y931D02*
X1573Y931D01*
X0Y930D02*
X7Y930D01*
X1566Y930D02*
X1573Y930D01*
X0Y929D02*
X7Y929D01*
X1566Y929D02*
X1573Y929D01*
X0Y928D02*
X7Y928D01*
X1566Y928D02*
X1573Y928D01*
X0Y927D02*
X7Y927D01*
X1566Y927D02*
X1573Y927D01*
X0Y926D02*
X7Y926D01*
X1566Y926D02*
X1573Y926D01*
X0Y925D02*
X7Y925D01*
X1566Y925D02*
X1573Y925D01*
X0Y924D02*
X7Y924D01*
X1566Y924D02*
X1573Y924D01*
X0Y923D02*
X7Y923D01*
X1566Y923D02*
X1573Y923D01*
X0Y922D02*
X7Y922D01*
X1566Y922D02*
X1573Y922D01*
X0Y921D02*
X7Y921D01*
X1566Y921D02*
X1573Y921D01*
X0Y920D02*
X7Y920D01*
X1566Y920D02*
X1573Y920D01*
X0Y919D02*
X7Y919D01*
X1566Y919D02*
X1573Y919D01*
X0Y918D02*
X7Y918D01*
X1566Y918D02*
X1573Y918D01*
X0Y917D02*
X7Y917D01*
X1566Y917D02*
X1573Y917D01*
X0Y916D02*
X7Y916D01*
X1566Y916D02*
X1573Y916D01*
X0Y915D02*
X7Y915D01*
X1566Y915D02*
X1573Y915D01*
X0Y914D02*
X7Y914D01*
X1566Y914D02*
X1573Y914D01*
X0Y913D02*
X7Y913D01*
X1566Y913D02*
X1573Y913D01*
X0Y912D02*
X7Y912D01*
X1566Y912D02*
X1573Y912D01*
X0Y911D02*
X7Y911D01*
X1566Y911D02*
X1573Y911D01*
X0Y910D02*
X7Y910D01*
X1566Y910D02*
X1573Y910D01*
X0Y909D02*
X7Y909D01*
X1566Y909D02*
X1573Y909D01*
X0Y908D02*
X7Y908D01*
X1566Y908D02*
X1573Y908D01*
X0Y907D02*
X7Y907D01*
X1566Y907D02*
X1573Y907D01*
X0Y906D02*
X7Y906D01*
X1566Y906D02*
X1573Y906D01*
X0Y905D02*
X7Y905D01*
X1566Y905D02*
X1573Y905D01*
X0Y904D02*
X7Y904D01*
X1566Y904D02*
X1573Y904D01*
X0Y903D02*
X7Y903D01*
X1566Y903D02*
X1573Y903D01*
X0Y902D02*
X7Y902D01*
X1566Y902D02*
X1573Y902D01*
X0Y901D02*
X7Y901D01*
X1566Y901D02*
X1573Y901D01*
X0Y900D02*
X7Y900D01*
X1566Y900D02*
X1573Y900D01*
X0Y899D02*
X7Y899D01*
X1566Y899D02*
X1573Y899D01*
X0Y898D02*
X7Y898D01*
X1566Y898D02*
X1573Y898D01*
X0Y897D02*
X7Y897D01*
X1566Y897D02*
X1573Y897D01*
X0Y896D02*
X7Y896D01*
X1566Y896D02*
X1573Y896D01*
X0Y895D02*
X7Y895D01*
X1566Y895D02*
X1573Y895D01*
X0Y894D02*
X7Y894D01*
X1566Y894D02*
X1573Y894D01*
X0Y893D02*
X7Y893D01*
X1566Y893D02*
X1573Y893D01*
X0Y892D02*
X7Y892D01*
X1566Y892D02*
X1573Y892D01*
X0Y891D02*
X7Y891D01*
X1566Y891D02*
X1573Y891D01*
X0Y890D02*
X7Y890D01*
X1566Y890D02*
X1573Y890D01*
X0Y889D02*
X7Y889D01*
X1566Y889D02*
X1573Y889D01*
X0Y888D02*
X7Y888D01*
X1566Y888D02*
X1573Y888D01*
X0Y887D02*
X7Y887D01*
X1566Y887D02*
X1573Y887D01*
X0Y886D02*
X7Y886D01*
X1566Y886D02*
X1573Y886D01*
X0Y885D02*
X7Y885D01*
X1566Y885D02*
X1573Y885D01*
X0Y884D02*
X7Y884D01*
X1566Y884D02*
X1573Y884D01*
X0Y883D02*
X7Y883D01*
X1566Y883D02*
X1573Y883D01*
X0Y882D02*
X7Y882D01*
X1566Y882D02*
X1573Y882D01*
X0Y881D02*
X7Y881D01*
X1566Y881D02*
X1573Y881D01*
X0Y880D02*
X7Y880D01*
X1566Y880D02*
X1573Y880D01*
X0Y879D02*
X7Y879D01*
X1566Y879D02*
X1573Y879D01*
X0Y878D02*
X7Y878D01*
X1566Y878D02*
X1573Y878D01*
X0Y877D02*
X7Y877D01*
X1566Y877D02*
X1573Y877D01*
X0Y876D02*
X7Y876D01*
X1566Y876D02*
X1573Y876D01*
X0Y875D02*
X7Y875D01*
X1566Y875D02*
X1573Y875D01*
X0Y874D02*
X7Y874D01*
X1566Y874D02*
X1573Y874D01*
X0Y873D02*
X7Y873D01*
X1566Y873D02*
X1573Y873D01*
X0Y872D02*
X7Y872D01*
X1566Y872D02*
X1573Y872D01*
X0Y871D02*
X7Y871D01*
X1566Y871D02*
X1573Y871D01*
X0Y870D02*
X7Y870D01*
X1566Y870D02*
X1573Y870D01*
X0Y869D02*
X7Y869D01*
X1566Y869D02*
X1573Y869D01*
X0Y868D02*
X7Y868D01*
X1566Y868D02*
X1573Y868D01*
X0Y867D02*
X7Y867D01*
X1566Y867D02*
X1573Y867D01*
X0Y866D02*
X7Y866D01*
X1566Y866D02*
X1573Y866D01*
X0Y865D02*
X7Y865D01*
X1566Y865D02*
X1573Y865D01*
X0Y864D02*
X7Y864D01*
X1566Y864D02*
X1573Y864D01*
X0Y863D02*
X7Y863D01*
X1566Y863D02*
X1573Y863D01*
X0Y862D02*
X7Y862D01*
X1566Y862D02*
X1573Y862D01*
X0Y861D02*
X7Y861D01*
X1566Y861D02*
X1573Y861D01*
X0Y860D02*
X7Y860D01*
X1566Y860D02*
X1573Y860D01*
X0Y859D02*
X7Y859D01*
X1566Y859D02*
X1573Y859D01*
X0Y858D02*
X7Y858D01*
X1566Y858D02*
X1573Y858D01*
X0Y857D02*
X7Y857D01*
X1566Y857D02*
X1573Y857D01*
X0Y856D02*
X7Y856D01*
X1566Y856D02*
X1573Y856D01*
X0Y855D02*
X7Y855D01*
X1566Y855D02*
X1573Y855D01*
X0Y854D02*
X7Y854D01*
X1566Y854D02*
X1573Y854D01*
X0Y853D02*
X7Y853D01*
X1566Y853D02*
X1573Y853D01*
X0Y852D02*
X7Y852D01*
X1566Y852D02*
X1573Y852D01*
X0Y851D02*
X7Y851D01*
X1566Y851D02*
X1573Y851D01*
X0Y850D02*
X7Y850D01*
X1566Y850D02*
X1573Y850D01*
X0Y849D02*
X7Y849D01*
X1566Y849D02*
X1573Y849D01*
X0Y848D02*
X7Y848D01*
X1566Y848D02*
X1573Y848D01*
X0Y847D02*
X7Y847D01*
X1566Y847D02*
X1573Y847D01*
X0Y846D02*
X7Y846D01*
X1566Y846D02*
X1573Y846D01*
X0Y845D02*
X7Y845D01*
X1566Y845D02*
X1573Y845D01*
X0Y844D02*
X7Y844D01*
X1566Y844D02*
X1573Y844D01*
X0Y843D02*
X7Y843D01*
X1566Y843D02*
X1573Y843D01*
X0Y842D02*
X7Y842D01*
X1566Y842D02*
X1573Y842D01*
X0Y841D02*
X7Y841D01*
X1566Y841D02*
X1573Y841D01*
X0Y840D02*
X7Y840D01*
X1566Y840D02*
X1573Y840D01*
X0Y839D02*
X7Y839D01*
X1566Y839D02*
X1573Y839D01*
X0Y838D02*
X7Y838D01*
X1566Y838D02*
X1573Y838D01*
X0Y837D02*
X7Y837D01*
X1566Y837D02*
X1573Y837D01*
X0Y836D02*
X7Y836D01*
X1566Y836D02*
X1573Y836D01*
X0Y835D02*
X7Y835D01*
X1566Y835D02*
X1573Y835D01*
X0Y834D02*
X7Y834D01*
X1566Y834D02*
X1573Y834D01*
X0Y833D02*
X7Y833D01*
X1566Y833D02*
X1573Y833D01*
X0Y832D02*
X7Y832D01*
X1566Y832D02*
X1573Y832D01*
X0Y831D02*
X7Y831D01*
X1566Y831D02*
X1573Y831D01*
X0Y830D02*
X7Y830D01*
X1566Y830D02*
X1573Y830D01*
X0Y829D02*
X7Y829D01*
X1566Y829D02*
X1573Y829D01*
X0Y828D02*
X7Y828D01*
X1566Y828D02*
X1573Y828D01*
X0Y827D02*
X7Y827D01*
X1566Y827D02*
X1573Y827D01*
X0Y826D02*
X7Y826D01*
X1566Y826D02*
X1573Y826D01*
X0Y825D02*
X7Y825D01*
X1566Y825D02*
X1573Y825D01*
X0Y824D02*
X7Y824D01*
X1566Y824D02*
X1573Y824D01*
X0Y823D02*
X7Y823D01*
X1566Y823D02*
X1573Y823D01*
X0Y822D02*
X7Y822D01*
X1566Y822D02*
X1573Y822D01*
X0Y821D02*
X7Y821D01*
X1566Y821D02*
X1573Y821D01*
X0Y820D02*
X7Y820D01*
X1566Y820D02*
X1573Y820D01*
X0Y819D02*
X7Y819D01*
X1566Y819D02*
X1573Y819D01*
X0Y818D02*
X7Y818D01*
X1566Y818D02*
X1573Y818D01*
X0Y817D02*
X7Y817D01*
X1566Y817D02*
X1573Y817D01*
X0Y816D02*
X7Y816D01*
X1566Y816D02*
X1573Y816D01*
X0Y815D02*
X7Y815D01*
X1566Y815D02*
X1573Y815D01*
X0Y814D02*
X7Y814D01*
X1566Y814D02*
X1573Y814D01*
X0Y813D02*
X7Y813D01*
X1566Y813D02*
X1573Y813D01*
X0Y812D02*
X7Y812D01*
X1566Y812D02*
X1573Y812D01*
X0Y811D02*
X7Y811D01*
X1566Y811D02*
X1573Y811D01*
X0Y810D02*
X7Y810D01*
X1566Y810D02*
X1573Y810D01*
X0Y809D02*
X7Y809D01*
X1566Y809D02*
X1573Y809D01*
X0Y808D02*
X7Y808D01*
X1566Y808D02*
X1573Y808D01*
X0Y807D02*
X7Y807D01*
X1566Y807D02*
X1573Y807D01*
X0Y806D02*
X7Y806D01*
X1566Y806D02*
X1573Y806D01*
X0Y805D02*
X7Y805D01*
X1566Y805D02*
X1573Y805D01*
X0Y804D02*
X7Y804D01*
X1566Y804D02*
X1573Y804D01*
X0Y803D02*
X7Y803D01*
X1566Y803D02*
X1573Y803D01*
X0Y802D02*
X7Y802D01*
X1566Y802D02*
X1573Y802D01*
X0Y801D02*
X7Y801D01*
X1566Y801D02*
X1573Y801D01*
X0Y800D02*
X7Y800D01*
X1566Y800D02*
X1573Y800D01*
X0Y799D02*
X7Y799D01*
X1566Y799D02*
X1573Y799D01*
X0Y798D02*
X7Y798D01*
X1566Y798D02*
X1573Y798D01*
X0Y797D02*
X7Y797D01*
X1566Y797D02*
X1573Y797D01*
X0Y796D02*
X7Y796D01*
X1566Y796D02*
X1573Y796D01*
X0Y795D02*
X7Y795D01*
X1566Y795D02*
X1573Y795D01*
X0Y794D02*
X7Y794D01*
X1566Y794D02*
X1573Y794D01*
X0Y793D02*
X7Y793D01*
X1566Y793D02*
X1573Y793D01*
X0Y792D02*
X7Y792D01*
X1566Y792D02*
X1573Y792D01*
X0Y791D02*
X7Y791D01*
X1566Y791D02*
X1573Y791D01*
X0Y790D02*
X7Y790D01*
X1566Y790D02*
X1573Y790D01*
X0Y789D02*
X7Y789D01*
X1566Y789D02*
X1573Y789D01*
X0Y788D02*
X7Y788D01*
X1566Y788D02*
X1573Y788D01*
X0Y787D02*
X7Y787D01*
X1566Y787D02*
X1573Y787D01*
X0Y786D02*
X7Y786D01*
X1566Y786D02*
X1573Y786D01*
X0Y785D02*
X7Y785D01*
X1566Y785D02*
X1573Y785D01*
X0Y784D02*
X7Y784D01*
X1566Y784D02*
X1573Y784D01*
X0Y783D02*
X7Y783D01*
X1566Y783D02*
X1573Y783D01*
X0Y782D02*
X7Y782D01*
X1566Y782D02*
X1573Y782D01*
X0Y781D02*
X7Y781D01*
X1566Y781D02*
X1573Y781D01*
X0Y780D02*
X7Y780D01*
X1566Y780D02*
X1573Y780D01*
X0Y779D02*
X7Y779D01*
X1566Y779D02*
X1573Y779D01*
X0Y778D02*
X7Y778D01*
X1566Y778D02*
X1573Y778D01*
X0Y777D02*
X7Y777D01*
X1566Y777D02*
X1573Y777D01*
X0Y776D02*
X7Y776D01*
X1566Y776D02*
X1573Y776D01*
X0Y775D02*
X7Y775D01*
X1566Y775D02*
X1573Y775D01*
X0Y774D02*
X7Y774D01*
X1566Y774D02*
X1573Y774D01*
X0Y773D02*
X7Y773D01*
X1566Y773D02*
X1573Y773D01*
X0Y772D02*
X7Y772D01*
X1566Y772D02*
X1573Y772D01*
X0Y771D02*
X7Y771D01*
X1566Y771D02*
X1573Y771D01*
X0Y770D02*
X7Y770D01*
X1566Y770D02*
X1573Y770D01*
X0Y769D02*
X7Y769D01*
X1566Y769D02*
X1573Y769D01*
X0Y768D02*
X7Y768D01*
X1566Y768D02*
X1573Y768D01*
X0Y767D02*
X7Y767D01*
X1566Y767D02*
X1573Y767D01*
X0Y766D02*
X7Y766D01*
X1566Y766D02*
X1573Y766D01*
X0Y765D02*
X7Y765D01*
X1566Y765D02*
X1573Y765D01*
X0Y764D02*
X7Y764D01*
X1566Y764D02*
X1573Y764D01*
X0Y763D02*
X7Y763D01*
X1566Y763D02*
X1573Y763D01*
X0Y762D02*
X7Y762D01*
X1566Y762D02*
X1573Y762D01*
X0Y761D02*
X7Y761D01*
X1566Y761D02*
X1573Y761D01*
X0Y760D02*
X7Y760D01*
X1566Y760D02*
X1573Y760D01*
X0Y759D02*
X7Y759D01*
X1566Y759D02*
X1573Y759D01*
X0Y758D02*
X7Y758D01*
X1566Y758D02*
X1573Y758D01*
X0Y757D02*
X7Y757D01*
X1566Y757D02*
X1573Y757D01*
X0Y756D02*
X7Y756D01*
X1566Y756D02*
X1573Y756D01*
X0Y755D02*
X7Y755D01*
X1566Y755D02*
X1573Y755D01*
X0Y754D02*
X7Y754D01*
X1566Y754D02*
X1573Y754D01*
X0Y753D02*
X7Y753D01*
X1566Y753D02*
X1573Y753D01*
X0Y752D02*
X7Y752D01*
X1566Y752D02*
X1573Y752D01*
X0Y751D02*
X7Y751D01*
X1566Y751D02*
X1573Y751D01*
X0Y750D02*
X7Y750D01*
X1566Y750D02*
X1573Y750D01*
X0Y749D02*
X7Y749D01*
X1566Y749D02*
X1573Y749D01*
X0Y748D02*
X7Y748D01*
X1566Y748D02*
X1573Y748D01*
X0Y747D02*
X7Y747D01*
X1566Y747D02*
X1573Y747D01*
X0Y746D02*
X7Y746D01*
X1566Y746D02*
X1573Y746D01*
X0Y745D02*
X7Y745D01*
X1566Y745D02*
X1573Y745D01*
X0Y744D02*
X7Y744D01*
X1566Y744D02*
X1573Y744D01*
X0Y743D02*
X7Y743D01*
X1566Y743D02*
X1573Y743D01*
X0Y742D02*
X7Y742D01*
X1566Y742D02*
X1573Y742D01*
X0Y741D02*
X7Y741D01*
X1566Y741D02*
X1573Y741D01*
X0Y740D02*
X7Y740D01*
X1566Y740D02*
X1573Y740D01*
X0Y739D02*
X7Y739D01*
X1566Y739D02*
X1573Y739D01*
X0Y738D02*
X7Y738D01*
X1566Y738D02*
X1573Y738D01*
X0Y737D02*
X7Y737D01*
X1566Y737D02*
X1573Y737D01*
X0Y736D02*
X7Y736D01*
X1566Y736D02*
X1573Y736D01*
X0Y735D02*
X7Y735D01*
X1566Y735D02*
X1573Y735D01*
X0Y734D02*
X7Y734D01*
X1566Y734D02*
X1573Y734D01*
X0Y733D02*
X7Y733D01*
X1566Y733D02*
X1573Y733D01*
X0Y732D02*
X7Y732D01*
X1566Y732D02*
X1573Y732D01*
X0Y731D02*
X7Y731D01*
X1566Y731D02*
X1573Y731D01*
X0Y730D02*
X7Y730D01*
X1566Y730D02*
X1573Y730D01*
X0Y729D02*
X7Y729D01*
X1566Y729D02*
X1573Y729D01*
X0Y728D02*
X7Y728D01*
X1566Y728D02*
X1573Y728D01*
X0Y727D02*
X7Y727D01*
X1566Y727D02*
X1573Y727D01*
X0Y726D02*
X7Y726D01*
X1566Y726D02*
X1573Y726D01*
X0Y725D02*
X7Y725D01*
X1566Y725D02*
X1573Y725D01*
X0Y724D02*
X7Y724D01*
X1566Y724D02*
X1573Y724D01*
X0Y723D02*
X7Y723D01*
X1566Y723D02*
X1573Y723D01*
X0Y722D02*
X7Y722D01*
X1566Y722D02*
X1573Y722D01*
X0Y721D02*
X7Y721D01*
X1566Y721D02*
X1573Y721D01*
X0Y720D02*
X7Y720D01*
X1566Y720D02*
X1573Y720D01*
X0Y719D02*
X7Y719D01*
X1566Y719D02*
X1573Y719D01*
X0Y718D02*
X7Y718D01*
X1566Y718D02*
X1573Y718D01*
X0Y717D02*
X7Y717D01*
X1566Y717D02*
X1573Y717D01*
X0Y716D02*
X7Y716D01*
X1566Y716D02*
X1573Y716D01*
X0Y715D02*
X7Y715D01*
X1566Y715D02*
X1573Y715D01*
X0Y714D02*
X7Y714D01*
X1566Y714D02*
X1573Y714D01*
X0Y713D02*
X7Y713D01*
X1566Y713D02*
X1573Y713D01*
X0Y712D02*
X7Y712D01*
X1566Y712D02*
X1573Y712D01*
X0Y711D02*
X7Y711D01*
X1566Y711D02*
X1573Y711D01*
X0Y710D02*
X7Y710D01*
X1566Y710D02*
X1573Y710D01*
X0Y709D02*
X7Y709D01*
X1566Y709D02*
X1573Y709D01*
X0Y708D02*
X7Y708D01*
X1566Y708D02*
X1573Y708D01*
X0Y707D02*
X7Y707D01*
X1566Y707D02*
X1573Y707D01*
X0Y706D02*
X7Y706D01*
X1566Y706D02*
X1573Y706D01*
X0Y705D02*
X7Y705D01*
X1566Y705D02*
X1573Y705D01*
X0Y704D02*
X7Y704D01*
X1566Y704D02*
X1573Y704D01*
X0Y703D02*
X7Y703D01*
X1566Y703D02*
X1573Y703D01*
X0Y702D02*
X7Y702D01*
X1566Y702D02*
X1573Y702D01*
X0Y701D02*
X6Y701D01*
X1566Y701D02*
X1573Y701D01*
X0Y700D02*
X6Y700D01*
X1566Y700D02*
X1573Y700D01*
X0Y699D02*
X5Y699D01*
X1566Y699D02*
X1573Y699D01*
X0Y698D02*
X5Y698D01*
X1566Y698D02*
X1573Y698D01*
X0Y697D02*
X4Y697D01*
X1566Y697D02*
X1573Y697D01*
X0Y696D02*
X4Y696D01*
X1566Y696D02*
X1573Y696D01*
X0Y695D02*
X3Y695D01*
X1566Y695D02*
X1573Y695D01*
X0Y694D02*
X3Y694D01*
X1566Y694D02*
X1573Y694D01*
X0Y693D02*
X3Y693D01*
X1566Y693D02*
X1573Y693D01*
X0Y692D02*
X3Y692D01*
X1566Y692D02*
X1573Y692D01*
X0Y691D02*
X2Y691D01*
X1566Y691D02*
X1573Y691D01*
X0Y690D02*
X2Y690D01*
X1566Y690D02*
X1573Y690D01*
X0Y689D02*
X2Y689D01*
X1566Y689D02*
X1573Y689D01*
X0Y688D02*
X2Y688D01*
X1566Y688D02*
X1573Y688D01*
X0Y687D02*
X1Y687D01*
X1566Y687D02*
X1573Y687D01*
X0Y686D02*
X1Y686D01*
X1566Y686D02*
X1573Y686D01*
X0Y685D02*
X1Y685D01*
X1566Y685D02*
X1573Y685D01*
X0Y684D02*
X1Y684D01*
X1566Y684D02*
X1573Y684D01*
X0Y683D02*
X1Y683D01*
X1566Y683D02*
X1573Y683D01*
X0Y682D02*
X1Y682D01*
X1566Y682D02*
X1573Y682D01*
X0Y681D02*
X1Y681D01*
X1566Y681D02*
X1573Y681D01*
X0Y680D02*
X1Y680D01*
X1566Y680D02*
X1573Y680D01*
X0Y679D02*
X1Y679D01*
X1566Y679D02*
X1573Y679D01*
X0Y678D02*
X1Y678D01*
X1566Y678D02*
X1573Y678D01*
X0Y677D02*
X1Y677D01*
X1566Y677D02*
X1573Y677D01*
X0Y676D02*
X1Y676D01*
X1566Y676D02*
X1573Y676D01*
X0Y675D02*
X1Y675D01*
X1566Y675D02*
X1573Y675D01*
X0Y674D02*
X2Y674D01*
X1566Y674D02*
X1573Y674D01*
X0Y673D02*
X2Y673D01*
X1566Y673D02*
X1573Y673D01*
X0Y672D02*
X2Y672D01*
X1566Y672D02*
X1573Y672D01*
X0Y671D02*
X2Y671D01*
X1566Y671D02*
X1573Y671D01*
X0Y670D02*
X2Y670D01*
X1566Y670D02*
X1573Y670D01*
X0Y669D02*
X3Y669D01*
X1566Y669D02*
X1573Y669D01*
X0Y668D02*
X3Y668D01*
X1566Y668D02*
X1573Y668D01*
X0Y667D02*
X3Y667D01*
X1566Y667D02*
X1573Y667D01*
X0Y666D02*
X4Y666D01*
X1566Y666D02*
X1573Y666D01*
X0Y665D02*
X4Y665D01*
X1566Y665D02*
X1573Y665D01*
X0Y664D02*
X4Y664D01*
X1566Y664D02*
X1573Y664D01*
X0Y663D02*
X5Y663D01*
X1566Y663D02*
X1573Y663D01*
X0Y662D02*
X5Y662D01*
X1566Y662D02*
X1573Y662D01*
X0Y661D02*
X6Y661D01*
X1566Y661D02*
X1573Y661D01*
X0Y660D02*
X7Y660D01*
X1566Y660D02*
X1573Y660D01*
X0Y659D02*
X7Y659D01*
X1566Y659D02*
X1573Y659D01*
X0Y658D02*
X7Y658D01*
X1566Y658D02*
X1573Y658D01*
X0Y657D02*
X7Y657D01*
X1566Y657D02*
X1573Y657D01*
X0Y656D02*
X7Y656D01*
X1566Y656D02*
X1573Y656D01*
X0Y655D02*
X7Y655D01*
X1566Y655D02*
X1573Y655D01*
X0Y654D02*
X7Y654D01*
X1566Y654D02*
X1573Y654D01*
X0Y653D02*
X7Y653D01*
X1566Y653D02*
X1573Y653D01*
X0Y652D02*
X7Y652D01*
X1566Y652D02*
X1573Y652D01*
X0Y651D02*
X7Y651D01*
X1566Y651D02*
X1573Y651D01*
X0Y650D02*
X7Y650D01*
X1566Y650D02*
X1573Y650D01*
X0Y649D02*
X7Y649D01*
X1566Y649D02*
X1573Y649D01*
X0Y648D02*
X7Y648D01*
X1566Y648D02*
X1573Y648D01*
X0Y647D02*
X7Y647D01*
X1566Y647D02*
X1573Y647D01*
X0Y646D02*
X7Y646D01*
X1566Y646D02*
X1573Y646D01*
X0Y645D02*
X7Y645D01*
X1566Y645D02*
X1573Y645D01*
X0Y644D02*
X7Y644D01*
X1566Y644D02*
X1573Y644D01*
X0Y643D02*
X7Y643D01*
X1566Y643D02*
X1573Y643D01*
X0Y642D02*
X7Y642D01*
X1566Y642D02*
X1573Y642D01*
X0Y641D02*
X7Y641D01*
X1566Y641D02*
X1573Y641D01*
X0Y640D02*
X7Y640D01*
X1566Y640D02*
X1573Y640D01*
X0Y639D02*
X7Y639D01*
X1566Y639D02*
X1573Y639D01*
X0Y638D02*
X7Y638D01*
X1566Y638D02*
X1573Y638D01*
X0Y637D02*
X7Y637D01*
X1566Y637D02*
X1573Y637D01*
X0Y636D02*
X7Y636D01*
X1566Y636D02*
X1573Y636D01*
X0Y635D02*
X7Y635D01*
X1566Y635D02*
X1573Y635D01*
X0Y634D02*
X7Y634D01*
X1566Y634D02*
X1573Y634D01*
X0Y633D02*
X7Y633D01*
X1566Y633D02*
X1573Y633D01*
X0Y632D02*
X7Y632D01*
X1566Y632D02*
X1573Y632D01*
X0Y631D02*
X7Y631D01*
X1566Y631D02*
X1573Y631D01*
X0Y630D02*
X7Y630D01*
X1566Y630D02*
X1573Y630D01*
X0Y629D02*
X7Y629D01*
X1566Y629D02*
X1573Y629D01*
X0Y628D02*
X7Y628D01*
X1566Y628D02*
X1573Y628D01*
X0Y627D02*
X7Y627D01*
X1566Y627D02*
X1573Y627D01*
X0Y626D02*
X7Y626D01*
X1566Y626D02*
X1573Y626D01*
X0Y625D02*
X7Y625D01*
X1566Y625D02*
X1573Y625D01*
X0Y624D02*
X7Y624D01*
X1566Y624D02*
X1573Y624D01*
X0Y623D02*
X7Y623D01*
X1566Y623D02*
X1573Y623D01*
X0Y622D02*
X7Y622D01*
X1566Y622D02*
X1573Y622D01*
X0Y621D02*
X7Y621D01*
X1566Y621D02*
X1573Y621D01*
X0Y620D02*
X7Y620D01*
X1566Y620D02*
X1573Y620D01*
X0Y619D02*
X7Y619D01*
X1566Y619D02*
X1573Y619D01*
X0Y618D02*
X7Y618D01*
X1566Y618D02*
X1573Y618D01*
X0Y617D02*
X7Y617D01*
X1566Y617D02*
X1573Y617D01*
X0Y616D02*
X7Y616D01*
X1566Y616D02*
X1573Y616D01*
X0Y615D02*
X7Y615D01*
X1566Y615D02*
X1573Y615D01*
X0Y614D02*
X7Y614D01*
X1566Y614D02*
X1573Y614D01*
X0Y613D02*
X7Y613D01*
X1566Y613D02*
X1573Y613D01*
X0Y612D02*
X7Y612D01*
X1566Y612D02*
X1573Y612D01*
X0Y611D02*
X7Y611D01*
X1566Y611D02*
X1573Y611D01*
X0Y610D02*
X7Y610D01*
X1566Y610D02*
X1573Y610D01*
X0Y609D02*
X7Y609D01*
X1566Y609D02*
X1573Y609D01*
X0Y608D02*
X7Y608D01*
X1566Y608D02*
X1573Y608D01*
X0Y607D02*
X7Y607D01*
X1566Y607D02*
X1573Y607D01*
X0Y606D02*
X7Y606D01*
X1566Y606D02*
X1573Y606D01*
X0Y605D02*
X7Y605D01*
X1566Y605D02*
X1573Y605D01*
X0Y604D02*
X7Y604D01*
X1566Y604D02*
X1573Y604D01*
X0Y603D02*
X7Y603D01*
X1566Y603D02*
X1573Y603D01*
X0Y602D02*
X7Y602D01*
X1566Y602D02*
X1573Y602D01*
X0Y601D02*
X7Y601D01*
X1566Y601D02*
X1573Y601D01*
X0Y600D02*
X7Y600D01*
X1566Y600D02*
X1573Y600D01*
X0Y599D02*
X7Y599D01*
X1566Y599D02*
X1573Y599D01*
X0Y598D02*
X7Y598D01*
X1566Y598D02*
X1573Y598D01*
X0Y597D02*
X7Y597D01*
X1566Y597D02*
X1573Y597D01*
X0Y596D02*
X7Y596D01*
X1566Y596D02*
X1573Y596D01*
X0Y595D02*
X7Y595D01*
X1566Y595D02*
X1573Y595D01*
X0Y594D02*
X7Y594D01*
X1566Y594D02*
X1573Y594D01*
X0Y593D02*
X7Y593D01*
X1566Y593D02*
X1573Y593D01*
X0Y592D02*
X7Y592D01*
X1566Y592D02*
X1573Y592D01*
X0Y591D02*
X7Y591D01*
X1566Y591D02*
X1573Y591D01*
X0Y590D02*
X7Y590D01*
X1566Y590D02*
X1573Y590D01*
X0Y589D02*
X7Y589D01*
X1566Y589D02*
X1573Y589D01*
X0Y588D02*
X7Y588D01*
X1566Y588D02*
X1573Y588D01*
X0Y587D02*
X7Y587D01*
X1566Y587D02*
X1573Y587D01*
X0Y586D02*
X7Y586D01*
X1566Y586D02*
X1573Y586D01*
X0Y585D02*
X7Y585D01*
X1566Y585D02*
X1573Y585D01*
X0Y584D02*
X7Y584D01*
X1566Y584D02*
X1573Y584D01*
X0Y583D02*
X7Y583D01*
X1566Y583D02*
X1573Y583D01*
X0Y582D02*
X7Y582D01*
X1566Y582D02*
X1573Y582D01*
X0Y581D02*
X7Y581D01*
X1566Y581D02*
X1573Y581D01*
X0Y580D02*
X7Y580D01*
X1566Y580D02*
X1573Y580D01*
X0Y579D02*
X7Y579D01*
X1566Y579D02*
X1573Y579D01*
X0Y578D02*
X7Y578D01*
X1566Y578D02*
X1573Y578D01*
X0Y577D02*
X7Y577D01*
X1566Y577D02*
X1573Y577D01*
X0Y576D02*
X7Y576D01*
X1566Y576D02*
X1573Y576D01*
X0Y575D02*
X7Y575D01*
X1566Y575D02*
X1573Y575D01*
X0Y574D02*
X7Y574D01*
X1566Y574D02*
X1573Y574D01*
X0Y573D02*
X7Y573D01*
X1566Y573D02*
X1573Y573D01*
X0Y572D02*
X7Y572D01*
X1566Y572D02*
X1573Y572D01*
X0Y571D02*
X7Y571D01*
X1566Y571D02*
X1573Y571D01*
X0Y570D02*
X7Y570D01*
X1566Y570D02*
X1573Y570D01*
X0Y569D02*
X7Y569D01*
X1566Y569D02*
X1573Y569D01*
X0Y568D02*
X7Y568D01*
X1566Y568D02*
X1573Y568D01*
X0Y567D02*
X7Y567D01*
X1566Y567D02*
X1573Y567D01*
X0Y566D02*
X7Y566D01*
X1566Y566D02*
X1573Y566D01*
X0Y565D02*
X7Y565D01*
X1566Y565D02*
X1573Y565D01*
X0Y564D02*
X7Y564D01*
X1566Y564D02*
X1573Y564D01*
X0Y563D02*
X7Y563D01*
X1566Y563D02*
X1573Y563D01*
X0Y562D02*
X7Y562D01*
X1566Y562D02*
X1573Y562D01*
X0Y561D02*
X7Y561D01*
X1566Y561D02*
X1573Y561D01*
X0Y560D02*
X7Y560D01*
X1566Y560D02*
X1573Y560D01*
X0Y559D02*
X7Y559D01*
X1566Y559D02*
X1573Y559D01*
X0Y558D02*
X7Y558D01*
X1566Y558D02*
X1573Y558D01*
X0Y557D02*
X7Y557D01*
X1566Y557D02*
X1573Y557D01*
X0Y556D02*
X7Y556D01*
X1566Y556D02*
X1573Y556D01*
X0Y555D02*
X7Y555D01*
X1566Y555D02*
X1573Y555D01*
X0Y554D02*
X7Y554D01*
X1566Y554D02*
X1573Y554D01*
X0Y553D02*
X7Y553D01*
X1566Y553D02*
X1573Y553D01*
X0Y552D02*
X7Y552D01*
X1566Y552D02*
X1573Y552D01*
X0Y551D02*
X7Y551D01*
X1566Y551D02*
X1573Y551D01*
X0Y550D02*
X7Y550D01*
X1566Y550D02*
X1573Y550D01*
X0Y549D02*
X7Y549D01*
X1566Y549D02*
X1573Y549D01*
X0Y548D02*
X7Y548D01*
X1566Y548D02*
X1573Y548D01*
X0Y547D02*
X7Y547D01*
X1566Y547D02*
X1573Y547D01*
X0Y546D02*
X7Y546D01*
X1566Y546D02*
X1573Y546D01*
X0Y545D02*
X7Y545D01*
X1566Y545D02*
X1573Y545D01*
X0Y544D02*
X7Y544D01*
X1566Y544D02*
X1573Y544D01*
X0Y543D02*
X7Y543D01*
X1566Y543D02*
X1573Y543D01*
X0Y542D02*
X7Y542D01*
X1566Y542D02*
X1573Y542D01*
X0Y541D02*
X7Y541D01*
X1566Y541D02*
X1573Y541D01*
X0Y540D02*
X7Y540D01*
X1566Y540D02*
X1573Y540D01*
X0Y539D02*
X7Y539D01*
X1566Y539D02*
X1573Y539D01*
X0Y538D02*
X7Y538D01*
X1566Y538D02*
X1573Y538D01*
X0Y537D02*
X7Y537D01*
X1566Y537D02*
X1573Y537D01*
X0Y536D02*
X7Y536D01*
X1566Y536D02*
X1573Y536D01*
X0Y535D02*
X7Y535D01*
X1566Y535D02*
X1573Y535D01*
X0Y534D02*
X7Y534D01*
X1566Y534D02*
X1573Y534D01*
X0Y533D02*
X7Y533D01*
X1566Y533D02*
X1573Y533D01*
X0Y532D02*
X7Y532D01*
X1566Y532D02*
X1573Y532D01*
X0Y531D02*
X7Y531D01*
X1566Y531D02*
X1573Y531D01*
X0Y530D02*
X7Y530D01*
X1566Y530D02*
X1573Y530D01*
X0Y529D02*
X7Y529D01*
X1566Y529D02*
X1573Y529D01*
X0Y528D02*
X7Y528D01*
X1566Y528D02*
X1573Y528D01*
X0Y527D02*
X7Y527D01*
X1566Y527D02*
X1573Y527D01*
X0Y526D02*
X7Y526D01*
X1566Y526D02*
X1573Y526D01*
X0Y525D02*
X7Y525D01*
X1566Y525D02*
X1573Y525D01*
X0Y524D02*
X7Y524D01*
X1566Y524D02*
X1573Y524D01*
X0Y523D02*
X7Y523D01*
X1566Y523D02*
X1573Y523D01*
X0Y522D02*
X7Y522D01*
X1566Y522D02*
X1573Y522D01*
X0Y521D02*
X7Y521D01*
X1566Y521D02*
X1573Y521D01*
X0Y520D02*
X7Y520D01*
X1566Y520D02*
X1573Y520D01*
X0Y519D02*
X7Y519D01*
X1566Y519D02*
X1573Y519D01*
X0Y518D02*
X7Y518D01*
X1566Y518D02*
X1573Y518D01*
X0Y517D02*
X7Y517D01*
X1566Y517D02*
X1573Y517D01*
X0Y516D02*
X7Y516D01*
X1566Y516D02*
X1573Y516D01*
X0Y515D02*
X7Y515D01*
X1566Y515D02*
X1573Y515D01*
X0Y514D02*
X7Y514D01*
X1566Y514D02*
X1573Y514D01*
X0Y513D02*
X7Y513D01*
X1566Y513D02*
X1573Y513D01*
X0Y512D02*
X7Y512D01*
X1566Y512D02*
X1573Y512D01*
X0Y511D02*
X7Y511D01*
X1566Y511D02*
X1573Y511D01*
X0Y510D02*
X7Y510D01*
X1566Y510D02*
X1573Y510D01*
X0Y509D02*
X7Y509D01*
X1566Y509D02*
X1573Y509D01*
X0Y508D02*
X7Y508D01*
X1566Y508D02*
X1573Y508D01*
X0Y507D02*
X7Y507D01*
X1566Y507D02*
X1573Y507D01*
X0Y506D02*
X7Y506D01*
X1566Y506D02*
X1573Y506D01*
X0Y505D02*
X7Y505D01*
X1566Y505D02*
X1573Y505D01*
X0Y504D02*
X7Y504D01*
X1566Y504D02*
X1573Y504D01*
X0Y503D02*
X7Y503D01*
X1566Y503D02*
X1573Y503D01*
X0Y502D02*
X7Y502D01*
X1566Y502D02*
X1573Y502D01*
X0Y501D02*
X7Y501D01*
X1566Y501D02*
X1573Y501D01*
X0Y500D02*
X7Y500D01*
X1566Y500D02*
X1573Y500D01*
X0Y499D02*
X7Y499D01*
X1566Y499D02*
X1573Y499D01*
X0Y498D02*
X7Y498D01*
X1566Y498D02*
X1573Y498D01*
X0Y497D02*
X7Y497D01*
X1566Y497D02*
X1573Y497D01*
X0Y496D02*
X7Y496D01*
X1566Y496D02*
X1573Y496D01*
X0Y495D02*
X7Y495D01*
X1566Y495D02*
X1573Y495D01*
X0Y494D02*
X7Y494D01*
X1566Y494D02*
X1573Y494D01*
X0Y493D02*
X7Y493D01*
X1566Y493D02*
X1573Y493D01*
X0Y492D02*
X7Y492D01*
X1566Y492D02*
X1573Y492D01*
X0Y491D02*
X7Y491D01*
X1566Y491D02*
X1573Y491D01*
X0Y490D02*
X7Y490D01*
X1566Y490D02*
X1573Y490D01*
X0Y489D02*
X7Y489D01*
X1566Y489D02*
X1573Y489D01*
X0Y488D02*
X7Y488D01*
X1566Y488D02*
X1573Y488D01*
X0Y487D02*
X7Y487D01*
X1566Y487D02*
X1573Y487D01*
X0Y486D02*
X7Y486D01*
X1566Y486D02*
X1573Y486D01*
X0Y485D02*
X7Y485D01*
X1566Y485D02*
X1573Y485D01*
X0Y484D02*
X7Y484D01*
X1566Y484D02*
X1573Y484D01*
X0Y483D02*
X7Y483D01*
X1566Y483D02*
X1573Y483D01*
X0Y482D02*
X7Y482D01*
X1566Y482D02*
X1573Y482D01*
X0Y481D02*
X7Y481D01*
X1566Y481D02*
X1573Y481D01*
X0Y480D02*
X7Y480D01*
X1566Y480D02*
X1573Y480D01*
X0Y479D02*
X7Y479D01*
X1566Y479D02*
X1573Y479D01*
X0Y478D02*
X7Y478D01*
X1566Y478D02*
X1573Y478D01*
X0Y477D02*
X7Y477D01*
X1566Y477D02*
X1573Y477D01*
X0Y476D02*
X7Y476D01*
X1566Y476D02*
X1573Y476D01*
X0Y475D02*
X7Y475D01*
X1566Y475D02*
X1573Y475D01*
X0Y474D02*
X7Y474D01*
X1566Y474D02*
X1573Y474D01*
X0Y473D02*
X7Y473D01*
X1566Y473D02*
X1573Y473D01*
X0Y472D02*
X7Y472D01*
X1566Y472D02*
X1573Y472D01*
X0Y471D02*
X7Y471D01*
X1566Y471D02*
X1573Y471D01*
X0Y470D02*
X7Y470D01*
X1566Y470D02*
X1573Y470D01*
X0Y469D02*
X7Y469D01*
X1566Y469D02*
X1573Y469D01*
X0Y468D02*
X7Y468D01*
X1566Y468D02*
X1573Y468D01*
X0Y467D02*
X7Y467D01*
X1566Y467D02*
X1573Y467D01*
X0Y466D02*
X7Y466D01*
X1566Y466D02*
X1573Y466D01*
X0Y465D02*
X7Y465D01*
X1566Y465D02*
X1573Y465D01*
X0Y464D02*
X7Y464D01*
X1566Y464D02*
X1573Y464D01*
X0Y463D02*
X7Y463D01*
X1566Y463D02*
X1573Y463D01*
X0Y462D02*
X7Y462D01*
X1566Y462D02*
X1573Y462D01*
X0Y461D02*
X7Y461D01*
X1566Y461D02*
X1573Y461D01*
X0Y460D02*
X7Y460D01*
X1566Y460D02*
X1573Y460D01*
X0Y459D02*
X7Y459D01*
X1566Y459D02*
X1573Y459D01*
X0Y458D02*
X7Y458D01*
X1566Y458D02*
X1573Y458D01*
X0Y457D02*
X7Y457D01*
X1566Y457D02*
X1573Y457D01*
X0Y456D02*
X7Y456D01*
X1566Y456D02*
X1573Y456D01*
X0Y455D02*
X7Y455D01*
X1566Y455D02*
X1573Y455D01*
X0Y454D02*
X7Y454D01*
X1566Y454D02*
X1573Y454D01*
X0Y453D02*
X7Y453D01*
X1566Y453D02*
X1573Y453D01*
X0Y452D02*
X7Y452D01*
X1566Y452D02*
X1573Y452D01*
X0Y451D02*
X7Y451D01*
X1566Y451D02*
X1573Y451D01*
X0Y450D02*
X7Y450D01*
X1566Y450D02*
X1573Y450D01*
X0Y449D02*
X7Y449D01*
X1566Y449D02*
X1573Y449D01*
X0Y448D02*
X7Y448D01*
X1566Y448D02*
X1573Y448D01*
X0Y447D02*
X7Y447D01*
X1566Y447D02*
X1573Y447D01*
X0Y446D02*
X7Y446D01*
X1566Y446D02*
X1573Y446D01*
X0Y445D02*
X7Y445D01*
X1566Y445D02*
X1573Y445D01*
X0Y444D02*
X7Y444D01*
X1566Y444D02*
X1573Y444D01*
X0Y443D02*
X7Y443D01*
X1566Y443D02*
X1573Y443D01*
X0Y442D02*
X7Y442D01*
X1566Y442D02*
X1573Y442D01*
X0Y441D02*
X7Y441D01*
X1566Y441D02*
X1573Y441D01*
X0Y440D02*
X7Y440D01*
X1566Y440D02*
X1573Y440D01*
X0Y439D02*
X7Y439D01*
X1566Y439D02*
X1573Y439D01*
X0Y438D02*
X7Y438D01*
X1566Y438D02*
X1573Y438D01*
X0Y437D02*
X7Y437D01*
X1566Y437D02*
X1573Y437D01*
X0Y436D02*
X7Y436D01*
X1566Y436D02*
X1573Y436D01*
X0Y435D02*
X7Y435D01*
X1566Y435D02*
X1573Y435D01*
X0Y434D02*
X7Y434D01*
X1566Y434D02*
X1573Y434D01*
X0Y433D02*
X7Y433D01*
X1566Y433D02*
X1573Y433D01*
X0Y432D02*
X7Y432D01*
X1566Y432D02*
X1573Y432D01*
X0Y431D02*
X7Y431D01*
X1566Y431D02*
X1573Y431D01*
X0Y430D02*
X7Y430D01*
X1566Y430D02*
X1573Y430D01*
X0Y429D02*
X7Y429D01*
X1566Y429D02*
X1573Y429D01*
X0Y428D02*
X7Y428D01*
X1566Y428D02*
X1573Y428D01*
X0Y427D02*
X7Y427D01*
X1566Y427D02*
X1573Y427D01*
X0Y426D02*
X7Y426D01*
X1566Y426D02*
X1573Y426D01*
X0Y425D02*
X7Y425D01*
X1566Y425D02*
X1573Y425D01*
X0Y424D02*
X7Y424D01*
X1566Y424D02*
X1573Y424D01*
X0Y423D02*
X7Y423D01*
X1566Y423D02*
X1573Y423D01*
X0Y422D02*
X7Y422D01*
X1566Y422D02*
X1573Y422D01*
X0Y421D02*
X7Y421D01*
X1566Y421D02*
X1573Y421D01*
X0Y420D02*
X7Y420D01*
X1566Y420D02*
X1573Y420D01*
X0Y419D02*
X7Y419D01*
X1566Y419D02*
X1573Y419D01*
X0Y418D02*
X7Y418D01*
X1566Y418D02*
X1573Y418D01*
X0Y417D02*
X7Y417D01*
X1566Y417D02*
X1573Y417D01*
X0Y416D02*
X7Y416D01*
X1566Y416D02*
X1573Y416D01*
X0Y415D02*
X7Y415D01*
X1566Y415D02*
X1573Y415D01*
X0Y414D02*
X7Y414D01*
X1566Y414D02*
X1573Y414D01*
X0Y413D02*
X7Y413D01*
X1566Y413D02*
X1573Y413D01*
X0Y412D02*
X7Y412D01*
X1566Y412D02*
X1573Y412D01*
X0Y411D02*
X7Y411D01*
X1566Y411D02*
X1573Y411D01*
X0Y410D02*
X7Y410D01*
X1566Y410D02*
X1573Y410D01*
X0Y409D02*
X7Y409D01*
X1566Y409D02*
X1573Y409D01*
X0Y408D02*
X7Y408D01*
X1566Y408D02*
X1573Y408D01*
X0Y407D02*
X7Y407D01*
X1566Y407D02*
X1573Y407D01*
X0Y406D02*
X7Y406D01*
X1566Y406D02*
X1573Y406D01*
X0Y405D02*
X7Y405D01*
X1566Y405D02*
X1573Y405D01*
X0Y404D02*
X7Y404D01*
X1566Y404D02*
X1573Y404D01*
X0Y403D02*
X7Y403D01*
X1566Y403D02*
X1573Y403D01*
X0Y402D02*
X7Y402D01*
X1566Y402D02*
X1573Y402D01*
X0Y401D02*
X7Y401D01*
X1566Y401D02*
X1573Y401D01*
X0Y400D02*
X7Y400D01*
X1566Y400D02*
X1573Y400D01*
X0Y399D02*
X7Y399D01*
X1566Y399D02*
X1573Y399D01*
X0Y398D02*
X7Y398D01*
X1566Y398D02*
X1573Y398D01*
X0Y397D02*
X7Y397D01*
X1566Y397D02*
X1573Y397D01*
X0Y396D02*
X7Y396D01*
X1566Y396D02*
X1573Y396D01*
X0Y395D02*
X7Y395D01*
X1566Y395D02*
X1573Y395D01*
X0Y394D02*
X7Y394D01*
X1566Y394D02*
X1573Y394D01*
X0Y393D02*
X7Y393D01*
X1566Y393D02*
X1573Y393D01*
X0Y392D02*
X7Y392D01*
X1566Y392D02*
X1573Y392D01*
X0Y391D02*
X7Y391D01*
X1566Y391D02*
X1573Y391D01*
X0Y390D02*
X7Y390D01*
X1566Y390D02*
X1573Y390D01*
X0Y389D02*
X7Y389D01*
X1566Y389D02*
X1573Y389D01*
X0Y388D02*
X7Y388D01*
X1566Y388D02*
X1573Y388D01*
X0Y387D02*
X7Y387D01*
X1566Y387D02*
X1573Y387D01*
X0Y386D02*
X7Y386D01*
X1566Y386D02*
X1573Y386D01*
X0Y385D02*
X7Y385D01*
X1566Y385D02*
X1573Y385D01*
X0Y384D02*
X7Y384D01*
X1566Y384D02*
X1573Y384D01*
X0Y383D02*
X7Y383D01*
X1566Y383D02*
X1573Y383D01*
X0Y382D02*
X7Y382D01*
X1566Y382D02*
X1573Y382D01*
X0Y381D02*
X7Y381D01*
X1566Y381D02*
X1573Y381D01*
X0Y380D02*
X7Y380D01*
X1566Y380D02*
X1573Y380D01*
X0Y379D02*
X7Y379D01*
X1566Y379D02*
X1573Y379D01*
X0Y378D02*
X7Y378D01*
X1566Y378D02*
X1573Y378D01*
X0Y377D02*
X7Y377D01*
X1566Y377D02*
X1573Y377D01*
X0Y376D02*
X7Y376D01*
X1566Y376D02*
X1573Y376D01*
X0Y375D02*
X7Y375D01*
X1566Y375D02*
X1573Y375D01*
X0Y374D02*
X7Y374D01*
X1566Y374D02*
X1573Y374D01*
X0Y373D02*
X7Y373D01*
X1566Y373D02*
X1573Y373D01*
X0Y372D02*
X7Y372D01*
X1566Y372D02*
X1573Y372D01*
X0Y371D02*
X7Y371D01*
X1566Y371D02*
X1573Y371D01*
X0Y370D02*
X7Y370D01*
X1566Y370D02*
X1573Y370D01*
X0Y369D02*
X7Y369D01*
X1566Y369D02*
X1573Y369D01*
X0Y368D02*
X7Y368D01*
X1566Y368D02*
X1573Y368D01*
X0Y367D02*
X7Y367D01*
X1566Y367D02*
X1573Y367D01*
X0Y366D02*
X7Y366D01*
X1566Y366D02*
X1573Y366D01*
X0Y365D02*
X7Y365D01*
X1566Y365D02*
X1573Y365D01*
X0Y364D02*
X7Y364D01*
X1566Y364D02*
X1573Y364D01*
X0Y363D02*
X7Y363D01*
X1566Y363D02*
X1573Y363D01*
X0Y362D02*
X7Y362D01*
X1566Y362D02*
X1573Y362D01*
X0Y361D02*
X7Y361D01*
X1566Y361D02*
X1573Y361D01*
X0Y360D02*
X7Y360D01*
X1566Y360D02*
X1573Y360D01*
X0Y359D02*
X7Y359D01*
X1566Y359D02*
X1573Y359D01*
X0Y358D02*
X7Y358D01*
X1566Y358D02*
X1573Y358D01*
X0Y357D02*
X7Y357D01*
X1566Y357D02*
X1573Y357D01*
X0Y356D02*
X7Y356D01*
X1566Y356D02*
X1573Y356D01*
X0Y355D02*
X7Y355D01*
X1566Y355D02*
X1573Y355D01*
X0Y354D02*
X7Y354D01*
X1566Y354D02*
X1573Y354D01*
X0Y353D02*
X7Y353D01*
X1566Y353D02*
X1573Y353D01*
X0Y352D02*
X7Y352D01*
X1566Y352D02*
X1573Y352D01*
X0Y351D02*
X7Y351D01*
X1566Y351D02*
X1573Y351D01*
X0Y350D02*
X7Y350D01*
X1566Y350D02*
X1573Y350D01*
X0Y349D02*
X7Y349D01*
X1566Y349D02*
X1573Y349D01*
X0Y348D02*
X7Y348D01*
X1566Y348D02*
X1573Y348D01*
X0Y347D02*
X7Y347D01*
X1566Y347D02*
X1573Y347D01*
X0Y346D02*
X7Y346D01*
X1566Y346D02*
X1573Y346D01*
X0Y345D02*
X7Y345D01*
X1566Y345D02*
X1573Y345D01*
X0Y344D02*
X7Y344D01*
X1566Y344D02*
X1573Y344D01*
X0Y343D02*
X7Y343D01*
X1566Y343D02*
X1573Y343D01*
X0Y342D02*
X7Y342D01*
X1566Y342D02*
X1573Y342D01*
X0Y341D02*
X7Y341D01*
X1566Y341D02*
X1573Y341D01*
X0Y340D02*
X7Y340D01*
X1566Y340D02*
X1573Y340D01*
X0Y339D02*
X7Y339D01*
X1566Y339D02*
X1573Y339D01*
X0Y338D02*
X7Y338D01*
X1566Y338D02*
X1573Y338D01*
X0Y337D02*
X7Y337D01*
X1566Y337D02*
X1573Y337D01*
X0Y336D02*
X7Y336D01*
X1566Y336D02*
X1573Y336D01*
X0Y335D02*
X7Y335D01*
X1566Y335D02*
X1573Y335D01*
X0Y334D02*
X7Y334D01*
X1566Y334D02*
X1573Y334D01*
X0Y333D02*
X7Y333D01*
X1566Y333D02*
X1573Y333D01*
X0Y332D02*
X7Y332D01*
X1566Y332D02*
X1573Y332D01*
X0Y331D02*
X7Y331D01*
X1566Y331D02*
X1573Y331D01*
X0Y330D02*
X7Y330D01*
X1566Y330D02*
X1573Y330D01*
X0Y329D02*
X7Y329D01*
X1566Y329D02*
X1573Y329D01*
X0Y328D02*
X7Y328D01*
X1566Y328D02*
X1573Y328D01*
X0Y327D02*
X7Y327D01*
X1566Y327D02*
X1573Y327D01*
X0Y326D02*
X7Y326D01*
X1566Y326D02*
X1573Y326D01*
X0Y325D02*
X7Y325D01*
X1566Y325D02*
X1573Y325D01*
X0Y324D02*
X7Y324D01*
X1566Y324D02*
X1573Y324D01*
X0Y323D02*
X7Y323D01*
X1566Y323D02*
X1573Y323D01*
X0Y322D02*
X7Y322D01*
X1566Y322D02*
X1573Y322D01*
X0Y321D02*
X7Y321D01*
X1566Y321D02*
X1573Y321D01*
X0Y320D02*
X7Y320D01*
X1566Y320D02*
X1573Y320D01*
X0Y319D02*
X7Y319D01*
X1566Y319D02*
X1573Y319D01*
X0Y318D02*
X7Y318D01*
X1566Y318D02*
X1573Y318D01*
X0Y317D02*
X7Y317D01*
X1566Y317D02*
X1573Y317D01*
X0Y316D02*
X7Y316D01*
X1566Y316D02*
X1573Y316D01*
X0Y315D02*
X7Y315D01*
X1566Y315D02*
X1573Y315D01*
X0Y314D02*
X7Y314D01*
X1566Y314D02*
X1573Y314D01*
X0Y313D02*
X7Y313D01*
X1566Y313D02*
X1573Y313D01*
X0Y312D02*
X7Y312D01*
X1566Y312D02*
X1573Y312D01*
X0Y311D02*
X7Y311D01*
X1566Y311D02*
X1573Y311D01*
X0Y310D02*
X7Y310D01*
X1566Y310D02*
X1573Y310D01*
X0Y309D02*
X7Y309D01*
X1566Y309D02*
X1573Y309D01*
X0Y308D02*
X7Y308D01*
X1566Y308D02*
X1573Y308D01*
X0Y307D02*
X7Y307D01*
X1566Y307D02*
X1573Y307D01*
X0Y306D02*
X7Y306D01*
X1566Y306D02*
X1573Y306D01*
X0Y305D02*
X7Y305D01*
X1566Y305D02*
X1573Y305D01*
X0Y304D02*
X7Y304D01*
X1566Y304D02*
X1573Y304D01*
X0Y303D02*
X7Y303D01*
X1566Y303D02*
X1573Y303D01*
X0Y302D02*
X7Y302D01*
X1566Y302D02*
X1573Y302D01*
X0Y301D02*
X6Y301D01*
X1566Y301D02*
X1573Y301D01*
X0Y300D02*
X5Y300D01*
X1566Y300D02*
X1573Y300D01*
X0Y299D02*
X5Y299D01*
X1566Y299D02*
X1573Y299D01*
X0Y298D02*
X4Y298D01*
X1566Y298D02*
X1573Y298D01*
X0Y297D02*
X4Y297D01*
X1566Y297D02*
X1573Y297D01*
X0Y296D02*
X4Y296D01*
X1566Y296D02*
X1573Y296D01*
X0Y295D02*
X3Y295D01*
X1566Y295D02*
X1573Y295D01*
X0Y294D02*
X3Y294D01*
X1566Y294D02*
X1573Y294D01*
X0Y293D02*
X3Y293D01*
X1566Y293D02*
X1573Y293D01*
X0Y292D02*
X2Y292D01*
X1566Y292D02*
X1573Y292D01*
X0Y291D02*
X2Y291D01*
X1566Y291D02*
X1573Y291D01*
X0Y290D02*
X2Y290D01*
X1566Y290D02*
X1573Y290D01*
X0Y289D02*
X2Y289D01*
X1566Y289D02*
X1573Y289D01*
X0Y288D02*
X2Y288D01*
X1566Y288D02*
X1573Y288D01*
X0Y287D02*
X1Y287D01*
X1566Y287D02*
X1573Y287D01*
X0Y286D02*
X1Y286D01*
X1566Y286D02*
X1573Y286D01*
X0Y285D02*
X1Y285D01*
X1566Y285D02*
X1573Y285D01*
X0Y284D02*
X1Y284D01*
X1566Y284D02*
X1573Y284D01*
X0Y283D02*
X1Y283D01*
X1566Y283D02*
X1573Y283D01*
X0Y282D02*
X1Y282D01*
X1566Y282D02*
X1573Y282D01*
X0Y281D02*
X1Y281D01*
X1566Y281D02*
X1573Y281D01*
X0Y280D02*
X1Y280D01*
X1566Y280D02*
X1573Y280D01*
X0Y279D02*
X1Y279D01*
X1566Y279D02*
X1573Y279D01*
X0Y278D02*
X1Y278D01*
X1566Y278D02*
X1573Y278D01*
X0Y277D02*
X1Y277D01*
X1566Y277D02*
X1573Y277D01*
X0Y276D02*
X1Y276D01*
X1566Y276D02*
X1573Y276D01*
X0Y275D02*
X1Y275D01*
X1566Y275D02*
X1573Y275D01*
X0Y274D02*
X2Y274D01*
X1566Y274D02*
X1573Y274D01*
X0Y273D02*
X2Y273D01*
X1566Y273D02*
X1573Y273D01*
X0Y272D02*
X2Y272D01*
X1566Y272D02*
X1573Y272D01*
X0Y271D02*
X2Y271D01*
X1566Y271D02*
X1573Y271D01*
X0Y270D02*
X3Y270D01*
X1566Y270D02*
X1573Y270D01*
X0Y269D02*
X3Y269D01*
X1566Y269D02*
X1573Y269D01*
X0Y268D02*
X3Y268D01*
X1566Y268D02*
X1573Y268D01*
X0Y267D02*
X3Y267D01*
X1566Y267D02*
X1573Y267D01*
X0Y266D02*
X4Y266D01*
X1566Y266D02*
X1573Y266D01*
X0Y265D02*
X4Y265D01*
X1566Y265D02*
X1573Y265D01*
X0Y264D02*
X5Y264D01*
X1566Y264D02*
X1573Y264D01*
X0Y263D02*
X5Y263D01*
X1566Y263D02*
X1573Y263D01*
X0Y262D02*
X6Y262D01*
X1566Y262D02*
X1573Y262D01*
X0Y261D02*
X6Y261D01*
X1566Y261D02*
X1573Y261D01*
X0Y260D02*
X7Y260D01*
X1566Y260D02*
X1573Y260D01*
X0Y259D02*
X7Y259D01*
X1566Y259D02*
X1573Y259D01*
X0Y258D02*
X7Y258D01*
X1566Y258D02*
X1573Y258D01*
X0Y257D02*
X7Y257D01*
X1566Y257D02*
X1573Y257D01*
X0Y256D02*
X7Y256D01*
X1566Y256D02*
X1573Y256D01*
X0Y255D02*
X7Y255D01*
X1566Y255D02*
X1573Y255D01*
X0Y254D02*
X7Y254D01*
X1566Y254D02*
X1573Y254D01*
X0Y253D02*
X7Y253D01*
X1566Y253D02*
X1573Y253D01*
X0Y252D02*
X7Y252D01*
X1566Y252D02*
X1573Y252D01*
X0Y251D02*
X7Y251D01*
X1566Y251D02*
X1573Y251D01*
X0Y250D02*
X7Y250D01*
X1566Y250D02*
X1573Y250D01*
X0Y249D02*
X7Y249D01*
X1566Y249D02*
X1573Y249D01*
X0Y248D02*
X7Y248D01*
X1566Y248D02*
X1573Y248D01*
X0Y247D02*
X7Y247D01*
X1566Y247D02*
X1573Y247D01*
X0Y246D02*
X7Y246D01*
X1566Y246D02*
X1573Y246D01*
X0Y245D02*
X7Y245D01*
X1566Y245D02*
X1573Y245D01*
X0Y244D02*
X7Y244D01*
X1566Y244D02*
X1573Y244D01*
X0Y243D02*
X7Y243D01*
X1566Y243D02*
X1573Y243D01*
X0Y242D02*
X7Y242D01*
X1566Y242D02*
X1573Y242D01*
X0Y241D02*
X7Y241D01*
X1566Y241D02*
X1573Y241D01*
X0Y240D02*
X7Y240D01*
X1566Y240D02*
X1573Y240D01*
X0Y239D02*
X7Y239D01*
X1566Y239D02*
X1573Y239D01*
X0Y238D02*
X7Y238D01*
X1566Y238D02*
X1573Y238D01*
X0Y237D02*
X7Y237D01*
X1566Y237D02*
X1573Y237D01*
X0Y236D02*
X7Y236D01*
X1566Y236D02*
X1573Y236D01*
X0Y235D02*
X7Y235D01*
X1566Y235D02*
X1573Y235D01*
X0Y234D02*
X7Y234D01*
X1566Y234D02*
X1573Y234D01*
X0Y233D02*
X7Y233D01*
X1566Y233D02*
X1573Y233D01*
X0Y232D02*
X7Y232D01*
X1566Y232D02*
X1573Y232D01*
X0Y231D02*
X7Y231D01*
X1566Y231D02*
X1573Y231D01*
X0Y230D02*
X7Y230D01*
X1566Y230D02*
X1573Y230D01*
X0Y229D02*
X7Y229D01*
X1566Y229D02*
X1573Y229D01*
X0Y228D02*
X7Y228D01*
X1566Y228D02*
X1573Y228D01*
X0Y227D02*
X7Y227D01*
X1566Y227D02*
X1573Y227D01*
X0Y226D02*
X7Y226D01*
X1566Y226D02*
X1573Y226D01*
X0Y225D02*
X7Y225D01*
X1566Y225D02*
X1573Y225D01*
X0Y224D02*
X7Y224D01*
X1566Y224D02*
X1573Y224D01*
X0Y223D02*
X7Y223D01*
X1566Y223D02*
X1573Y223D01*
X0Y222D02*
X7Y222D01*
X1566Y222D02*
X1573Y222D01*
X0Y221D02*
X7Y221D01*
X1566Y221D02*
X1573Y221D01*
X0Y220D02*
X7Y220D01*
X1566Y220D02*
X1573Y220D01*
X0Y219D02*
X7Y219D01*
X1566Y219D02*
X1573Y219D01*
X0Y218D02*
X7Y218D01*
X1566Y218D02*
X1573Y218D01*
X0Y217D02*
X7Y217D01*
X1566Y217D02*
X1573Y217D01*
X0Y216D02*
X7Y216D01*
X1566Y216D02*
X1573Y216D01*
X0Y215D02*
X7Y215D01*
X1566Y215D02*
X1573Y215D01*
X0Y214D02*
X7Y214D01*
X1566Y214D02*
X1573Y214D01*
X0Y213D02*
X7Y213D01*
X1566Y213D02*
X1573Y213D01*
X0Y212D02*
X7Y212D01*
X1566Y212D02*
X1573Y212D01*
X0Y211D02*
X7Y211D01*
X1566Y211D02*
X1573Y211D01*
X0Y210D02*
X7Y210D01*
X1566Y210D02*
X1573Y210D01*
X0Y209D02*
X7Y209D01*
X1566Y209D02*
X1573Y209D01*
X0Y208D02*
X7Y208D01*
X1566Y208D02*
X1573Y208D01*
X0Y207D02*
X7Y207D01*
X1566Y207D02*
X1573Y207D01*
X0Y206D02*
X7Y206D01*
X1566Y206D02*
X1573Y206D01*
X0Y205D02*
X7Y205D01*
X1566Y205D02*
X1573Y205D01*
X0Y204D02*
X7Y204D01*
X1566Y204D02*
X1573Y204D01*
X0Y203D02*
X7Y203D01*
X1566Y203D02*
X1573Y203D01*
X0Y202D02*
X7Y202D01*
X1566Y202D02*
X1573Y202D01*
X0Y201D02*
X7Y201D01*
X1566Y201D02*
X1573Y201D01*
X0Y200D02*
X7Y200D01*
X1566Y200D02*
X1573Y200D01*
X0Y199D02*
X7Y199D01*
X1566Y199D02*
X1573Y199D01*
X0Y198D02*
X7Y198D01*
X1566Y198D02*
X1573Y198D01*
X0Y197D02*
X7Y197D01*
X1566Y197D02*
X1573Y197D01*
X0Y196D02*
X7Y196D01*
X1566Y196D02*
X1573Y196D01*
X0Y195D02*
X7Y195D01*
X1566Y195D02*
X1573Y195D01*
X0Y194D02*
X7Y194D01*
X1566Y194D02*
X1573Y194D01*
X0Y193D02*
X7Y193D01*
X1566Y193D02*
X1573Y193D01*
X0Y192D02*
X7Y192D01*
X1566Y192D02*
X1573Y192D01*
X0Y191D02*
X7Y191D01*
X1566Y191D02*
X1573Y191D01*
X0Y190D02*
X7Y190D01*
X1566Y190D02*
X1573Y190D01*
X0Y189D02*
X7Y189D01*
X1566Y189D02*
X1573Y189D01*
X0Y188D02*
X7Y188D01*
X1566Y188D02*
X1573Y188D01*
X0Y187D02*
X7Y187D01*
X1566Y187D02*
X1573Y187D01*
X0Y186D02*
X7Y186D01*
X1566Y186D02*
X1573Y186D01*
X0Y185D02*
X7Y185D01*
X1566Y185D02*
X1573Y185D01*
X0Y184D02*
X7Y184D01*
X1566Y184D02*
X1573Y184D01*
X0Y183D02*
X7Y183D01*
X1566Y183D02*
X1573Y183D01*
X0Y182D02*
X7Y182D01*
X1566Y182D02*
X1573Y182D01*
X0Y181D02*
X7Y181D01*
X1566Y181D02*
X1573Y181D01*
X0Y180D02*
X7Y180D01*
X1566Y180D02*
X1573Y180D01*
X0Y179D02*
X7Y179D01*
X1566Y179D02*
X1573Y179D01*
X0Y178D02*
X7Y178D01*
X1566Y178D02*
X1573Y178D01*
X0Y177D02*
X7Y177D01*
X1566Y177D02*
X1573Y177D01*
X0Y176D02*
X7Y176D01*
X1566Y176D02*
X1573Y176D01*
X0Y175D02*
X7Y175D01*
X1566Y175D02*
X1573Y175D01*
X0Y174D02*
X7Y174D01*
X1566Y174D02*
X1573Y174D01*
X0Y173D02*
X7Y173D01*
X1566Y173D02*
X1573Y173D01*
X0Y172D02*
X7Y172D01*
X1566Y172D02*
X1573Y172D01*
X0Y171D02*
X7Y171D01*
X1566Y171D02*
X1573Y171D01*
X0Y170D02*
X7Y170D01*
X1566Y170D02*
X1573Y170D01*
X0Y169D02*
X7Y169D01*
X1566Y169D02*
X1573Y169D01*
X0Y168D02*
X7Y168D01*
X1566Y168D02*
X1573Y168D01*
X0Y167D02*
X7Y167D01*
X1566Y167D02*
X1573Y167D01*
X0Y166D02*
X7Y166D01*
X1566Y166D02*
X1573Y166D01*
X0Y165D02*
X7Y165D01*
X1566Y165D02*
X1573Y165D01*
X0Y164D02*
X7Y164D01*
X1566Y164D02*
X1573Y164D01*
X0Y163D02*
X7Y163D01*
X1566Y163D02*
X1573Y163D01*
X0Y162D02*
X7Y162D01*
X1566Y162D02*
X1573Y162D01*
X0Y161D02*
X7Y161D01*
X1566Y161D02*
X1573Y161D01*
X0Y160D02*
X7Y160D01*
X1566Y160D02*
X1573Y160D01*
X0Y159D02*
X7Y159D01*
X1566Y159D02*
X1573Y159D01*
X0Y158D02*
X7Y158D01*
X1566Y158D02*
X1573Y158D01*
X0Y157D02*
X7Y157D01*
X1566Y157D02*
X1573Y157D01*
X0Y156D02*
X7Y156D01*
X1566Y156D02*
X1573Y156D01*
X0Y155D02*
X7Y155D01*
X1566Y155D02*
X1573Y155D01*
X0Y154D02*
X7Y154D01*
X1566Y154D02*
X1573Y154D01*
X0Y153D02*
X7Y153D01*
X1566Y153D02*
X1573Y153D01*
X0Y152D02*
X7Y152D01*
X1566Y152D02*
X1573Y152D01*
X0Y151D02*
X7Y151D01*
X1566Y151D02*
X1573Y151D01*
X0Y150D02*
X7Y150D01*
X1566Y150D02*
X1573Y150D01*
X0Y149D02*
X7Y149D01*
X1566Y149D02*
X1573Y149D01*
X0Y148D02*
X7Y148D01*
X1566Y148D02*
X1573Y148D01*
X0Y147D02*
X7Y147D01*
X1566Y147D02*
X1573Y147D01*
X0Y146D02*
X7Y146D01*
X1566Y146D02*
X1573Y146D01*
X0Y145D02*
X7Y145D01*
X1566Y145D02*
X1573Y145D01*
X0Y144D02*
X7Y144D01*
X1566Y144D02*
X1573Y144D01*
X0Y143D02*
X7Y143D01*
X1566Y143D02*
X1573Y143D01*
X0Y142D02*
X7Y142D01*
X1566Y142D02*
X1573Y142D01*
X0Y141D02*
X7Y141D01*
X1566Y141D02*
X1573Y141D01*
X0Y140D02*
X7Y140D01*
X1566Y140D02*
X1573Y140D01*
X0Y139D02*
X7Y139D01*
X1566Y139D02*
X1573Y139D01*
X0Y138D02*
X7Y138D01*
X1566Y138D02*
X1573Y138D01*
X0Y137D02*
X7Y137D01*
X1566Y137D02*
X1573Y137D01*
X0Y136D02*
X7Y136D01*
X1566Y136D02*
X1573Y136D01*
X0Y135D02*
X7Y135D01*
X1566Y135D02*
X1573Y135D01*
X0Y134D02*
X7Y134D01*
X1566Y134D02*
X1573Y134D01*
X0Y133D02*
X7Y133D01*
X1566Y133D02*
X1573Y133D01*
X0Y132D02*
X7Y132D01*
X1566Y132D02*
X1573Y132D01*
X0Y131D02*
X7Y131D01*
X1566Y131D02*
X1573Y131D01*
X0Y130D02*
X7Y130D01*
X1566Y130D02*
X1573Y130D01*
X0Y129D02*
X7Y129D01*
X1566Y129D02*
X1573Y129D01*
X0Y128D02*
X7Y128D01*
X1566Y128D02*
X1573Y128D01*
X0Y127D02*
X7Y127D01*
X1566Y127D02*
X1573Y127D01*
X0Y126D02*
X7Y126D01*
X1566Y126D02*
X1573Y126D01*
X0Y125D02*
X7Y125D01*
X1566Y125D02*
X1573Y125D01*
X0Y124D02*
X7Y124D01*
X1566Y124D02*
X1573Y124D01*
X0Y123D02*
X7Y123D01*
X1566Y123D02*
X1573Y123D01*
X0Y122D02*
X7Y122D01*
X1566Y122D02*
X1573Y122D01*
X0Y121D02*
X7Y121D01*
X1566Y121D02*
X1573Y121D01*
X0Y120D02*
X7Y120D01*
X1566Y120D02*
X1573Y120D01*
X0Y119D02*
X7Y119D01*
X1566Y119D02*
X1573Y119D01*
X0Y118D02*
X7Y118D01*
X1566Y118D02*
X1573Y118D01*
X0Y117D02*
X7Y117D01*
X1566Y117D02*
X1573Y117D01*
X0Y116D02*
X7Y116D01*
X1566Y116D02*
X1573Y116D01*
X0Y115D02*
X7Y115D01*
X1566Y115D02*
X1573Y115D01*
X0Y114D02*
X7Y114D01*
X1566Y114D02*
X1573Y114D01*
X0Y113D02*
X7Y113D01*
X1566Y113D02*
X1573Y113D01*
X0Y112D02*
X7Y112D01*
X1566Y112D02*
X1573Y112D01*
X0Y111D02*
X7Y111D01*
X1566Y111D02*
X1573Y111D01*
X0Y110D02*
X7Y110D01*
X1566Y110D02*
X1573Y110D01*
X0Y109D02*
X7Y109D01*
X1566Y109D02*
X1573Y109D01*
X0Y108D02*
X7Y108D01*
X1566Y108D02*
X1573Y108D01*
X0Y107D02*
X7Y107D01*
X1566Y107D02*
X1573Y107D01*
X0Y106D02*
X7Y106D01*
X1566Y106D02*
X1573Y106D01*
X0Y105D02*
X7Y105D01*
X1566Y105D02*
X1573Y105D01*
X0Y104D02*
X7Y104D01*
X1566Y104D02*
X1573Y104D01*
X0Y103D02*
X7Y103D01*
X1566Y103D02*
X1573Y103D01*
X0Y102D02*
X7Y102D01*
X1566Y102D02*
X1573Y102D01*
X0Y101D02*
X7Y101D01*
X1566Y101D02*
X1573Y101D01*
X0Y100D02*
X7Y100D01*
X1566Y100D02*
X1573Y100D01*
X0Y99D02*
X7Y99D01*
X1566Y99D02*
X1573Y99D01*
X0Y98D02*
X7Y98D01*
X1566Y98D02*
X1573Y98D01*
X0Y97D02*
X7Y97D01*
X1566Y97D02*
X1573Y97D01*
X0Y96D02*
X7Y96D01*
X1566Y96D02*
X1573Y96D01*
X0Y95D02*
X7Y95D01*
X1566Y95D02*
X1573Y95D01*
X0Y94D02*
X7Y94D01*
X1566Y94D02*
X1573Y94D01*
X0Y93D02*
X7Y93D01*
X1566Y93D02*
X1573Y93D01*
X0Y92D02*
X7Y92D01*
X1566Y92D02*
X1573Y92D01*
X0Y91D02*
X7Y91D01*
X1566Y91D02*
X1573Y91D01*
X0Y90D02*
X7Y90D01*
X1566Y90D02*
X1573Y90D01*
X0Y89D02*
X7Y89D01*
X1566Y89D02*
X1573Y89D01*
X0Y88D02*
X7Y88D01*
X1566Y88D02*
X1573Y88D01*
X0Y87D02*
X7Y87D01*
X1566Y87D02*
X1573Y87D01*
X0Y86D02*
X7Y86D01*
X1566Y86D02*
X1573Y86D01*
X0Y85D02*
X7Y85D01*
X1566Y85D02*
X1573Y85D01*
X0Y84D02*
X7Y84D01*
X1566Y84D02*
X1573Y84D01*
X0Y83D02*
X7Y83D01*
X1566Y83D02*
X1573Y83D01*
X0Y82D02*
X7Y82D01*
X1566Y82D02*
X1573Y82D01*
X0Y81D02*
X7Y81D01*
X1566Y81D02*
X1573Y81D01*
X0Y80D02*
X7Y80D01*
X1566Y80D02*
X1573Y80D01*
X0Y79D02*
X7Y79D01*
X1566Y79D02*
X1573Y79D01*
X0Y78D02*
X7Y78D01*
X1566Y78D02*
X1573Y78D01*
X0Y77D02*
X7Y77D01*
X1566Y77D02*
X1573Y77D01*
X0Y76D02*
X7Y76D01*
X1566Y76D02*
X1573Y76D01*
X0Y75D02*
X7Y75D01*
X1566Y75D02*
X1573Y75D01*
X0Y74D02*
X7Y74D01*
X1566Y74D02*
X1573Y74D01*
X0Y73D02*
X7Y73D01*
X1566Y73D02*
X1573Y73D01*
X0Y72D02*
X7Y72D01*
X1566Y72D02*
X1573Y72D01*
X0Y71D02*
X7Y71D01*
X1566Y71D02*
X1573Y71D01*
X0Y70D02*
X7Y70D01*
X1566Y70D02*
X1573Y70D01*
X0Y69D02*
X7Y69D01*
X1566Y69D02*
X1573Y69D01*
X0Y68D02*
X7Y68D01*
X1566Y68D02*
X1573Y68D01*
X0Y67D02*
X7Y67D01*
X1566Y67D02*
X1573Y67D01*
X0Y66D02*
X7Y66D01*
X1566Y66D02*
X1573Y66D01*
X0Y65D02*
X7Y65D01*
X1566Y65D02*
X1573Y65D01*
X0Y64D02*
X7Y64D01*
X1566Y64D02*
X1573Y64D01*
X0Y63D02*
X7Y63D01*
X1566Y63D02*
X1573Y63D01*
X0Y62D02*
X7Y62D01*
X1566Y62D02*
X1573Y62D01*
X0Y61D02*
X7Y61D01*
X1566Y61D02*
X1573Y61D01*
X0Y60D02*
X7Y60D01*
X1566Y60D02*
X1573Y60D01*
X0Y59D02*
X7Y59D01*
X1566Y59D02*
X1573Y59D01*
X0Y58D02*
X7Y58D01*
X1566Y58D02*
X1573Y58D01*
X0Y57D02*
X7Y57D01*
X1566Y57D02*
X1573Y57D01*
X0Y56D02*
X7Y56D01*
X1566Y56D02*
X1573Y56D01*
X0Y55D02*
X7Y55D01*
X1566Y55D02*
X1573Y55D01*
X0Y54D02*
X7Y54D01*
X1566Y54D02*
X1573Y54D01*
X0Y53D02*
X7Y53D01*
X1566Y53D02*
X1573Y53D01*
X0Y52D02*
X7Y52D01*
X1566Y52D02*
X1573Y52D01*
X0Y51D02*
X7Y51D01*
X1566Y51D02*
X1573Y51D01*
X0Y50D02*
X7Y50D01*
X1566Y50D02*
X1573Y50D01*
X0Y49D02*
X7Y49D01*
X1566Y49D02*
X1573Y49D01*
X0Y48D02*
X7Y48D01*
X1566Y48D02*
X1573Y48D01*
X0Y47D02*
X7Y47D01*
X1566Y47D02*
X1573Y47D01*
X0Y46D02*
X7Y46D01*
X1566Y46D02*
X1573Y46D01*
X0Y45D02*
X7Y45D01*
X1566Y45D02*
X1573Y45D01*
X0Y44D02*
X7Y44D01*
X1566Y44D02*
X1573Y44D01*
X0Y43D02*
X7Y43D01*
X1566Y43D02*
X1573Y43D01*
X0Y42D02*
X7Y42D01*
X1566Y42D02*
X1573Y42D01*
X0Y41D02*
X7Y41D01*
X1566Y41D02*
X1573Y41D01*
X0Y40D02*
X7Y40D01*
X1566Y40D02*
X1573Y40D01*
X0Y39D02*
X7Y39D01*
X1566Y39D02*
X1573Y39D01*
X0Y38D02*
X7Y38D01*
X1566Y38D02*
X1573Y38D01*
X0Y37D02*
X7Y37D01*
X1566Y37D02*
X1573Y37D01*
X0Y36D02*
X7Y36D01*
X1566Y36D02*
X1573Y36D01*
X0Y35D02*
X7Y35D01*
X1566Y35D02*
X1573Y35D01*
X0Y34D02*
X7Y34D01*
X1566Y34D02*
X1573Y34D01*
X0Y33D02*
X7Y33D01*
X1566Y33D02*
X1573Y33D01*
X0Y32D02*
X7Y32D01*
X1566Y32D02*
X1573Y32D01*
X0Y31D02*
X7Y31D01*
X1566Y31D02*
X1573Y31D01*
X0Y30D02*
X7Y30D01*
X1566Y30D02*
X1573Y30D01*
X0Y29D02*
X7Y29D01*
X1566Y29D02*
X1573Y29D01*
X0Y28D02*
X7Y28D01*
X1566Y28D02*
X1573Y28D01*
X0Y27D02*
X7Y27D01*
X1566Y27D02*
X1573Y27D01*
X0Y26D02*
X7Y26D01*
X1566Y26D02*
X1573Y26D01*
X0Y25D02*
X7Y25D01*
X1566Y25D02*
X1573Y25D01*
X0Y24D02*
X7Y24D01*
X1566Y24D02*
X1573Y24D01*
X0Y23D02*
X7Y23D01*
X1566Y23D02*
X1573Y23D01*
X0Y22D02*
X7Y22D01*
X1566Y22D02*
X1573Y22D01*
X0Y21D02*
X7Y21D01*
X1566Y21D02*
X1573Y21D01*
X0Y20D02*
X7Y20D01*
X1566Y20D02*
X1573Y20D01*
X0Y19D02*
X7Y19D01*
X1566Y19D02*
X1573Y19D01*
X0Y18D02*
X7Y18D01*
X1566Y18D02*
X1573Y18D01*
X0Y17D02*
X7Y17D01*
X1566Y17D02*
X1573Y17D01*
X0Y16D02*
X7Y16D01*
X1566Y16D02*
X1573Y16D01*
X0Y15D02*
X7Y15D01*
X1566Y15D02*
X1573Y15D01*
X0Y14D02*
X7Y14D01*
X1566Y14D02*
X1573Y14D01*
X0Y13D02*
X7Y13D01*
X1566Y13D02*
X1573Y13D01*
X0Y12D02*
X7Y12D01*
X1566Y12D02*
X1573Y12D01*
X0Y11D02*
X7Y11D01*
X1566Y11D02*
X1573Y11D01*
X0Y10D02*
X7Y10D01*
X1566Y10D02*
X1573Y10D01*
X0Y9D02*
X1573Y9D01*
X0Y8D02*
X1573Y8D01*
X0Y7D02*
X1573Y7D01*
X0Y6D02*
X1573Y6D01*
X0Y5D02*
X1573Y5D01*
X0Y4D02*
X1573Y4D01*
X0Y3D02*
X1573Y3D01*
X0Y2D02*
X1573Y2D01*
D02*
G04 End of Silk0*
M02*