; NON-PLATED HOLES START AT T1
; THROUGH (PLATED) HOLES START AT T100
M48
INCH
T1C0.125984
T100C0.015748
T101C0.035433
T102C0.031497
T103C0.036000
T104C0.040000
T105C0.035000
T106C0.038000
%
T1
X000920Y018778
X014844Y000905
X000933Y000919
T100
X006439Y008800
X012456Y011790
X011455Y012790
X006452Y017794
X011760Y009307
X009454Y012790
T101
X012444Y003096
X008444Y018796
X004744Y018796
X012444Y006796
T102
X002731Y018115
X002731Y019100
T103
X008444Y007796
X008444Y014796
X008444Y013796
X002444Y014796
X008444Y003796
X008444Y006796
X002444Y009796
X002444Y000796
X008444Y011796
X002444Y004796
X002444Y012796
X002444Y003796
X008444Y001796
X002444Y001796
X002444Y010796
X008444Y009796
X002444Y005796
X008444Y004796
X002444Y013796
X008444Y000796
X002444Y007796
X008444Y010796
X002444Y011796
X002444Y006796
X008444Y008796
X002444Y008796
X008444Y002796
X008444Y012796
X002444Y002796
X008444Y005796
T104
X009444Y017796
X011138Y000961
X009760Y000961
X009444Y015796
X009444Y016796
X009444Y018796
T105
X000444Y002796
X010444Y007796
X001444Y012796
X001444Y015796
X004272Y018624
X013444Y012796
X010444Y003796
X000444Y006796
X013444Y008796
X013559Y003796
X001444Y011796
X013559Y007796
X001444Y010796
T106
X012548Y001032
X013548Y001032
T00
M30
