; NON-PLATED HOLES START AT T1
; THROUGH (PLATED) HOLES START AT T100
M48
INCH
T100C0.015748
T101C0.035433
T102C0.036000
T103C0.040000
T104C0.035000
%
T100
X006439Y008800
X012456Y011790
X011455Y012790
X006452Y017794
X011760Y009307
X009454Y012790
T101
X012444Y003096
X008444Y018796
X004744Y018796
X012444Y006796
T102
X008444Y007796
X008444Y014796
X008444Y013796
X002444Y014796
X008444Y003796
X008444Y006796
X002444Y009796
X002444Y000796
X008444Y011796
X002444Y004796
X002444Y012796
X002444Y003796
X008444Y001796
X002444Y001796
X002444Y010796
X008444Y009796
X002444Y005796
X008444Y004796
X002444Y013796
X008444Y000796
X002444Y007796
X008444Y010796
X002444Y011796
X002444Y006796
X008444Y008796
X002444Y008796
X008444Y002796
X008444Y012796
X002444Y002796
X008444Y005796
T103
X011444Y000796
X012822Y000796
X009444Y017796
X009444Y015796
X009444Y016796
X009444Y018796
T104
X000444Y002796
X010444Y007796
X001444Y012796
X001444Y015796
X004272Y018624
X013444Y012796
X010444Y003796
X000444Y006796
X013444Y008796
X013559Y003796
X001444Y011796
X013559Y007796
X001444Y010796
T00
M30
