G04 MADE WITH FRITZING*
G04 WWW.FRITZING.ORG*
G04 DOUBLE SIDED*
G04 HOLES PLATED*
G04 CONTOUR ON CENTER OF CONTOUR VECTOR*
%ASAXBY*%
%FSLAX23Y23*%
%MOIN*%
%OFA0B0*%
%SFA1.0B1.0*%
%ADD10C,0.008*%
%LNCONTOUR*%
G90*
G70*
G54D10*
X0Y2108D02*
X0Y2107D01*
X0Y1D01*
X1Y1D01*
X2Y1D01*
X3Y1D01*
X4Y1D01*
X5Y1D01*
X6Y1D01*
X7Y1D01*
X8Y1D01*
X9Y1D01*
X10Y1D01*
X11Y1D01*
X12Y1D01*
X13Y1D01*
X14Y1D01*
X15Y1D01*
X16Y1D01*
X17Y1D01*
X18Y1D01*
X19Y1D01*
X20Y1D01*
X21Y1D01*
X22Y1D01*
X23Y1D01*
X24Y1D01*
X25Y1D01*
X26Y1D01*
X27Y1D01*
X28Y1D01*
X29Y1D01*
X30Y1D01*
X31Y1D01*
X32Y1D01*
X33Y1D01*
X34Y1D01*
X35Y1D01*
X36Y1D01*
X37Y1D01*
X38Y1D01*
X39Y1D01*
X40Y1D01*
X41Y1D01*
X42Y1D01*
X43Y1D01*
X44Y1D01*
X45Y1D01*
X46Y1D01*
X47Y1D01*
X48Y1D01*
X49Y1D01*
X50Y1D01*
X51Y1D01*
X52Y1D01*
X53Y1D01*
X54Y1D01*
X55Y1D01*
X56Y1D01*
X57Y1D01*
X58Y1D01*
X59Y1D01*
X60Y1D01*
X61Y1D01*
X62Y1D01*
X63Y1D01*
X64Y1D01*
X65Y1D01*
X66Y1D01*
X67Y1D01*
X68Y1D01*
X69Y1D01*
X70Y1D01*
X71Y1D01*
X72Y1D01*
X73Y1D01*
X74Y1D01*
X75Y1D01*
X76Y1D01*
X77Y1D01*
X78Y1D01*
X79Y1D01*
X80Y1D01*
X81Y1D01*
X82Y1D01*
X83Y1D01*
X84Y1D01*
X85Y1D01*
X86Y1D01*
X87Y1D01*
X88Y1D01*
X89Y1D01*
X90Y1D01*
X91Y1D01*
X92Y1D01*
X93Y1D01*
X94Y1D01*
X95Y1D01*
X96Y1D01*
X97Y1D01*
X98Y1D01*
X99Y1D01*
X100Y1D01*
X101Y1D01*
X102Y1D01*
X103Y1D01*
X104Y1D01*
X105Y1D01*
X106Y1D01*
X107Y1D01*
X108Y1D01*
X109Y1D01*
X110Y1D01*
X111Y1D01*
X112Y1D01*
X113Y1D01*
X114Y1D01*
X115Y1D01*
X116Y1D01*
X117Y1D01*
X118Y1D01*
X119Y1D01*
X120Y1D01*
X121Y1D01*
X122Y1D01*
X123Y1D01*
X124Y1D01*
X125Y1D01*
X126Y1D01*
X127Y1D01*
X128Y1D01*
X129Y1D01*
X130Y1D01*
X131Y1D01*
X132Y1D01*
X133Y1D01*
X134Y1D01*
X135Y1D01*
X136Y1D01*
X137Y1D01*
X138Y1D01*
X139Y1D01*
X140Y1D01*
X141Y1D01*
X142Y1D01*
X143Y1D01*
X144Y1D01*
X145Y1D01*
X146Y1D01*
X147Y1D01*
X148Y1D01*
X149Y1D01*
X150Y1D01*
X151Y1D01*
X152Y1D01*
X153Y1D01*
X154Y1D01*
X155Y1D01*
X156Y1D01*
X157Y1D01*
X158Y1D01*
X159Y1D01*
X160Y1D01*
X161Y1D01*
X162Y1D01*
X163Y1D01*
X164Y1D01*
X165Y1D01*
X166Y1D01*
X167Y1D01*
X168Y1D01*
X169Y1D01*
X170Y1D01*
X171Y1D01*
X172Y1D01*
X173Y1D01*
X174Y1D01*
X175Y1D01*
X176Y1D01*
X177Y1D01*
X178Y1D01*
X179Y1D01*
X180Y1D01*
X181Y1D01*
X182Y1D01*
X183Y1D01*
X184Y1D01*
X185Y1D01*
X186Y1D01*
X187Y1D01*
X188Y1D01*
X189Y1D01*
X190Y1D01*
X191Y1D01*
X192Y1D01*
X193Y1D01*
X194Y1D01*
X195Y1D01*
X196Y1D01*
X197Y1D01*
X198Y1D01*
X199Y1D01*
X200Y1D01*
X201Y1D01*
X202Y1D01*
X203Y1D01*
X204Y1D01*
X205Y1D01*
X206Y1D01*
X207Y1D01*
X208Y1D01*
X209Y1D01*
X210Y1D01*
X211Y1D01*
X212Y1D01*
X213Y1D01*
X214Y1D01*
X215Y1D01*
X216Y1D01*
X217Y1D01*
X218Y1D01*
X219Y1D01*
X220Y1D01*
X221Y1D01*
X222Y1D01*
X223Y1D01*
X224Y1D01*
X225Y1D01*
X226Y1D01*
X227Y1D01*
X228Y1D01*
X229Y1D01*
X230Y1D01*
X231Y1D01*
X232Y1D01*
X233Y1D01*
X234Y1D01*
X235Y1D01*
X236Y1D01*
X237Y1D01*
X238Y1D01*
X239Y1D01*
X240Y1D01*
X241Y1D01*
X242Y1D01*
X243Y1D01*
X244Y1D01*
X245Y1D01*
X246Y1D01*
X247Y1D01*
X248Y1D01*
X249Y1D01*
X250Y1D01*
X251Y1D01*
X252Y1D01*
X253Y1D01*
X254Y1D01*
X255Y1D01*
X256Y1D01*
X257Y1D01*
X258Y1D01*
X259Y1D01*
X260Y1D01*
X261Y1D01*
X262Y1D01*
X263Y1D01*
X264Y1D01*
X265Y1D01*
X266Y1D01*
X267Y1D01*
X268Y1D01*
X269Y1D01*
X270Y1D01*
X271Y1D01*
X272Y1D01*
X273Y1D01*
X274Y1D01*
X275Y1D01*
X276Y1D01*
X277Y1D01*
X278Y1D01*
X279Y1D01*
X280Y1D01*
X281Y1D01*
X282Y1D01*
X283Y1D01*
X284Y1D01*
X285Y1D01*
X286Y1D01*
X287Y1D01*
X288Y1D01*
X289Y1D01*
X290Y1D01*
X291Y1D01*
X292Y1D01*
X293Y1D01*
X294Y1D01*
X295Y1D01*
X296Y1D01*
X297Y1D01*
X298Y1D01*
X299Y1D01*
X300Y1D01*
X301Y1D01*
X302Y1D01*
X303Y1D01*
X304Y1D01*
X305Y1D01*
X306Y1D01*
X307Y1D01*
X308Y1D01*
X309Y1D01*
X310Y1D01*
X311Y1D01*
X312Y1D01*
X313Y1D01*
X314Y1D01*
X315Y1D01*
X316Y1D01*
X317Y1D01*
X318Y1D01*
X319Y1D01*
X320Y1D01*
X321Y1D01*
X322Y1D01*
X323Y1D01*
X324Y1D01*
X325Y1D01*
X326Y1D01*
X327Y1D01*
X328Y1D01*
X329Y1D01*
X330Y1D01*
X331Y1D01*
X332Y1D01*
X333Y1D01*
X334Y1D01*
X335Y1D01*
X336Y1D01*
X337Y1D01*
X338Y1D01*
X339Y1D01*
X340Y1D01*
X341Y1D01*
X342Y1D01*
X343Y1D01*
X344Y1D01*
X345Y1D01*
X346Y1D01*
X347Y1D01*
X348Y1D01*
X349Y1D01*
X350Y1D01*
X351Y1D01*
X352Y1D01*
X353Y1D01*
X354Y1D01*
X355Y1D01*
X356Y1D01*
X357Y1D01*
X358Y1D01*
X359Y1D01*
X360Y1D01*
X361Y1D01*
X362Y1D01*
X363Y1D01*
X364Y1D01*
X365Y1D01*
X366Y1D01*
X367Y1D01*
X368Y1D01*
X369Y1D01*
X370Y1D01*
X371Y1D01*
X372Y1D01*
X373Y1D01*
X374Y1D01*
X375Y1D01*
X376Y1D01*
X377Y1D01*
X378Y1D01*
X379Y1D01*
X380Y1D01*
X381Y1D01*
X382Y1D01*
X383Y1D01*
X384Y1D01*
X385Y1D01*
X386Y1D01*
X387Y1D01*
X388Y1D01*
X389Y1D01*
X390Y1D01*
X391Y1D01*
X392Y1D01*
X393Y1D01*
X394Y1D01*
X395Y1D01*
X396Y1D01*
X397Y1D01*
X398Y1D01*
X399Y1D01*
X400Y1D01*
X401Y1D01*
X402Y1D01*
X403Y1D01*
X404Y1D01*
X405Y1D01*
X406Y1D01*
X407Y1D01*
X408Y1D01*
X409Y1D01*
X410Y1D01*
X411Y1D01*
X412Y1D01*
X413Y1D01*
X414Y1D01*
X415Y1D01*
X416Y1D01*
X417Y1D01*
X418Y1D01*
X419Y1D01*
X420Y1D01*
X421Y1D01*
X422Y1D01*
X423Y1D01*
X424Y1D01*
X425Y1D01*
X426Y1D01*
X427Y1D01*
X428Y1D01*
X429Y1D01*
X430Y1D01*
X431Y1D01*
X432Y1D01*
X433Y1D01*
X434Y1D01*
X435Y1D01*
X436Y1D01*
X437Y1D01*
X438Y1D01*
X439Y1D01*
X440Y1D01*
X441Y1D01*
X442Y1D01*
X443Y1D01*
X444Y1D01*
X445Y1D01*
X446Y1D01*
X447Y1D01*
X448Y1D01*
X449Y1D01*
X450Y1D01*
X451Y1D01*
X452Y1D01*
X453Y1D01*
X454Y1D01*
X455Y1D01*
X456Y1D01*
X457Y1D01*
X458Y1D01*
X459Y1D01*
X460Y1D01*
X461Y1D01*
X462Y1D01*
X463Y1D01*
X464Y1D01*
X465Y1D01*
X466Y1D01*
X467Y1D01*
X468Y1D01*
X469Y1D01*
X470Y1D01*
X471Y1D01*
X472Y1D01*
X473Y1D01*
X474Y1D01*
X475Y1D01*
X476Y1D01*
X477Y1D01*
X478Y1D01*
X479Y1D01*
X480Y1D01*
X481Y1D01*
X482Y1D01*
X483Y1D01*
X484Y1D01*
X485Y1D01*
X486Y1D01*
X487Y1D01*
X488Y1D01*
X489Y1D01*
X490Y1D01*
X491Y1D01*
X492Y1D01*
X493Y1D01*
X494Y1D01*
X495Y1D01*
X496Y1D01*
X497Y1D01*
X498Y1D01*
X499Y1D01*
X500Y1D01*
X501Y1D01*
X502Y1D01*
X503Y1D01*
X504Y1D01*
X505Y1D01*
X506Y1D01*
X507Y1D01*
X508Y1D01*
X509Y1D01*
X510Y1D01*
X511Y1D01*
X512Y1D01*
X513Y1D01*
X514Y1D01*
X515Y1D01*
X516Y1D01*
X517Y1D01*
X518Y1D01*
X519Y1D01*
X520Y1D01*
X521Y1D01*
X522Y1D01*
X523Y1D01*
X524Y1D01*
X525Y1D01*
X526Y1D01*
X527Y1D01*
X528Y1D01*
X529Y1D01*
X530Y1D01*
X531Y1D01*
X532Y1D01*
X533Y1D01*
X534Y1D01*
X535Y1D01*
X536Y1D01*
X537Y1D01*
X538Y1D01*
X539Y1D01*
X540Y1D01*
X541Y1D01*
X542Y1D01*
X543Y1D01*
X544Y1D01*
X545Y1D01*
X546Y1D01*
X547Y1D01*
X548Y1D01*
X549Y1D01*
X550Y1D01*
X551Y1D01*
X552Y1D01*
X553Y1D01*
X554Y1D01*
X555Y1D01*
X556Y1D01*
X557Y1D01*
X558Y1D01*
X559Y1D01*
X560Y1D01*
X561Y1D01*
X562Y1D01*
X563Y1D01*
X564Y1D01*
X565Y1D01*
X566Y1D01*
X567Y1D01*
X568Y1D01*
X569Y1D01*
X570Y1D01*
X571Y1D01*
X572Y1D01*
X573Y1D01*
X574Y1D01*
X575Y1D01*
X576Y1D01*
X577Y1D01*
X578Y1D01*
X579Y1D01*
X580Y1D01*
X581Y1D01*
X582Y1D01*
X583Y1D01*
X584Y1D01*
X585Y1D01*
X586Y1D01*
X587Y1D01*
X588Y1D01*
X589Y1D01*
X590Y1D01*
X591Y1D01*
X592Y1D01*
X593Y1D01*
X594Y1D01*
X595Y1D01*
X596Y1D01*
X597Y1D01*
X598Y1D01*
X599Y1D01*
X600Y1D01*
X601Y1D01*
X602Y1D01*
X603Y1D01*
X604Y1D01*
X605Y1D01*
X606Y1D01*
X607Y1D01*
X608Y1D01*
X609Y1D01*
X610Y1D01*
X611Y1D01*
X612Y1D01*
X613Y1D01*
X614Y1D01*
X615Y1D01*
X616Y1D01*
X617Y1D01*
X618Y1D01*
X619Y1D01*
X620Y1D01*
X621Y1D01*
X622Y1D01*
X623Y1D01*
X624Y1D01*
X625Y1D01*
X626Y1D01*
X627Y1D01*
X628Y1D01*
X629Y1D01*
X630Y1D01*
X631Y1D01*
X632Y1D01*
X633Y1D01*
X634Y1D01*
X635Y1D01*
X636Y1D01*
X637Y1D01*
X638Y1D01*
X639Y1D01*
X640Y1D01*
X641Y1D01*
X642Y1D01*
X643Y1D01*
X644Y1D01*
X645Y1D01*
X646Y1D01*
X647Y1D01*
X648Y1D01*
X649Y1D01*
X650Y1D01*
X651Y1D01*
X652Y1D01*
X653Y1D01*
X654Y1D01*
X655Y1D01*
X656Y1D01*
X657Y1D01*
X658Y1D01*
X659Y1D01*
X660Y1D01*
X661Y1D01*
X662Y1D01*
X663Y1D01*
X664Y1D01*
X665Y1D01*
X666Y1D01*
X667Y1D01*
X668Y1D01*
X669Y1D01*
X670Y1D01*
X671Y1D01*
X672Y1D01*
X673Y1D01*
X674Y1D01*
X675Y1D01*
X676Y1D01*
X677Y1D01*
X678Y1D01*
X679Y1D01*
X680Y1D01*
X681Y1D01*
X682Y1D01*
X683Y1D01*
X684Y1D01*
X685Y1D01*
X686Y1D01*
X687Y1D01*
X688Y1D01*
X689Y1D01*
X690Y1D01*
X691Y1D01*
X692Y1D01*
X693Y1D01*
X694Y1D01*
X695Y1D01*
X696Y1D01*
X697Y1D01*
X698Y1D01*
X699Y1D01*
X700Y1D01*
X701Y1D01*
X702Y1D01*
X703Y1D01*
X704Y1D01*
X705Y1D01*
X706Y1D01*
X707Y1D01*
X708Y1D01*
X709Y1D01*
X710Y1D01*
X711Y1D01*
X712Y1D01*
X713Y1D01*
X714Y1D01*
X715Y1D01*
X716Y1D01*
X717Y1D01*
X718Y1D01*
X719Y1D01*
X720Y1D01*
X721Y1D01*
X722Y1D01*
X723Y1D01*
X724Y1D01*
X725Y1D01*
X726Y1D01*
X727Y1D01*
X728Y1D01*
X729Y1D01*
X730Y1D01*
X731Y1D01*
X732Y1D01*
X733Y1D01*
X734Y1D01*
X735Y1D01*
X736Y1D01*
X737Y1D01*
X738Y1D01*
X739Y1D01*
X740Y1D01*
X741Y1D01*
X742Y1D01*
X743Y1D01*
X744Y1D01*
X745Y1D01*
X746Y1D01*
X747Y1D01*
X748Y1D01*
X749Y1D01*
X750Y1D01*
X751Y1D01*
X752Y1D01*
X753Y1D01*
X754Y1D01*
X755Y1D01*
X756Y1D01*
X757Y1D01*
X758Y1D01*
X759Y1D01*
X760Y1D01*
X761Y1D01*
X762Y1D01*
X763Y1D01*
X764Y1D01*
X765Y1D01*
X766Y1D01*
X767Y1D01*
X768Y1D01*
X769Y1D01*
X770Y1D01*
X771Y1D01*
X772Y1D01*
X773Y1D01*
X774Y1D01*
X775Y1D01*
X776Y1D01*
X777Y1D01*
X778Y1D01*
X779Y1D01*
X780Y1D01*
X781Y1D01*
X782Y1D01*
X783Y1D01*
X784Y1D01*
X785Y1D01*
X786Y1D01*
X787Y1D01*
X788Y1D01*
X789Y1D01*
X790Y1D01*
X791Y1D01*
X792Y1D01*
X793Y1D01*
X794Y1D01*
X795Y1D01*
X796Y1D01*
X797Y1D01*
X798Y1D01*
X799Y1D01*
X800Y1D01*
X801Y1D01*
X802Y1D01*
X803Y1D01*
X804Y1D01*
X805Y1D01*
X806Y1D01*
X807Y1D01*
X808Y1D01*
X809Y1D01*
X810Y1D01*
X811Y1D01*
X812Y1D01*
X813Y1D01*
X814Y1D01*
X815Y1D01*
X816Y1D01*
X817Y1D01*
X818Y1D01*
X819Y1D01*
X820Y1D01*
X821Y1D01*
X822Y1D01*
X823Y1D01*
X824Y1D01*
X825Y1D01*
X826Y1D01*
X827Y1D01*
X828Y1D01*
X829Y1D01*
X830Y1D01*
X831Y1D01*
X832Y1D01*
X833Y1D01*
X834Y1D01*
X835Y1D01*
X836Y1D01*
X837Y1D01*
X838Y1D01*
X839Y1D01*
X840Y1D01*
X841Y1D01*
X842Y1D01*
X843Y1D01*
X844Y1D01*
X845Y1D01*
X846Y1D01*
X847Y1D01*
X848Y1D01*
X849Y1D01*
X850Y1D01*
X851Y1D01*
X852Y1D01*
X853Y1D01*
X854Y1D01*
X855Y1D01*
X856Y1D01*
X857Y1D01*
X858Y1D01*
X859Y1D01*
X860Y1D01*
X861Y1D01*
X862Y1D01*
X863Y1D01*
X864Y1D01*
X865Y1D01*
X866Y1D01*
X867Y1D01*
X868Y1D01*
X869Y1D01*
X870Y1D01*
X871Y1D01*
X872Y1D01*
X873Y1D01*
X874Y1D01*
X875Y1D01*
X876Y1D01*
X877Y1D01*
X878Y1D01*
X879Y1D01*
X880Y1D01*
X881Y1D01*
X882Y1D01*
X883Y1D01*
X884Y1D01*
X885Y1D01*
X886Y1D01*
X887Y1D01*
X888Y1D01*
X889Y1D01*
X890Y1D01*
X891Y1D01*
X892Y1D01*
X893Y1D01*
X894Y1D01*
X895Y1D01*
X896Y1D01*
X897Y1D01*
X898Y1D01*
X899Y1D01*
X900Y1D01*
X901Y1D01*
X902Y1D01*
X903Y1D01*
X904Y1D01*
X905Y1D01*
X906Y1D01*
X907Y1D01*
X908Y1D01*
X909Y1D01*
X910Y1D01*
X911Y1D01*
X912Y1D01*
X913Y1D01*
X914Y1D01*
X915Y1D01*
X916Y1D01*
X917Y1D01*
X918Y1D01*
X919Y1D01*
X920Y1D01*
X921Y1D01*
X922Y1D01*
X923Y1D01*
X924Y1D01*
X925Y1D01*
X926Y1D01*
X927Y1D01*
X928Y1D01*
X929Y1D01*
X930Y1D01*
X931Y1D01*
X932Y1D01*
X933Y1D01*
X934Y1D01*
X935Y1D01*
X936Y1D01*
X937Y1D01*
X938Y1D01*
X939Y1D01*
X940Y1D01*
X941Y1D01*
X942Y1D01*
X943Y1D01*
X944Y1D01*
X945Y1D01*
X946Y1D01*
X947Y1D01*
X948Y1D01*
X949Y1D01*
X950Y1D01*
X951Y1D01*
X952Y1D01*
X953Y1D01*
X954Y1D01*
X955Y1D01*
X956Y1D01*
X957Y1D01*
X958Y1D01*
X959Y1D01*
X960Y1D01*
X961Y1D01*
X962Y1D01*
X963Y1D01*
X964Y1D01*
X965Y1D01*
X966Y1D01*
X967Y1D01*
X968Y1D01*
X969Y1D01*
X970Y1D01*
X971Y1D01*
X972Y1D01*
X973Y1D01*
X974Y1D01*
X975Y1D01*
X976Y1D01*
X977Y1D01*
X978Y1D01*
X979Y1D01*
X980Y1D01*
X981Y1D01*
X982Y1D01*
X983Y1D01*
X984Y1D01*
X985Y1D01*
X986Y1D01*
X987Y1D01*
X988Y1D01*
X989Y1D01*
X990Y1D01*
X991Y1D01*
X992Y1D01*
X993Y1D01*
X994Y1D01*
X995Y1D01*
X996Y1D01*
X997Y1D01*
X998Y1D01*
X999Y1D01*
X1000Y1D01*
X1001Y1D01*
X1002Y1D01*
X1003Y1D01*
X1004Y1D01*
X1005Y1D01*
X1006Y1D01*
X1007Y1D01*
X1008Y1D01*
X1009Y1D01*
X1010Y1D01*
X1011Y1D01*
X1012Y1D01*
X1013Y1D01*
X1014Y1D01*
X1015Y1D01*
X1016Y1D01*
X1017Y1D01*
X1018Y1D01*
X1019Y1D01*
X1020Y1D01*
X1021Y1D01*
X1022Y1D01*
X1023Y1D01*
X1024Y1D01*
X1025Y1D01*
X1026Y1D01*
X1027Y1D01*
X1028Y1D01*
X1029Y1D01*
X1030Y1D01*
X1031Y1D01*
X1032Y1D01*
X1033Y1D01*
X1034Y1D01*
X1035Y1D01*
X1036Y1D01*
X1037Y1D01*
X1038Y1D01*
X1039Y1D01*
X1040Y1D01*
X1041Y1D01*
X1042Y1D01*
X1043Y1D01*
X1044Y1D01*
X1045Y1D01*
X1046Y1D01*
X1047Y1D01*
X1048Y1D01*
X1049Y1D01*
X1050Y1D01*
X1051Y1D01*
X1052Y1D01*
X1053Y1D01*
X1054Y1D01*
X1055Y1D01*
X1056Y1D01*
X1057Y1D01*
X1058Y1D01*
X1059Y1D01*
X1060Y1D01*
X1061Y1D01*
X1062Y1D01*
X1063Y1D01*
X1064Y1D01*
X1065Y1D01*
X1066Y1D01*
X1067Y1D01*
X1068Y1D01*
X1069Y1D01*
X1070Y1D01*
X1071Y1D01*
X1072Y1D01*
X1073Y1D01*
X1074Y1D01*
X1075Y1D01*
X1076Y1D01*
X1077Y1D01*
X1078Y1D01*
X1079Y1D01*
X1080Y1D01*
X1081Y1D01*
X1082Y1D01*
X1083Y1D01*
X1084Y1D01*
X1085Y1D01*
X1086Y1D01*
X1087Y1D01*
X1088Y1D01*
X1089Y1D01*
X1090Y1D01*
X1091Y1D01*
X1092Y1D01*
X1093Y1D01*
X1094Y1D01*
X1095Y1D01*
X1096Y1D01*
X1097Y1D01*
X1098Y1D01*
X1099Y1D01*
X1100Y1D01*
X1101Y1D01*
X1102Y1D01*
X1103Y1D01*
X1104Y1D01*
X1105Y1D01*
X1106Y1D01*
X1107Y1D01*
X1108Y1D01*
X1109Y1D01*
X1110Y1D01*
X1111Y1D01*
X1112Y1D01*
X1113Y1D01*
X1114Y1D01*
X1115Y1D01*
X1116Y1D01*
X1117Y1D01*
X1118Y1D01*
X1119Y1D01*
X1120Y1D01*
X1121Y1D01*
X1122Y1D01*
X1123Y1D01*
X1124Y1D01*
X1125Y1D01*
X1126Y1D01*
X1127Y1D01*
X1128Y1D01*
X1129Y1D01*
X1130Y1D01*
X1131Y1D01*
X1132Y1D01*
X1133Y1D01*
X1134Y1D01*
X1135Y1D01*
X1136Y1D01*
X1137Y1D01*
X1138Y1D01*
X1139Y1D01*
X1140Y1D01*
X1141Y1D01*
X1142Y1D01*
X1143Y1D01*
X1144Y1D01*
X1145Y1D01*
X1146Y1D01*
X1147Y1D01*
X1148Y1D01*
X1149Y1D01*
X1150Y1D01*
X1151Y1D01*
X1152Y1D01*
X1153Y1D01*
X1154Y1D01*
X1155Y1D01*
X1156Y1D01*
X1157Y1D01*
X1158Y1D01*
X1159Y1D01*
X1160Y1D01*
X1161Y1D01*
X1162Y1D01*
X1163Y1D01*
X1164Y1D01*
X1165Y1D01*
X1166Y1D01*
X1167Y1D01*
X1168Y1D01*
X1169Y1D01*
X1170Y1D01*
X1171Y1D01*
X1172Y1D01*
X1173Y1D01*
X1174Y1D01*
X1175Y1D01*
X1176Y1D01*
X1177Y1D01*
X1178Y1D01*
X1179Y1D01*
X1180Y1D01*
X1181Y1D01*
X1182Y1D01*
X1183Y1D01*
X1184Y1D01*
X1185Y1D01*
X1186Y1D01*
X1187Y1D01*
X1188Y1D01*
X1189Y1D01*
X1190Y1D01*
X1191Y1D01*
X1192Y1D01*
X1193Y1D01*
X1194Y1D01*
X1195Y1D01*
X1196Y1D01*
X1197Y1D01*
X1198Y1D01*
X1199Y1D01*
X1200Y1D01*
X1201Y1D01*
X1202Y1D01*
X1203Y1D01*
X1204Y1D01*
X1205Y1D01*
X1206Y1D01*
X1207Y1D01*
X1208Y1D01*
X1209Y1D01*
X1210Y1D01*
X1211Y1D01*
X1212Y1D01*
X1213Y1D01*
X1214Y1D01*
X1215Y1D01*
X1216Y1D01*
X1217Y1D01*
X1218Y1D01*
X1219Y1D01*
X1220Y1D01*
X1221Y1D01*
X1222Y1D01*
X1223Y1D01*
X1224Y1D01*
X1225Y1D01*
X1226Y1D01*
X1227Y1D01*
X1228Y1D01*
X1229Y1D01*
X1230Y1D01*
X1231Y1D01*
X1232Y1D01*
X1233Y1D01*
X1234Y1D01*
X1235Y1D01*
X1236Y1D01*
X1237Y1D01*
X1238Y1D01*
X1239Y1D01*
X1240Y1D01*
X1241Y1D01*
X1242Y1D01*
X1243Y1D01*
X1244Y1D01*
X1245Y1D01*
X1246Y1D01*
X1247Y1D01*
X1248Y1D01*
X1249Y1D01*
X1250Y1D01*
X1251Y1D01*
X1252Y1D01*
X1253Y1D01*
X1254Y1D01*
X1255Y1D01*
X1256Y1D01*
X1257Y1D01*
X1258Y1D01*
X1259Y1D01*
X1260Y1D01*
X1261Y1D01*
X1262Y1D01*
X1263Y1D01*
X1264Y1D01*
X1265Y1D01*
X1266Y1D01*
X1267Y1D01*
X1268Y1D01*
X1269Y1D01*
X1270Y1D01*
X1271Y1D01*
X1272Y1D01*
X1273Y1D01*
X1274Y1D01*
X1275Y1D01*
X1276Y1D01*
X1277Y1D01*
X1278Y1D01*
X1279Y1D01*
X1280Y1D01*
X1281Y1D01*
X1282Y1D01*
X1283Y1D01*
X1284Y1D01*
X1285Y1D01*
X1286Y1D01*
X1287Y1D01*
X1288Y1D01*
X1289Y1D01*
X1290Y1D01*
X1291Y1D01*
X1292Y1D01*
X1293Y1D01*
X1294Y1D01*
X1295Y1D01*
X1296Y1D01*
X1297Y1D01*
X1298Y1D01*
X1299Y1D01*
X1300Y1D01*
X1301Y1D01*
X1302Y1D01*
X1303Y1D01*
X1304Y1D01*
X1305Y1D01*
X1306Y1D01*
X1307Y1D01*
X1308Y1D01*
X1309Y1D01*
X1310Y1D01*
X1311Y1D01*
X1312Y1D01*
X1313Y1D01*
X1314Y1D01*
X1315Y1D01*
X1316Y1D01*
X1317Y1D01*
X1318Y1D01*
X1319Y1D01*
X1320Y1D01*
X1321Y1D01*
X1322Y1D01*
X1323Y1D01*
X1324Y1D01*
X1325Y1D01*
X1326Y1D01*
X1327Y1D01*
X1328Y1D01*
X1329Y1D01*
X1330Y1D01*
X1331Y1D01*
X1332Y1D01*
X1333Y1D01*
X1334Y1D01*
X1335Y1D01*
X1336Y1D01*
X1337Y1D01*
X1338Y1D01*
X1339Y1D01*
X1340Y1D01*
X1341Y1D01*
X1342Y1D01*
X1343Y1D01*
X1344Y1D01*
X1345Y1D01*
X1346Y1D01*
X1347Y1D01*
X1348Y1D01*
X1349Y1D01*
X1350Y1D01*
X1351Y1D01*
X1352Y1D01*
X1353Y1D01*
X1354Y1D01*
X1355Y1D01*
X1356Y1D01*
X1357Y1D01*
X1358Y1D01*
X1359Y1D01*
X1360Y1D01*
X1361Y1D01*
X1362Y1D01*
X1363Y1D01*
X1364Y1D01*
X1365Y1D01*
X1366Y1D01*
X1367Y1D01*
X1368Y1D01*
X1369Y1D01*
X1370Y1D01*
X1371Y1D01*
X1372Y1D01*
X1373Y1D01*
X1374Y1D01*
X1375Y1D01*
X1376Y1D01*
X1377Y1D01*
X1378Y1D01*
X1379Y1D01*
X1380Y1D01*
X1381Y1D01*
X1382Y1D01*
X1383Y1D01*
X1384Y1D01*
X1385Y1D01*
X1386Y1D01*
X1387Y1D01*
X1388Y1D01*
X1389Y1D01*
X1390Y1D01*
X1391Y1D01*
X1392Y1D01*
X1393Y1D01*
X1394Y1D01*
X1395Y1D01*
X1396Y1D01*
X1397Y1D01*
X1398Y1D01*
X1399Y1D01*
X1400Y1D01*
X1401Y1D01*
X1402Y1D01*
X1403Y1D01*
X1404Y1D01*
X1405Y1D01*
X1406Y1D01*
X1407Y1D01*
X1408Y1D01*
X1409Y1D01*
X1410Y1D01*
X1411Y1D01*
X1412Y1D01*
X1413Y1D01*
X1414Y1D01*
X1415Y1D01*
X1416Y1D01*
X1417Y1D01*
X1418Y1D01*
X1419Y1D01*
X1420Y1D01*
X1421Y1D01*
X1422Y1D01*
X1423Y1D01*
X1424Y1D01*
X1425Y1D01*
X1426Y1D01*
X1427Y1D01*
X1428Y1D01*
X1429Y1D01*
X1430Y1D01*
X1431Y1D01*
X1432Y1D01*
X1433Y1D01*
X1434Y1D01*
X1435Y1D01*
X1436Y1D01*
X1437Y1D01*
X1438Y1D01*
X1439Y1D01*
X1440Y1D01*
X1441Y1D01*
X1442Y1D01*
X1443Y1D01*
X1444Y1D01*
X1445Y1D01*
X1446Y1D01*
X1447Y1D01*
X1448Y1D01*
X1449Y1D01*
X1450Y1D01*
X1451Y1D01*
X1452Y1D01*
X1453Y1D01*
X1454Y1D01*
X1455Y1D01*
X1456Y1D01*
X1457Y1D01*
X1458Y1D01*
X1459Y1D01*
X1460Y1D01*
X1461Y1D01*
X1462Y1D01*
X1463Y1D01*
X1464Y1D01*
X1465Y1D01*
X1466Y1D01*
X1467Y1D01*
X1468Y1D01*
X1469Y1D01*
X1470Y1D01*
X1471Y1D01*
X1472Y1D01*
X1473Y1D01*
X1474Y1D01*
X1475Y1D01*
X1476Y1D01*
X1477Y1D01*
X1478Y1D01*
X1479Y1D01*
X1480Y1D01*
X1481Y1D01*
X1482Y1D01*
X1483Y1D01*
X1484Y1D01*
X1485Y1D01*
X1486Y1D01*
X1487Y1D01*
X1488Y1D01*
X1489Y1D01*
X1490Y1D01*
X1491Y1D01*
X1492Y1D01*
X1493Y1D01*
X1494Y1D01*
X1495Y1D01*
X1496Y1D01*
X1497Y1D01*
X1498Y1D01*
X1499Y1D01*
X1500Y1D01*
X1501Y1D01*
X1502Y1D01*
X1503Y1D01*
X1504Y1D01*
X1505Y1D01*
X1506Y1D01*
X1507Y1D01*
X1508Y1D01*
X1509Y1D01*
X1510Y1D01*
X1511Y1D01*
X1512Y1D01*
X1513Y1D01*
X1514Y1D01*
X1515Y1D01*
X1516Y1D01*
X1517Y1D01*
X1518Y1D01*
X1519Y1D01*
X1520Y1D01*
X1521Y1D01*
X1522Y1D01*
X1523Y1D01*
X1524Y1D01*
X1525Y1D01*
X1526Y1D01*
X1527Y1D01*
X1528Y1D01*
X1529Y1D01*
X1530Y1D01*
X1531Y1D01*
X1532Y1D01*
X1533Y1D01*
X1534Y1D01*
X1535Y1D01*
X1536Y1D01*
X1537Y1D01*
X1538Y1D01*
X1539Y1D01*
X1540Y1D01*
X1541Y1D01*
X1542Y1D01*
X1543Y1D01*
X1544Y1D01*
X1545Y1D01*
X1546Y1D01*
X1547Y1D01*
X1548Y1D01*
X1549Y1D01*
X1550Y1D01*
X1551Y1D01*
X1552Y1D01*
X1553Y1D01*
X1554Y1D01*
X1555Y1D01*
X1556Y1D01*
X1557Y1D01*
X1558Y1D01*
X1559Y1D01*
X1560Y1D01*
X1561Y1D01*
X1562Y1D01*
X1563Y1D01*
X1564Y1D01*
X1565Y1D01*
X1566Y1D01*
X1567Y1D01*
X1568Y1D01*
X1569Y1D01*
X1570Y1D01*
X1571Y1D01*
X1572Y1D01*
X1573Y1D01*
X1574Y1D01*
X1575Y1D01*
X1576Y1D01*
X1577Y1D01*
X1578Y1D01*
X1579Y1D01*
X1580Y1D01*
X1581Y1D01*
X1582Y1D01*
X1583Y1D01*
X1584Y1D01*
X1585Y1D01*
X1586Y1D01*
X1587Y1D01*
X1588Y1D01*
X1589Y1D01*
X1590Y1D01*
X1591Y1D01*
X1592Y1D01*
X1593Y1D01*
X1594Y1D01*
X1595Y1D01*
X1596Y1D01*
X1597Y1D01*
X1598Y1D01*
X1599Y1D01*
X1600Y1D01*
X1601Y1D01*
X1602Y1D01*
X1603Y1D01*
X1604Y1D01*
X1605Y1D01*
X1606Y1D01*
X1607Y1D01*
X1608Y1D01*
X1609Y1D01*
X1610Y1D01*
X1611Y1D01*
X1612Y1D01*
X1613Y1D01*
X1614Y1D01*
X1615Y1D01*
X1616Y1D01*
X1617Y1D01*
X1618Y1D01*
X1619Y1D01*
X1620Y1D01*
X1621Y1D01*
X1622Y1D01*
X1623Y1D01*
X1624Y1D01*
X1625Y1D01*
X1626Y1D01*
X1627Y1D01*
X1628Y1D01*
X1629Y1D01*
X1630Y1D01*
X1631Y1D01*
X1632Y1D01*
X1633Y1D01*
X1634Y1D01*
X1635Y1D01*
X1636Y1D01*
X1637Y1D01*
X1638Y1D01*
X1639Y1D01*
X1640Y1D01*
X1641Y1D01*
X1642Y1D01*
X1643Y1D01*
X1644Y1D01*
X1645Y1D01*
X1646Y1D01*
X1647Y1D01*
X1648Y1D01*
X1649Y1D01*
X1650Y1D01*
X1651Y1D01*
X1652Y1D01*
X1653Y1D01*
X1654Y1D01*
X1655Y1D01*
X1656Y1D01*
X1657Y1D01*
X1658Y1D01*
X1659Y1D01*
X1660Y1D01*
X1661Y1D01*
X1662Y1D01*
X1663Y1D01*
X1664Y1D01*
X1665Y1D01*
X1666Y1D01*
X1667Y1D01*
X1668Y1D01*
X1669Y1D01*
X1670Y1D01*
X1671Y1D01*
X1672Y1D01*
X1673Y1D01*
X1674Y1D01*
X1675Y1D01*
X1676Y1D01*
X1677Y1D01*
X1678Y1D01*
X1679Y1D01*
X1680Y1D01*
X1681Y1D01*
X1682Y1D01*
X1683Y1D01*
X1684Y1D01*
X1685Y1D01*
X1686Y1D01*
X1687Y1D01*
X1688Y1D01*
X1689Y1D01*
X1690Y1D01*
X1691Y1D01*
X1692Y1D01*
X1693Y1D01*
X1694Y1D01*
X1695Y1D01*
X1696Y1D01*
X1697Y1D01*
X1698Y1D01*
X1699Y1D01*
X1700Y1D01*
X1701Y1D01*
X1702Y1D01*
X1703Y1D01*
X1704Y1D01*
X1705Y1D01*
X1706Y1D01*
X1707Y1D01*
X1708Y1D01*
X1709Y1D01*
X1710Y1D01*
X1711Y1D01*
X1712Y1D01*
X1713Y1D01*
X1714Y1D01*
X1715Y1D01*
X1716Y1D01*
X1717Y1D01*
X1718Y1D01*
X1719Y1D01*
X1720Y1D01*
X1721Y1D01*
X1722Y1D01*
X1723Y1D01*
X1724Y1D01*
X1725Y1D01*
X1726Y1D01*
X1727Y1D01*
X1728Y1D01*
X1729Y1D01*
X1730Y1D01*
X1731Y1D01*
X1732Y1D01*
X1733Y1D01*
X1734Y1D01*
X1735Y1D01*
X1736Y1D01*
X1737Y1D01*
X1738Y1D01*
X1739Y1D01*
X1740Y1D01*
X1741Y1D01*
X1742Y1D01*
X1743Y1D01*
X1744Y1D01*
X1745Y1D01*
X1746Y1D01*
X1747Y1D01*
X1748Y1D01*
X1749Y1D01*
X1750Y1D01*
X1751Y1D01*
X1752Y1D01*
X1753Y1D01*
X1754Y1D01*
X1755Y1D01*
X1756Y1D01*
X1757Y1D01*
X1758Y1D01*
X1759Y1D01*
X1760Y1D01*
X1761Y1D01*
X1762Y1D01*
X1763Y1D01*
X1764Y1D01*
X1765Y1D01*
X1766Y1D01*
X1767Y1D01*
X1768Y1D01*
X1769Y1D01*
X1770Y1D01*
X1771Y1D01*
X1772Y1D01*
X1773Y1D01*
X1774Y1D01*
X1775Y1D01*
X1776Y1D01*
X1777Y1D01*
X1778Y1D01*
X1779Y1D01*
X1780Y1D01*
X1781Y1D01*
X1782Y1D01*
X1783Y1D01*
X1784Y1D01*
X1785Y1D01*
X1786Y1D01*
X1787Y1D01*
X1788Y1D01*
X1789Y1D01*
X1790Y1D01*
X1791Y1D01*
X1792Y1D01*
X1793Y1D01*
X1794Y1D01*
X1795Y1D01*
X1796Y1D01*
X1797Y1D01*
X1798Y1D01*
X1799Y1D01*
X1800Y1D01*
X1801Y1D01*
X1802Y1D01*
X1803Y1D01*
X1804Y1D01*
X1805Y1D01*
X1806Y1D01*
X1807Y1D01*
X1808Y1D01*
X1809Y1D01*
X1810Y1D01*
X1811Y1D01*
X1812Y1D01*
X1813Y1D01*
X1814Y1D01*
X1815Y1D01*
X1816Y1D01*
X1817Y1D01*
X1818Y1D01*
X1819Y1D01*
X1820Y1D01*
X1821Y1D01*
X1822Y1D01*
X1823Y1D01*
X1824Y1D01*
X1825Y1D01*
X1826Y1D01*
X1827Y1D01*
X1828Y1D01*
X1829Y1D01*
X1830Y1D01*
X1831Y1D01*
X1832Y1D01*
X1833Y1D01*
X1834Y1D01*
X1835Y1D01*
X1836Y1D01*
X1837Y1D01*
X1838Y1D01*
X1839Y1D01*
X1840Y1D01*
X1841Y1D01*
X1842Y1D01*
X1843Y1D01*
X1844Y1D01*
X1845Y1D01*
X1846Y1D01*
X1847Y1D01*
X1848Y1D01*
X1849Y1D01*
X1850Y1D01*
X1851Y1D01*
X1852Y1D01*
X1853Y1D01*
X1854Y1D01*
X1855Y1D01*
X1856Y1D01*
X1857Y1D01*
X1858Y1D01*
X1859Y1D01*
X1860Y1D01*
X1861Y1D01*
X1862Y1D01*
X1863Y1D01*
X1864Y1D01*
X1865Y1D01*
X1866Y1D01*
X1867Y1D01*
X1868Y1D01*
X1869Y1D01*
X1870Y1D01*
X1871Y1D01*
X1872Y1D01*
X1873Y1D01*
X1874Y1D01*
X1875Y1D01*
X1876Y1D01*
X1877Y1D01*
X1878Y1D01*
X1879Y1D01*
X1880Y1D01*
X1881Y1D01*
X1882Y1D01*
X1883Y1D01*
X1884Y1D01*
X1885Y1D01*
X1886Y1D01*
X1887Y1D01*
X1888Y1D01*
X1889Y1D01*
X1890Y1D01*
X1891Y1D01*
X1892Y1D01*
X1893Y1D01*
X1894Y1D01*
X1895Y1D01*
X1896Y1D01*
X1897Y1D01*
X1898Y1D01*
X1899Y1D01*
X1900Y1D01*
X1901Y1D01*
X1902Y1D01*
X1903Y1D01*
X1904Y1D01*
X1905Y1D01*
X1906Y1D01*
X1907Y1D01*
X1908Y1D01*
X1909Y1D01*
X1910Y1D01*
X1911Y1D01*
X1912Y1D01*
X1913Y1D01*
X1914Y1D01*
X1915Y1D01*
X1916Y1D01*
X1917Y1D01*
X1918Y1D01*
X1919Y1D01*
X1920Y1D01*
X1921Y1D01*
X1922Y1D01*
X1923Y1D01*
X1924Y1D01*
X1925Y1D01*
X1926Y1D01*
X1927Y1D01*
X1928Y1D01*
X1929Y1D01*
X1930Y1D01*
X1931Y1D01*
X1932Y1D01*
X1933Y1D01*
X1934Y1D01*
X1935Y1D01*
X1936Y1D01*
X1937Y1D01*
X1938Y1D01*
X1939Y1D01*
X1940Y1D01*
X1941Y1D01*
X1942Y1D01*
X1943Y1D01*
X1944Y1D01*
X1945Y1D01*
X1946Y1D01*
X1947Y1D01*
X1948Y1D01*
X1949Y1D01*
X1950Y1D01*
X1951Y1D01*
X1952Y1D01*
X1953Y1D01*
X1954Y1D01*
X1955Y1D01*
X1956Y1D01*
X1957Y1D01*
X1958Y1D01*
X1959Y1D01*
X1960Y1D01*
X1961Y1D01*
X1962Y1D01*
X1963Y1D01*
X1964Y1D01*
X1965Y1D01*
X1966Y1D01*
X1967Y1D01*
X1968Y1D01*
X1969Y1D01*
X1970Y1D01*
X1971Y1D01*
X1972Y1D01*
X1973Y1D01*
X1974Y1D01*
X1975Y1D01*
X1976Y1D01*
X1977Y1D01*
X1978Y1D01*
X1979Y1D01*
X1980Y1D01*
X1981Y1D01*
X1982Y1D01*
X1983Y1D01*
X1984Y1D01*
X1985Y1D01*
X1986Y1D01*
X1987Y1D01*
X1988Y1D01*
X1989Y1D01*
X1990Y1D01*
X1991Y1D01*
X1992Y1D01*
X1993Y1D01*
X1994Y1D01*
X1995Y1D01*
X1996Y1D01*
X1997Y1D01*
X1998Y1D01*
X1999Y1D01*
X2000Y1D01*
X2001Y1D01*
X2002Y1D01*
X2003Y1D01*
X2004Y1D01*
X2005Y1D01*
X2006Y1D01*
X2007Y1D01*
X2008Y1D01*
X2009Y1D01*
X2010Y1D01*
X2011Y1D01*
X2012Y1D01*
X2013Y1D01*
X2014Y1D01*
X2015Y1D01*
X2016Y1D01*
X2017Y1D01*
X2018Y1D01*
X2019Y1D01*
X2020Y1D01*
X2021Y1D01*
X2022Y1D01*
X2023Y1D01*
X2024Y1D01*
X2025Y1D01*
X2026Y1D01*
X2027Y1D01*
X2028Y1D01*
X2029Y1D01*
X2030Y1D01*
X2031Y1D01*
X2032Y1D01*
X2033Y1D01*
X2034Y1D01*
X2035Y1D01*
X2036Y1D01*
X2037Y1D01*
X2038Y1D01*
X2039Y1D01*
X2040Y1D01*
X2041Y1D01*
X2042Y1D01*
X2043Y1D01*
X2044Y1D01*
X2045Y1D01*
X2046Y1D01*
X2047Y1D01*
X2048Y1D01*
X2049Y1D01*
X2050Y1D01*
X2051Y1D01*
X2052Y1D01*
X2053Y1D01*
X2054Y1D01*
X2055Y1D01*
X2056Y1D01*
X2057Y1D01*
X2058Y1D01*
X2059Y1D01*
X2060Y1D01*
X2061Y1D01*
X2062Y1D01*
X2063Y1D01*
X2064Y1D01*
X2065Y1D01*
X2066Y1D01*
X2067Y1D01*
X2068Y1D01*
X2069Y1D01*
X2070Y1D01*
X2071Y1D01*
X2072Y1D01*
X2073Y1D01*
X2074Y1D01*
X2075Y1D01*
X2076Y1D01*
X2077Y1D01*
X2078Y1D01*
X2079Y1D01*
X2080Y1D01*
X2081Y1D01*
X2082Y1D01*
X2083Y1D01*
X2084Y1D01*
X2085Y1D01*
X2086Y1D01*
X2087Y1D01*
X2088Y1D01*
X2089Y1D01*
X2090Y1D01*
X2091Y1D01*
X2092Y1D01*
X2093Y1D01*
X2094Y1D01*
X2095Y1D01*
X2096Y1D01*
X2097Y1D01*
X2098Y1D01*
X2099Y1D01*
X2100Y1D01*
X2101Y1D01*
X2102Y1D01*
X2103Y1D01*
X2104Y1D01*
X2105Y1D01*
X2106Y1D01*
X2107Y1D01*
X2108Y1D01*
X2109Y1D01*
X2110Y1D01*
X2111Y1D01*
X2112Y1D01*
X2113Y1D01*
X2114Y1D01*
X2115Y1D01*
X2116Y1D01*
X2117Y1D01*
X2118Y1D01*
X2119Y1D01*
X2120Y1D01*
X2121Y1D01*
X2122Y1D01*
X2123Y1D01*
X2124Y1D01*
X2125Y1D01*
X2126Y1D01*
X2127Y1D01*
X2128Y1D01*
X2129Y1D01*
X2130Y1D01*
X2131Y1D01*
X2132Y1D01*
X2133Y1D01*
X2134Y1D01*
X2135Y1D01*
X2136Y1D01*
X2137Y1D01*
X2138Y1D01*
X2139Y1D01*
X2140Y1D01*
X2141Y1D01*
X2142Y1D01*
X2143Y1D01*
X2144Y1D01*
X2145Y1D01*
X2146Y1D01*
X2147Y1D01*
X2148Y1D01*
X2149Y1D01*
X2150Y1D01*
X2151Y1D01*
X2152Y1D01*
X2153Y1D01*
X2154Y1D01*
X2155Y1D01*
X2156Y1D01*
X2157Y1D01*
X2158Y1D01*
X2159Y1D01*
X2160Y1D01*
X2161Y1D01*
X2162Y1D01*
X2163Y1D01*
X2164Y1D01*
X2165Y1D01*
X2166Y1D01*
X2167Y1D01*
X2168Y1D01*
X2169Y1D01*
X2170Y1D01*
X2171Y1D01*
X2172Y1D01*
X2173Y1D01*
X2174Y1D01*
X2175Y1D01*
X2176Y1D01*
X2177Y1D01*
X2178Y1D01*
X2179Y1D01*
X2180Y1D01*
X2181Y1D01*
X2182Y1D01*
X2183Y1D01*
X2184Y1D01*
X2185Y1D01*
X2186Y1D01*
X2187Y1D01*
X2188Y1D01*
X2189Y1D01*
X2190Y1D01*
X2191Y1D01*
X2192Y1D01*
X2193Y1D01*
X2194Y1D01*
X2195Y1D01*
X2196Y1D01*
X2197Y1D01*
X2198Y1D01*
X2199Y1D01*
X2200Y1D01*
X2201Y1D01*
X2202Y1D01*
X2203Y1D01*
X2204Y1D01*
X2205Y1D01*
X2206Y1D01*
X2207Y1D01*
X2208Y1D01*
X2209Y1D01*
X2210Y1D01*
X2211Y1D01*
X2212Y1D01*
X2213Y1D01*
X2214Y1D01*
X2215Y1D01*
X2216Y1D01*
X2217Y1D01*
X2218Y1D01*
X2219Y1D01*
X2220Y1D01*
X2221Y1D01*
X2222Y1D01*
X2223Y1D01*
X2224Y1D01*
X2225Y1D01*
X2226Y1D01*
X2227Y1D01*
X2228Y1D01*
X2229Y1D01*
X2230Y1D01*
X2231Y1D01*
X2232Y1D01*
X2233Y1D01*
X2234Y1D01*
X2235Y1D01*
X2236Y1D01*
X2237Y1D01*
X2238Y1D01*
X2239Y1D01*
X2240Y1D01*
X2241Y1D01*
X2242Y1D01*
X2243Y1D01*
X2244Y1D01*
X2245Y1D01*
X2246Y1D01*
X2247Y1D01*
X2248Y1D01*
X2249Y1D01*
X2250Y1D01*
X2251Y1D01*
X2252Y1D01*
X2253Y1D01*
X2254Y1D01*
X2255Y1D01*
X2256Y1D01*
X2257Y1D01*
X2258Y1D01*
X2259Y1D01*
X2260Y1D01*
X2261Y1D01*
X2262Y1D01*
X2263Y1D01*
X2264Y1D01*
X2265Y1D01*
X2266Y1D01*
X2267Y1D01*
X2268Y1D01*
X2269Y1D01*
X2270Y1D01*
X2271Y1D01*
X2272Y1D01*
X2273Y1D01*
X2274Y1D01*
X2275Y1D01*
X2276Y1D01*
X2277Y1D01*
X2278Y1D01*
X2279Y1D01*
X2280Y1D01*
X2281Y1D01*
X2282Y1D01*
X2283Y1D01*
X2284Y1D01*
X2285Y1D01*
X2286Y1D01*
X2287Y1D01*
X2288Y1D01*
X2289Y1D01*
X2290Y1D01*
X2291Y1D01*
X2292Y1D01*
X2293Y1D01*
X2294Y1D01*
X2295Y1D01*
X2296Y1D01*
X2297Y1D01*
X2298Y1D01*
X2299Y1D01*
X2300Y1D01*
X2301Y1D01*
X2302Y1D01*
X2303Y1D01*
X2304Y1D01*
X2305Y1D01*
X2306Y1D01*
X2307Y1D01*
X2308Y1D01*
X2309Y1D01*
X2310Y1D01*
X2311Y1D01*
X2312Y1D01*
X2313Y1D01*
X2314Y1D01*
X2315Y1D01*
X2316Y1D01*
X2317Y1D01*
X2318Y1D01*
X2319Y1D01*
X2320Y1D01*
X2321Y1D01*
X2322Y1D01*
X2323Y1D01*
X2324Y1D01*
X2325Y1D01*
X2326Y1D01*
X2327Y1D01*
X2328Y1D01*
X2329Y1D01*
X2330Y1D01*
X2331Y1D01*
X2332Y1D01*
X2333Y1D01*
X2334Y1D01*
X2335Y1D01*
X2336Y1D01*
X2337Y1D01*
X2338Y1D01*
X2339Y1D01*
X2340Y1D01*
X2341Y1D01*
X2342Y1D01*
X2343Y1D01*
X2344Y1D01*
X2345Y1D01*
X2346Y1D01*
X2347Y1D01*
X2348Y1D01*
X2349Y1D01*
X2350Y1D01*
X2351Y1D01*
X2352Y1D01*
X2353Y1D01*
X2354Y1D01*
X2355Y1D01*
X2356Y1D01*
X2357Y1D01*
X2358Y1D01*
X2359Y1D01*
X2360Y1D01*
X2361Y1D01*
X2362Y1D01*
X2363Y1D01*
X2364Y1D01*
X2365Y1D01*
X2366Y1D01*
X2367Y1D01*
X2368Y1D01*
X2369Y1D01*
X2370Y1D01*
X2371Y1D01*
X2372Y1D01*
X2373Y1D01*
X2374Y1D01*
X2375Y1D01*
X2376Y1D01*
X2377Y1D01*
X2378Y1D01*
X2379Y1D01*
X2380Y1D01*
X2381Y1D01*
X2382Y1D01*
X2383Y1D01*
X2384Y1D01*
X2385Y1D01*
X2386Y1D01*
X2387Y1D01*
X2388Y1D01*
X2389Y1D01*
X2390Y1D01*
X2391Y1D01*
X2392Y1D01*
X2393Y1D01*
X2394Y1D01*
X2395Y1D01*
X2396Y1D01*
X2397Y1D01*
X2398Y1D01*
X2399Y1D01*
X2400Y1D01*
X2401Y1D01*
X2402Y1D01*
X2403Y1D01*
X2404Y1D01*
X2405Y1D01*
X2406Y1D01*
X2407Y1D01*
X2408Y1D01*
X2409Y1D01*
X2410Y1D01*
X2411Y1D01*
X2412Y1D01*
X2413Y1D01*
X2414Y1D01*
X2415Y1D01*
X2416Y1D01*
X2417Y1D01*
X2418Y1D01*
X2419Y1D01*
X2420Y1D01*
X2421Y1D01*
X2422Y1D01*
X2423Y1D01*
X2424Y1D01*
X2425Y1D01*
X2426Y1D01*
X2427Y1D01*
X2428Y1D01*
X2429Y1D01*
X2430Y1D01*
X2431Y1D01*
X2432Y1D01*
X2433Y1D01*
X2434Y1D01*
X2435Y1D01*
X2436Y1D01*
X2437Y1D01*
X2438Y1D01*
X2439Y1D01*
X2440Y1D01*
X2441Y1D01*
X2442Y1D01*
X2443Y1D01*
X2444Y1D01*
X2445Y1D01*
X2446Y1D01*
X2447Y1D01*
X2448Y1D01*
X2449Y1D01*
X2450Y1D01*
X2451Y1D01*
X2452Y1D01*
X2453Y1D01*
X2454Y1D01*
X2455Y1D01*
X2456Y1D01*
X2457Y1D01*
X2458Y1D01*
X2459Y1D01*
X2460Y1D01*
X2461Y1D01*
X2462Y1D01*
X2463Y1D01*
X2464Y1D01*
X2465Y1D01*
X2466Y1D01*
X2467Y1D01*
X2468Y1D01*
X2469Y1D01*
X2470Y1D01*
X2471Y1D01*
X2472Y1D01*
X2473Y1D01*
X2474Y1D01*
X2475Y1D01*
X2476Y1D01*
X2477Y1D01*
X2478Y1D01*
X2479Y1D01*
X2480Y1D01*
X2481Y1D01*
X2482Y1D01*
X2483Y1D01*
X2484Y1D01*
X2485Y1D01*
X2486Y1D01*
X2487Y1D01*
X2488Y1D01*
X2489Y1D01*
X2490Y1D01*
X2491Y1D01*
X2492Y1D01*
X2493Y1D01*
X2494Y1D01*
X2495Y1D01*
X2496Y1D01*
X2497Y1D01*
X2498Y1D01*
X2499Y1D01*
X2500Y1D01*
X2501Y1D01*
X2502Y1D01*
X2503Y1D01*
X2504Y1D01*
X2505Y1D01*
X2506Y1D01*
X2507Y1D01*
X2508Y1D01*
X2509Y1D01*
X2510Y1D01*
X2511Y1D01*
X2512Y1D01*
X2513Y1D01*
X2514Y1D01*
X2515Y1D01*
X2516Y1D01*
X2517Y1D01*
X2518Y1D01*
X2519Y1D01*
X2520Y1D01*
X2521Y1D01*
X2522Y1D01*
X2523Y1D01*
X2524Y1D01*
X2525Y1D01*
X2526Y1D01*
X2527Y1D01*
X2528Y1D01*
X2529Y1D01*
X2530Y1D01*
X2531Y1D01*
X2532Y1D01*
X2533Y1D01*
X2534Y1D01*
X2535Y1D01*
X2536Y1D01*
X2537Y1D01*
X2538Y1D01*
X2539Y1D01*
X2540Y1D01*
X2541Y1D01*
X2542Y1D01*
X2543Y1D01*
X2544Y1D01*
X2545Y1D01*
X2546Y1D01*
X2547Y1D01*
X2548Y1D01*
X2549Y1D01*
X2550Y1D01*
X2551Y1D01*
X2552Y1D01*
X2553Y1D01*
X2554Y1D01*
X2555Y1D01*
X2556Y1D01*
X2557Y1D01*
X2558Y1D01*
X2559Y1D01*
X2560Y1D01*
X2561Y1D01*
X2562Y1D01*
X2563Y1D01*
X2564Y1D01*
X2565Y1D01*
X2566Y1D01*
X2567Y1D01*
X2568Y1D01*
X2569Y1D01*
X2570Y1D01*
X2571Y1D01*
X2572Y1D01*
X2573Y1D01*
X2574Y1D01*
X2575Y1D01*
X2576Y1D01*
X2577Y1D01*
X2578Y1D01*
X2579Y1D01*
X2580Y1D01*
X2581Y1D01*
X2582Y1D01*
X2583Y1D01*
X2584Y1D01*
X2585Y1D01*
X2586Y1D01*
X2587Y1D01*
X2588Y1D01*
X2589Y1D01*
X2590Y1D01*
X2591Y1D01*
X2592Y1D01*
X2593Y1D01*
X2594Y1D01*
X2595Y1D01*
X2596Y1D01*
X2597Y1D01*
X2598Y1D01*
X2599Y1D01*
X2600Y1D01*
X2601Y1D01*
X2602Y1D01*
X2603Y1D01*
X2604Y1D01*
X2605Y1D01*
X2606Y1D01*
X2607Y1D01*
X2607Y103D01*
X2608Y104D01*
X2609Y105D01*
X2610Y106D01*
X2611Y107D01*
X2612Y108D01*
X2613Y109D01*
X2614Y110D01*
X2615Y111D01*
X2616Y112D01*
X2617Y113D01*
X2618Y114D01*
X2619Y115D01*
X2620Y116D01*
X2621Y117D01*
X2622Y118D01*
X2623Y119D01*
X2624Y120D01*
X2625Y121D01*
X2626Y122D01*
X2627Y123D01*
X2628Y124D01*
X2629Y125D01*
X2630Y126D01*
X2631Y127D01*
X2632Y128D01*
X2633Y129D01*
X2634Y130D01*
X2635Y131D01*
X2636Y132D01*
X2637Y133D01*
X2638Y134D01*
X2639Y135D01*
X2640Y136D01*
X2641Y137D01*
X2642Y138D01*
X2643Y139D01*
X2644Y140D01*
X2645Y141D01*
X2646Y142D01*
X2647Y143D01*
X2648Y144D01*
X2649Y145D01*
X2650Y146D01*
X2651Y147D01*
X2652Y148D01*
X2653Y149D01*
X2654Y150D01*
X2655Y151D01*
X2656Y152D01*
X2657Y153D01*
X2658Y154D01*
X2659Y155D01*
X2660Y156D01*
X2661Y157D01*
X2662Y158D01*
X2663Y159D01*
X2664Y160D01*
X2665Y161D01*
X2666Y162D01*
X2667Y163D01*
X2668Y164D01*
X2669Y165D01*
X2670Y166D01*
X2671Y167D01*
X2672Y168D01*
X2673Y169D01*
X2674Y170D01*
X2675Y171D01*
X2676Y172D01*
X2677Y173D01*
X2678Y174D01*
X2679Y175D01*
X2680Y176D01*
X2681Y177D01*
X2682Y178D01*
X2683Y179D01*
X2684Y180D01*
X2685Y181D01*
X2686Y182D01*
X2687Y183D01*
X2688Y184D01*
X2689Y185D01*
X2690Y186D01*
X2691Y187D01*
X2692Y188D01*
X2693Y189D01*
X2694Y190D01*
X2695Y191D01*
X2696Y192D01*
X2697Y193D01*
X2698Y194D01*
X2699Y195D01*
X2700Y196D01*
X2701Y197D01*
X2702Y198D01*
X2703Y199D01*
X2704Y200D01*
X2705Y201D01*
X2706Y202D01*
X2707Y203D01*
X2707Y1506D01*
X2706Y1507D01*
X2705Y1508D01*
X2704Y1509D01*
X2703Y1510D01*
X2702Y1511D01*
X2701Y1512D01*
X2700Y1513D01*
X2699Y1514D01*
X2698Y1515D01*
X2697Y1516D01*
X2696Y1517D01*
X2695Y1518D01*
X2694Y1519D01*
X2693Y1520D01*
X2692Y1521D01*
X2691Y1522D01*
X2690Y1523D01*
X2689Y1524D01*
X2688Y1525D01*
X2687Y1526D01*
X2686Y1527D01*
X2685Y1528D01*
X2684Y1529D01*
X2683Y1530D01*
X2682Y1531D01*
X2681Y1532D01*
X2680Y1533D01*
X2679Y1534D01*
X2678Y1535D01*
X2677Y1536D01*
X2676Y1537D01*
X2675Y1538D01*
X2674Y1539D01*
X2673Y1540D01*
X2672Y1541D01*
X2671Y1542D01*
X2670Y1543D01*
X2669Y1544D01*
X2668Y1545D01*
X2667Y1546D01*
X2666Y1547D01*
X2665Y1548D01*
X2664Y1549D01*
X2663Y1550D01*
X2662Y1551D01*
X2661Y1552D01*
X2660Y1553D01*
X2659Y1554D01*
X2658Y1555D01*
X2657Y1556D01*
X2656Y1557D01*
X2655Y1558D01*
X2654Y1559D01*
X2653Y1560D01*
X2652Y1561D01*
X2651Y1562D01*
X2650Y1563D01*
X2649Y1564D01*
X2648Y1565D01*
X2647Y1566D01*
X2646Y1567D01*
X2645Y1568D01*
X2644Y1569D01*
X2643Y1570D01*
X2642Y1571D01*
X2641Y1572D01*
X2640Y1573D01*
X2639Y1574D01*
X2638Y1575D01*
X2637Y1576D01*
X2636Y1577D01*
X2635Y1578D01*
X2634Y1579D01*
X2633Y1580D01*
X2632Y1581D01*
X2631Y1582D01*
X2630Y1583D01*
X2629Y1584D01*
X2628Y1585D01*
X2627Y1586D01*
X2626Y1587D01*
X2625Y1588D01*
X2624Y1589D01*
X2623Y1590D01*
X2622Y1591D01*
X2621Y1592D01*
X2620Y1593D01*
X2619Y1594D01*
X2618Y1595D01*
X2617Y1596D01*
X2616Y1597D01*
X2615Y1598D01*
X2614Y1599D01*
X2613Y1600D01*
X2612Y1601D01*
X2611Y1602D01*
X2610Y1603D01*
X2609Y1604D01*
X2608Y1605D01*
X2607Y1606D01*
X2607Y2108D01*
X2606Y2108D01*
X2605Y2108D01*
X2604Y2108D01*
X2603Y2108D01*
X2602Y2108D01*
X2601Y2108D01*
X2600Y2108D01*
X2599Y2108D01*
X2598Y2108D01*
X2597Y2108D01*
X2596Y2108D01*
X2595Y2108D01*
X2594Y2108D01*
X2593Y2108D01*
X2592Y2108D01*
X2591Y2108D01*
X2590Y2108D01*
X2589Y2108D01*
X2588Y2108D01*
X2587Y2108D01*
X2586Y2108D01*
X2585Y2108D01*
X2584Y2108D01*
X2583Y2108D01*
X2582Y2108D01*
X2581Y2108D01*
X2580Y2108D01*
X2579Y2108D01*
X2578Y2108D01*
X2577Y2108D01*
X2576Y2108D01*
X2575Y2108D01*
X2574Y2108D01*
X2573Y2108D01*
X2572Y2108D01*
X2571Y2108D01*
X2570Y2108D01*
X2569Y2108D01*
X2568Y2108D01*
X2567Y2108D01*
X2566Y2108D01*
X2565Y2108D01*
X2564Y2108D01*
X2563Y2108D01*
X2562Y2108D01*
X2561Y2108D01*
X2560Y2108D01*
X2559Y2108D01*
X2558Y2108D01*
X2557Y2108D01*
X2556Y2108D01*
X2555Y2108D01*
X2554Y2108D01*
X2553Y2108D01*
X2552Y2108D01*
X2551Y2108D01*
X2550Y2108D01*
X2549Y2108D01*
X2548Y2108D01*
X2547Y2108D01*
X2546Y2108D01*
X2545Y2108D01*
X2544Y2108D01*
X2543Y2108D01*
X2542Y2108D01*
X2541Y2108D01*
X2540Y2108D01*
X2539Y2108D01*
X2538Y2108D01*
X2537Y2108D01*
X2536Y2108D01*
X2535Y2108D01*
X2534Y2108D01*
X2533Y2108D01*
X2532Y2108D01*
X2531Y2108D01*
X2530Y2108D01*
X2529Y2108D01*
X2528Y2108D01*
X2527Y2108D01*
X2526Y2108D01*
X2525Y2108D01*
X2524Y2108D01*
X2523Y2108D01*
X2522Y2108D01*
X2521Y2108D01*
X2520Y2108D01*
X2519Y2108D01*
X2518Y2108D01*
X2517Y2108D01*
X2516Y2108D01*
X2515Y2108D01*
X2514Y2108D01*
X2513Y2108D01*
X2512Y2108D01*
X2511Y2108D01*
X2510Y2108D01*
X2509Y2108D01*
X2508Y2108D01*
X2507Y2108D01*
X2506Y2108D01*
X2505Y2108D01*
X2504Y2108D01*
X2503Y2108D01*
X2502Y2108D01*
X2501Y2108D01*
X2500Y2108D01*
X2499Y2108D01*
X2498Y2108D01*
X2497Y2108D01*
X2496Y2108D01*
X2495Y2108D01*
X2494Y2108D01*
X2493Y2108D01*
X2492Y2108D01*
X2491Y2108D01*
X2490Y2108D01*
X2489Y2108D01*
X2488Y2108D01*
X2487Y2108D01*
X2486Y2108D01*
X2485Y2108D01*
X2484Y2108D01*
X2483Y2108D01*
X2482Y2108D01*
X2481Y2108D01*
X2480Y2108D01*
X2479Y2108D01*
X2478Y2108D01*
X2477Y2108D01*
X2476Y2108D01*
X2475Y2108D01*
X2474Y2108D01*
X2473Y2108D01*
X2472Y2108D01*
X2471Y2108D01*
X2470Y2108D01*
X2469Y2108D01*
X2468Y2108D01*
X2467Y2108D01*
X2466Y2108D01*
X2465Y2108D01*
X2464Y2108D01*
X2463Y2108D01*
X2462Y2108D01*
X2461Y2108D01*
X2460Y2108D01*
X2459Y2108D01*
X2458Y2108D01*
X2457Y2108D01*
X2456Y2108D01*
X2455Y2108D01*
X2454Y2108D01*
X2453Y2108D01*
X2452Y2108D01*
X2451Y2108D01*
X2450Y2108D01*
X2449Y2108D01*
X2448Y2108D01*
X2447Y2108D01*
X2446Y2108D01*
X2445Y2108D01*
X2444Y2108D01*
X2443Y2108D01*
X2442Y2108D01*
X2441Y2108D01*
X2440Y2108D01*
X2439Y2108D01*
X2438Y2108D01*
X2437Y2108D01*
X2436Y2108D01*
X2435Y2108D01*
X2434Y2108D01*
X2433Y2108D01*
X2432Y2108D01*
X2431Y2108D01*
X2430Y2108D01*
X2429Y2108D01*
X2428Y2108D01*
X2427Y2108D01*
X2426Y2108D01*
X2425Y2108D01*
X2424Y2108D01*
X2423Y2108D01*
X2422Y2108D01*
X2421Y2108D01*
X2420Y2108D01*
X2419Y2108D01*
X2418Y2108D01*
X2417Y2108D01*
X2416Y2108D01*
X2415Y2108D01*
X2414Y2108D01*
X2413Y2108D01*
X2412Y2108D01*
X2411Y2108D01*
X2410Y2108D01*
X2409Y2108D01*
X2408Y2108D01*
X2407Y2108D01*
X2406Y2108D01*
X2405Y2108D01*
X2404Y2108D01*
X2403Y2108D01*
X2402Y2108D01*
X2401Y2108D01*
X2400Y2108D01*
X2399Y2108D01*
X2398Y2108D01*
X2397Y2108D01*
X2396Y2108D01*
X2395Y2108D01*
X2394Y2108D01*
X2393Y2108D01*
X2392Y2108D01*
X2391Y2108D01*
X2390Y2108D01*
X2389Y2108D01*
X2388Y2108D01*
X2387Y2108D01*
X2386Y2108D01*
X2385Y2108D01*
X2384Y2108D01*
X2383Y2108D01*
X2382Y2108D01*
X2381Y2108D01*
X2380Y2108D01*
X2379Y2108D01*
X2378Y2108D01*
X2377Y2108D01*
X2376Y2108D01*
X2375Y2108D01*
X2374Y2108D01*
X2373Y2108D01*
X2372Y2108D01*
X2371Y2108D01*
X2370Y2108D01*
X2369Y2108D01*
X2368Y2108D01*
X2367Y2108D01*
X2366Y2108D01*
X2365Y2108D01*
X2364Y2108D01*
X2363Y2108D01*
X2362Y2108D01*
X2361Y2108D01*
X2360Y2108D01*
X2359Y2108D01*
X2358Y2108D01*
X2357Y2108D01*
X2356Y2108D01*
X2355Y2108D01*
X2354Y2108D01*
X2353Y2108D01*
X2352Y2108D01*
X2351Y2108D01*
X2350Y2108D01*
X2349Y2108D01*
X2348Y2108D01*
X2347Y2108D01*
X2346Y2108D01*
X2345Y2108D01*
X2344Y2108D01*
X2343Y2108D01*
X2342Y2108D01*
X2341Y2108D01*
X2340Y2108D01*
X2339Y2108D01*
X2338Y2108D01*
X2337Y2108D01*
X2336Y2108D01*
X2335Y2108D01*
X2334Y2108D01*
X2333Y2108D01*
X2332Y2108D01*
X2331Y2108D01*
X2330Y2108D01*
X2329Y2108D01*
X2328Y2108D01*
X2327Y2108D01*
X2326Y2108D01*
X2325Y2108D01*
X2324Y2108D01*
X2323Y2108D01*
X2322Y2108D01*
X2321Y2108D01*
X2320Y2108D01*
X2319Y2108D01*
X2318Y2108D01*
X2317Y2108D01*
X2316Y2108D01*
X2315Y2108D01*
X2314Y2108D01*
X2313Y2108D01*
X2312Y2108D01*
X2311Y2108D01*
X2310Y2108D01*
X2309Y2108D01*
X2308Y2108D01*
X2307Y2108D01*
X2306Y2108D01*
X2305Y2108D01*
X2304Y2108D01*
X2303Y2108D01*
X2302Y2108D01*
X2301Y2108D01*
X2300Y2108D01*
X2299Y2108D01*
X2298Y2108D01*
X2297Y2108D01*
X2296Y2108D01*
X2295Y2108D01*
X2294Y2108D01*
X2293Y2108D01*
X2292Y2108D01*
X2291Y2108D01*
X2290Y2108D01*
X2289Y2108D01*
X2288Y2108D01*
X2287Y2108D01*
X2286Y2108D01*
X2285Y2108D01*
X2284Y2108D01*
X2283Y2108D01*
X2282Y2108D01*
X2281Y2108D01*
X2280Y2108D01*
X2279Y2108D01*
X2278Y2108D01*
X2277Y2108D01*
X2276Y2108D01*
X2275Y2108D01*
X2274Y2108D01*
X2273Y2108D01*
X2272Y2108D01*
X2271Y2108D01*
X2270Y2108D01*
X2269Y2108D01*
X2268Y2108D01*
X2267Y2108D01*
X2266Y2108D01*
X2265Y2108D01*
X2264Y2108D01*
X2263Y2108D01*
X2262Y2108D01*
X2261Y2108D01*
X2260Y2108D01*
X2259Y2108D01*
X2258Y2108D01*
X2257Y2108D01*
X2256Y2108D01*
X2255Y2108D01*
X2254Y2108D01*
X2253Y2108D01*
X2252Y2108D01*
X2251Y2108D01*
X2250Y2108D01*
X2249Y2108D01*
X2248Y2108D01*
X2247Y2108D01*
X2246Y2108D01*
X2245Y2108D01*
X2244Y2108D01*
X2243Y2108D01*
X2242Y2108D01*
X2241Y2108D01*
X2240Y2108D01*
X2239Y2108D01*
X2238Y2108D01*
X2237Y2108D01*
X2236Y2108D01*
X2235Y2108D01*
X2234Y2108D01*
X2233Y2108D01*
X2232Y2108D01*
X2231Y2108D01*
X2230Y2108D01*
X2229Y2108D01*
X2228Y2108D01*
X2227Y2108D01*
X2226Y2108D01*
X2225Y2108D01*
X2224Y2108D01*
X2223Y2108D01*
X2222Y2108D01*
X2221Y2108D01*
X2220Y2108D01*
X2219Y2108D01*
X2218Y2108D01*
X2217Y2108D01*
X2216Y2108D01*
X2215Y2108D01*
X2214Y2108D01*
X2213Y2108D01*
X2212Y2108D01*
X2211Y2108D01*
X2210Y2108D01*
X2209Y2108D01*
X2208Y2108D01*
X2207Y2108D01*
X2206Y2108D01*
X2205Y2108D01*
X2204Y2108D01*
X2203Y2108D01*
X2202Y2108D01*
X2201Y2108D01*
X2200Y2108D01*
X2199Y2108D01*
X2198Y2108D01*
X2197Y2108D01*
X2196Y2108D01*
X2195Y2108D01*
X2194Y2108D01*
X2193Y2108D01*
X2192Y2108D01*
X2191Y2108D01*
X2190Y2108D01*
X2189Y2108D01*
X2188Y2108D01*
X2187Y2108D01*
X2186Y2108D01*
X2185Y2108D01*
X2184Y2108D01*
X2183Y2108D01*
X2182Y2108D01*
X2181Y2108D01*
X2180Y2108D01*
X2179Y2108D01*
X2178Y2108D01*
X2177Y2108D01*
X2176Y2108D01*
X2175Y2108D01*
X2174Y2108D01*
X2173Y2108D01*
X2172Y2108D01*
X2171Y2108D01*
X2170Y2108D01*
X2169Y2108D01*
X2168Y2108D01*
X2167Y2108D01*
X2166Y2108D01*
X2165Y2108D01*
X2164Y2108D01*
X2163Y2108D01*
X2162Y2108D01*
X2161Y2108D01*
X2160Y2108D01*
X2159Y2108D01*
X2158Y2108D01*
X2157Y2108D01*
X2156Y2108D01*
X2155Y2108D01*
X2154Y2108D01*
X2153Y2108D01*
X2152Y2108D01*
X2151Y2108D01*
X2150Y2108D01*
X2149Y2108D01*
X2148Y2108D01*
X2147Y2108D01*
X2146Y2108D01*
X2145Y2108D01*
X2144Y2108D01*
X2143Y2108D01*
X2142Y2108D01*
X2141Y2108D01*
X2140Y2108D01*
X2139Y2108D01*
X2138Y2108D01*
X2137Y2108D01*
X2136Y2108D01*
X2135Y2108D01*
X2134Y2108D01*
X2133Y2108D01*
X2132Y2108D01*
X2131Y2108D01*
X2130Y2108D01*
X2129Y2108D01*
X2128Y2108D01*
X2127Y2108D01*
X2126Y2108D01*
X2125Y2108D01*
X2124Y2108D01*
X2123Y2108D01*
X2122Y2108D01*
X2121Y2108D01*
X2120Y2108D01*
X2119Y2108D01*
X2118Y2108D01*
X2117Y2108D01*
X2116Y2108D01*
X2115Y2108D01*
X2114Y2108D01*
X2113Y2108D01*
X2112Y2108D01*
X2111Y2108D01*
X2110Y2108D01*
X2109Y2108D01*
X2108Y2108D01*
X2107Y2108D01*
X2106Y2108D01*
X2105Y2108D01*
X2104Y2108D01*
X2103Y2108D01*
X2102Y2108D01*
X2101Y2108D01*
X2100Y2108D01*
X2099Y2108D01*
X2098Y2108D01*
X2097Y2108D01*
X2096Y2108D01*
X2095Y2108D01*
X2094Y2108D01*
X2093Y2108D01*
X2092Y2108D01*
X2091Y2108D01*
X2090Y2108D01*
X2089Y2108D01*
X2088Y2108D01*
X2087Y2108D01*
X2086Y2108D01*
X2085Y2108D01*
X2084Y2108D01*
X2083Y2108D01*
X2082Y2108D01*
X2081Y2108D01*
X2080Y2108D01*
X2079Y2108D01*
X2078Y2108D01*
X2077Y2108D01*
X2076Y2108D01*
X2075Y2108D01*
X2074Y2108D01*
X2073Y2108D01*
X2072Y2108D01*
X2071Y2108D01*
X2070Y2108D01*
X2069Y2108D01*
X2068Y2108D01*
X2067Y2108D01*
X2066Y2108D01*
X2065Y2108D01*
X2064Y2108D01*
X2063Y2108D01*
X2062Y2108D01*
X2061Y2108D01*
X2060Y2108D01*
X2059Y2108D01*
X2058Y2108D01*
X2057Y2108D01*
X2056Y2108D01*
X2055Y2108D01*
X2054Y2108D01*
X2053Y2108D01*
X2052Y2108D01*
X2051Y2108D01*
X2050Y2108D01*
X2049Y2108D01*
X2048Y2108D01*
X2047Y2108D01*
X2046Y2108D01*
X2045Y2108D01*
X2044Y2108D01*
X2043Y2108D01*
X2042Y2108D01*
X2041Y2108D01*
X2040Y2108D01*
X2039Y2108D01*
X2038Y2108D01*
X2037Y2108D01*
X2036Y2108D01*
X2035Y2108D01*
X2034Y2108D01*
X2033Y2108D01*
X2032Y2108D01*
X2031Y2108D01*
X2030Y2108D01*
X2029Y2108D01*
X2028Y2108D01*
X2027Y2108D01*
X2026Y2108D01*
X2025Y2108D01*
X2024Y2108D01*
X2023Y2108D01*
X2022Y2108D01*
X2021Y2108D01*
X2020Y2108D01*
X2019Y2108D01*
X2018Y2108D01*
X2017Y2108D01*
X2016Y2108D01*
X2015Y2108D01*
X2014Y2108D01*
X2013Y2108D01*
X2012Y2108D01*
X2011Y2108D01*
X2010Y2108D01*
X2009Y2108D01*
X2008Y2108D01*
X2007Y2108D01*
X2006Y2108D01*
X2005Y2108D01*
X2004Y2108D01*
X2003Y2108D01*
X2002Y2108D01*
X2001Y2108D01*
X2000Y2108D01*
X1999Y2108D01*
X1998Y2108D01*
X1997Y2108D01*
X1996Y2108D01*
X1995Y2108D01*
X1994Y2108D01*
X1993Y2108D01*
X1992Y2108D01*
X1991Y2108D01*
X1990Y2108D01*
X1989Y2108D01*
X1988Y2108D01*
X1987Y2108D01*
X1986Y2108D01*
X1985Y2108D01*
X1984Y2108D01*
X1983Y2108D01*
X1982Y2108D01*
X1981Y2108D01*
X1980Y2108D01*
X1979Y2108D01*
X1978Y2108D01*
X1977Y2108D01*
X1976Y2108D01*
X1975Y2108D01*
X1974Y2108D01*
X1973Y2108D01*
X1972Y2108D01*
X1971Y2108D01*
X1970Y2108D01*
X1969Y2108D01*
X1968Y2108D01*
X1967Y2108D01*
X1966Y2108D01*
X1965Y2108D01*
X1964Y2108D01*
X1963Y2108D01*
X1962Y2108D01*
X1961Y2108D01*
X1960Y2108D01*
X1959Y2108D01*
X1958Y2108D01*
X1957Y2108D01*
X1956Y2108D01*
X1955Y2108D01*
X1954Y2108D01*
X1953Y2108D01*
X1952Y2108D01*
X1951Y2108D01*
X1950Y2108D01*
X1949Y2108D01*
X1948Y2108D01*
X1947Y2108D01*
X1946Y2108D01*
X1945Y2108D01*
X1944Y2108D01*
X1943Y2108D01*
X1942Y2108D01*
X1941Y2108D01*
X1940Y2108D01*
X1939Y2108D01*
X1938Y2108D01*
X1937Y2108D01*
X1936Y2108D01*
X1935Y2108D01*
X1934Y2108D01*
X1933Y2108D01*
X1932Y2108D01*
X1931Y2108D01*
X1930Y2108D01*
X1929Y2108D01*
X1928Y2108D01*
X1927Y2108D01*
X1926Y2108D01*
X1925Y2108D01*
X1924Y2108D01*
X1923Y2108D01*
X1922Y2108D01*
X1921Y2108D01*
X1920Y2108D01*
X1919Y2108D01*
X1918Y2108D01*
X1917Y2108D01*
X1916Y2108D01*
X1915Y2108D01*
X1914Y2108D01*
X1913Y2108D01*
X1912Y2108D01*
X1911Y2108D01*
X1910Y2108D01*
X1909Y2108D01*
X1908Y2108D01*
X1907Y2108D01*
X1906Y2108D01*
X1905Y2108D01*
X1904Y2108D01*
X1903Y2108D01*
X1902Y2108D01*
X1901Y2108D01*
X1900Y2108D01*
X1899Y2108D01*
X1898Y2108D01*
X1897Y2108D01*
X1896Y2108D01*
X1895Y2108D01*
X1894Y2108D01*
X1893Y2108D01*
X1892Y2108D01*
X1891Y2108D01*
X1890Y2108D01*
X1889Y2108D01*
X1888Y2108D01*
X1887Y2108D01*
X1886Y2108D01*
X1885Y2108D01*
X1884Y2108D01*
X1883Y2108D01*
X1882Y2108D01*
X1881Y2108D01*
X1880Y2108D01*
X1879Y2108D01*
X1878Y2108D01*
X1877Y2108D01*
X1876Y2108D01*
X1875Y2108D01*
X1874Y2108D01*
X1873Y2108D01*
X1872Y2108D01*
X1871Y2108D01*
X1870Y2108D01*
X1869Y2108D01*
X1868Y2108D01*
X1867Y2108D01*
X1866Y2108D01*
X1865Y2108D01*
X1864Y2108D01*
X1863Y2108D01*
X1862Y2108D01*
X1861Y2108D01*
X1860Y2108D01*
X1859Y2108D01*
X1858Y2108D01*
X1857Y2108D01*
X1856Y2108D01*
X1855Y2108D01*
X1854Y2108D01*
X1853Y2108D01*
X1852Y2108D01*
X1851Y2108D01*
X1850Y2108D01*
X1849Y2108D01*
X1848Y2108D01*
X1847Y2108D01*
X1846Y2108D01*
X1845Y2108D01*
X1844Y2108D01*
X1843Y2108D01*
X1842Y2108D01*
X1841Y2108D01*
X1840Y2108D01*
X1839Y2108D01*
X1838Y2108D01*
X1837Y2108D01*
X1836Y2108D01*
X1835Y2108D01*
X1834Y2108D01*
X1833Y2108D01*
X1832Y2108D01*
X1831Y2108D01*
X1830Y2108D01*
X1829Y2108D01*
X1828Y2108D01*
X1827Y2108D01*
X1826Y2108D01*
X1825Y2108D01*
X1824Y2108D01*
X1823Y2108D01*
X1822Y2108D01*
X1821Y2108D01*
X1820Y2108D01*
X1819Y2108D01*
X1818Y2108D01*
X1817Y2108D01*
X1816Y2108D01*
X1815Y2108D01*
X1814Y2108D01*
X1813Y2108D01*
X1812Y2108D01*
X1811Y2108D01*
X1810Y2108D01*
X1809Y2108D01*
X1808Y2108D01*
X1807Y2108D01*
X1806Y2108D01*
X1805Y2108D01*
X1804Y2108D01*
X1803Y2108D01*
X1802Y2108D01*
X1801Y2108D01*
X1800Y2108D01*
X1799Y2108D01*
X1798Y2108D01*
X1797Y2108D01*
X1796Y2108D01*
X1795Y2108D01*
X1794Y2108D01*
X1793Y2108D01*
X1792Y2108D01*
X1791Y2108D01*
X1790Y2108D01*
X1789Y2108D01*
X1788Y2108D01*
X1787Y2108D01*
X1786Y2108D01*
X1785Y2108D01*
X1784Y2108D01*
X1783Y2108D01*
X1782Y2108D01*
X1781Y2108D01*
X1780Y2108D01*
X1779Y2108D01*
X1778Y2108D01*
X1777Y2108D01*
X1776Y2108D01*
X1775Y2108D01*
X1774Y2108D01*
X1773Y2108D01*
X1772Y2108D01*
X1771Y2108D01*
X1770Y2108D01*
X1769Y2108D01*
X1768Y2108D01*
X1767Y2108D01*
X1766Y2108D01*
X1765Y2108D01*
X1764Y2108D01*
X1763Y2108D01*
X1762Y2108D01*
X1761Y2108D01*
X1760Y2108D01*
X1759Y2108D01*
X1758Y2108D01*
X1757Y2108D01*
X1756Y2108D01*
X1755Y2108D01*
X1754Y2108D01*
X1753Y2108D01*
X1752Y2108D01*
X1751Y2108D01*
X1750Y2108D01*
X1749Y2108D01*
X1748Y2108D01*
X1747Y2108D01*
X1746Y2108D01*
X1745Y2108D01*
X1744Y2108D01*
X1743Y2108D01*
X1742Y2108D01*
X1741Y2108D01*
X1740Y2108D01*
X1739Y2108D01*
X1738Y2108D01*
X1737Y2108D01*
X1736Y2108D01*
X1735Y2108D01*
X1734Y2108D01*
X1733Y2108D01*
X1732Y2108D01*
X1731Y2108D01*
X1730Y2108D01*
X1729Y2108D01*
X1728Y2108D01*
X1727Y2108D01*
X1726Y2108D01*
X1725Y2108D01*
X1724Y2108D01*
X1723Y2108D01*
X1722Y2108D01*
X1721Y2108D01*
X1720Y2108D01*
X1719Y2108D01*
X1718Y2108D01*
X1717Y2108D01*
X1716Y2108D01*
X1715Y2108D01*
X1714Y2108D01*
X1713Y2108D01*
X1712Y2108D01*
X1711Y2108D01*
X1710Y2108D01*
X1709Y2108D01*
X1708Y2108D01*
X1707Y2108D01*
X1706Y2108D01*
X1705Y2108D01*
X1704Y2108D01*
X1703Y2108D01*
X1702Y2108D01*
X1701Y2108D01*
X1700Y2108D01*
X1699Y2108D01*
X1698Y2108D01*
X1697Y2108D01*
X1696Y2108D01*
X1695Y2108D01*
X1694Y2108D01*
X1693Y2108D01*
X1692Y2108D01*
X1691Y2108D01*
X1690Y2108D01*
X1689Y2108D01*
X1688Y2108D01*
X1687Y2108D01*
X1686Y2108D01*
X1685Y2108D01*
X1684Y2108D01*
X1683Y2108D01*
X1682Y2108D01*
X1681Y2108D01*
X1680Y2108D01*
X1679Y2108D01*
X1678Y2108D01*
X1677Y2108D01*
X1676Y2108D01*
X1675Y2108D01*
X1674Y2108D01*
X1673Y2108D01*
X1672Y2108D01*
X1671Y2108D01*
X1670Y2108D01*
X1669Y2108D01*
X1668Y2108D01*
X1667Y2108D01*
X1666Y2108D01*
X1665Y2108D01*
X1664Y2108D01*
X1663Y2108D01*
X1662Y2108D01*
X1661Y2108D01*
X1660Y2108D01*
X1659Y2108D01*
X1658Y2108D01*
X1657Y2108D01*
X1656Y2108D01*
X1655Y2108D01*
X1654Y2108D01*
X1653Y2108D01*
X1652Y2108D01*
X1651Y2108D01*
X1650Y2108D01*
X1649Y2108D01*
X1648Y2108D01*
X1647Y2108D01*
X1646Y2108D01*
X1645Y2108D01*
X1644Y2108D01*
X1643Y2108D01*
X1642Y2108D01*
X1641Y2108D01*
X1640Y2108D01*
X1639Y2108D01*
X1638Y2108D01*
X1637Y2108D01*
X1636Y2108D01*
X1635Y2108D01*
X1634Y2108D01*
X1633Y2108D01*
X1632Y2108D01*
X1631Y2108D01*
X1630Y2108D01*
X1629Y2108D01*
X1628Y2108D01*
X1627Y2108D01*
X1626Y2108D01*
X1625Y2108D01*
X1624Y2108D01*
X1623Y2108D01*
X1622Y2108D01*
X1621Y2108D01*
X1620Y2108D01*
X1619Y2108D01*
X1618Y2108D01*
X1617Y2108D01*
X1616Y2108D01*
X1615Y2108D01*
X1614Y2108D01*
X1613Y2108D01*
X1612Y2108D01*
X1611Y2108D01*
X1610Y2108D01*
X1609Y2108D01*
X1608Y2108D01*
X1607Y2108D01*
X1606Y2108D01*
X1605Y2108D01*
X1604Y2108D01*
X1603Y2108D01*
X1602Y2108D01*
X1601Y2108D01*
X1600Y2108D01*
X1599Y2108D01*
X1598Y2108D01*
X1597Y2108D01*
X1596Y2108D01*
X1595Y2108D01*
X1594Y2108D01*
X1593Y2108D01*
X1592Y2108D01*
X1591Y2108D01*
X1590Y2108D01*
X1589Y2108D01*
X1588Y2108D01*
X1587Y2108D01*
X1586Y2108D01*
X1585Y2108D01*
X1584Y2108D01*
X1583Y2108D01*
X1582Y2108D01*
X1581Y2108D01*
X1580Y2108D01*
X1579Y2108D01*
X1578Y2108D01*
X1577Y2108D01*
X1576Y2108D01*
X1575Y2108D01*
X1574Y2108D01*
X1573Y2108D01*
X1572Y2108D01*
X1571Y2108D01*
X1570Y2108D01*
X1569Y2108D01*
X1568Y2108D01*
X1567Y2108D01*
X1566Y2108D01*
X1565Y2108D01*
X1564Y2108D01*
X1563Y2108D01*
X1562Y2108D01*
X1561Y2108D01*
X1560Y2108D01*
X1559Y2108D01*
X1558Y2108D01*
X1557Y2108D01*
X1556Y2108D01*
X1555Y2108D01*
X1554Y2108D01*
X1553Y2108D01*
X1552Y2108D01*
X1551Y2108D01*
X1550Y2108D01*
X1549Y2108D01*
X1548Y2108D01*
X1547Y2108D01*
X1546Y2108D01*
X1545Y2108D01*
X1544Y2108D01*
X1543Y2108D01*
X1542Y2108D01*
X1541Y2108D01*
X1540Y2108D01*
X1539Y2108D01*
X1538Y2108D01*
X1537Y2108D01*
X1536Y2108D01*
X1535Y2108D01*
X1534Y2108D01*
X1533Y2108D01*
X1532Y2108D01*
X1531Y2108D01*
X1530Y2108D01*
X1529Y2108D01*
X1528Y2108D01*
X1527Y2108D01*
X1526Y2108D01*
X1525Y2108D01*
X1524Y2108D01*
X1523Y2108D01*
X1522Y2108D01*
X1521Y2108D01*
X1520Y2108D01*
X1519Y2108D01*
X1518Y2108D01*
X1517Y2108D01*
X1516Y2108D01*
X1515Y2108D01*
X1514Y2108D01*
X1513Y2108D01*
X1512Y2108D01*
X1511Y2108D01*
X1510Y2108D01*
X1509Y2108D01*
X1508Y2108D01*
X1507Y2108D01*
X1506Y2108D01*
X1505Y2108D01*
X1504Y2108D01*
X1503Y2108D01*
X1502Y2108D01*
X1501Y2108D01*
X1500Y2108D01*
X1499Y2108D01*
X1498Y2108D01*
X1497Y2108D01*
X1496Y2108D01*
X1495Y2108D01*
X1494Y2108D01*
X1493Y2108D01*
X1492Y2108D01*
X1491Y2108D01*
X1490Y2108D01*
X1489Y2108D01*
X1488Y2108D01*
X1487Y2108D01*
X1486Y2108D01*
X1485Y2108D01*
X1484Y2108D01*
X1483Y2108D01*
X1482Y2108D01*
X1481Y2108D01*
X1480Y2108D01*
X1479Y2108D01*
X1478Y2108D01*
X1477Y2108D01*
X1476Y2108D01*
X1475Y2108D01*
X1474Y2108D01*
X1473Y2108D01*
X1472Y2108D01*
X1471Y2108D01*
X1470Y2108D01*
X1469Y2108D01*
X1468Y2108D01*
X1467Y2108D01*
X1466Y2108D01*
X1465Y2108D01*
X1464Y2108D01*
X1463Y2108D01*
X1462Y2108D01*
X1461Y2108D01*
X1460Y2108D01*
X1459Y2108D01*
X1458Y2108D01*
X1457Y2108D01*
X1456Y2108D01*
X1455Y2108D01*
X1454Y2108D01*
X1453Y2108D01*
X1452Y2108D01*
X1451Y2108D01*
X1450Y2108D01*
X1449Y2108D01*
X1448Y2108D01*
X1447Y2108D01*
X1446Y2108D01*
X1445Y2108D01*
X1444Y2108D01*
X1443Y2108D01*
X1442Y2108D01*
X1441Y2108D01*
X1440Y2108D01*
X1439Y2108D01*
X1438Y2108D01*
X1437Y2108D01*
X1436Y2108D01*
X1435Y2108D01*
X1434Y2108D01*
X1433Y2108D01*
X1432Y2108D01*
X1431Y2108D01*
X1430Y2108D01*
X1429Y2108D01*
X1428Y2108D01*
X1427Y2108D01*
X1426Y2108D01*
X1425Y2108D01*
X1424Y2108D01*
X1423Y2108D01*
X1422Y2108D01*
X1421Y2108D01*
X1420Y2108D01*
X1419Y2108D01*
X1418Y2108D01*
X1417Y2108D01*
X1416Y2108D01*
X1415Y2108D01*
X1414Y2108D01*
X1413Y2108D01*
X1412Y2108D01*
X1411Y2108D01*
X1410Y2108D01*
X1409Y2108D01*
X1408Y2108D01*
X1407Y2108D01*
X1406Y2108D01*
X1405Y2108D01*
X1404Y2108D01*
X1403Y2108D01*
X1402Y2108D01*
X1401Y2108D01*
X1400Y2108D01*
X1399Y2108D01*
X1398Y2108D01*
X1397Y2108D01*
X1396Y2108D01*
X1395Y2108D01*
X1394Y2108D01*
X1393Y2108D01*
X1392Y2108D01*
X1391Y2108D01*
X1390Y2108D01*
X1389Y2108D01*
X1388Y2108D01*
X1387Y2108D01*
X1386Y2108D01*
X1385Y2108D01*
X1384Y2108D01*
X1383Y2108D01*
X1382Y2108D01*
X1381Y2108D01*
X1380Y2108D01*
X1379Y2108D01*
X1378Y2108D01*
X1377Y2108D01*
X1376Y2108D01*
X1375Y2108D01*
X1374Y2108D01*
X1373Y2108D01*
X1372Y2108D01*
X1371Y2108D01*
X1370Y2108D01*
X1369Y2108D01*
X1368Y2108D01*
X1367Y2108D01*
X1366Y2108D01*
X1365Y2108D01*
X1364Y2108D01*
X1363Y2108D01*
X1362Y2108D01*
X1361Y2108D01*
X1360Y2108D01*
X1359Y2108D01*
X1358Y2108D01*
X1357Y2108D01*
X1356Y2108D01*
X1355Y2108D01*
X1354Y2108D01*
X1353Y2108D01*
X1352Y2108D01*
X1351Y2108D01*
X1350Y2108D01*
X1349Y2108D01*
X1348Y2108D01*
X1347Y2108D01*
X1346Y2108D01*
X1345Y2108D01*
X1344Y2108D01*
X1343Y2108D01*
X1342Y2108D01*
X1341Y2108D01*
X1340Y2108D01*
X1339Y2108D01*
X1338Y2108D01*
X1337Y2108D01*
X1336Y2108D01*
X1335Y2108D01*
X1334Y2108D01*
X1333Y2108D01*
X1332Y2108D01*
X1331Y2108D01*
X1330Y2108D01*
X1329Y2108D01*
X1328Y2108D01*
X1327Y2108D01*
X1326Y2108D01*
X1325Y2108D01*
X1324Y2108D01*
X1323Y2108D01*
X1322Y2108D01*
X1321Y2108D01*
X1320Y2108D01*
X1319Y2108D01*
X1318Y2108D01*
X1317Y2108D01*
X1316Y2108D01*
X1315Y2108D01*
X1314Y2108D01*
X1313Y2108D01*
X1312Y2108D01*
X1311Y2108D01*
X1310Y2108D01*
X1309Y2108D01*
X1308Y2108D01*
X1307Y2108D01*
X1306Y2108D01*
X1305Y2108D01*
X1304Y2108D01*
X1303Y2108D01*
X1302Y2108D01*
X1301Y2108D01*
X1300Y2108D01*
X1299Y2108D01*
X1298Y2108D01*
X1297Y2108D01*
X1296Y2108D01*
X1295Y2108D01*
X1294Y2108D01*
X1293Y2108D01*
X1292Y2108D01*
X1291Y2108D01*
X1290Y2108D01*
X1289Y2108D01*
X1288Y2108D01*
X1287Y2108D01*
X1286Y2108D01*
X1285Y2108D01*
X1284Y2108D01*
X1283Y2108D01*
X1282Y2108D01*
X1281Y2108D01*
X1280Y2108D01*
X1279Y2108D01*
X1278Y2108D01*
X1277Y2108D01*
X1276Y2108D01*
X1275Y2108D01*
X1274Y2108D01*
X1273Y2108D01*
X1272Y2108D01*
X1271Y2108D01*
X1270Y2108D01*
X1269Y2108D01*
X1268Y2108D01*
X1267Y2108D01*
X1266Y2108D01*
X1265Y2108D01*
X1264Y2108D01*
X1263Y2108D01*
X1262Y2108D01*
X1261Y2108D01*
X1260Y2108D01*
X1259Y2108D01*
X1258Y2108D01*
X1257Y2108D01*
X1256Y2108D01*
X1255Y2108D01*
X1254Y2108D01*
X1253Y2108D01*
X1252Y2108D01*
X1251Y2108D01*
X1250Y2108D01*
X1249Y2108D01*
X1248Y2108D01*
X1247Y2108D01*
X1246Y2108D01*
X1245Y2108D01*
X1244Y2108D01*
X1243Y2108D01*
X1242Y2108D01*
X1241Y2108D01*
X1240Y2108D01*
X1239Y2108D01*
X1238Y2108D01*
X1237Y2108D01*
X1236Y2108D01*
X1235Y2108D01*
X1234Y2108D01*
X1233Y2108D01*
X1232Y2108D01*
X1231Y2108D01*
X1230Y2108D01*
X1229Y2108D01*
X1228Y2108D01*
X1227Y2108D01*
X1226Y2108D01*
X1225Y2108D01*
X1224Y2108D01*
X1223Y2108D01*
X1222Y2108D01*
X1221Y2108D01*
X1220Y2108D01*
X1219Y2108D01*
X1218Y2108D01*
X1217Y2108D01*
X1216Y2108D01*
X1215Y2108D01*
X1214Y2108D01*
X1213Y2108D01*
X1212Y2108D01*
X1211Y2108D01*
X1210Y2108D01*
X1209Y2108D01*
X1208Y2108D01*
X1207Y2108D01*
X1206Y2108D01*
X1205Y2108D01*
X1204Y2108D01*
X1203Y2108D01*
X1202Y2108D01*
X1201Y2108D01*
X1200Y2108D01*
X1199Y2108D01*
X1198Y2108D01*
X1197Y2108D01*
X1196Y2108D01*
X1195Y2108D01*
X1194Y2108D01*
X1193Y2108D01*
X1192Y2108D01*
X1191Y2108D01*
X1190Y2108D01*
X1189Y2108D01*
X1188Y2108D01*
X1187Y2108D01*
X1186Y2108D01*
X1185Y2108D01*
X1184Y2108D01*
X1183Y2108D01*
X1182Y2108D01*
X1181Y2108D01*
X1180Y2108D01*
X1179Y2108D01*
X1178Y2108D01*
X1177Y2108D01*
X1176Y2108D01*
X1175Y2108D01*
X1174Y2108D01*
X1173Y2108D01*
X1172Y2108D01*
X1171Y2108D01*
X1170Y2108D01*
X1169Y2108D01*
X1168Y2108D01*
X1167Y2108D01*
X1166Y2108D01*
X1165Y2108D01*
X1164Y2108D01*
X1163Y2108D01*
X1162Y2108D01*
X1161Y2108D01*
X1160Y2108D01*
X1159Y2108D01*
X1158Y2108D01*
X1157Y2108D01*
X1156Y2108D01*
X1155Y2108D01*
X1154Y2108D01*
X1153Y2108D01*
X1152Y2108D01*
X1151Y2108D01*
X1150Y2108D01*
X1149Y2108D01*
X1148Y2108D01*
X1147Y2108D01*
X1146Y2108D01*
X1145Y2108D01*
X1144Y2108D01*
X1143Y2108D01*
X1142Y2108D01*
X1141Y2108D01*
X1140Y2108D01*
X1139Y2108D01*
X1138Y2108D01*
X1137Y2108D01*
X1136Y2108D01*
X1135Y2108D01*
X1134Y2108D01*
X1133Y2108D01*
X1132Y2108D01*
X1131Y2108D01*
X1130Y2108D01*
X1129Y2108D01*
X1128Y2108D01*
X1127Y2108D01*
X1126Y2108D01*
X1125Y2108D01*
X1124Y2108D01*
X1123Y2108D01*
X1122Y2108D01*
X1121Y2108D01*
X1120Y2108D01*
X1119Y2108D01*
X1118Y2108D01*
X1117Y2108D01*
X1116Y2108D01*
X1115Y2108D01*
X1114Y2108D01*
X1113Y2108D01*
X1112Y2108D01*
X1111Y2108D01*
X1110Y2108D01*
X1109Y2108D01*
X1108Y2108D01*
X1107Y2108D01*
X1106Y2108D01*
X1105Y2108D01*
X1104Y2108D01*
X1103Y2108D01*
X1102Y2108D01*
X1101Y2108D01*
X1100Y2108D01*
X1099Y2108D01*
X1098Y2108D01*
X1097Y2108D01*
X1096Y2108D01*
X1095Y2108D01*
X1094Y2108D01*
X1093Y2108D01*
X1092Y2108D01*
X1091Y2108D01*
X1090Y2108D01*
X1089Y2108D01*
X1088Y2108D01*
X1087Y2108D01*
X1086Y2108D01*
X1085Y2108D01*
X1084Y2108D01*
X1083Y2108D01*
X1082Y2108D01*
X1081Y2108D01*
X1080Y2108D01*
X1079Y2108D01*
X1078Y2108D01*
X1077Y2108D01*
X1076Y2108D01*
X1075Y2108D01*
X1074Y2108D01*
X1073Y2108D01*
X1072Y2108D01*
X1071Y2108D01*
X1070Y2108D01*
X1069Y2108D01*
X1068Y2108D01*
X1067Y2108D01*
X1066Y2108D01*
X1065Y2108D01*
X1064Y2108D01*
X1063Y2108D01*
X1062Y2108D01*
X1061Y2108D01*
X1060Y2108D01*
X1059Y2108D01*
X1058Y2108D01*
X1057Y2108D01*
X1056Y2108D01*
X1055Y2108D01*
X1054Y2108D01*
X1053Y2108D01*
X1052Y2108D01*
X1051Y2108D01*
X1050Y2108D01*
X1049Y2108D01*
X1048Y2108D01*
X1047Y2108D01*
X1046Y2108D01*
X1045Y2108D01*
X1044Y2108D01*
X1043Y2108D01*
X1042Y2108D01*
X1041Y2108D01*
X1040Y2108D01*
X1039Y2108D01*
X1038Y2108D01*
X1037Y2108D01*
X1036Y2108D01*
X1035Y2108D01*
X1034Y2108D01*
X1033Y2108D01*
X1032Y2108D01*
X1031Y2108D01*
X1030Y2108D01*
X1029Y2108D01*
X1028Y2108D01*
X1027Y2108D01*
X1026Y2108D01*
X1025Y2108D01*
X1024Y2108D01*
X1023Y2108D01*
X1022Y2108D01*
X1021Y2108D01*
X1020Y2108D01*
X1019Y2108D01*
X1018Y2108D01*
X1017Y2108D01*
X1016Y2108D01*
X1015Y2108D01*
X1014Y2108D01*
X1013Y2108D01*
X1012Y2108D01*
X1011Y2108D01*
X1010Y2108D01*
X1009Y2108D01*
X1008Y2108D01*
X1007Y2108D01*
X1006Y2108D01*
X1005Y2108D01*
X1004Y2108D01*
X1003Y2108D01*
X1002Y2108D01*
X1001Y2108D01*
X1000Y2108D01*
X999Y2108D01*
X998Y2108D01*
X997Y2108D01*
X996Y2108D01*
X995Y2108D01*
X994Y2108D01*
X993Y2108D01*
X992Y2108D01*
X991Y2108D01*
X990Y2108D01*
X989Y2108D01*
X988Y2108D01*
X987Y2108D01*
X986Y2108D01*
X985Y2108D01*
X984Y2108D01*
X983Y2108D01*
X982Y2108D01*
X981Y2108D01*
X980Y2108D01*
X979Y2108D01*
X978Y2108D01*
X977Y2108D01*
X976Y2108D01*
X975Y2108D01*
X974Y2108D01*
X973Y2108D01*
X972Y2108D01*
X971Y2108D01*
X970Y2108D01*
X969Y2108D01*
X968Y2108D01*
X967Y2108D01*
X966Y2108D01*
X965Y2108D01*
X964Y2108D01*
X963Y2108D01*
X962Y2108D01*
X961Y2108D01*
X960Y2108D01*
X959Y2108D01*
X958Y2108D01*
X957Y2108D01*
X956Y2108D01*
X955Y2108D01*
X954Y2108D01*
X953Y2108D01*
X952Y2108D01*
X951Y2108D01*
X950Y2108D01*
X949Y2108D01*
X948Y2108D01*
X947Y2108D01*
X946Y2108D01*
X945Y2108D01*
X944Y2108D01*
X943Y2108D01*
X942Y2108D01*
X941Y2108D01*
X940Y2108D01*
X939Y2108D01*
X938Y2108D01*
X937Y2108D01*
X936Y2108D01*
X935Y2108D01*
X934Y2108D01*
X933Y2108D01*
X932Y2108D01*
X931Y2108D01*
X930Y2108D01*
X929Y2108D01*
X928Y2108D01*
X927Y2108D01*
X926Y2108D01*
X925Y2108D01*
X924Y2108D01*
X923Y2108D01*
X922Y2108D01*
X921Y2108D01*
X920Y2108D01*
X919Y2108D01*
X918Y2108D01*
X917Y2108D01*
X916Y2108D01*
X915Y2108D01*
X914Y2108D01*
X913Y2108D01*
X912Y2108D01*
X911Y2108D01*
X910Y2108D01*
X909Y2108D01*
X908Y2108D01*
X907Y2108D01*
X906Y2108D01*
X905Y2108D01*
X904Y2108D01*
X903Y2108D01*
X902Y2108D01*
X901Y2108D01*
X900Y2108D01*
X899Y2108D01*
X898Y2108D01*
X897Y2108D01*
X896Y2108D01*
X895Y2108D01*
X894Y2108D01*
X893Y2108D01*
X892Y2108D01*
X891Y2108D01*
X890Y2108D01*
X889Y2108D01*
X888Y2108D01*
X887Y2108D01*
X886Y2108D01*
X885Y2108D01*
X884Y2108D01*
X883Y2108D01*
X882Y2108D01*
X881Y2108D01*
X880Y2108D01*
X879Y2108D01*
X878Y2108D01*
X877Y2108D01*
X876Y2108D01*
X875Y2108D01*
X874Y2108D01*
X873Y2108D01*
X872Y2108D01*
X871Y2108D01*
X870Y2108D01*
X869Y2108D01*
X868Y2108D01*
X867Y2108D01*
X866Y2108D01*
X865Y2108D01*
X864Y2108D01*
X863Y2108D01*
X862Y2108D01*
X861Y2108D01*
X860Y2108D01*
X859Y2108D01*
X858Y2108D01*
X857Y2108D01*
X856Y2108D01*
X855Y2108D01*
X854Y2108D01*
X853Y2108D01*
X852Y2108D01*
X851Y2108D01*
X850Y2108D01*
X849Y2108D01*
X848Y2108D01*
X847Y2108D01*
X846Y2108D01*
X845Y2108D01*
X844Y2108D01*
X843Y2108D01*
X842Y2108D01*
X841Y2108D01*
X840Y2108D01*
X839Y2108D01*
X838Y2108D01*
X837Y2108D01*
X836Y2108D01*
X835Y2108D01*
X834Y2108D01*
X833Y2108D01*
X832Y2108D01*
X831Y2108D01*
X830Y2108D01*
X829Y2108D01*
X828Y2108D01*
X827Y2108D01*
X826Y2108D01*
X825Y2108D01*
X824Y2108D01*
X823Y2108D01*
X822Y2108D01*
X821Y2108D01*
X820Y2108D01*
X819Y2108D01*
X818Y2108D01*
X817Y2108D01*
X816Y2108D01*
X815Y2108D01*
X814Y2108D01*
X813Y2108D01*
X812Y2108D01*
X811Y2108D01*
X810Y2108D01*
X809Y2108D01*
X808Y2108D01*
X807Y2108D01*
X806Y2108D01*
X805Y2108D01*
X804Y2108D01*
X803Y2108D01*
X802Y2108D01*
X801Y2108D01*
X800Y2108D01*
X799Y2108D01*
X798Y2108D01*
X797Y2108D01*
X796Y2108D01*
X795Y2108D01*
X794Y2108D01*
X793Y2108D01*
X792Y2108D01*
X791Y2108D01*
X790Y2108D01*
X789Y2108D01*
X788Y2108D01*
X787Y2108D01*
X786Y2108D01*
X785Y2108D01*
X784Y2108D01*
X783Y2108D01*
X782Y2108D01*
X781Y2108D01*
X780Y2108D01*
X779Y2108D01*
X778Y2108D01*
X777Y2108D01*
X776Y2108D01*
X775Y2108D01*
X774Y2108D01*
X773Y2108D01*
X772Y2108D01*
X771Y2108D01*
X770Y2108D01*
X769Y2108D01*
X768Y2108D01*
X767Y2108D01*
X766Y2108D01*
X765Y2108D01*
X764Y2108D01*
X763Y2108D01*
X762Y2108D01*
X761Y2108D01*
X760Y2108D01*
X759Y2108D01*
X758Y2108D01*
X757Y2108D01*
X756Y2108D01*
X755Y2108D01*
X754Y2108D01*
X753Y2108D01*
X752Y2108D01*
X751Y2108D01*
X750Y2108D01*
X749Y2108D01*
X748Y2108D01*
X747Y2108D01*
X746Y2108D01*
X745Y2108D01*
X744Y2108D01*
X743Y2108D01*
X742Y2108D01*
X741Y2108D01*
X740Y2108D01*
X739Y2108D01*
X738Y2108D01*
X737Y2108D01*
X736Y2108D01*
X735Y2108D01*
X734Y2108D01*
X733Y2108D01*
X732Y2108D01*
X731Y2108D01*
X730Y2108D01*
X729Y2108D01*
X728Y2108D01*
X727Y2108D01*
X726Y2108D01*
X725Y2108D01*
X724Y2108D01*
X723Y2108D01*
X722Y2108D01*
X721Y2108D01*
X720Y2108D01*
X719Y2108D01*
X718Y2108D01*
X717Y2108D01*
X716Y2108D01*
X715Y2108D01*
X714Y2108D01*
X713Y2108D01*
X712Y2108D01*
X711Y2108D01*
X710Y2108D01*
X709Y2108D01*
X708Y2108D01*
X707Y2108D01*
X706Y2108D01*
X705Y2108D01*
X704Y2108D01*
X703Y2108D01*
X702Y2108D01*
X701Y2108D01*
X700Y2108D01*
X699Y2108D01*
X698Y2108D01*
X697Y2108D01*
X696Y2108D01*
X695Y2108D01*
X694Y2108D01*
X693Y2108D01*
X692Y2108D01*
X691Y2108D01*
X690Y2108D01*
X689Y2108D01*
X688Y2108D01*
X687Y2108D01*
X686Y2108D01*
X685Y2108D01*
X684Y2108D01*
X683Y2108D01*
X682Y2108D01*
X681Y2108D01*
X680Y2108D01*
X679Y2108D01*
X678Y2108D01*
X677Y2108D01*
X676Y2108D01*
X675Y2108D01*
X674Y2108D01*
X673Y2108D01*
X672Y2108D01*
X671Y2108D01*
X670Y2108D01*
X669Y2108D01*
X668Y2108D01*
X667Y2108D01*
X666Y2108D01*
X665Y2108D01*
X664Y2108D01*
X663Y2108D01*
X662Y2108D01*
X661Y2108D01*
X660Y2108D01*
X659Y2108D01*
X658Y2108D01*
X657Y2108D01*
X656Y2108D01*
X655Y2108D01*
X654Y2108D01*
X653Y2108D01*
X652Y2108D01*
X651Y2108D01*
X650Y2108D01*
X649Y2108D01*
X648Y2108D01*
X647Y2108D01*
X646Y2108D01*
X645Y2108D01*
X644Y2108D01*
X643Y2108D01*
X642Y2108D01*
X641Y2108D01*
X640Y2108D01*
X639Y2108D01*
X638Y2108D01*
X637Y2108D01*
X636Y2108D01*
X635Y2108D01*
X634Y2108D01*
X633Y2108D01*
X632Y2108D01*
X631Y2108D01*
X630Y2108D01*
X629Y2108D01*
X628Y2108D01*
X627Y2108D01*
X626Y2108D01*
X625Y2108D01*
X624Y2108D01*
X623Y2108D01*
X622Y2108D01*
X621Y2108D01*
X620Y2108D01*
X619Y2108D01*
X618Y2108D01*
X617Y2108D01*
X616Y2108D01*
X615Y2108D01*
X614Y2108D01*
X613Y2108D01*
X612Y2108D01*
X611Y2108D01*
X610Y2108D01*
X609Y2108D01*
X608Y2108D01*
X607Y2108D01*
X606Y2108D01*
X605Y2108D01*
X604Y2108D01*
X603Y2108D01*
X602Y2108D01*
X601Y2108D01*
X600Y2108D01*
X599Y2108D01*
X598Y2108D01*
X597Y2108D01*
X596Y2108D01*
X595Y2108D01*
X594Y2108D01*
X593Y2108D01*
X592Y2108D01*
X591Y2108D01*
X590Y2108D01*
X589Y2108D01*
X588Y2108D01*
X587Y2108D01*
X586Y2108D01*
X585Y2108D01*
X584Y2108D01*
X583Y2108D01*
X582Y2108D01*
X581Y2108D01*
X580Y2108D01*
X579Y2108D01*
X578Y2108D01*
X577Y2108D01*
X576Y2108D01*
X575Y2108D01*
X574Y2108D01*
X573Y2108D01*
X572Y2108D01*
X571Y2108D01*
X570Y2108D01*
X569Y2108D01*
X568Y2108D01*
X567Y2108D01*
X566Y2108D01*
X565Y2108D01*
X564Y2108D01*
X563Y2108D01*
X562Y2108D01*
X561Y2108D01*
X560Y2108D01*
X559Y2108D01*
X558Y2108D01*
X557Y2108D01*
X556Y2108D01*
X555Y2108D01*
X554Y2108D01*
X553Y2108D01*
X552Y2108D01*
X551Y2108D01*
X550Y2108D01*
X549Y2108D01*
X548Y2108D01*
X547Y2108D01*
X546Y2108D01*
X545Y2108D01*
X544Y2108D01*
X543Y2108D01*
X542Y2108D01*
X541Y2108D01*
X540Y2108D01*
X539Y2108D01*
X538Y2108D01*
X537Y2108D01*
X536Y2108D01*
X535Y2108D01*
X534Y2108D01*
X533Y2108D01*
X532Y2108D01*
X531Y2108D01*
X530Y2108D01*
X529Y2108D01*
X528Y2108D01*
X527Y2108D01*
X526Y2108D01*
X525Y2108D01*
X524Y2108D01*
X523Y2108D01*
X522Y2108D01*
X521Y2108D01*
X520Y2108D01*
X519Y2108D01*
X518Y2108D01*
X517Y2108D01*
X516Y2108D01*
X515Y2108D01*
X514Y2108D01*
X513Y2108D01*
X512Y2108D01*
X511Y2108D01*
X510Y2108D01*
X509Y2108D01*
X508Y2108D01*
X507Y2108D01*
X506Y2108D01*
X505Y2108D01*
X504Y2108D01*
X503Y2108D01*
X502Y2108D01*
X501Y2108D01*
X500Y2108D01*
X499Y2108D01*
X498Y2108D01*
X497Y2108D01*
X496Y2108D01*
X495Y2108D01*
X494Y2108D01*
X493Y2108D01*
X492Y2108D01*
X491Y2108D01*
X490Y2108D01*
X489Y2108D01*
X488Y2108D01*
X487Y2108D01*
X486Y2108D01*
X485Y2108D01*
X484Y2108D01*
X483Y2108D01*
X482Y2108D01*
X481Y2108D01*
X480Y2108D01*
X479Y2108D01*
X478Y2108D01*
X477Y2108D01*
X476Y2108D01*
X475Y2108D01*
X474Y2108D01*
X473Y2108D01*
X472Y2108D01*
X471Y2108D01*
X470Y2108D01*
X469Y2108D01*
X468Y2108D01*
X467Y2108D01*
X466Y2108D01*
X465Y2108D01*
X464Y2108D01*
X463Y2108D01*
X462Y2108D01*
X461Y2108D01*
X460Y2108D01*
X459Y2108D01*
X458Y2108D01*
X457Y2108D01*
X456Y2108D01*
X455Y2108D01*
X454Y2108D01*
X453Y2108D01*
X452Y2108D01*
X451Y2108D01*
X450Y2108D01*
X449Y2108D01*
X448Y2108D01*
X447Y2108D01*
X446Y2108D01*
X445Y2108D01*
X444Y2108D01*
X443Y2108D01*
X442Y2108D01*
X441Y2108D01*
X440Y2108D01*
X439Y2108D01*
X438Y2108D01*
X437Y2108D01*
X436Y2108D01*
X435Y2108D01*
X434Y2108D01*
X433Y2108D01*
X432Y2108D01*
X431Y2108D01*
X430Y2108D01*
X429Y2108D01*
X428Y2108D01*
X427Y2108D01*
X426Y2108D01*
X425Y2108D01*
X424Y2108D01*
X423Y2108D01*
X422Y2108D01*
X421Y2108D01*
X420Y2108D01*
X419Y2108D01*
X418Y2108D01*
X417Y2108D01*
X416Y2108D01*
X415Y2108D01*
X414Y2108D01*
X413Y2108D01*
X412Y2108D01*
X411Y2108D01*
X410Y2108D01*
X409Y2108D01*
X408Y2108D01*
X407Y2108D01*
X406Y2108D01*
X405Y2108D01*
X404Y2108D01*
X403Y2108D01*
X402Y2108D01*
X401Y2108D01*
X400Y2108D01*
X399Y2108D01*
X398Y2108D01*
X397Y2108D01*
X396Y2108D01*
X395Y2108D01*
X394Y2108D01*
X393Y2108D01*
X392Y2108D01*
X391Y2108D01*
X390Y2108D01*
X389Y2108D01*
X388Y2108D01*
X387Y2108D01*
X386Y2108D01*
X385Y2108D01*
X384Y2108D01*
X383Y2108D01*
X382Y2108D01*
X381Y2108D01*
X380Y2108D01*
X379Y2108D01*
X378Y2108D01*
X377Y2108D01*
X376Y2108D01*
X375Y2108D01*
X374Y2108D01*
X373Y2108D01*
X372Y2108D01*
X371Y2108D01*
X370Y2108D01*
X369Y2108D01*
X368Y2108D01*
X367Y2108D01*
X366Y2108D01*
X365Y2108D01*
X364Y2108D01*
X363Y2108D01*
X362Y2108D01*
X361Y2108D01*
X360Y2108D01*
X359Y2108D01*
X358Y2108D01*
X357Y2108D01*
X356Y2108D01*
X355Y2108D01*
X354Y2108D01*
X353Y2108D01*
X352Y2108D01*
X351Y2108D01*
X350Y2108D01*
X349Y2108D01*
X348Y2108D01*
X347Y2108D01*
X346Y2108D01*
X345Y2108D01*
X344Y2108D01*
X343Y2108D01*
X342Y2108D01*
X341Y2108D01*
X340Y2108D01*
X339Y2108D01*
X338Y2108D01*
X337Y2108D01*
X336Y2108D01*
X335Y2108D01*
X334Y2108D01*
X333Y2108D01*
X332Y2108D01*
X331Y2108D01*
X330Y2108D01*
X329Y2108D01*
X328Y2108D01*
X327Y2108D01*
X326Y2108D01*
X325Y2108D01*
X324Y2108D01*
X323Y2108D01*
X322Y2108D01*
X321Y2108D01*
X320Y2108D01*
X319Y2108D01*
X318Y2108D01*
X317Y2108D01*
X316Y2108D01*
X315Y2108D01*
X314Y2108D01*
X313Y2108D01*
X312Y2108D01*
X311Y2108D01*
X310Y2108D01*
X309Y2108D01*
X308Y2108D01*
X307Y2108D01*
X306Y2108D01*
X305Y2108D01*
X304Y2108D01*
X303Y2108D01*
X302Y2108D01*
X301Y2108D01*
X300Y2108D01*
X299Y2108D01*
X298Y2108D01*
X297Y2108D01*
X296Y2108D01*
X295Y2108D01*
X294Y2108D01*
X293Y2108D01*
X292Y2108D01*
X291Y2108D01*
X290Y2108D01*
X289Y2108D01*
X288Y2108D01*
X287Y2108D01*
X286Y2108D01*
X285Y2108D01*
X284Y2108D01*
X283Y2108D01*
X282Y2108D01*
X281Y2108D01*
X280Y2108D01*
X279Y2108D01*
X278Y2108D01*
X277Y2108D01*
X276Y2108D01*
X275Y2108D01*
X274Y2108D01*
X273Y2108D01*
X272Y2108D01*
X271Y2108D01*
X270Y2108D01*
X269Y2108D01*
X268Y2108D01*
X267Y2108D01*
X266Y2108D01*
X265Y2108D01*
X264Y2108D01*
X263Y2108D01*
X262Y2108D01*
X261Y2108D01*
X260Y2108D01*
X259Y2108D01*
X258Y2108D01*
X257Y2108D01*
X256Y2108D01*
X255Y2108D01*
X254Y2108D01*
X253Y2108D01*
X252Y2108D01*
X251Y2108D01*
X250Y2108D01*
X249Y2108D01*
X248Y2108D01*
X247Y2108D01*
X246Y2108D01*
X245Y2108D01*
X244Y2108D01*
X243Y2108D01*
X242Y2108D01*
X241Y2108D01*
X240Y2108D01*
X239Y2108D01*
X238Y2108D01*
X237Y2108D01*
X236Y2108D01*
X235Y2108D01*
X234Y2108D01*
X233Y2108D01*
X232Y2108D01*
X231Y2108D01*
X230Y2108D01*
X229Y2108D01*
X228Y2108D01*
X227Y2108D01*
X226Y2108D01*
X225Y2108D01*
X224Y2108D01*
X223Y2108D01*
X222Y2108D01*
X221Y2108D01*
X220Y2108D01*
X219Y2108D01*
X218Y2108D01*
X217Y2108D01*
X216Y2108D01*
X215Y2108D01*
X214Y2108D01*
X213Y2108D01*
X212Y2108D01*
X211Y2108D01*
X210Y2108D01*
X209Y2108D01*
X208Y2108D01*
X207Y2108D01*
X206Y2108D01*
X205Y2108D01*
X204Y2108D01*
X203Y2108D01*
X202Y2108D01*
X201Y2108D01*
X200Y2108D01*
X199Y2108D01*
X198Y2108D01*
X197Y2108D01*
X196Y2108D01*
X195Y2108D01*
X194Y2108D01*
X193Y2108D01*
X192Y2108D01*
X191Y2108D01*
X190Y2108D01*
X189Y2108D01*
X188Y2108D01*
X187Y2108D01*
X186Y2108D01*
X185Y2108D01*
X184Y2108D01*
X183Y2108D01*
X182Y2108D01*
X181Y2108D01*
X180Y2108D01*
X179Y2108D01*
X178Y2108D01*
X177Y2108D01*
X176Y2108D01*
X175Y2108D01*
X174Y2108D01*
X173Y2108D01*
X172Y2108D01*
X171Y2108D01*
X170Y2108D01*
X169Y2108D01*
X168Y2108D01*
X167Y2108D01*
X166Y2108D01*
X165Y2108D01*
X164Y2108D01*
X163Y2108D01*
X162Y2108D01*
X161Y2108D01*
X160Y2108D01*
X159Y2108D01*
X158Y2108D01*
X157Y2108D01*
X156Y2108D01*
X155Y2108D01*
X154Y2108D01*
X153Y2108D01*
X152Y2108D01*
X151Y2108D01*
X150Y2108D01*
X149Y2108D01*
X148Y2108D01*
X147Y2108D01*
X146Y2108D01*
X145Y2108D01*
X144Y2108D01*
X143Y2108D01*
X142Y2108D01*
X141Y2108D01*
X140Y2108D01*
X139Y2108D01*
X138Y2108D01*
X137Y2108D01*
X136Y2108D01*
X135Y2108D01*
X134Y2108D01*
X133Y2108D01*
X132Y2108D01*
X131Y2108D01*
X130Y2108D01*
X129Y2108D01*
X128Y2108D01*
X127Y2108D01*
X126Y2108D01*
X125Y2108D01*
X124Y2108D01*
X123Y2108D01*
X122Y2108D01*
X121Y2108D01*
X120Y2108D01*
X119Y2108D01*
X118Y2108D01*
X117Y2108D01*
X116Y2108D01*
X115Y2108D01*
X114Y2108D01*
X113Y2108D01*
X112Y2108D01*
X111Y2108D01*
X110Y2108D01*
X109Y2108D01*
X108Y2108D01*
X107Y2108D01*
X106Y2108D01*
X105Y2108D01*
X104Y2108D01*
X103Y2108D01*
X102Y2108D01*
X101Y2108D01*
X100Y2108D01*
X99Y2108D01*
X98Y2108D01*
X97Y2108D01*
X96Y2108D01*
X95Y2108D01*
X94Y2108D01*
X93Y2108D01*
X92Y2108D01*
X91Y2108D01*
X90Y2108D01*
X89Y2108D01*
X88Y2108D01*
X87Y2108D01*
X86Y2108D01*
X85Y2108D01*
X84Y2108D01*
X83Y2108D01*
X82Y2108D01*
X81Y2108D01*
X80Y2108D01*
X79Y2108D01*
X78Y2108D01*
X77Y2108D01*
X76Y2108D01*
X75Y2108D01*
X74Y2108D01*
X73Y2108D01*
X72Y2108D01*
X71Y2108D01*
X70Y2108D01*
X69Y2108D01*
X68Y2108D01*
X67Y2108D01*
X66Y2108D01*
X65Y2108D01*
X64Y2108D01*
X63Y2108D01*
X62Y2108D01*
X61Y2108D01*
X60Y2108D01*
X59Y2108D01*
X58Y2108D01*
X57Y2108D01*
X56Y2108D01*
X55Y2108D01*
X54Y2108D01*
X53Y2108D01*
X52Y2108D01*
X51Y2108D01*
X50Y2108D01*
X49Y2108D01*
X48Y2108D01*
X47Y2108D01*
X46Y2108D01*
X45Y2108D01*
X44Y2108D01*
X43Y2108D01*
X42Y2108D01*
X41Y2108D01*
X40Y2108D01*
X39Y2108D01*
X38Y2108D01*
X37Y2108D01*
X36Y2108D01*
X35Y2108D01*
X34Y2108D01*
X33Y2108D01*
X32Y2108D01*
X31Y2108D01*
X30Y2108D01*
X29Y2108D01*
X28Y2108D01*
X27Y2108D01*
X26Y2108D01*
X25Y2108D01*
X24Y2108D01*
X23Y2108D01*
X22Y2108D01*
X21Y2108D01*
X20Y2108D01*
X19Y2108D01*
X18Y2108D01*
X17Y2108D01*
X16Y2108D01*
X15Y2108D01*
X14Y2108D01*
X13Y2108D01*
X12Y2108D01*
X11Y2108D01*
X10Y2108D01*
X9Y2108D01*
X8Y2108D01*
X7Y2108D01*
X6Y2108D01*
X5Y2108D01*
X4Y2108D01*
X3Y2108D01*
X2Y2108D01*
X1Y2108D01*
X0Y2108D01*
D02*
G04 End of contour*
M02*