G04 MADE WITH FRITZING*
G04 WWW.FRITZING.ORG*
G04 DOUBLE SIDED*
G04 HOLES PLATED*
G04 CONTOUR ON CENTER OF CONTOUR VECTOR*
%ASAXBY*%
%FSLAX23Y23*%
%MOIN*%
%OFA0B0*%
%SFA1.0B1.0*%
%ADD10C,0.039370*%
%ADD11C,0.078000*%
%ADD12C,0.074000*%
%ADD13C,0.080000*%
%ADD14C,0.062992*%
%ADD15C,0.075000*%
%ADD16C,0.083307*%
%ADD17R,0.074000X0.074000*%
%ADD18R,0.080000X0.080000*%
%ADD19R,0.062992X0.062992*%
%ADD20C,0.024000*%
%LNCOPPER1*%
G90*
G70*
G54D10*
X395Y534D03*
X2331Y390D03*
X2443Y1907D03*
X2582Y1921D03*
X596Y1921D03*
X2584Y1560D03*
X2279Y1562D03*
X595Y1840D03*
X1980Y517D03*
X1978Y674D03*
X468Y674D03*
X343Y674D03*
X289Y621D03*
X291Y519D03*
X399Y1318D03*
X395Y890D03*
X415Y1519D03*
X564Y1518D03*
X891Y1517D03*
X1095Y1519D03*
X2000Y1127D03*
X2000Y1418D03*
X1099Y1416D03*
X891Y1416D03*
X566Y1418D03*
X416Y1419D03*
X2204Y744D03*
X1890Y744D03*
X340Y1095D03*
X334Y995D03*
G54D11*
X2512Y100D03*
X2412Y100D03*
X2312Y100D03*
X2212Y100D03*
X2112Y100D03*
X2012Y100D03*
X1802Y101D03*
X1702Y101D03*
X1602Y101D03*
X1502Y101D03*
X1402Y101D03*
X1302Y101D03*
X1202Y101D03*
X1102Y101D03*
X1650Y2014D03*
X1550Y2014D03*
X1450Y2014D03*
X1350Y2014D03*
X1250Y2014D03*
X1150Y2014D03*
X1050Y2014D03*
X950Y2014D03*
X850Y2014D03*
X750Y2014D03*
G54D12*
X857Y341D03*
X757Y341D03*
X657Y341D03*
X557Y341D03*
X457Y341D03*
X857Y441D03*
X757Y441D03*
X657Y441D03*
X557Y441D03*
X457Y441D03*
G54D13*
X2619Y656D03*
X2619Y518D03*
G54D11*
X167Y1196D03*
X167Y1096D03*
X167Y996D03*
X167Y896D03*
X59Y772D03*
X59Y672D03*
X59Y572D03*
X59Y472D03*
X169Y774D03*
X169Y674D03*
X169Y574D03*
X169Y474D03*
X57Y1194D03*
X57Y1094D03*
X57Y994D03*
X57Y894D03*
X164Y1618D03*
X164Y1518D03*
X164Y1418D03*
X164Y1318D03*
X55Y1617D03*
X55Y1517D03*
X55Y1417D03*
X55Y1317D03*
X164Y2041D03*
X164Y1941D03*
X164Y1841D03*
X164Y1741D03*
X55Y2039D03*
X55Y1939D03*
X55Y1839D03*
X55Y1739D03*
G54D10*
X396Y474D03*
X339Y1196D03*
X339Y1618D03*
X339Y774D03*
G54D13*
X934Y89D03*
X796Y89D03*
X92Y154D03*
X92Y292D03*
X2514Y1810D03*
X2514Y1672D03*
X2616Y1265D03*
X2616Y1127D03*
X2616Y961D03*
X2616Y823D03*
G54D10*
X1509Y202D03*
G54D14*
X2270Y1750D03*
X2270Y1849D03*
X1770Y1750D03*
X1770Y1848D03*
G54D15*
X2082Y1330D03*
X2082Y1730D03*
X1947Y1335D03*
X1947Y1735D03*
G54D10*
X2082Y202D03*
X2390Y1642D03*
X2389Y294D03*
X2494Y390D03*
G54D16*
X2518Y2014D03*
X2418Y2014D03*
X2318Y2014D03*
X2218Y2014D03*
X2118Y2014D03*
X2018Y2014D03*
X1918Y2014D03*
X1818Y2014D03*
G54D14*
X1170Y1644D03*
X1170Y1742D03*
G54D15*
X424Y1618D03*
X824Y1618D03*
G54D10*
X484Y1740D03*
X2080Y480D03*
X1740Y1927D03*
G54D17*
X857Y441D03*
G54D18*
X2619Y656D03*
X934Y89D03*
X92Y154D03*
X2514Y1810D03*
X2616Y1265D03*
X2616Y961D03*
G54D19*
X2270Y1750D03*
X1770Y1750D03*
X1170Y1644D03*
G54D20*
X2312Y390D02*
X960Y390D01*
D02*
X960Y390D02*
X960Y514D01*
D02*
X960Y514D02*
X753Y514D01*
D02*
X753Y514D02*
X755Y472D01*
D02*
X857Y294D02*
X2370Y294D01*
D02*
X857Y310D02*
X857Y294D01*
D02*
X455Y995D02*
X353Y995D01*
D02*
X455Y756D02*
X455Y995D01*
D02*
X529Y756D02*
X455Y756D01*
D02*
X529Y617D02*
X529Y756D01*
D02*
X1197Y617D02*
X529Y617D01*
D02*
X1679Y579D02*
X1197Y579D01*
D02*
X1197Y579D02*
X1197Y617D01*
D02*
X2286Y425D02*
X1679Y425D01*
D02*
X1679Y425D02*
X1679Y579D01*
D02*
X2286Y823D02*
X2286Y425D01*
D02*
X291Y500D02*
X289Y202D01*
D02*
X289Y202D02*
X339Y202D01*
D02*
X289Y773D02*
X289Y640D01*
D02*
X1962Y517D02*
X1112Y518D01*
D02*
X1112Y518D02*
X1112Y574D01*
D02*
X1112Y574D02*
X199Y574D01*
D02*
X2585Y823D02*
X2286Y823D01*
D02*
X2270Y1907D02*
X2270Y1876D01*
D02*
X2424Y1907D02*
X2270Y1907D01*
D02*
X2494Y1583D02*
X2443Y1583D01*
D02*
X2443Y1583D02*
X2443Y1888D01*
D02*
X2461Y1907D02*
X2519Y1907D01*
D02*
X2519Y1907D02*
X2518Y1981D01*
D02*
X2494Y409D02*
X2494Y1583D01*
D02*
X339Y202D02*
X1490Y202D01*
D02*
X320Y773D02*
X289Y773D01*
D02*
X1890Y666D02*
X606Y666D01*
D02*
X1890Y725D02*
X1890Y666D01*
D02*
X492Y1095D02*
X359Y1095D01*
D02*
X492Y796D02*
X492Y1095D01*
D02*
X606Y796D02*
X492Y796D01*
D02*
X606Y666D02*
X606Y796D01*
D02*
X2204Y743D02*
X2204Y725D01*
D02*
X2204Y961D02*
X2204Y743D01*
D02*
X564Y1519D02*
X564Y1537D01*
D02*
X434Y1519D02*
X564Y1519D01*
D02*
X449Y674D02*
X361Y674D01*
D02*
X1588Y1840D02*
X614Y1840D01*
D02*
X1588Y1562D02*
X1588Y1840D01*
D02*
X2260Y1562D02*
X1588Y1562D01*
D02*
X2582Y1668D02*
X2583Y1579D01*
D02*
X2582Y1811D02*
X2582Y1902D01*
D02*
X2546Y1810D02*
X2582Y1811D01*
D02*
X2546Y1670D02*
X2582Y1668D01*
D02*
X2585Y961D02*
X2204Y961D01*
D02*
X435Y1419D02*
X547Y1418D01*
D02*
X910Y1416D02*
X1080Y1416D01*
D02*
X891Y1519D02*
X1076Y1519D01*
D02*
X891Y1536D02*
X891Y1519D01*
D02*
X137Y1095D02*
X87Y1095D01*
D02*
X137Y995D02*
X87Y995D01*
D02*
X137Y895D02*
X87Y895D01*
D02*
X139Y473D02*
X89Y473D01*
D02*
X139Y573D02*
X89Y573D01*
D02*
X139Y673D02*
X89Y673D01*
D02*
X139Y773D02*
X89Y773D01*
D02*
X134Y2041D02*
X85Y2040D01*
D02*
X134Y1941D02*
X85Y1940D01*
D02*
X134Y1841D02*
X85Y1840D01*
D02*
X134Y1741D02*
X85Y1740D01*
D02*
X134Y1618D02*
X85Y1617D01*
D02*
X134Y1518D02*
X85Y1517D01*
D02*
X134Y1418D02*
X85Y1417D01*
D02*
X134Y1318D02*
X85Y1317D01*
D02*
X137Y1195D02*
X87Y1195D01*
D02*
X1502Y202D02*
X1502Y131D01*
D02*
X1490Y202D02*
X1502Y202D01*
D02*
X339Y2038D02*
X339Y1637D01*
D02*
X194Y2040D02*
X339Y2038D01*
D02*
X320Y1618D02*
X194Y1618D01*
D02*
X339Y1215D02*
X339Y1599D01*
D02*
X320Y1196D02*
X264Y1196D01*
D02*
X264Y1196D02*
X264Y1157D01*
D02*
X264Y1157D02*
X264Y847D01*
D02*
X264Y847D02*
X264Y774D01*
D02*
X264Y774D02*
X320Y774D01*
D02*
X320Y774D02*
X199Y774D01*
D02*
X197Y1196D02*
X320Y1196D01*
D02*
X1947Y1750D02*
X1797Y1750D01*
D02*
X1947Y1764D02*
X1947Y1750D01*
D02*
X2082Y1750D02*
X2244Y1750D01*
D02*
X2082Y1758D02*
X2082Y1750D01*
D02*
X1975Y1334D02*
X2053Y1331D01*
D02*
X2063Y202D02*
X1528Y202D01*
D02*
X1643Y1640D02*
X1643Y1848D01*
D02*
X1643Y1848D02*
X1743Y1848D01*
D02*
X2371Y1642D02*
X1643Y1640D01*
D02*
X2389Y313D02*
X2390Y1624D01*
D02*
X824Y1646D02*
X824Y1644D01*
D02*
X824Y1644D02*
X1143Y1644D01*
D02*
X358Y1618D02*
X395Y1618D01*
D02*
X503Y1740D02*
X1143Y1742D01*
D02*
X2082Y480D02*
X2099Y480D01*
D02*
X2082Y1301D02*
X2082Y480D01*
D02*
X615Y1921D02*
X1721Y1927D01*
G04 End of Copper1*
M02*