G04 MADE WITH FRITZING*
G04 WWW.FRITZING.ORG*
G04 DOUBLE SIDED*
G04 HOLES PLATED*
G04 CONTOUR ON CENTER OF CONTOUR VECTOR*
%ASAXBY*%
%FSLAX23Y23*%
%MOIN*%
%OFA0B0*%
%SFA1.0B1.0*%
%ADD10C,0.039370*%
%ADD11C,0.078000*%
%ADD12C,0.083307*%
%ADD13C,0.074000*%
%ADD14C,0.080000*%
%ADD15C,0.062992*%
%ADD16C,0.075000*%
%ADD17R,0.074000X0.074000*%
%ADD18R,0.080000X0.080000*%
%ADD19R,0.062992X0.062992*%
%ADD20C,0.024000*%
%LNCOPPER0*%
G90*
G70*
G54D10*
X395Y534D03*
X2331Y390D03*
X2443Y1907D03*
X2582Y1921D03*
X596Y1921D03*
X2584Y1560D03*
X2279Y1562D03*
X595Y1840D03*
X1980Y517D03*
X1978Y674D03*
X468Y674D03*
X343Y674D03*
X289Y621D03*
X291Y519D03*
X399Y1318D03*
X395Y890D03*
X415Y1519D03*
X564Y1518D03*
X891Y1517D03*
X1095Y1519D03*
X2000Y1127D03*
X2000Y1418D03*
X1099Y1416D03*
X891Y1416D03*
X566Y1418D03*
X416Y1419D03*
X2204Y744D03*
X1890Y744D03*
X340Y1095D03*
X334Y995D03*
G54D11*
X2512Y100D03*
X2412Y100D03*
X2312Y100D03*
X2212Y100D03*
X2112Y100D03*
X2012Y100D03*
X1802Y101D03*
X1702Y101D03*
X1602Y101D03*
X1502Y101D03*
X1402Y101D03*
X1302Y101D03*
X1202Y101D03*
X1102Y101D03*
G54D12*
X2518Y2014D03*
X2418Y2014D03*
X2318Y2014D03*
X2218Y2014D03*
X2118Y2014D03*
X2018Y2014D03*
X1918Y2014D03*
X1818Y2014D03*
G54D11*
X1650Y2014D03*
X1550Y2014D03*
X1450Y2014D03*
X1350Y2014D03*
X1250Y2014D03*
X1150Y2014D03*
X1050Y2014D03*
X950Y2014D03*
X850Y2014D03*
X750Y2014D03*
G54D13*
X857Y341D03*
X757Y341D03*
X657Y341D03*
X557Y341D03*
X457Y341D03*
X857Y441D03*
X757Y441D03*
X657Y441D03*
X557Y441D03*
X457Y441D03*
G54D14*
X2619Y656D03*
X2619Y518D03*
G54D11*
X167Y1196D03*
X167Y1096D03*
X167Y996D03*
X167Y896D03*
X59Y772D03*
X59Y672D03*
X59Y572D03*
X59Y472D03*
X169Y774D03*
X169Y674D03*
X169Y574D03*
X169Y474D03*
X57Y1194D03*
X57Y1094D03*
X57Y994D03*
X57Y894D03*
X164Y1618D03*
X164Y1518D03*
X164Y1418D03*
X164Y1318D03*
X55Y1617D03*
X55Y1517D03*
X55Y1417D03*
X55Y1317D03*
X164Y2041D03*
X164Y1941D03*
X164Y1841D03*
X164Y1741D03*
X55Y2039D03*
X55Y1939D03*
X55Y1839D03*
X55Y1739D03*
G54D10*
X396Y474D03*
X339Y1196D03*
X339Y1618D03*
X339Y774D03*
G54D14*
X934Y89D03*
X796Y89D03*
X92Y154D03*
X92Y292D03*
X2514Y1810D03*
X2514Y1672D03*
X2616Y1265D03*
X2616Y1127D03*
X2616Y961D03*
X2616Y823D03*
G54D10*
X1509Y202D03*
G54D15*
X2270Y1750D03*
X2270Y1849D03*
X1770Y1750D03*
X1770Y1848D03*
X1170Y1644D03*
X1170Y1742D03*
G54D16*
X2082Y1330D03*
X2082Y1730D03*
X424Y1618D03*
X824Y1618D03*
X1947Y1335D03*
X1947Y1735D03*
G54D10*
X2082Y202D03*
X2390Y1642D03*
X2389Y294D03*
X2494Y390D03*
X484Y1740D03*
X2080Y480D03*
X1740Y1927D03*
G54D17*
X857Y441D03*
G54D18*
X2619Y656D03*
X934Y89D03*
X92Y154D03*
X2514Y1810D03*
X2616Y1265D03*
X2616Y961D03*
G54D19*
X2270Y1750D03*
X1770Y1750D03*
X1170Y1644D03*
G54D20*
X1609Y441D02*
X688Y441D01*
D02*
X1602Y131D02*
X1609Y441D01*
D02*
X657Y534D02*
X414Y534D01*
D02*
X395Y515D02*
X395Y493D01*
D02*
X657Y472D02*
X657Y534D01*
D02*
X850Y1844D02*
X1026Y1844D01*
D02*
X1026Y1844D02*
X1026Y173D01*
D02*
X1026Y173D02*
X934Y173D01*
D02*
X934Y173D02*
X934Y120D01*
D02*
X850Y1984D02*
X850Y1844D01*
D02*
X796Y279D02*
X796Y120D01*
D02*
X958Y279D02*
X796Y279D01*
D02*
X958Y1762D02*
X958Y279D01*
D02*
X750Y1762D02*
X958Y1762D01*
D02*
X750Y1984D02*
X750Y1762D01*
D02*
X2475Y390D02*
X2350Y390D01*
D02*
X577Y1921D02*
X157Y1921D01*
D02*
X157Y1921D02*
X154Y1913D01*
D02*
X2565Y1560D02*
X2298Y1562D01*
D02*
X576Y1840D02*
X194Y1841D01*
D02*
X2619Y674D02*
X1997Y674D01*
D02*
X2619Y687D02*
X2619Y674D01*
D02*
X324Y674D02*
X199Y674D01*
D02*
X1959Y674D02*
X487Y674D01*
D02*
X290Y602D02*
X291Y538D01*
D02*
X395Y871D02*
X395Y553D01*
D02*
X399Y1299D02*
X395Y909D01*
D02*
X197Y896D02*
X395Y896D01*
D02*
X395Y896D02*
X395Y909D01*
D02*
X484Y1318D02*
X418Y1318D01*
D02*
X484Y1721D02*
X484Y1318D01*
D02*
X194Y1741D02*
X465Y1740D01*
D02*
X885Y1520D02*
X874Y1527D01*
D02*
X2547Y1519D02*
X2547Y1265D01*
D02*
X1114Y1519D02*
X2547Y1519D01*
D02*
X2547Y1265D02*
X2585Y1265D01*
D02*
X583Y1519D02*
X885Y1520D01*
D02*
X194Y1518D02*
X396Y1519D01*
D02*
X2019Y1127D02*
X2585Y1127D01*
D02*
X2019Y1127D02*
X2019Y1127D01*
D02*
X2019Y1418D02*
X2019Y1127D01*
D02*
X2019Y1418D02*
X2019Y1418D01*
D02*
X1118Y1416D02*
X1981Y1418D01*
D02*
X891Y1418D02*
X891Y1435D01*
D02*
X585Y1418D02*
X891Y1418D01*
D02*
X194Y1418D02*
X397Y1419D01*
D02*
X2185Y744D02*
X1890Y744D01*
D02*
X1890Y744D02*
X1877Y757D01*
D02*
X321Y1095D02*
X197Y1096D01*
D02*
X315Y995D02*
X197Y996D01*
D02*
X377Y474D02*
X199Y474D01*
D02*
X380Y1318D02*
X194Y1318D01*
D02*
X679Y31D02*
X681Y193D01*
D02*
X1806Y36D02*
X679Y31D01*
D02*
X1809Y51D02*
X1806Y36D01*
D02*
X458Y154D02*
X199Y154D01*
D02*
X458Y194D02*
X458Y154D01*
D02*
X681Y193D02*
X458Y194D01*
D02*
X199Y154D02*
X123Y154D01*
D02*
X1806Y71D02*
X1809Y51D01*
D02*
X396Y392D02*
X396Y292D01*
D02*
X396Y292D02*
X199Y292D01*
D02*
X199Y292D02*
X123Y292D01*
D02*
X396Y455D02*
X396Y392D01*
D02*
X2390Y2013D02*
X2390Y1661D01*
D02*
X2385Y2012D02*
X2390Y2013D01*
D02*
X1980Y549D02*
X2229Y549D01*
D02*
X2229Y549D02*
X2229Y519D01*
D02*
X1980Y536D02*
X1980Y549D01*
D02*
X2229Y519D02*
X2588Y518D01*
D02*
X2080Y461D02*
X2081Y221D01*
D02*
X1740Y1946D02*
X1740Y2084D01*
D02*
X1740Y2084D02*
X2582Y2084D01*
D02*
X2582Y2084D02*
X2582Y1940D01*
G04 End of Copper0*
M02*