G04 MADE WITH FRITZING*
G04 WWW.FRITZING.ORG*
G04 DOUBLE SIDED*
G04 HOLES PLATED*
G04 CONTOUR ON CENTER OF CONTOUR VECTOR*
%ASAXBY*%
%FSLAX23Y23*%
%MOIN*%
%OFA0B0*%
%SFA1.0B1.0*%
%ADD10C,0.080000*%
%ADD11C,0.075000*%
%ADD12C,0.039370*%
%ADD13R,0.160000X0.060000*%
%ADD14R,0.075000X0.075000*%
%ADD15C,0.048000*%
%ADD16C,0.024000*%
%LNCOPPER1*%
G90*
G70*
G54D10*
X639Y708D03*
X356Y425D03*
X639Y708D03*
X356Y425D03*
X1059Y722D03*
X659Y722D03*
X1059Y722D03*
X659Y722D03*
X1548Y722D03*
X1148Y722D03*
X1548Y722D03*
X1148Y722D03*
G54D11*
X1102Y439D03*
X1102Y539D03*
X745Y440D03*
X745Y540D03*
G54D12*
X1680Y439D03*
G54D11*
X1511Y142D03*
X1411Y142D03*
X1154Y143D03*
X1054Y143D03*
X765Y141D03*
X665Y141D03*
G54D10*
X1293Y544D03*
X1293Y144D03*
X1293Y544D03*
X1293Y144D03*
X923Y543D03*
X923Y143D03*
X923Y543D03*
X923Y143D03*
G54D13*
X83Y527D03*
X83Y427D03*
X83Y327D03*
X83Y527D03*
X83Y327D03*
X1680Y244D03*
X1680Y144D03*
X1680Y44D03*
X1680Y244D03*
X1680Y44D03*
X1681Y823D03*
X1681Y723D03*
X1681Y623D03*
X1681Y823D03*
X1681Y623D03*
G54D14*
X1102Y439D03*
X745Y440D03*
X1511Y142D03*
X1154Y143D03*
X765Y141D03*
G54D15*
X1102Y722D02*
X1106Y722D01*
D02*
X1607Y722D02*
X1580Y722D01*
D02*
X325Y425D02*
X157Y426D01*
D02*
X634Y704D02*
X664Y726D01*
D02*
X648Y714D02*
X731Y565D01*
D02*
X634Y704D02*
X648Y714D01*
D02*
X1117Y722D02*
X1102Y722D01*
D02*
X1102Y722D02*
X1102Y567D01*
D02*
X1073Y439D02*
X774Y440D01*
G54D16*
D02*
X1680Y268D02*
X1680Y420D01*
G54D15*
D02*
X1661Y439D02*
X1131Y439D01*
D02*
X1681Y458D02*
X1681Y599D01*
D02*
X1680Y420D02*
X1680Y268D01*
D02*
X545Y527D02*
X545Y440D01*
D02*
X157Y527D02*
X545Y527D01*
D02*
X545Y440D02*
X717Y440D01*
D02*
X1540Y142D02*
X1606Y143D01*
D02*
X644Y160D02*
X379Y404D01*
D02*
X1293Y439D02*
X1293Y513D01*
D02*
X1131Y439D02*
X1293Y439D01*
D02*
X923Y440D02*
X923Y512D01*
D02*
X774Y440D02*
X923Y440D01*
D02*
X954Y143D02*
X1026Y143D01*
D02*
X892Y143D02*
X794Y141D01*
D02*
X1383Y143D02*
X1324Y144D01*
D02*
X1261Y144D02*
X1183Y144D01*
D02*
X359Y44D02*
X1606Y44D01*
D02*
X106Y302D02*
X359Y44D01*
D02*
X109Y551D02*
X397Y823D01*
D02*
X397Y823D02*
X1607Y823D01*
G04 End of Copper1*
M02*