; NON-PLATED HOLES START AT T1
; THROUGH (PLATED) HOLES START AT T100
M48
INCH
T100C0.040000
T101C0.015748
T102C0.035000
%
T100
X010592Y007222
X012925Y005441
X003562Y004247
X012925Y001441
X011484Y007219
X009231Y005430
X006391Y007076
X009231Y001430
X015484Y007219
X006592Y007222
T101
X016804Y004387
T102
X007452Y004398
X010543Y001434
X011543Y001434
X007654Y001411
X015111Y001422
X007452Y005398
X014111Y001422
X006654Y001411
X011020Y005387
X011020Y004387
T00
M30
