G04 MADE WITH FRITZING*
G04 WWW.FRITZING.ORG*
G04 DOUBLE SIDED*
G04 HOLES PLATED*
G04 CONTOUR ON CENTER OF CONTOUR VECTOR*
%ASAXBY*%
%FSLAX23Y23*%
%MOIN*%
%OFA0B0*%
%SFA1.0B1.0*%
%ADD10C,0.090000*%
%ADD11C,0.085000*%
%ADD12C,0.049370*%
%ADD13R,0.170000X0.070000*%
%ADD14R,0.085000X0.085000*%
%ADD15R,0.001000X0.001000*%
%LNMASK1*%
G90*
G70*
G54D10*
X639Y708D03*
X356Y425D03*
X639Y708D03*
X356Y425D03*
X1059Y722D03*
X659Y722D03*
X1059Y722D03*
X659Y722D03*
X1548Y722D03*
X1148Y722D03*
X1548Y722D03*
X1148Y722D03*
G54D11*
X1102Y439D03*
X1102Y539D03*
X745Y440D03*
X745Y540D03*
G54D12*
X1680Y439D03*
G54D11*
X1511Y142D03*
X1411Y142D03*
X1154Y143D03*
X1054Y143D03*
X765Y141D03*
X665Y141D03*
G54D10*
X1293Y544D03*
X1293Y144D03*
X1293Y544D03*
X1293Y144D03*
X923Y543D03*
X923Y143D03*
X923Y543D03*
X923Y143D03*
G54D13*
X1680Y244D03*
X1680Y144D03*
X1680Y44D03*
X1680Y244D03*
X1680Y44D03*
X1681Y823D03*
X1681Y723D03*
X1681Y623D03*
X1681Y823D03*
X1681Y623D03*
G54D14*
X1102Y439D03*
X745Y440D03*
X1511Y142D03*
X1154Y143D03*
X765Y141D03*
G54D15*
X0Y562D02*
X166Y562D01*
X0Y561D02*
X167Y561D01*
X0Y560D02*
X167Y560D01*
X0Y559D02*
X167Y559D01*
X0Y558D02*
X167Y558D01*
X0Y557D02*
X167Y557D01*
X0Y556D02*
X167Y556D01*
X0Y555D02*
X167Y555D01*
X0Y554D02*
X167Y554D01*
X0Y553D02*
X167Y553D01*
X0Y552D02*
X167Y552D01*
X0Y551D02*
X167Y551D01*
X0Y550D02*
X167Y550D01*
X0Y549D02*
X167Y549D01*
X0Y548D02*
X167Y548D01*
X0Y547D02*
X167Y547D01*
X0Y546D02*
X167Y546D01*
X0Y545D02*
X167Y545D01*
X0Y544D02*
X167Y544D01*
X0Y543D02*
X167Y543D01*
X0Y542D02*
X167Y542D01*
X0Y541D02*
X167Y541D01*
X0Y540D02*
X167Y540D01*
X0Y539D02*
X167Y539D01*
X0Y538D02*
X167Y538D01*
X0Y537D02*
X167Y537D01*
X0Y536D02*
X167Y536D01*
X0Y535D02*
X167Y535D01*
X0Y534D02*
X167Y534D01*
X0Y533D02*
X167Y533D01*
X0Y532D02*
X167Y532D01*
X0Y531D02*
X167Y531D01*
X0Y530D02*
X167Y530D01*
X0Y529D02*
X167Y529D01*
X0Y528D02*
X167Y528D01*
X0Y527D02*
X167Y527D01*
X0Y526D02*
X167Y526D01*
X0Y525D02*
X167Y525D01*
X0Y524D02*
X167Y524D01*
X0Y523D02*
X167Y523D01*
X0Y522D02*
X167Y522D01*
X0Y521D02*
X167Y521D01*
X0Y520D02*
X167Y520D01*
X0Y519D02*
X167Y519D01*
X0Y518D02*
X167Y518D01*
X0Y517D02*
X167Y517D01*
X0Y516D02*
X167Y516D01*
X0Y515D02*
X167Y515D01*
X0Y514D02*
X167Y514D01*
X0Y513D02*
X167Y513D01*
X0Y512D02*
X167Y512D01*
X0Y511D02*
X167Y511D01*
X0Y510D02*
X167Y510D01*
X0Y509D02*
X167Y509D01*
X0Y508D02*
X167Y508D01*
X0Y507D02*
X167Y507D01*
X0Y506D02*
X167Y506D01*
X0Y505D02*
X167Y505D01*
X0Y504D02*
X167Y504D01*
X0Y503D02*
X167Y503D01*
X0Y502D02*
X167Y502D01*
X0Y501D02*
X167Y501D01*
X0Y500D02*
X167Y500D01*
X0Y499D02*
X167Y499D01*
X0Y498D02*
X167Y498D01*
X0Y497D02*
X167Y497D01*
X0Y496D02*
X167Y496D01*
X0Y495D02*
X167Y495D01*
X0Y494D02*
X167Y494D01*
X0Y493D02*
X167Y493D01*
X0Y462D02*
X166Y462D01*
X0Y461D02*
X167Y461D01*
X0Y460D02*
X167Y460D01*
X0Y459D02*
X167Y459D01*
X0Y458D02*
X167Y458D01*
X0Y457D02*
X167Y457D01*
X0Y456D02*
X167Y456D01*
X0Y455D02*
X167Y455D01*
X0Y454D02*
X167Y454D01*
X0Y453D02*
X167Y453D01*
X0Y452D02*
X167Y452D01*
X0Y451D02*
X167Y451D01*
X0Y450D02*
X167Y450D01*
X0Y449D02*
X167Y449D01*
X0Y448D02*
X167Y448D01*
X0Y447D02*
X167Y447D01*
X0Y446D02*
X167Y446D01*
X0Y445D02*
X167Y445D01*
X0Y444D02*
X167Y444D01*
X0Y443D02*
X167Y443D01*
X0Y442D02*
X167Y442D01*
X0Y441D02*
X167Y441D01*
X0Y440D02*
X167Y440D01*
X0Y439D02*
X167Y439D01*
X0Y438D02*
X167Y438D01*
X0Y437D02*
X167Y437D01*
X0Y436D02*
X167Y436D01*
X0Y435D02*
X167Y435D01*
X0Y434D02*
X167Y434D01*
X0Y433D02*
X167Y433D01*
X0Y432D02*
X167Y432D01*
X0Y431D02*
X167Y431D01*
X0Y430D02*
X167Y430D01*
X0Y429D02*
X167Y429D01*
X0Y428D02*
X167Y428D01*
X0Y427D02*
X167Y427D01*
X0Y426D02*
X167Y426D01*
X0Y425D02*
X167Y425D01*
X0Y424D02*
X167Y424D01*
X0Y423D02*
X167Y423D01*
X0Y422D02*
X167Y422D01*
X0Y421D02*
X167Y421D01*
X0Y420D02*
X167Y420D01*
X0Y419D02*
X167Y419D01*
X0Y418D02*
X167Y418D01*
X0Y417D02*
X167Y417D01*
X0Y416D02*
X167Y416D01*
X0Y415D02*
X167Y415D01*
X0Y414D02*
X167Y414D01*
X0Y413D02*
X167Y413D01*
X0Y412D02*
X167Y412D01*
X0Y411D02*
X167Y411D01*
X0Y410D02*
X167Y410D01*
X0Y409D02*
X167Y409D01*
X0Y408D02*
X167Y408D01*
X0Y407D02*
X167Y407D01*
X0Y406D02*
X167Y406D01*
X0Y405D02*
X167Y405D01*
X0Y404D02*
X167Y404D01*
X0Y403D02*
X167Y403D01*
X0Y402D02*
X167Y402D01*
X0Y401D02*
X167Y401D01*
X0Y400D02*
X167Y400D01*
X0Y399D02*
X167Y399D01*
X0Y398D02*
X167Y398D01*
X0Y397D02*
X167Y397D01*
X0Y396D02*
X167Y396D01*
X0Y395D02*
X167Y395D01*
X0Y394D02*
X167Y394D01*
X0Y393D02*
X167Y393D01*
X0Y362D02*
X166Y362D01*
X0Y361D02*
X167Y361D01*
X0Y360D02*
X167Y360D01*
X0Y359D02*
X167Y359D01*
X0Y358D02*
X167Y358D01*
X0Y357D02*
X167Y357D01*
X0Y356D02*
X167Y356D01*
X0Y355D02*
X167Y355D01*
X0Y354D02*
X167Y354D01*
X0Y353D02*
X167Y353D01*
X0Y352D02*
X167Y352D01*
X0Y351D02*
X167Y351D01*
X0Y350D02*
X167Y350D01*
X0Y349D02*
X167Y349D01*
X0Y348D02*
X167Y348D01*
X0Y347D02*
X167Y347D01*
X0Y346D02*
X167Y346D01*
X0Y345D02*
X167Y345D01*
X0Y344D02*
X167Y344D01*
X0Y343D02*
X167Y343D01*
X0Y342D02*
X167Y342D01*
X0Y341D02*
X167Y341D01*
X0Y340D02*
X167Y340D01*
X0Y339D02*
X167Y339D01*
X0Y338D02*
X167Y338D01*
X0Y337D02*
X167Y337D01*
X0Y336D02*
X167Y336D01*
X0Y335D02*
X167Y335D01*
X0Y334D02*
X167Y334D01*
X0Y333D02*
X167Y333D01*
X0Y332D02*
X167Y332D01*
X0Y331D02*
X167Y331D01*
X0Y330D02*
X167Y330D01*
X0Y329D02*
X167Y329D01*
X0Y328D02*
X167Y328D01*
X0Y327D02*
X167Y327D01*
X0Y326D02*
X167Y326D01*
X0Y325D02*
X167Y325D01*
X0Y324D02*
X167Y324D01*
X0Y323D02*
X167Y323D01*
X0Y322D02*
X167Y322D01*
X0Y321D02*
X167Y321D01*
X0Y320D02*
X167Y320D01*
X0Y319D02*
X167Y319D01*
X0Y318D02*
X167Y318D01*
X0Y317D02*
X167Y317D01*
X0Y316D02*
X167Y316D01*
X0Y315D02*
X167Y315D01*
X0Y314D02*
X167Y314D01*
X0Y313D02*
X167Y313D01*
X0Y312D02*
X167Y312D01*
X0Y311D02*
X167Y311D01*
X0Y310D02*
X167Y310D01*
X0Y309D02*
X167Y309D01*
X0Y308D02*
X167Y308D01*
X0Y307D02*
X167Y307D01*
X0Y306D02*
X167Y306D01*
X0Y305D02*
X167Y305D01*
X0Y304D02*
X167Y304D01*
X0Y303D02*
X167Y303D01*
X0Y302D02*
X167Y302D01*
X0Y301D02*
X167Y301D01*
X0Y300D02*
X167Y300D01*
X0Y299D02*
X167Y299D01*
X0Y298D02*
X167Y298D01*
X0Y297D02*
X167Y297D01*
X0Y296D02*
X167Y296D01*
X0Y295D02*
X167Y295D01*
X0Y294D02*
X167Y294D01*
X0Y293D02*
X167Y293D01*
D02*
G04 End of Mask1*
M02*