; NON-PLATED HOLES START AT T1
; THROUGH (PLATED) HOLES START AT T100
M48
INCH
T1C0.125984
T100C0.043307
T101C0.035000
T102C0.038000
T103C0.040000
T104C0.031497
T105C0.015748
%
T1
X005642Y020119
X005670Y000935
X026273Y014366
X026181Y003600
T100
X023178Y020139
X021178Y020139
X024178Y020139
X018178Y020139
X025178Y020139
X019178Y020139
X020178Y020139
X022178Y020139
T101
X020816Y017296
X004236Y016178
X020816Y013296
X008236Y016178
X019465Y017353
X019465Y013353
T102
X008496Y020144
X001640Y019409
X001667Y009957
X023118Y000998
X025118Y000998
X000546Y017393
X001688Y005737
X001688Y004737
X000571Y011944
X001640Y018409
X022118Y000998
X017016Y001006
X000571Y009944
X012016Y001006
X021118Y000998
X014496Y020144
X011496Y020144
X001688Y006737
X012496Y020144
X001667Y010957
X016496Y020144
X001641Y014182
X001640Y020409
X001641Y016182
X011016Y001006
X001688Y007737
X000545Y016168
X016016Y001006
X015016Y001006
X000571Y010944
X000592Y006723
X013016Y001006
X018016Y001006
X013496Y020144
X000592Y005723
X001667Y008957
X010496Y020144
X000592Y004723
X007496Y020144
X024118Y000998
X000592Y007723
X020118Y000998
X009496Y020144
X000546Y018393
X000546Y020393
X001667Y011957
X000545Y014168
X001641Y015182
X000546Y019393
X001641Y013182
X001640Y017409
X000545Y013168
X014016Y001006
X015496Y020144
X000545Y015168
X000571Y008944
T103
X025144Y018096
X009340Y000885
X000922Y002915
X007962Y000885
X026192Y005179
X006568Y004413
X006568Y003413
X026192Y006557
X004568Y004413
X007568Y004413
X004568Y003413
X026156Y008232
X005568Y004413
X008568Y003413
X005568Y003413
X025144Y016718
X000922Y001537
X026156Y009610
X026161Y012649
X008568Y004413
X007568Y003413
X026161Y011271
T104
X017698Y018484
X022704Y017503
X017698Y017500
X022704Y018488
X011699Y017420
X011699Y016435
T105
X023900Y016424
X003425Y006744
X015086Y002015
X020796Y004799
X022035Y007439
X003391Y016182
X003391Y011957
X005642Y015184
X025835Y015601
X004841Y017395
X004155Y014190
X002891Y006211
X005964Y019208
X010993Y014162
X008907Y015168
X017396Y019268
X020816Y002015
X003946Y008900
X025819Y019208
X018900Y007439
X003404Y010948
X005662Y014177
X008905Y014162
X003950Y005335
X019783Y006737
X002913Y005187
X020003Y011271
X003955Y004737
X005948Y018395
X020003Y014182
X023308Y003904
X022792Y015616
X024941Y003904
X024425Y019072
X003991Y013182
X004683Y006737
X019804Y005166
X003337Y009947
X003391Y007737
X023888Y002940
X004148Y015193
X010950Y015193
T00
M30
