<?xml version='1.0' encoding='UTF-8' standalone='no'?>
<!-- Created with Fritzing (http://www.fritzing.org/) -->
<svg xmlns="http://www.w3.org/2000/svg" version="1.2" xmlns:svg="http://www.w3.org/2000/svg" baseProfile="tiny" x="0in" y="0in" width="2.708in" viewBox="0 0 194.976 151.776" height="2.108in" >
 <g transform="matrix(-1, 0, 0, 1, 194.976, 0)">
  <g partID="57730">
   <g transform="matrix(1, 0, 0, 1, -28.5545, -661.559)">
    <g id="board">
     <g style="display:inline">
      <g transform="matrix(1, 0, 0, -1, 28.8425, 813.047)">
       <g>
        <g stroke="black" fill="none" stroke-opacity="1" style="stroke-miterlimit:4;stroke-dasharray:none;" stroke-width="0.5" id="Pad">
         <path stroke="black" fill="none" stroke-opacity="1" style="fill-rule:evenodd;stroke-miterlimit:4;stroke-dasharray:none;" d="M0,0L0,151.2L187.2,151.2L187.2,115.2L194.4,108L194.4,14.4L187.2,7.2L187.2,0Z" stroke-width="0.5" id="boardoutline"/>
        </g>
       </g>
      </g>
     </g>
    </g>
   </g>
  </g>
  <g partID="854201711">
   <g transform="translate(182.372,119.719)">
    <g  id="copper1">
     <circle r="4.53543" fill="black" stroke="black" cy="6.13543" stroke-width="0"  cx="6.13543" id="nonconn0"/>
    </g>
   </g>
  </g>
  <g partID="854201611">
   <g transform="translate(183.033,42.2047)">
    <g  id="copper1">
     <circle r="4.53543" fill="black" stroke="black" cy="6.13543" stroke-width="0"  cx="6.13543" id="nonconn0"/>
    </g>
   </g>
  </g>
  <g partID="854201591">
   <g transform="translate(34.6955,138.908)">
    <g  id="copper1">
     <circle r="4.53543" fill="black" stroke="black" cy="6.13543" stroke-width="0"  cx="6.13543" id="nonconn0"/>
    </g>
   </g>
  </g>
  <g partID="854195311">
   <g transform="translate(34.4912,0.77816)">
    <g  id="copper1">
     <circle r="4.53543" fill="black" stroke="black" cy="6.13543" stroke-width="0"  cx="6.13543" id="nonconn0"/>
    </g>
   </g>
  </g>
  <g partID="854205901">
   <g transform="translate(25.4252,110.344)">
    <g  id="copper1">
     <circle r="0.992124" fill="none" stroke="black" cy="3.01733" stroke-width="0.850392"  cx="3.01733" id="connector0pin"/>
    </g>
   </g>
  </g>
  <g partID="854208491">
   <g transform="translate(164.8,120.649)">
    <g  id="copper1">
     <circle r="0.992124" fill="none" stroke="black" cy="3.01733" stroke-width="0.850392"  cx="3.01733" id="connector0pin"/>
    </g>
   </g>
  </g>
  <g partID="854209551">
   <g transform="translate(172.843,11.4375)">
    <g  id="copper1">
     <circle r="0.992124" fill="none" stroke="black" cy="3.01733" stroke-width="0.850392"  cx="3.01733" id="connector0pin"/>
    </g>
   </g>
  </g>
  <g partID="854211091">
   <g transform="translate(182.881,10.4593)">
    <g  id="copper1">
     <circle r="0.992124" fill="none" stroke="black" cy="3.01733" stroke-width="0.850392"  cx="3.01733" id="connector0pin"/>
    </g>
   </g>
  </g>
  <g partID="854212011">
   <g transform="translate(39.9244,10.4593)">
    <g  id="copper1">
     <circle r="0.992124" fill="none" stroke="black" cy="3.01733" stroke-width="0.850392"  cx="3.01733" id="connector0pin"/>
    </g>
   </g>
  </g>
  <g partID="854212561">
   <g transform="translate(182.994,36.4309)">
    <g  id="copper1">
     <circle r="0.992124" fill="none" stroke="black" cy="3.01733" stroke-width="0.850392"  cx="3.01733" id="connector0pin"/>
    </g>
   </g>
  </g>
  <g partID="854212771">
   <g transform="translate(161.087,36.318)">
    <g  id="copper1">
     <circle r="0.992124" fill="none" stroke="black" cy="3.01733" stroke-width="0.850392"  cx="3.01733" id="connector0pin"/>
    </g>
   </g>
  </g>
  <g partID="854213091">
   <g transform="translate(39.8114,16.3114)">
    <g  id="copper1">
     <circle r="0.992124" fill="none" stroke="black" cy="3.01733" stroke-width="0.850392"  cx="3.01733" id="connector0pin"/>
    </g>
   </g>
  </g>
  <g partID="854213711">
   <g transform="translate(139.577,111.563)">
    <g  id="copper1">
     <circle r="0.992124" fill="none" stroke="black" cy="3.01733" stroke-width="0.850392"  cx="3.01733" id="connector0pin"/>
    </g>
   </g>
  </g>
  <g partID="854213921">
   <g transform="translate(139.424,100.248)">
    <g  id="copper1">
     <circle r="0.992124" fill="none" stroke="black" cy="3.01733" stroke-width="0.850392"  cx="3.01733" id="connector0pin"/>
    </g>
   </g>
  </g>
  <g partID="854214351">
   <g transform="translate(30.7032,100.248)">
    <g  id="copper1">
     <circle r="0.992124" fill="none" stroke="black" cy="3.01733" stroke-width="0.850392"  cx="3.01733" id="connector0pin"/>
    </g>
   </g>
  </g>
  <g partID="854214451">
   <g transform="translate(21.6431,100.199)">
    <g  id="copper1">
     <circle r="0.992124" fill="none" stroke="black" cy="3.01733" stroke-width="0.850392"  cx="3.01733" id="connector0pin"/>
    </g>
   </g>
  </g>
  <g partID="854215841">
   <g transform="translate(17.8041,104.038)">
    <g  id="copper1">
     <circle r="0.992124" fill="none" stroke="black" cy="3.01733" stroke-width="0.850392"  cx="3.01733" id="connector0pin"/>
    </g>
   </g>
  </g>
  <g partID="854216691">
   <g transform="translate(17.9577,111.409)">
    <g  id="copper1">
     <circle r="0.992124" fill="none" stroke="black" cy="3.01733" stroke-width="0.850392"  cx="3.01733" id="connector0pin"/>
    </g>
   </g>
  </g>
  <g partID="854221041">
   <g transform="translate(25.7179,53.8423)">
    <g  id="copper1">
     <circle r="0.992124" fill="none" stroke="black" cy="3.01733" stroke-width="0.850392"  cx="3.01733" id="connector0pin"/>
    </g>
   </g>
  </g>
  <g partID="854223171">
   <g transform="translate(25.4001,84.6727)">
    <g  id="copper1">
     <circle r="0.992124" fill="none" stroke="black" cy="3.01733" stroke-width="0.850392"  cx="3.01733" id="connector0pin"/>
    </g>
   </g>
  </g>
  <g partID="854225891">
   <g transform="translate(26.8528,39.3675)">
    <g  id="copper1">
     <circle r="0.992124" fill="none" stroke="black" cy="3.01733" stroke-width="0.850392"  cx="3.01733" id="connector0pin"/>
    </g>
   </g>
  </g>
  <g partID="854226291">
   <g transform="translate(37.6083,39.4337)">
    <g  id="copper1">
     <circle r="0.992124" fill="none" stroke="black" cy="3.01733" stroke-width="0.850392"  cx="3.01733" id="connector0pin"/>
    </g>
   </g>
  </g>
  <g partID="854226741">
   <g transform="translate(61.1154,39.5469)">
    <g  id="copper1">
     <circle r="0.992124" fill="none" stroke="black" cy="3.01733" stroke-width="0.850392"  cx="3.01733" id="connector0pin"/>
    </g>
   </g>
  </g>
  <g partID="854226951">
   <g transform="translate(75.8251,39.3675)">
    <g  id="copper1">
     <circle r="0.992124" fill="none" stroke="black" cy="3.01733" stroke-width="0.850392"  cx="3.01733" id="connector0pin"/>
    </g>
   </g>
  </g>
  <g partID="854227811">
   <g transform="translate(141.004,67.6066)">
    <g  id="copper1">
     <circle r="0.992124" fill="none" stroke="black" cy="3.01733" stroke-width="0.850392"  cx="3.01733" id="connector0pin"/>
    </g>
   </g>
  </g>
  <g partID="854228021">
   <g transform="translate(141.004,46.6423)">
    <g  id="copper1">
     <circle r="0.992124" fill="none" stroke="black" cy="3.01733" stroke-width="0.850392"  cx="3.01733" id="connector0pin"/>
    </g>
   </g>
  </g>
  <g partID="854228341">
   <g transform="translate(76.1372,46.7883)">
    <g  id="copper1">
     <circle r="0.992124" fill="none" stroke="black" cy="3.01733" stroke-width="0.850392"  cx="3.01733" id="connector0pin"/>
    </g>
   </g>
  </g>
  <g partID="854228441">
   <g transform="translate(61.1028,46.7883)">
    <g  id="copper1">
     <circle r="0.992124" fill="none" stroke="black" cy="3.01733" stroke-width="0.850392"  cx="3.01733" id="connector0pin"/>
    </g>
   </g>
  </g>
  <g partID="854228761">
   <g transform="translate(37.7518,46.6843)">
    <g  id="copper1">
     <circle r="0.992124" fill="none" stroke="black" cy="3.01733" stroke-width="0.850392"  cx="3.01733" id="connector0pin"/>
    </g>
   </g>
  </g>
  <g partID="854228861">
   <g transform="translate(26.9056,46.5883)">
    <g  id="copper1">
     <circle r="0.992124" fill="none" stroke="black" cy="3.01733" stroke-width="0.850392"  cx="3.01733" id="connector0pin"/>
    </g>
   </g>
  </g>
  <g partID="854231321">
   <g transform="translate(155.637,95.1942)">
    <g  id="copper1">
     <circle r="0.992124" fill="none" stroke="black" cy="3.01733" stroke-width="0.850392"  cx="3.01733" id="connector0pin"/>
    </g>
   </g>
  </g>
  <g partID="854231421">
   <g transform="translate(133.065,95.1942)">
    <g  id="copper1">
     <circle r="0.992124" fill="none" stroke="black" cy="3.01733" stroke-width="0.850392"  cx="3.01733" id="connector0pin"/>
    </g>
   </g>
  </g>
  <g partID="854233481">
   <g transform="translate(21.4949,69.9297)">
    <g  id="copper1">
     <circle r="0.992124" fill="none" stroke="black" cy="3.01733" stroke-width="0.850392"  cx="3.01733" id="connector0pin"/>
    </g>
   </g>
  </g>
  <g partID="854233581">
   <g transform="translate(21.0105,77.1366)">
    <g  id="copper1">
     <circle r="0.992124" fill="none" stroke="black" cy="3.01733" stroke-width="0.850392"  cx="3.01733" id="connector0pin"/>
    </g>
   </g>
  </g>
  <g partID="61741">
   <g transform="translate(185.892,139.547)">
    <g transform="matrix(0,1,-1,0,0,0)">
     <g  id="copper1">
      <g  id="copper0">
       <circle r="2.088" fill="none" stroke="black" cy="5.04" stroke-width="1.44"  cx="5.04" id="connector0pin"/>
       <circle r="2.088" fill="none" stroke="black" cy="12.24" stroke-width="1.44"  cx="5.04" id="connector1pin"/>
       <circle r="2.088" fill="none" stroke="black" cy="19.44" stroke-width="1.44"  cx="5.04" id="connector2pin"/>
       <circle r="2.088" fill="none" stroke="black" cy="26.64" stroke-width="1.44"  cx="5.04" id="connector3pin"/>
       <circle r="2.088" fill="none" stroke="black" cy="33.84" stroke-width="1.44"  cx="5.04" id="connector4pin"/>
       <circle r="2.088" fill="none" stroke="black" cy="41.04" stroke-width="1.44"  cx="5.04" id="connector5pin"/>
      </g>
     </g>
    </g>
   </g>
  </g>
  <g partID="60721">
   <g transform="translate(134.758,139.488)">
    <g transform="matrix(0,1,-1,0,0,0)">
     <g  id="copper1">
      <g  id="copper0">
       <circle r="2.088" fill="none" stroke="black" cy="5.04" stroke-width="1.44"  cx="5.04" id="connector0pin"/>
       <circle r="2.088" fill="none" stroke="black" cy="12.24" stroke-width="1.44"  cx="5.04" id="connector1pin"/>
       <circle r="2.088" fill="none" stroke="black" cy="19.44" stroke-width="1.44"  cx="5.04" id="connector2pin"/>
       <circle r="2.088" fill="none" stroke="black" cy="26.64" stroke-width="1.44"  cx="5.04" id="connector3pin"/>
       <circle r="2.088" fill="none" stroke="black" cy="33.84" stroke-width="1.44"  cx="5.04" id="connector4pin"/>
       <circle r="2.088" fill="none" stroke="black" cy="41.04" stroke-width="1.44"  cx="5.04" id="connector5pin"/>
       <circle r="2.088" fill="none" stroke="black" cy="48.24" stroke-width="1.44"  cx="5.04" id="connector6pin"/>
       <circle r="2.088" fill="none" stroke="black" cy="55.44" stroke-width="1.44"  cx="5.04" id="connector7pin"/>
      </g>
     </g>
    </g>
   </g>
  </g>
  <g partID="60821">
   <g transform="translate(123.812,1.69472)">
    <g transform="matrix(0,1,-1,0,0,0)">
     <g  id="copper1">
      <g  id="copper0">
       <circle r="2.088" fill="none" stroke="black" cy="5.04" stroke-width="1.44"  cx="5.04" id="connector0pin"/>
       <circle r="2.088" fill="none" stroke="black" cy="12.24" stroke-width="1.44"  cx="5.04" id="connector1pin"/>
       <circle r="2.088" fill="none" stroke="black" cy="19.44" stroke-width="1.44"  cx="5.04" id="connector2pin"/>
       <circle r="2.088" fill="none" stroke="black" cy="26.64" stroke-width="1.44"  cx="5.04" id="connector3pin"/>
       <circle r="2.088" fill="none" stroke="black" cy="33.84" stroke-width="1.44"  cx="5.04" id="connector4pin"/>
       <circle r="2.088" fill="none" stroke="black" cy="41.04" stroke-width="1.44"  cx="5.04" id="connector5pin"/>
       <circle r="2.088" fill="none" stroke="black" cy="48.24" stroke-width="1.44"  cx="5.04" id="connector6pin"/>
       <circle r="2.088" fill="none" stroke="black" cy="55.44" stroke-width="1.44"  cx="5.04" id="connector7pin"/>
       <circle r="2.088" fill="none" stroke="black" cy="62.64" stroke-width="1.44"  cx="5.04" id="connector8pin"/>
       <circle r="2.088" fill="none" stroke="black" cy="69.84" stroke-width="1.44"  cx="5.04" id="connector9pin"/>
      </g>
     </g>
    </g>
   </g>
  </g>
  <g partID="854139991">
   <g transform="translate(75.9171,111.211)">
    <g transform="matrix(0,1,-1,0,0,0)">
     <g  id="copper1">
      <rect r="285" stroke="black" fill="none" x="6.7392" y="12.1752" width="4.104" height="4.104" stroke-width="1.224"  id="square"/>
      <circle r="2.052" stroke="black" fill="none" cy="14.2272" stroke-width="1.224"  cx="15.9912" id="connector9pin"/>
      <circle r="2.052" stroke="black" fill="none" cy="21.4272" stroke-width="1.224"  cx="15.9912" id="connector8pin"/>
      <circle r="2.052" stroke="black" fill="none" cy="28.6272" stroke-width="1.224"  cx="15.9912" id="connector7pin"/>
      <circle r="2.052" stroke="black" fill="none" cy="35.8272" stroke-width="1.224"  cx="15.9912" id="connector6pin"/>
      <circle r="2.052" stroke="black" fill="none" cy="43.0272" stroke-width="1.224"  cx="15.9912" id="connector5pin"/>
      <circle r="2.052" stroke="black" fill="none" cy="14.2272" stroke-width="1.224"  cx="8.7912" id="connector0pin"/>
      <circle r="2.052" stroke="black" fill="none" cy="21.4272" stroke-width="1.224"  cx="8.7912" id="connector1pin"/>
      <circle r="2.052" stroke="black" fill="none" cy="28.6272" stroke-width="1.224"  cx="8.7912" id="connector2pin"/>
      <circle r="2.052" stroke="black" fill="none" cy="35.8272" stroke-width="1.224"  cx="8.7912" id="connector3pin"/>
      <circle r="2.052" stroke="black" fill="none" cy="43.0272" stroke-width="1.224"  cx="8.7912" id="connector4pin"/>
     </g>
    </g>
   </g>
  </g>
  <g partID="854140961">
   <g transform="translate(180.806,97.8046)">
    <g id="copper1">
     <g id="copper0">
      <rect fill="none" stroke="black" x="5.616" width="4.32" y="4.60063" height="4.32" stroke-width="1.44" id="square"/>
      <circle r="2.16" fill="none" stroke="black" cy="6.76063" stroke-width="1.44" cx="7.776" id="connector0pin"/>
      <circle r="2.16" fill="none" stroke="black" cy="16.6819" stroke-width="1.44" cx="7.776" id="connector1pin"/>
     </g>
    </g>
   </g>
  </g>
  <g partID="854142151">
   <g transform="translate(6.9656,60.6392)">
    <g  id="copper1">
     <g  id="copper0">
      <circle r="2.088" fill="none" stroke="black" cy="5.04" stroke-width="1.44"  cx="5.04" id="connector0pin"/>
      <circle r="2.088" fill="none" stroke="black" cy="12.24" stroke-width="1.44"  cx="5.04" id="connector1pin"/>
      <circle r="2.088" fill="none" stroke="black" cy="19.44" stroke-width="1.44"  cx="5.04" id="connector2pin"/>
      <circle r="2.088" fill="none" stroke="black" cy="26.64" stroke-width="1.44"  cx="5.04" id="connector3pin"/>
     </g>
    </g>
   </g>
  </g>
  <g partID="854142141">
   <g transform="translate(-0.774403,91.1256)">
    <g  id="copper1">
     <g  id="copper0">
      <circle r="2.088" fill="none" stroke="black" cy="5.04" stroke-width="1.44"  cx="5.04" id="connector0pin"/>
      <circle r="2.088" fill="none" stroke="black" cy="12.24" stroke-width="1.44"  cx="5.04" id="connector1pin"/>
      <circle r="2.088" fill="none" stroke="black" cy="19.44" stroke-width="1.44"  cx="5.04" id="connector2pin"/>
      <circle r="2.088" fill="none" stroke="black" cy="26.64" stroke-width="1.44"  cx="5.04" id="connector3pin"/>
     </g>
    </g>
   </g>
  </g>
  <g partID="854142131">
   <g transform="translate(7.11438,91.0256)">
    <g  id="copper1">
     <g  id="copper0">
      <circle r="2.088" fill="none" stroke="black" cy="5.04" stroke-width="1.44"  cx="5.04" id="connector0pin"/>
      <circle r="2.088" fill="none" stroke="black" cy="12.24" stroke-width="1.44"  cx="5.04" id="connector1pin"/>
      <circle r="2.088" fill="none" stroke="black" cy="19.44" stroke-width="1.44"  cx="5.04" id="connector2pin"/>
      <circle r="2.088" fill="none" stroke="black" cy="26.64" stroke-width="1.44"  cx="5.04" id="connector3pin"/>
     </g>
    </g>
   </g>
  </g>
  <g partID="854142121">
   <g transform="translate(-0.923203,60.739)">
    <g  id="copper1">
     <g  id="copper0">
      <circle r="2.088" fill="none" stroke="black" cy="5.04" stroke-width="1.44"  cx="5.04" id="connector0pin"/>
      <circle r="2.088" fill="none" stroke="black" cy="12.24" stroke-width="1.44"  cx="5.04" id="connector1pin"/>
      <circle r="2.088" fill="none" stroke="black" cy="19.44" stroke-width="1.44"  cx="5.04" id="connector2pin"/>
      <circle r="2.088" fill="none" stroke="black" cy="26.64" stroke-width="1.44"  cx="5.04" id="connector3pin"/>
     </g>
    </g>
   </g>
  </g>
  <g partID="854142071">
   <g transform="translate(6.776,30.2197)">
    <g  id="copper1">
     <g  id="copper0">
      <circle r="2.088" fill="none" stroke="black" cy="5.04" stroke-width="1.44"  cx="5.04" id="connector0pin"/>
      <circle r="2.088" fill="none" stroke="black" cy="12.24" stroke-width="1.44"  cx="5.04" id="connector1pin"/>
      <circle r="2.088" fill="none" stroke="black" cy="19.44" stroke-width="1.44"  cx="5.04" id="connector2pin"/>
      <circle r="2.088" fill="none" stroke="black" cy="26.64" stroke-width="1.44"  cx="5.04" id="connector3pin"/>
     </g>
    </g>
   </g>
  </g>
  <g partID="854142061">
   <g transform="translate(-1.1128,30.3195)">
    <g  id="copper1">
     <g  id="copper0">
      <circle r="2.088" fill="none" stroke="black" cy="5.04" stroke-width="1.44"  cx="5.04" id="connector0pin"/>
      <circle r="2.088" fill="none" stroke="black" cy="12.24" stroke-width="1.44"  cx="5.04" id="connector1pin"/>
      <circle r="2.088" fill="none" stroke="black" cy="19.44" stroke-width="1.44"  cx="5.04" id="connector2pin"/>
      <circle r="2.088" fill="none" stroke="black" cy="26.64" stroke-width="1.44"  cx="5.04" id="connector3pin"/>
     </g>
    </g>
   </g>
  </g>
  <g partID="854199791">
   <g transform="translate(6.76994,-0.21504)">
    <g  id="copper1">
     <g  id="copper0">
      <circle r="2.088" fill="none" stroke="black" cy="5.04" stroke-width="1.44"  cx="5.04" id="connector0pin"/>
      <circle r="2.088" fill="none" stroke="black" cy="12.24" stroke-width="1.44"  cx="5.04" id="connector1pin"/>
      <circle r="2.088" fill="none" stroke="black" cy="19.44" stroke-width="1.44"  cx="5.04" id="connector2pin"/>
      <circle r="2.088" fill="none" stroke="black" cy="26.64" stroke-width="1.44"  cx="5.04" id="connector3pin"/>
     </g>
    </g>
   </g>
  </g>
  <g partID="854141981">
   <g transform="translate(-1.10615,-0.0984)">
    <g  id="copper1">
     <g  id="copper0">
      <circle r="2.088" fill="none" stroke="black" cy="5.04" stroke-width="1.44"  cx="5.04" id="connector0pin"/>
      <circle r="2.088" fill="none" stroke="black" cy="12.24" stroke-width="1.44"  cx="5.04" id="connector1pin"/>
      <circle r="2.088" fill="none" stroke="black" cy="19.44" stroke-width="1.44"  cx="5.04" id="connector2pin"/>
      <circle r="2.088" fill="none" stroke="black" cy="26.64" stroke-width="1.44"  cx="5.04" id="connector3pin"/>
     </g>
    </g>
   </g>
  </g>
  <g partID="854144881">
   <g transform="translate(25.464,114.649)">
    <g  id="copper1">
     <circle r="0.992124" fill="none" stroke="black" cy="3.01733" stroke-width="0.850392"  cx="3.01733" id="connector0pin"/>
    </g>
   </g>
  </g>
  <g partID="854147851">
   <g transform="translate(21.4048,62.6618)">
    <g  id="copper1">
     <circle r="0.992124" fill="none" stroke="black" cy="3.01733" stroke-width="0.850392"  cx="3.01733" id="connector0pin"/>
    </g>
   </g>
  </g>
  <g partID="854149771">
   <g transform="translate(21.4048,32.2423)">
    <g  id="copper1">
     <circle r="0.992124" fill="none" stroke="black" cy="3.01733" stroke-width="0.850392"  cx="3.01733" id="connector0pin"/>
    </g>
   </g>
  </g>
  <g partID="854150611">
   <g transform="translate(21.4048,93.0488)">
    <g  id="copper1">
     <circle r="0.992124" fill="none" stroke="black" cy="3.01733" stroke-width="0.850392"  cx="3.01733" id="connector0pin"/>
    </g>
   </g>
  </g>
  <g partID="854153391">
   <g transform="translate(74.0113,137.621)">
    <g transform="matrix(0,1,-1,0,0,0)">
     <g id="copper1">
      <g id="copper0">
       <rect fill="none" stroke="black" x="5.616" width="4.32" y="4.60063" height="4.32" stroke-width="1.44" id="square"/>
       <circle r="2.16" fill="none" stroke="black" cy="6.76063" stroke-width="1.44" cx="7.776" id="connector0pin"/>
       <circle r="2.16" fill="none" stroke="black" cy="16.6819" stroke-width="1.44" cx="7.776" id="connector1pin"/>
      </g>
     </g>
    </g>
   </g>
  </g>
  <g partID="854154121">
   <g transform="translate(14.4165,147.469)">
    <g transform="matrix(-1,0,0,-1,0,0)">
     <g id="copper1">
      <g id="copper0">
       <rect fill="none" stroke="black" x="5.616" width="4.32" y="4.60063" height="4.32" stroke-width="1.44" id="square"/>
       <circle r="2.16" fill="none" stroke="black" cy="6.76063" stroke-width="1.44" cx="7.776" id="connector0pin"/>
       <circle r="2.16" fill="none" stroke="black" cy="16.6819" stroke-width="1.44" cx="7.776" id="connector1pin"/>
      </g>
     </g>
    </g>
   </g>
  </g>
  <g partID="854154101">
   <g transform="translate(173.265,14.7196)">
    <g id="copper1">
     <g id="copper0">
      <rect fill="none" stroke="black" x="5.616" width="4.32" y="4.60063" height="4.32" stroke-width="1.44" id="square"/>
      <circle r="2.16" fill="none" stroke="black" cy="6.76063" stroke-width="1.44" cx="7.776" id="connector0pin"/>
      <circle r="2.16" fill="none" stroke="black" cy="16.6819" stroke-width="1.44" cx="7.776" id="connector1pin"/>
     </g>
    </g>
   </g>
  </g>
  <g partID="854154081">
   <g transform="translate(180.586,53.942)">
    <g id="copper1">
     <g id="copper0">
      <rect fill="none" stroke="black" x="5.616" width="4.32" y="4.60063" height="4.32" stroke-width="1.44" id="square"/>
      <circle r="2.16" fill="none" stroke="black" cy="6.76063" stroke-width="1.44" cx="7.776" id="connector0pin"/>
      <circle r="2.16" fill="none" stroke="black" cy="16.6819" stroke-width="1.44" cx="7.776" id="connector1pin"/>
     </g>
    </g>
   </g>
  </g>
  <g partID="854154051">
   <g transform="translate(180.549,75.818)">
    <g id="copper1">
     <g id="copper0">
      <rect fill="none" stroke="black" x="5.616" width="4.32" y="4.60063" height="4.32" stroke-width="1.44" id="square"/>
      <circle r="2.16" fill="none" stroke="black" cy="6.76063" stroke-width="1.44" cx="7.776" id="connector0pin"/>
      <circle r="2.16" fill="none" stroke="black" cy="16.6819" stroke-width="1.44" cx="7.776" id="connector1pin"/>
     </g>
    </g>
   </g>
  </g>
  <g partID="854160641">
   <g transform="translate(105.605,134.243)">
    <g  id="copper1">
     <circle r="0.992124" fill="none" stroke="black" cy="3.01733" stroke-width="0.850392"  cx="3.01733" id="connector0pin"/>
    </g>
   </g>
  </g>
  <g partID="854161411">
   <g transform="translate(154.683,15.1146)">
    <g  id="copper1">
     <circle r="1.7008" fill="none" stroke="black" cy="10.6336" stroke-width="1.13384"  cx="8.7876" id="connector1pad"/>
     <rect stroke="black" fill="none" x="7.0868" y="8.9328" width="3.4016" stroke-width="1.13384" height="3.4016" />
     <circle r="1.7008" fill="none" stroke="black" cy="3.5464" stroke-width="1.13384"  cx="8.7876" id="connector0pad"/>
    </g>
   </g>
  </g>
  <g partID="854161471">
   <g transform="translate(118.642,15.1393)">
    <g  id="copper1">
     <circle r="1.7008" fill="none" stroke="black" cy="10.6336" stroke-width="1.13384"  cx="8.7876" id="connector1pad"/>
     <rect stroke="black" fill="none" x="7.0868" y="8.9328" width="3.4016" stroke-width="1.13384" height="3.4016" />
     <circle r="1.7008" fill="none" stroke="black" cy="3.5464" stroke-width="1.13384"  cx="8.7876" id="connector0pad"/>
    </g>
   </g>
  </g>
  <g partID="854161501">
   <g transform="translate(146.779,58.7408)">
    <g transform="matrix(0,-1,1,0,0,0)">
     <g  id="copper1">
      <!-- <rect width="55" x="10" y="15.5" fill="none" height="55" stroke="rgb(255, 191, 0)" stroke-width="20" />  -->
      <circle r="1.98" fill="none" stroke="black" cy="3.096" stroke-width="1.44"  cx="2.7" id="connector0pin"/>
      <circle r="1.98" fill="none" stroke="black" cy="3.096" stroke-width="1.44"  cx="31.5" id="connector1pin"/>
     </g>
    </g>
   </g>
  </g>
  <g partID="854163401">
   <g transform="translate(137.055,58.3298)">
    <g transform="matrix(0,-1,1,0,0,0)">
     <g  id="copper1">
      <!-- <rect width="55" x="10" y="15.5" fill="none" height="55" stroke="rgb(255, 191, 0)" stroke-width="20" />  -->
      <circle r="1.98" fill="none" stroke="black" cy="3.096" stroke-width="1.44"  cx="2.7" id="connector0pin"/>
      <circle r="1.98" fill="none" stroke="black" cy="3.096" stroke-width="1.44"  cx="31.5" id="connector1pin"/>
     </g>
    </g>
   </g>
  </g>
  <g partID="854164651">
   <g transform="translate(146.858,134.243)">
    <g  id="copper1">
     <circle r="0.992124" fill="none" stroke="black" cy="3.01733" stroke-width="0.850392"  cx="3.01733" id="connector0pin"/>
    </g>
   </g>
  </g>
  <g partID="854170671">
   <g transform="translate(169.062,30.4996)">
    <g  id="copper1">
     <circle r="0.992124" fill="none" stroke="black" cy="3.01733" stroke-width="0.850392"  cx="3.01733" id="connector0pin"/>
    </g>
   </g>
  </g>
  <g partID="854171261">
   <g transform="translate(168.979,127.583)">
    <g  id="copper1">
     <circle r="0.992124" fill="none" stroke="black" cy="3.01733" stroke-width="0.850392"  cx="3.01733" id="connector0pin"/>
    </g>
   </g>
  </g>
  <g partID="854171471">
   <g transform="translate(176.56,120.649)">
    <g  id="copper1">
     <circle r="0.992124" fill="none" stroke="black" cy="3.01733" stroke-width="0.850392"  cx="3.01733" id="connector0pin"/>
    </g>
   </g>
  </g>
  <g partID="854236051">
   <g transform="translate(186.324,1.73474)">
    <g transform="matrix(0,1,-1,0,0,0)">
     <g  id="copper1">
      <g  id="copper0">
       <circle r="2.27905" fill="none" stroke="black" cy="5.04" stroke-width="1.44"  cx="5.04" id="connector0pin"/>
       <circle r="2.27905" fill="none" stroke="black" cy="12.24" stroke-width="1.44"  cx="5.04" id="connector1pin"/>
       <circle r="2.27905" fill="none" stroke="black" cy="19.44" stroke-width="1.44"  cx="5.04" id="connector2pin"/>
       <circle r="2.27905" fill="none" stroke="black" cy="26.64" stroke-width="1.44"  cx="5.04" id="connector3pin"/>
       <circle r="2.27905" fill="none" stroke="black" cy="33.84" stroke-width="1.44"  cx="5.04" id="connector4pin"/>
       <circle r="2.27905" fill="none" stroke="black" cy="41.04" stroke-width="1.44"  cx="5.04" id="connector5pin"/>
       <circle r="2.27905" fill="none" stroke="black" cy="48.24" stroke-width="1.44"  cx="5.04" id="connector6pin"/>
       <circle r="2.27905" fill="none" stroke="black" cy="55.44" stroke-width="1.44"  cx="5.04" id="connector7pin"/>
      </g>
     </g>
    </g>
   </g>
  </g>
  <g partID="854237491">
   <g transform="translate(75.4509,22.8041)">
    <g  id="copper1">
     <circle r="1.7008" fill="none" stroke="black" cy="10.6336" stroke-width="1.13384"  cx="8.7876" id="connector1pad"/>
     <rect stroke="black" fill="none" x="7.0868" y="8.9328" width="3.4016" stroke-width="1.13384" height="3.4016" />
     <circle r="1.7008" fill="none" stroke="black" cy="3.5464" stroke-width="1.13384"  cx="8.7876" id="connector0pad"/>
    </g>
   </g>
  </g>
  <g partID="854237511">
   <g transform="translate(27.8047,32.1958)">
    <g  id="copper1">
     <!-- <rect width="55" x="10" y="15.5" fill="none" height="55" stroke="rgb(255, 191, 0)" stroke-width="20" />  -->
     <circle r="1.98" fill="none" stroke="black" cy="3.096" stroke-width="1.44"  cx="2.7" id="connector0pin"/>
     <circle r="1.98" fill="none" stroke="black" cy="3.096" stroke-width="1.44"  cx="31.5" id="connector1pin"/>
    </g>
   </g>
  </g>
  <g partID="854238191">
   <g transform="translate(31.8394,23.5114)">
    <g  id="copper1">
     <circle r="0.992124" fill="none" stroke="black" cy="3.01733" stroke-width="0.850392"  cx="3.01733" id="connector0pin"/>
    </g>
   </g>
  </g>
  <g partID="854246381">
   <g transform="translate(146.714,114.202)">
    <g  id="copper1">
     <circle r="0.992124" fill="none" stroke="black" cy="3.01733" stroke-width="0.850392"  cx="3.01733" id="connector0pin"/>
    </g>
   </g>
  </g>
  <g partID="854252431">
   <g transform="translate(122.236,10.0281)">
    <g  id="copper1">
     <circle r="0.992124" fill="none" stroke="black" cy="3.01733" stroke-width="0.850392"  cx="3.01733" id="connector0pin"/>
    </g>
   </g>
  </g>
  <g partID="854208380">
   <line x1="166.45" x2="69.1126" stroke="black" y1="123.666" stroke-width="1.728" y2="123.666" stroke-linecap="round"/>
  </g>
  <g partID="854208270">
   <line x1="69.1123" x2="69.1123" stroke="black" y1="123.666" stroke-width="1.728" y2="114.758" stroke-linecap="round"/>
  </g>
  <g partID="854208160">
   <line x1="69.1123" x2="54.2509" stroke="black" y1="114.757" stroke-width="1.728" y2="114.757" stroke-linecap="round"/>
  </g>
  <g partID="854208050">
   <line x1="54.2509" x2="54.3879" stroke="black" y1="114.757" stroke-width="1.728" y2="117.764" stroke-linecap="round"/>
  </g>
  <g partID="854207940">
   <line x1="61.6899" x2="170.63" stroke="black" y1="130.601" stroke-width="1.728" y2="130.601" stroke-linecap="round"/>
  </g>
  <g partID="854201850">
   <line x1="61.6899" x2="61.6899" stroke="black" y1="129.442" stroke-width="1.728" y2="130.6" stroke-linecap="round"/>
  </g>
  <g partID="854229620">
   <line x1="32.7763" x2="25.3947" stroke="black" y1="80.1538" stroke-width="1.728" y2="80.1538" stroke-linecap="round"/>
  </g>
  <g partID="854229510">
   <line x1="32.7763" x2="32.7763" stroke="black" y1="97.3755" stroke-width="1.728" y2="80.1538" stroke-linecap="round"/>
  </g>
  <g partID="854229400">
   <line x1="38.0947" x2="32.7763" stroke="black" y1="97.3755" stroke-width="1.728" y2="97.3755" stroke-linecap="round"/>
  </g>
  <g partID="854229290">
   <line x1="38.0947" x2="38.0947" stroke="black" y1="107.319" stroke-width="1.728" y2="97.3756" stroke-linecap="round"/>
  </g>
  <g partID="854229180">
   <line x1="86.1918" x2="38.0947" stroke="black" y1="107.319" stroke-width="1.728" y2="107.319" stroke-linecap="round"/>
  </g>
  <g partID="854244460">
   <line x1="120.878" x2="86.1918" stroke="black" y1="110.092" stroke-width="1.728" y2="110.092" stroke-linecap="round"/>
  </g>
  <g partID="854241630">
   <line x1="86.1918" x2="86.1918" stroke="black" y1="110.092" stroke-width="1.728" y2="107.319" stroke-linecap="round"/>
  </g>
  <g partID="854229070">
   <line x1="164.581" x2="120.878" stroke="black" y1="121.142" stroke-width="1.728" y2="121.142" stroke-linecap="round"/>
  </g>
  <g partID="854244570">
   <line x1="120.878" x2="120.878" stroke="black" y1="121.142" stroke-width="1.728" y2="110.092" stroke-linecap="round"/>
  </g>
  <g partID="854228960">
   <line x1="164.581" x2="164.581" stroke="black" y1="92.4998" stroke-width="1.728" y2="121.142" stroke-linecap="round"/>
  </g>
  <g partID="854216260">
   <line x1="20.9658" x2="20.8215" stroke="black" y1="115.793" stroke-width="1.728" y2="137.261" stroke-linecap="round"/>
  </g>
  <g partID="854214980">
   <line x1="20.8214" x2="24.4221" stroke="black" y1="137.261" stroke-width="1.728" y2="137.261" stroke-linecap="round"/>
  </g>
  <g partID="854214550">
   <line x1="20.8214" x2="20.8214" stroke="black" y1="96.1527" stroke-width="1.728" y2="105.689" stroke-linecap="round"/>
  </g>
  <g partID="854213600">
   <line x1="141.228" x2="80.0958" stroke="black" y1="114.578" stroke-width="1.728" y2="114.486" stroke-linecap="round"/>
  </g>
  <g partID="854213490">
   <line x1="80.0958" x2="80.0958" stroke="black" y1="114.486" stroke-width="1.728" y2="110.466" stroke-linecap="round"/>
  </g>
  <g partID="854213380">
   <line x1="80.0958" x2="14.3224" stroke="black" y1="110.466" stroke-width="1.728" y2="110.466" stroke-linecap="round"/>
  </g>
  <g partID="854210180">
   <line x1="186.085" x2="164.581" stroke="black" y1="92.4999" stroke-width="1.728" y2="92.4998" stroke-linecap="round"/>
  </g>
  <g partID="854209720">
   <line x1="163.47" x2="163.47" stroke="black" y1="14.4548" stroke-width="1.728" y2="16.727" stroke-linecap="round"/>
  </g>
  <g partID="854209610">
   <line x1="174.493" x2="163.47" stroke="black" y1="14.4548" stroke-width="1.728" y2="14.4548" stroke-linecap="round"/>
  </g>
  <g partID="854209380">
   <line x1="179.577" x2="175.86" stroke="black" y1="37.8339" stroke-width="1.728" y2="37.8339" stroke-linecap="round"/>
  </g>
  <g partID="854209310">
   <line x1="175.86" x2="175.86" stroke="black" y1="37.8339" stroke-width="1.728" y2="15.8218" stroke-linecap="round"/>
  </g>
  <g partID="854209240">
   <line x1="177.227" x2="181.383" stroke="black" y1="14.4548" stroke-width="1.728" y2="14.4548" stroke-linecap="round"/>
  </g>
  <g partID="854209170">
   <line x1="181.383" x2="181.315" stroke="black" y1="14.4548" stroke-width="1.728" y2="9.1336" stroke-linecap="round"/>
  </g>
  <g partID="854208880">
   <line x1="179.577" x2="179.577" stroke="black" y1="122.3" stroke-width="1.728" y2="37.8345" stroke-linecap="round"/>
  </g>
  <g partID="854204040">
   <line x1="24.4221" x2="107.256" stroke="black" y1="137.261" stroke-width="1.728" y2="137.261" stroke-linecap="round"/>
  </g>
  <g partID="854203610">
   <line x1="23.0556" x2="20.8214" stroke="black" y1="96.099" stroke-width="1.728" y2="96.1527" stroke-linecap="round"/>
  </g>
  <g partID="854230720">
   <line x1="136.081" x2="43.6438" stroke="black" y1="103.83" stroke-width="1.728" y2="103.83" stroke-linecap="round"/>
  </g>
  <g partID="854230610">
   <line x1="136.081" x2="136.081" stroke="black" y1="99.5785" stroke-width="1.728" y2="103.83" stroke-linecap="round"/>
  </g>
  <g partID="854230280">
   <line x1="35.4097" x2="25.8792" stroke="black" y1="72.947" stroke-width="1.728" y2="72.947" stroke-linecap="round"/>
  </g>
  <g partID="854230170">
   <line x1="35.4097" x2="35.4097" stroke="black" y1="94.4635" stroke-width="1.728" y2="72.947" stroke-linecap="round"/>
  </g>
  <g partID="854230060">
   <line x1="43.6444" x2="35.4097" stroke="black" y1="94.4635" stroke-width="1.728" y2="94.4635" stroke-linecap="round"/>
  </g>
  <g partID="854229950">
   <line x1="43.6444" x2="43.6444" stroke="black" y1="103.83" stroke-width="1.728" y2="94.4635" stroke-linecap="round"/>
  </g>
  <g partID="854229840">
   <line x1="158.654" x2="158.654" stroke="black" y1="98.3042" stroke-width="1.728" y2="99.5785" stroke-linecap="round"/>
  </g>
  <g partID="854229730">
   <line x1="158.654" x2="158.654" stroke="black" y1="82.5786" stroke-width="1.728" y2="98.3042" stroke-linecap="round"/>
  </g>
  <g partID="854227160">
   <line x1="40.6256" x2="40.6256" stroke="black" y1="42.3848" stroke-width="1.728" y2="41.0841" stroke-linecap="round"/>
  </g>
  <g partID="854225780">
   <line x1="31.2371" x2="40.6256" stroke="black" y1="42.3848" stroke-width="1.728" y2="42.3848" stroke-linecap="round"/>
  </g>
  <g partID="854214130">
   <line x1="32.3536" x2="26.0274" stroke="black" y1="103.258" stroke-width="1.728" y2="103.224" stroke-linecap="round"/>
  </g>
  <g partID="854212870">
   <line x1="114.307" x2="44.1956" stroke="black" y1="19.3287" stroke-width="1.728" y2="19.3287" stroke-linecap="round"/>
  </g>
  <g partID="854212660">
   <line x1="114.307" x2="114.307" stroke="black" y1="39.3353" stroke-width="1.728" y2="19.3287" stroke-linecap="round"/>
  </g>
  <g partID="854212330">
   <line x1="162.738" x2="114.307" stroke="black" y1="39.3353" stroke-width="1.728" y2="39.3353" stroke-linecap="round"/>
  </g>
  <g partID="854212110">
   <line x1="185.898" x2="185.991" stroke="black" y1="31.6567" stroke-width="1.728" y2="38.0814" stroke-linecap="round"/>
  </g>
  <g partID="854210870">
   <line x1="185.898" x2="185.898" stroke="black" y1="21.381" stroke-width="1.728" y2="14.8435" stroke-linecap="round"/>
  </g>
  <g partID="854210730">
   <line x1="183.281" x2="185.898" stroke="black" y1="21.4345" stroke-width="1.728" y2="21.381" stroke-linecap="round"/>
  </g>
  <g partID="854210620">
   <line x1="183.278" x2="185.898" stroke="black" y1="31.5191" stroke-width="1.728" y2="31.6567" stroke-linecap="round"/>
  </g>
  <g partID="854210290">
   <line x1="186.085" x2="158.654" stroke="black" y1="82.5786" stroke-width="1.728" y2="82.5786" stroke-linecap="round"/>
  </g>
  <g partID="854228650">
   <line x1="31.2897" x2="39.4022" stroke="black" y1="49.6177" stroke-width="1.728" y2="49.6895" stroke-linecap="round"/>
  </g>
  <g partID="854228230">
   <line x1="65.487" x2="77.7876" stroke="black" y1="49.8057" stroke-width="1.728" y2="49.8057" stroke-linecap="round"/>
  </g>
  <g partID="854227050">
   <line x1="64.1328" x2="77.4755" stroke="black" y1="42.3848" stroke-width="1.728" y2="42.3848" stroke-linecap="round"/>
  </g>
  <g partID="854226520">
   <line x1="64.1328" x2="64.1328" stroke="black" y1="41.1973" stroke-width="1.728" y2="42.3848" stroke-linecap="round"/>
  </g>
  <g partID="854142650">
   <line x1="9.83775" x2="6.2846" stroke="black" y1="72.9066" stroke-width="1.728" y2="72.9516" stroke-linecap="round"/>
  </g>
  <g partID="854142580">
   <line x1="9.83775" x2="6.2846" stroke="black" y1="80.1066" stroke-width="1.728" y2="80.1516" stroke-linecap="round"/>
  </g>
  <g partID="854142510">
   <line x1="9.83775" x2="6.2846" stroke="black" y1="87.3066" stroke-width="1.728" y2="87.3516" stroke-linecap="round"/>
  </g>
  <g partID="854142440">
   <line x1="9.98655" x2="6.4334" stroke="black" y1="117.693" stroke-width="1.728" y2="117.738" stroke-linecap="round"/>
  </g>
  <g partID="854142370">
   <line x1="9.98655" x2="6.4334" stroke="black" y1="110.493" stroke-width="1.728" y2="110.538" stroke-linecap="round"/>
  </g>
  <g partID="854142300">
   <line x1="9.98655" x2="6.4334" stroke="black" y1="103.293" stroke-width="1.728" y2="103.338" stroke-linecap="round"/>
  </g>
  <g partID="854142230">
   <line x1="9.98655" x2="6.4334" stroke="black" y1="96.0931" stroke-width="1.728" y2="96.1381" stroke-linecap="round"/>
  </g>
  <g partID="854143280">
   <line x1="9.64221" x2="6.10165" stroke="black" y1="4.85708" stroke-width="1.728" y2="4.90953" stroke-linecap="round"/>
  </g>
  <g partID="854143210">
   <line x1="9.64221" x2="6.10165" stroke="black" y1="12.0571" stroke-width="1.728" y2="12.1095" stroke-linecap="round"/>
  </g>
  <g partID="854143140">
   <line x1="9.64221" x2="6.10165" stroke="black" y1="19.2571" stroke-width="1.728" y2="19.3095" stroke-linecap="round"/>
  </g>
  <g partID="854143070">
   <line x1="9.64221" x2="6.10165" stroke="black" y1="26.4571" stroke-width="1.728" y2="26.5095" stroke-linecap="round"/>
  </g>
  <g partID="854143000">
   <line x1="9.64815" x2="6.095" stroke="black" y1="35.2871" stroke-width="1.728" y2="35.3321" stroke-linecap="round"/>
  </g>
  <g partID="854142930">
   <line x1="9.64815" x2="6.095" stroke="black" y1="42.4871" stroke-width="1.728" y2="42.5321" stroke-linecap="round"/>
  </g>
  <g partID="854142860">
   <line x1="9.64815" x2="6.095" stroke="black" y1="49.6871" stroke-width="1.728" y2="49.7321" stroke-linecap="round"/>
  </g>
  <g partID="854142790">
   <line x1="9.64815" x2="6.095" stroke="black" y1="56.8871" stroke-width="1.728" y2="56.9321" stroke-linecap="round"/>
  </g>
  <g partID="854142720">
   <line x1="9.83775" x2="6.2846" stroke="black" y1="65.7066" stroke-width="1.728" y2="65.7516" stroke-linecap="round"/>
  </g>
  <g partID="854239170">
   <line x1="108.118" x2="108.118" stroke="black" y1="137.261" stroke-width="1.728" y2="142.36" stroke-linecap="round"/>
  </g>
  <g partID="854151260">
   <line x1="107.256" x2="108.118" stroke="black" y1="137.261" stroke-width="1.728" y2="137.261" stroke-linecap="round"/>
  </g>
  <g partID="854150300">
   <line x1="24.422" x2="24.4221" stroke="black" y1="5.05995" stroke-width="1.728" y2="33.8927" stroke-linecap="round"/>
  </g>
  <g partID="854149990">
   <line x1="13.9776" x2="24.422" stroke="black" y1="4.86535" stroke-width="1.728" y2="5.05995" stroke-linecap="round"/>
  </g>
  <g partID="854148910">
   <line x1="23.0552" x2="13.984" stroke="black" y1="35.2596" stroke-width="1.728" y2="35.2597" stroke-linecap="round"/>
  </g>
  <g partID="854147990">
   <line x1="24.4221" x2="24.4221" stroke="black" y1="64.3122" stroke-width="1.728" y2="36.6265" stroke-linecap="round"/>
  </g>
  <g partID="854146340">
   <line x1="23.0552" x2="19.0396" stroke="black" y1="65.6791" stroke-width="1.728" y2="65.6791" stroke-linecap="round"/>
  </g>
  <g partID="854232830">
   <line x1="19.0396" x2="19.0396" stroke="black" y1="65.6791" stroke-width="1.728" y2="68.4523" stroke-linecap="round"/>
  </g>
  <g partID="854232400">
   <line x1="19.0396" x2="19.0396" stroke="black" y1="68.4523" stroke-width="1.728" y2="90.7723" stroke-linecap="round"/>
  </g>
  <g partID="854231970">
   <line x1="19.0396" x2="19.0396" stroke="black" y1="90.7724" stroke-width="1.728" y2="96.0661" stroke-linecap="round"/>
  </g>
  <g partID="854231540">
   <line x1="19.0396" x2="23.0552" stroke="black" y1="96.0661" stroke-width="1.728" y2="96.0661" stroke-linecap="round"/>
  </g>
  <g partID="854146190">
   <line x1="23.0552" x2="14.3224" stroke="black" y1="96.066" stroke-width="1.728" y2="96.0656" stroke-linecap="round"/>
  </g>
  <g partID="854146040">
   <line x1="14.1736" x2="23.0552" stroke="black" y1="65.6792" stroke-width="1.728" y2="65.6792" stroke-linecap="round"/>
  </g>
  <g partID="854213260">
   <line x1="140.151" x2="129.364" stroke="black" y1="25.7729" stroke-width="1.728" y2="25.7729" stroke-linecap="round"/>
  </g>
  <g partID="854169480">
   <line x1="140.151" x2="140.151" stroke="black" y1="24.7698" stroke-width="1.728" y2="25.7729" stroke-linecap="round"/>
  </g>
  <g partID="854213190">
   <line x1="149.875" x2="161.536" stroke="black" y1="25.7482" stroke-width="1.728" y2="25.7482" stroke-linecap="round"/>
  </g>
  <g partID="854169410">
   <line x1="149.875" x2="149.875" stroke="black" y1="25.1808" stroke-width="1.728" y2="25.7482" stroke-linecap="round"/>
  </g>
  <g partID="854168980">
   <line x1="142.209" x2="147.817" stroke="black" y1="55.7168" stroke-width="1.728" y2="55.9538" stroke-linecap="round"/>
  </g>
  <g partID="854164260">
   <line x1="148.509" x2="109.99" stroke="black" y1="137.261" stroke-width="1.728" y2="137.261" stroke-linecap="round"/>
  </g>
  <g partID="854171020">
   <line x1="118.321" x2="118.321" stroke="black" y1="33.7096" stroke-width="1.728" y2="18.6857" stroke-linecap="round"/>
  </g>
  <g partID="854170910">
   <line x1="118.321" x2="125.496" stroke="black" y1="18.6857" stroke-width="1.728" y2="18.6857" stroke-linecap="round"/>
  </g>
  <g partID="854170800">
   <line x1="170.713" x2="118.322" stroke="black" y1="33.5218" stroke-width="1.728" y2="33.7096" stroke-linecap="round"/>
  </g>
  <g partID="854172150">
   <line x1="171.998" x2="172.079" stroke="black" y1="129.234" stroke-width="1.728" y2="34.8838" stroke-linecap="round"/>
  </g>
  <g partID="854237650">
   <line x1="59.3047" x2="59.3047" stroke="black" y1="33.2318" stroke-width="1.728" y2="33.4377" stroke-linecap="round"/>
  </g>
  <g partID="854239080">
   <line x1="59.3047" x2="82.3046" stroke="black" y1="33.4377" stroke-width="1.728" y2="33.4377" stroke-linecap="round"/>
  </g>
  <g partID="854237720">
   <line x1="25.789" x2="28.4448" stroke="black" y1="35.2668" stroke-width="1.728" y2="35.2809" stroke-linecap="round"/>
  </g>
  <g partID="854238610">
   <line x1="36.2236" x2="82.3047" stroke="black" y1="26.5238" stroke-width="1.728" y2="26.3574" stroke-linecap="round"/>
  </g>
  <g partID="854249030">
   <line x1="149.875" x2="151.098" stroke="black" y1="117.22" stroke-width="1.728" y2="117.22" stroke-linecap="round"/>
  </g>
  <g partID="854248560">
   <line x1="149.875" x2="149.875" stroke="black" y1="58.1008" stroke-width="1.728" y2="117.22" stroke-linecap="round"/>
  </g>
  <g partID="854251990">
   <line x1="44.3086" x2="123.887" stroke="black" y1="13.4694" stroke-width="1.728" y2="13.0526" stroke-linecap="round"/>
  </g>
 </g>
</svg>
