<?xml version='1.0' encoding='UTF-8' standalone='no'?>
<!-- Created with Fritzing (http://www.fritzing.org/) -->
<svg xmlns="http://www.w3.org/2000/svg" version="1.2" xmlns:svg="http://www.w3.org/2000/svg" baseProfile="tiny" x="0in" y="0in" width="2.708in" viewBox="0 0 194.976 151.776" height="2.108in" >
 <g partID="57730">
  <g transform="matrix(1, 0, 0, 1, -28.5545, -661.559)">
   <g id="board">
    <g style="display:inline">
     <g transform="matrix(1, 0, 0, -1, 28.8425, 813.047)">
      <g>
       <g stroke="black" fill="none" stroke-opacity="1" style="stroke-miterlimit:4;stroke-dasharray:none;" stroke-width="0.5" id="Pad">
        <path stroke="black" fill="none" stroke-opacity="1" style="fill-rule:evenodd;stroke-miterlimit:4;stroke-dasharray:none;" d="M0,0L0,151.2L187.2,151.2L187.2,115.2L194.4,108L194.4,14.4L187.2,7.2L187.2,0Z" stroke-width="0.5" id="boardoutline"/>
       </g>
      </g>
     </g>
    </g>
   </g>
  </g>
 </g>
 <g partID="854201710">
  <g transform="translate(182.372,119.719)">
   <g  id="copper0">
    <circle r="4.53543" fill="black" stroke="black" cy="6.13543" stroke-width="0"  cx="6.13543" id="nonconn0"/>
   </g>
  </g>
 </g>
 <g partID="854201610">
  <g transform="translate(183.033,42.2047)">
   <g  id="copper0">
    <circle r="4.53543" fill="black" stroke="black" cy="6.13543" stroke-width="0"  cx="6.13543" id="nonconn0"/>
   </g>
  </g>
 </g>
 <g partID="854201590">
  <g transform="translate(34.6955,138.908)">
   <g  id="copper0">
    <circle r="4.53543" fill="black" stroke="black" cy="6.13543" stroke-width="0"  cx="6.13543" id="nonconn0"/>
   </g>
  </g>
 </g>
 <g partID="854195310">
  <g transform="translate(34.4912,0.77816)">
   <g  id="copper0">
    <circle r="4.53543" fill="black" stroke="black" cy="6.13543" stroke-width="0"  cx="6.13543" id="nonconn0"/>
   </g>
  </g>
 </g>
 <g partID="854205900">
  <g transform="translate(25.4252,110.344)">
   <g  id="copper0">
    <circle r="0.992124" fill="none" stroke="black" cy="3.01733" stroke-width="0.850392"  cx="3.01733" id="connector0pin"/>
   </g>
  </g>
 </g>
 <g partID="854208490">
  <g transform="translate(164.8,120.649)">
   <g  id="copper0">
    <circle r="0.992124" fill="none" stroke="black" cy="3.01733" stroke-width="0.850392"  cx="3.01733" id="connector0pin"/>
   </g>
  </g>
 </g>
 <g partID="854209550">
  <g transform="translate(172.843,11.4375)">
   <g  id="copper0">
    <circle r="0.992124" fill="none" stroke="black" cy="3.01733" stroke-width="0.850392"  cx="3.01733" id="connector0pin"/>
   </g>
  </g>
 </g>
 <g partID="854211090">
  <g transform="translate(182.881,10.4593)">
   <g  id="copper0">
    <circle r="0.992124" fill="none" stroke="black" cy="3.01733" stroke-width="0.850392"  cx="3.01733" id="connector0pin"/>
   </g>
  </g>
 </g>
 <g partID="854212010">
  <g transform="translate(39.9244,10.4593)">
   <g  id="copper0">
    <circle r="0.992124" fill="none" stroke="black" cy="3.01733" stroke-width="0.850392"  cx="3.01733" id="connector0pin"/>
   </g>
  </g>
 </g>
 <g partID="854212560">
  <g transform="translate(182.994,36.4309)">
   <g  id="copper0">
    <circle r="0.992124" fill="none" stroke="black" cy="3.01733" stroke-width="0.850392"  cx="3.01733" id="connector0pin"/>
   </g>
  </g>
 </g>
 <g partID="854212770">
  <g transform="translate(161.087,36.318)">
   <g  id="copper0">
    <circle r="0.992124" fill="none" stroke="black" cy="3.01733" stroke-width="0.850392"  cx="3.01733" id="connector0pin"/>
   </g>
  </g>
 </g>
 <g partID="854213090">
  <g transform="translate(39.8114,16.3114)">
   <g  id="copper0">
    <circle r="0.992124" fill="none" stroke="black" cy="3.01733" stroke-width="0.850392"  cx="3.01733" id="connector0pin"/>
   </g>
  </g>
 </g>
 <g partID="854213710">
  <g transform="translate(139.577,111.563)">
   <g  id="copper0">
    <circle r="0.992124" fill="none" stroke="black" cy="3.01733" stroke-width="0.850392"  cx="3.01733" id="connector0pin"/>
   </g>
  </g>
 </g>
 <g partID="854213920">
  <g transform="translate(139.424,100.248)">
   <g  id="copper0">
    <circle r="0.992124" fill="none" stroke="black" cy="3.01733" stroke-width="0.850392"  cx="3.01733" id="connector0pin"/>
   </g>
  </g>
 </g>
 <g partID="854214350">
  <g transform="translate(30.7032,100.248)">
   <g  id="copper0">
    <circle r="0.992124" fill="none" stroke="black" cy="3.01733" stroke-width="0.850392"  cx="3.01733" id="connector0pin"/>
   </g>
  </g>
 </g>
 <g partID="854214450">
  <g transform="translate(21.6431,100.199)">
   <g  id="copper0">
    <circle r="0.992124" fill="none" stroke="black" cy="3.01733" stroke-width="0.850392"  cx="3.01733" id="connector0pin"/>
   </g>
  </g>
 </g>
 <g partID="854215840">
  <g transform="translate(17.8041,104.038)">
   <g  id="copper0">
    <circle r="0.992124" fill="none" stroke="black" cy="3.01733" stroke-width="0.850392"  cx="3.01733" id="connector0pin"/>
   </g>
  </g>
 </g>
 <g partID="854216690">
  <g transform="translate(17.9577,111.409)">
   <g  id="copper0">
    <circle r="0.992124" fill="none" stroke="black" cy="3.01733" stroke-width="0.850392"  cx="3.01733" id="connector0pin"/>
   </g>
  </g>
 </g>
 <g partID="854221040">
  <g transform="translate(25.7179,53.8423)">
   <g  id="copper0">
    <circle r="0.992124" fill="none" stroke="black" cy="3.01733" stroke-width="0.850392"  cx="3.01733" id="connector0pin"/>
   </g>
  </g>
 </g>
 <g partID="854223170">
  <g transform="translate(25.4001,84.6727)">
   <g  id="copper0">
    <circle r="0.992124" fill="none" stroke="black" cy="3.01733" stroke-width="0.850392"  cx="3.01733" id="connector0pin"/>
   </g>
  </g>
 </g>
 <g partID="854225890">
  <g transform="translate(26.8528,39.3675)">
   <g  id="copper0">
    <circle r="0.992124" fill="none" stroke="black" cy="3.01733" stroke-width="0.850392"  cx="3.01733" id="connector0pin"/>
   </g>
  </g>
 </g>
 <g partID="854226290">
  <g transform="translate(37.6083,39.4337)">
   <g  id="copper0">
    <circle r="0.992124" fill="none" stroke="black" cy="3.01733" stroke-width="0.850392"  cx="3.01733" id="connector0pin"/>
   </g>
  </g>
 </g>
 <g partID="854226740">
  <g transform="translate(61.1154,39.5469)">
   <g  id="copper0">
    <circle r="0.992124" fill="none" stroke="black" cy="3.01733" stroke-width="0.850392"  cx="3.01733" id="connector0pin"/>
   </g>
  </g>
 </g>
 <g partID="854226950">
  <g transform="translate(75.8251,39.3675)">
   <g  id="copper0">
    <circle r="0.992124" fill="none" stroke="black" cy="3.01733" stroke-width="0.850392"  cx="3.01733" id="connector0pin"/>
   </g>
  </g>
 </g>
 <g partID="854227810">
  <g transform="translate(141.004,67.6066)">
   <g  id="copper0">
    <circle r="0.992124" fill="none" stroke="black" cy="3.01733" stroke-width="0.850392"  cx="3.01733" id="connector0pin"/>
   </g>
  </g>
 </g>
 <g partID="854228020">
  <g transform="translate(141.004,46.6423)">
   <g  id="copper0">
    <circle r="0.992124" fill="none" stroke="black" cy="3.01733" stroke-width="0.850392"  cx="3.01733" id="connector0pin"/>
   </g>
  </g>
 </g>
 <g partID="854228340">
  <g transform="translate(76.1372,46.7883)">
   <g  id="copper0">
    <circle r="0.992124" fill="none" stroke="black" cy="3.01733" stroke-width="0.850392"  cx="3.01733" id="connector0pin"/>
   </g>
  </g>
 </g>
 <g partID="854228440">
  <g transform="translate(61.1028,46.7883)">
   <g  id="copper0">
    <circle r="0.992124" fill="none" stroke="black" cy="3.01733" stroke-width="0.850392"  cx="3.01733" id="connector0pin"/>
   </g>
  </g>
 </g>
 <g partID="854228760">
  <g transform="translate(37.7518,46.6843)">
   <g  id="copper0">
    <circle r="0.992124" fill="none" stroke="black" cy="3.01733" stroke-width="0.850392"  cx="3.01733" id="connector0pin"/>
   </g>
  </g>
 </g>
 <g partID="854228860">
  <g transform="translate(26.9056,46.5883)">
   <g  id="copper0">
    <circle r="0.992124" fill="none" stroke="black" cy="3.01733" stroke-width="0.850392"  cx="3.01733" id="connector0pin"/>
   </g>
  </g>
 </g>
 <g partID="854231320">
  <g transform="translate(155.637,95.1942)">
   <g  id="copper0">
    <circle r="0.992124" fill="none" stroke="black" cy="3.01733" stroke-width="0.850392"  cx="3.01733" id="connector0pin"/>
   </g>
  </g>
 </g>
 <g partID="854231420">
  <g transform="translate(133.065,95.1942)">
   <g  id="copper0">
    <circle r="0.992124" fill="none" stroke="black" cy="3.01733" stroke-width="0.850392"  cx="3.01733" id="connector0pin"/>
   </g>
  </g>
 </g>
 <g partID="854233480">
  <g transform="translate(21.4949,69.9297)">
   <g  id="copper0">
    <circle r="0.992124" fill="none" stroke="black" cy="3.01733" stroke-width="0.850392"  cx="3.01733" id="connector0pin"/>
   </g>
  </g>
 </g>
 <g partID="854233580">
  <g transform="translate(21.0105,77.1366)">
   <g  id="copper0">
    <circle r="0.992124" fill="none" stroke="black" cy="3.01733" stroke-width="0.850392"  cx="3.01733" id="connector0pin"/>
   </g>
  </g>
 </g>
 <g partID="61740">
  <g transform="translate(185.892,139.547)">
   <g transform="matrix(0,1,-1,0,0,0)">
    <g  id="copper0">
     <circle r="2.088" fill="none" stroke="black" cy="5.04" stroke-width="1.44"  cx="5.04" id="connector0pin"/>
     <circle r="2.088" fill="none" stroke="black" cy="12.24" stroke-width="1.44"  cx="5.04" id="connector1pin"/>
     <circle r="2.088" fill="none" stroke="black" cy="19.44" stroke-width="1.44"  cx="5.04" id="connector2pin"/>
     <circle r="2.088" fill="none" stroke="black" cy="26.64" stroke-width="1.44"  cx="5.04" id="connector3pin"/>
     <circle r="2.088" fill="none" stroke="black" cy="33.84" stroke-width="1.44"  cx="5.04" id="connector4pin"/>
     <circle r="2.088" fill="none" stroke="black" cy="41.04" stroke-width="1.44"  cx="5.04" id="connector5pin"/>
    </g>
   </g>
  </g>
 </g>
 <g partID="60720">
  <g transform="translate(134.758,139.488)">
   <g transform="matrix(0,1,-1,0,0,0)">
    <g  id="copper0">
     <circle r="2.088" fill="none" stroke="black" cy="5.04" stroke-width="1.44"  cx="5.04" id="connector0pin"/>
     <circle r="2.088" fill="none" stroke="black" cy="12.24" stroke-width="1.44"  cx="5.04" id="connector1pin"/>
     <circle r="2.088" fill="none" stroke="black" cy="19.44" stroke-width="1.44"  cx="5.04" id="connector2pin"/>
     <circle r="2.088" fill="none" stroke="black" cy="26.64" stroke-width="1.44"  cx="5.04" id="connector3pin"/>
     <circle r="2.088" fill="none" stroke="black" cy="33.84" stroke-width="1.44"  cx="5.04" id="connector4pin"/>
     <circle r="2.088" fill="none" stroke="black" cy="41.04" stroke-width="1.44"  cx="5.04" id="connector5pin"/>
     <circle r="2.088" fill="none" stroke="black" cy="48.24" stroke-width="1.44"  cx="5.04" id="connector6pin"/>
     <circle r="2.088" fill="none" stroke="black" cy="55.44" stroke-width="1.44"  cx="5.04" id="connector7pin"/>
    </g>
   </g>
  </g>
 </g>
 <g partID="854236050">
  <g transform="translate(186.324,1.73474)">
   <g transform="matrix(0,1,-1,0,0,0)">
    <g  id="copper0">
     <circle r="2.27905" fill="none" stroke="black" cy="5.04" stroke-width="1.44"  cx="5.04" id="connector0pin"/>
     <circle r="2.27905" fill="none" stroke="black" cy="12.24" stroke-width="1.44"  cx="5.04" id="connector1pin"/>
     <circle r="2.27905" fill="none" stroke="black" cy="19.44" stroke-width="1.44"  cx="5.04" id="connector2pin"/>
     <circle r="2.27905" fill="none" stroke="black" cy="26.64" stroke-width="1.44"  cx="5.04" id="connector3pin"/>
     <circle r="2.27905" fill="none" stroke="black" cy="33.84" stroke-width="1.44"  cx="5.04" id="connector4pin"/>
     <circle r="2.27905" fill="none" stroke="black" cy="41.04" stroke-width="1.44"  cx="5.04" id="connector5pin"/>
     <circle r="2.27905" fill="none" stroke="black" cy="48.24" stroke-width="1.44"  cx="5.04" id="connector6pin"/>
     <circle r="2.27905" fill="none" stroke="black" cy="55.44" stroke-width="1.44"  cx="5.04" id="connector7pin"/>
    </g>
   </g>
  </g>
 </g>
 <g partID="60820">
  <g transform="translate(123.812,1.69472)">
   <g transform="matrix(0,1,-1,0,0,0)">
    <g  id="copper0">
     <circle r="2.088" fill="none" stroke="black" cy="5.04" stroke-width="1.44"  cx="5.04" id="connector0pin"/>
     <circle r="2.088" fill="none" stroke="black" cy="12.24" stroke-width="1.44"  cx="5.04" id="connector1pin"/>
     <circle r="2.088" fill="none" stroke="black" cy="19.44" stroke-width="1.44"  cx="5.04" id="connector2pin"/>
     <circle r="2.088" fill="none" stroke="black" cy="26.64" stroke-width="1.44"  cx="5.04" id="connector3pin"/>
     <circle r="2.088" fill="none" stroke="black" cy="33.84" stroke-width="1.44"  cx="5.04" id="connector4pin"/>
     <circle r="2.088" fill="none" stroke="black" cy="41.04" stroke-width="1.44"  cx="5.04" id="connector5pin"/>
     <circle r="2.088" fill="none" stroke="black" cy="48.24" stroke-width="1.44"  cx="5.04" id="connector6pin"/>
     <circle r="2.088" fill="none" stroke="black" cy="55.44" stroke-width="1.44"  cx="5.04" id="connector7pin"/>
     <circle r="2.088" fill="none" stroke="black" cy="62.64" stroke-width="1.44"  cx="5.04" id="connector8pin"/>
     <circle r="2.088" fill="none" stroke="black" cy="69.84" stroke-width="1.44"  cx="5.04" id="connector9pin"/>
    </g>
   </g>
  </g>
 </g>
 <g partID="854139990">
  <g transform="translate(75.9171,111.211)">
   <g transform="matrix(0,1,-1,0,0,0)">
    <g  id="copper0">
     <g  id="copper1">
      <rect r="285" stroke="black" fill="none" x="6.7392" y="12.1752" width="4.104" height="4.104" stroke-width="1.224"  id="square"/>
      <circle r="2.052" stroke="black" fill="none" cy="14.2272" stroke-width="1.224"  cx="15.9912" id="connector9pin"/>
      <circle r="2.052" stroke="black" fill="none" cy="21.4272" stroke-width="1.224"  cx="15.9912" id="connector8pin"/>
      <circle r="2.052" stroke="black" fill="none" cy="28.6272" stroke-width="1.224"  cx="15.9912" id="connector7pin"/>
      <circle r="2.052" stroke="black" fill="none" cy="35.8272" stroke-width="1.224"  cx="15.9912" id="connector6pin"/>
      <circle r="2.052" stroke="black" fill="none" cy="43.0272" stroke-width="1.224"  cx="15.9912" id="connector5pin"/>
      <circle r="2.052" stroke="black" fill="none" cy="14.2272" stroke-width="1.224"  cx="8.7912" id="connector0pin"/>
      <circle r="2.052" stroke="black" fill="none" cy="21.4272" stroke-width="1.224"  cx="8.7912" id="connector1pin"/>
      <circle r="2.052" stroke="black" fill="none" cy="28.6272" stroke-width="1.224"  cx="8.7912" id="connector2pin"/>
      <circle r="2.052" stroke="black" fill="none" cy="35.8272" stroke-width="1.224"  cx="8.7912" id="connector3pin"/>
      <circle r="2.052" stroke="black" fill="none" cy="43.0272" stroke-width="1.224"  cx="8.7912" id="connector4pin"/>
     </g>
    </g>
   </g>
  </g>
 </g>
 <g partID="854140960">
  <g transform="translate(180.806,97.8046)">
   <g id="copper0">
    <rect fill="none" stroke="black" x="5.616" width="4.32" y="4.60063" height="4.32" stroke-width="1.44" id="square"/>
    <circle r="2.16" fill="none" stroke="black" cy="6.76063" stroke-width="1.44" cx="7.776" id="connector0pin"/>
    <circle r="2.16" fill="none" stroke="black" cy="16.6819" stroke-width="1.44" cx="7.776" id="connector1pin"/>
   </g>
  </g>
 </g>
 <g partID="854142150">
  <g transform="translate(6.9656,60.6392)">
   <g  id="copper0">
    <circle r="2.088" fill="none" stroke="black" cy="5.04" stroke-width="1.44"  cx="5.04" id="connector0pin"/>
    <circle r="2.088" fill="none" stroke="black" cy="12.24" stroke-width="1.44"  cx="5.04" id="connector1pin"/>
    <circle r="2.088" fill="none" stroke="black" cy="19.44" stroke-width="1.44"  cx="5.04" id="connector2pin"/>
    <circle r="2.088" fill="none" stroke="black" cy="26.64" stroke-width="1.44"  cx="5.04" id="connector3pin"/>
   </g>
  </g>
 </g>
 <g partID="854142140">
  <g transform="translate(-0.774403,91.1256)">
   <g  id="copper0">
    <circle r="2.088" fill="none" stroke="black" cy="5.04" stroke-width="1.44"  cx="5.04" id="connector0pin"/>
    <circle r="2.088" fill="none" stroke="black" cy="12.24" stroke-width="1.44"  cx="5.04" id="connector1pin"/>
    <circle r="2.088" fill="none" stroke="black" cy="19.44" stroke-width="1.44"  cx="5.04" id="connector2pin"/>
    <circle r="2.088" fill="none" stroke="black" cy="26.64" stroke-width="1.44"  cx="5.04" id="connector3pin"/>
   </g>
  </g>
 </g>
 <g partID="854142130">
  <g transform="translate(7.11438,91.0256)">
   <g  id="copper0">
    <circle r="2.088" fill="none" stroke="black" cy="5.04" stroke-width="1.44"  cx="5.04" id="connector0pin"/>
    <circle r="2.088" fill="none" stroke="black" cy="12.24" stroke-width="1.44"  cx="5.04" id="connector1pin"/>
    <circle r="2.088" fill="none" stroke="black" cy="19.44" stroke-width="1.44"  cx="5.04" id="connector2pin"/>
    <circle r="2.088" fill="none" stroke="black" cy="26.64" stroke-width="1.44"  cx="5.04" id="connector3pin"/>
   </g>
  </g>
 </g>
 <g partID="854142120">
  <g transform="translate(-0.923203,60.739)">
   <g  id="copper0">
    <circle r="2.088" fill="none" stroke="black" cy="5.04" stroke-width="1.44"  cx="5.04" id="connector0pin"/>
    <circle r="2.088" fill="none" stroke="black" cy="12.24" stroke-width="1.44"  cx="5.04" id="connector1pin"/>
    <circle r="2.088" fill="none" stroke="black" cy="19.44" stroke-width="1.44"  cx="5.04" id="connector2pin"/>
    <circle r="2.088" fill="none" stroke="black" cy="26.64" stroke-width="1.44"  cx="5.04" id="connector3pin"/>
   </g>
  </g>
 </g>
 <g partID="854142070">
  <g transform="translate(6.776,30.2197)">
   <g  id="copper0">
    <circle r="2.088" fill="none" stroke="black" cy="5.04" stroke-width="1.44"  cx="5.04" id="connector0pin"/>
    <circle r="2.088" fill="none" stroke="black" cy="12.24" stroke-width="1.44"  cx="5.04" id="connector1pin"/>
    <circle r="2.088" fill="none" stroke="black" cy="19.44" stroke-width="1.44"  cx="5.04" id="connector2pin"/>
    <circle r="2.088" fill="none" stroke="black" cy="26.64" stroke-width="1.44"  cx="5.04" id="connector3pin"/>
   </g>
  </g>
 </g>
 <g partID="854142060">
  <g transform="translate(-1.1128,30.3195)">
   <g  id="copper0">
    <circle r="2.088" fill="none" stroke="black" cy="5.04" stroke-width="1.44"  cx="5.04" id="connector0pin"/>
    <circle r="2.088" fill="none" stroke="black" cy="12.24" stroke-width="1.44"  cx="5.04" id="connector1pin"/>
    <circle r="2.088" fill="none" stroke="black" cy="19.44" stroke-width="1.44"  cx="5.04" id="connector2pin"/>
    <circle r="2.088" fill="none" stroke="black" cy="26.64" stroke-width="1.44"  cx="5.04" id="connector3pin"/>
   </g>
  </g>
 </g>
 <g partID="854199790">
  <g transform="translate(6.76994,-0.21504)">
   <g  id="copper0">
    <circle r="2.088" fill="none" stroke="black" cy="5.04" stroke-width="1.44"  cx="5.04" id="connector0pin"/>
    <circle r="2.088" fill="none" stroke="black" cy="12.24" stroke-width="1.44"  cx="5.04" id="connector1pin"/>
    <circle r="2.088" fill="none" stroke="black" cy="19.44" stroke-width="1.44"  cx="5.04" id="connector2pin"/>
    <circle r="2.088" fill="none" stroke="black" cy="26.64" stroke-width="1.44"  cx="5.04" id="connector3pin"/>
   </g>
  </g>
 </g>
 <g partID="854141980">
  <g transform="translate(-1.10615,-0.0984)">
   <g  id="copper0">
    <circle r="2.088" fill="none" stroke="black" cy="5.04" stroke-width="1.44"  cx="5.04" id="connector0pin"/>
    <circle r="2.088" fill="none" stroke="black" cy="12.24" stroke-width="1.44"  cx="5.04" id="connector1pin"/>
    <circle r="2.088" fill="none" stroke="black" cy="19.44" stroke-width="1.44"  cx="5.04" id="connector2pin"/>
    <circle r="2.088" fill="none" stroke="black" cy="26.64" stroke-width="1.44"  cx="5.04" id="connector3pin"/>
   </g>
  </g>
 </g>
 <g partID="854144880">
  <g transform="translate(25.464,114.649)">
   <g  id="copper0">
    <circle r="0.992124" fill="none" stroke="black" cy="3.01733" stroke-width="0.850392"  cx="3.01733" id="connector0pin"/>
   </g>
  </g>
 </g>
 <g partID="854147850">
  <g transform="translate(21.4048,62.6618)">
   <g  id="copper0">
    <circle r="0.992124" fill="none" stroke="black" cy="3.01733" stroke-width="0.850392"  cx="3.01733" id="connector0pin"/>
   </g>
  </g>
 </g>
 <g partID="854149770">
  <g transform="translate(21.4048,32.2423)">
   <g  id="copper0">
    <circle r="0.992124" fill="none" stroke="black" cy="3.01733" stroke-width="0.850392"  cx="3.01733" id="connector0pin"/>
   </g>
  </g>
 </g>
 <g partID="854150610">
  <g transform="translate(21.4048,93.0488)">
   <g  id="copper0">
    <circle r="0.992124" fill="none" stroke="black" cy="3.01733" stroke-width="0.850392"  cx="3.01733" id="connector0pin"/>
   </g>
  </g>
 </g>
 <g partID="854153390">
  <g transform="translate(74.0113,137.621)">
   <g transform="matrix(0,1,-1,0,0,0)">
    <g id="copper0">
     <rect fill="none" stroke="black" x="5.616" width="4.32" y="4.60063" height="4.32" stroke-width="1.44" id="square"/>
     <circle r="2.16" fill="none" stroke="black" cy="6.76063" stroke-width="1.44" cx="7.776" id="connector0pin"/>
     <circle r="2.16" fill="none" stroke="black" cy="16.6819" stroke-width="1.44" cx="7.776" id="connector1pin"/>
    </g>
   </g>
  </g>
 </g>
 <g partID="854154120">
  <g transform="translate(14.4165,147.469)">
   <g transform="matrix(-1,0,0,-1,0,0)">
    <g id="copper0">
     <rect fill="none" stroke="black" x="5.616" width="4.32" y="4.60063" height="4.32" stroke-width="1.44" id="square"/>
     <circle r="2.16" fill="none" stroke="black" cy="6.76063" stroke-width="1.44" cx="7.776" id="connector0pin"/>
     <circle r="2.16" fill="none" stroke="black" cy="16.6819" stroke-width="1.44" cx="7.776" id="connector1pin"/>
    </g>
   </g>
  </g>
 </g>
 <g partID="854154100">
  <g transform="translate(173.265,14.7196)">
   <g id="copper0">
    <rect fill="none" stroke="black" x="5.616" width="4.32" y="4.60063" height="4.32" stroke-width="1.44" id="square"/>
    <circle r="2.16" fill="none" stroke="black" cy="6.76063" stroke-width="1.44" cx="7.776" id="connector0pin"/>
    <circle r="2.16" fill="none" stroke="black" cy="16.6819" stroke-width="1.44" cx="7.776" id="connector1pin"/>
   </g>
  </g>
 </g>
 <g partID="854154080">
  <g transform="translate(180.586,53.942)">
   <g id="copper0">
    <rect fill="none" stroke="black" x="5.616" width="4.32" y="4.60063" height="4.32" stroke-width="1.44" id="square"/>
    <circle r="2.16" fill="none" stroke="black" cy="6.76063" stroke-width="1.44" cx="7.776" id="connector0pin"/>
    <circle r="2.16" fill="none" stroke="black" cy="16.6819" stroke-width="1.44" cx="7.776" id="connector1pin"/>
   </g>
  </g>
 </g>
 <g partID="854154050">
  <g transform="translate(180.549,75.818)">
   <g id="copper0">
    <rect fill="none" stroke="black" x="5.616" width="4.32" y="4.60063" height="4.32" stroke-width="1.44" id="square"/>
    <circle r="2.16" fill="none" stroke="black" cy="6.76063" stroke-width="1.44" cx="7.776" id="connector0pin"/>
    <circle r="2.16" fill="none" stroke="black" cy="16.6819" stroke-width="1.44" cx="7.776" id="connector1pin"/>
   </g>
  </g>
 </g>
 <g partID="854160640">
  <g transform="translate(105.605,134.243)">
   <g  id="copper0">
    <circle r="0.992124" fill="none" stroke="black" cy="3.01733" stroke-width="0.850392"  cx="3.01733" id="connector0pin"/>
   </g>
  </g>
 </g>
 <g partID="854161410">
  <g transform="translate(154.683,15.1146)">
   <g  id="copper0">
    <g  id="copper1">
     <circle r="1.7008" fill="none" stroke="black" cy="10.6336" stroke-width="1.13384"  cx="8.7876" id="connector1pad"/>
     <rect stroke="black" fill="none" x="7.0868" y="8.9328" width="3.4016" stroke-width="1.13384" height="3.4016" />
     <circle r="1.7008" fill="none" stroke="black" cy="3.5464" stroke-width="1.13384"  cx="8.7876" id="connector0pad"/>
    </g>
   </g>
  </g>
 </g>
 <g partID="854161470">
  <g transform="translate(118.642,15.1393)">
   <g  id="copper0">
    <g  id="copper1">
     <circle r="1.7008" fill="none" stroke="black" cy="10.6336" stroke-width="1.13384"  cx="8.7876" id="connector1pad"/>
     <rect stroke="black" fill="none" x="7.0868" y="8.9328" width="3.4016" stroke-width="1.13384" height="3.4016" />
     <circle r="1.7008" fill="none" stroke="black" cy="3.5464" stroke-width="1.13384"  cx="8.7876" id="connector0pad"/>
    </g>
   </g>
  </g>
 </g>
 <g partID="854237490">
  <g transform="translate(75.4509,22.8041)">
   <g  id="copper0">
    <g  id="copper1">
     <circle r="1.7008" fill="none" stroke="black" cy="10.6336" stroke-width="1.13384"  cx="8.7876" id="connector1pad"/>
     <rect stroke="black" fill="none" x="7.0868" y="8.9328" width="3.4016" stroke-width="1.13384" height="3.4016" />
     <circle r="1.7008" fill="none" stroke="black" cy="3.5464" stroke-width="1.13384"  cx="8.7876" id="connector0pad"/>
    </g>
   </g>
  </g>
 </g>
 <g partID="854161500">
  <g transform="translate(146.779,58.7408)">
   <g transform="matrix(0,-1,1,0,0,0)">
    <g  id="copper0">
     <g  id="copper1">
      <!-- <rect width="55" x="10" y="15.5" fill="none" height="55" stroke="rgb(255, 191, 0)" stroke-width="20" />  -->
      <circle r="1.98" fill="none" stroke="black" cy="3.096" stroke-width="1.44"  cx="2.7" id="connector0pin"/>
      <circle r="1.98" fill="none" stroke="black" cy="3.096" stroke-width="1.44"  cx="31.5" id="connector1pin"/>
     </g>
    </g>
   </g>
  </g>
 </g>
 <g partID="854237510">
  <g transform="translate(27.8047,32.1958)">
   <g  id="copper0">
    <g  id="copper1">
     <!-- <rect width="55" x="10" y="15.5" fill="none" height="55" stroke="rgb(255, 191, 0)" stroke-width="20" />  -->
     <circle r="1.98" fill="none" stroke="black" cy="3.096" stroke-width="1.44"  cx="2.7" id="connector0pin"/>
     <circle r="1.98" fill="none" stroke="black" cy="3.096" stroke-width="1.44"  cx="31.5" id="connector1pin"/>
    </g>
   </g>
  </g>
 </g>
 <g partID="854163400">
  <g transform="translate(137.055,58.3298)">
   <g transform="matrix(0,-1,1,0,0,0)">
    <g  id="copper0">
     <g  id="copper1">
      <!-- <rect width="55" x="10" y="15.5" fill="none" height="55" stroke="rgb(255, 191, 0)" stroke-width="20" />  -->
      <circle r="1.98" fill="none" stroke="black" cy="3.096" stroke-width="1.44"  cx="2.7" id="connector0pin"/>
      <circle r="1.98" fill="none" stroke="black" cy="3.096" stroke-width="1.44"  cx="31.5" id="connector1pin"/>
     </g>
    </g>
   </g>
  </g>
 </g>
 <g partID="854164650">
  <g transform="translate(146.858,134.243)">
   <g  id="copper0">
    <circle r="0.992124" fill="none" stroke="black" cy="3.01733" stroke-width="0.850392"  cx="3.01733" id="connector0pin"/>
   </g>
  </g>
 </g>
 <g partID="854170670">
  <g transform="translate(169.062,30.4996)">
   <g  id="copper0">
    <circle r="0.992124" fill="none" stroke="black" cy="3.01733" stroke-width="0.850392"  cx="3.01733" id="connector0pin"/>
   </g>
  </g>
 </g>
 <g partID="854171260">
  <g transform="translate(168.979,127.583)">
   <g  id="copper0">
    <circle r="0.992124" fill="none" stroke="black" cy="3.01733" stroke-width="0.850392"  cx="3.01733" id="connector0pin"/>
   </g>
  </g>
 </g>
 <g partID="854171470">
  <g transform="translate(176.56,120.649)">
   <g  id="copper0">
    <circle r="0.992124" fill="none" stroke="black" cy="3.01733" stroke-width="0.850392"  cx="3.01733" id="connector0pin"/>
   </g>
  </g>
 </g>
 <g partID="854238190">
  <g transform="translate(31.8394,23.5114)">
   <g  id="copper0">
    <circle r="0.992124" fill="none" stroke="black" cy="3.01733" stroke-width="0.850392"  cx="3.01733" id="connector0pin"/>
   </g>
  </g>
 </g>
 <g partID="854246380">
  <g transform="translate(146.714,114.202)">
   <g  id="copper0">
    <circle r="0.992124" fill="none" stroke="black" cy="3.01733" stroke-width="0.850392"  cx="3.01733" id="connector0pin"/>
   </g>
  </g>
 </g>
 <g partID="854252430">
  <g transform="translate(122.236,10.0281)">
   <g  id="copper0">
    <circle r="0.992124" fill="none" stroke="black" cy="3.01733" stroke-width="0.850392"  cx="3.01733" id="connector0pin"/>
   </g>
  </g>
 </g>
 <g partID="854204540">
  <line x1="115.822" x2="49.5297" stroke="black" y1="120.002" stroke-width="1.728" y2="120.002" stroke-linecap="round"/>
 </g>
 <g partID="854204470">
  <line x1="115.363" x2="115.822" stroke="black" y1="142.361" stroke-width="1.728" y2="120.002" stroke-linecap="round"/>
 </g>
 <g partID="854205470">
  <line x1="47.2899" x2="29.8095" stroke="black" y1="113.362" stroke-width="1.728" y2="113.362" stroke-linecap="round"/>
 </g>
 <g partID="854205040">
  <line x1="28.4549" x2="28.469" stroke="black" y1="114.729" stroke-width="1.728" y2="116.299" stroke-linecap="round"/>
 </g>
 <g partID="854204610">
  <line x1="47.2899" x2="47.2899" stroke="black" y1="117.762" stroke-width="1.728" y2="113.362" stroke-linecap="round"/>
 </g>
 <g partID="854206950">
  <line x1="61.1724" x2="73.8911" stroke="black" y1="19.0011" stroke-width="1.728" y2="19.0011" stroke-linecap="round"/>
 </g>
 <g partID="854206880">
  <line x1="73.8911" x2="73.8911" stroke="black" y1="19.0011" stroke-width="1.728" y2="139.295" stroke-linecap="round"/>
 </g>
 <g partID="854206810">
  <line x1="73.8911" x2="67.2506" stroke="black" y1="139.295" stroke-width="1.728" y2="139.295" stroke-linecap="round"/>
 </g>
 <g partID="854206740">
  <line x1="67.2506" x2="67.2506" stroke="black" y1="139.295" stroke-width="1.728" y2="143.156" stroke-linecap="round"/>
 </g>
 <g partID="854206600">
  <line x1="61.1724" x2="61.1724" stroke="black" y1="8.90272" stroke-width="1.728" y2="19.0011" stroke-linecap="round"/>
 </g>
 <g partID="854207230">
  <line x1="57.3293" x2="57.3293" stroke="black" y1="131.694" stroke-width="1.728" y2="143.157" stroke-linecap="round"/>
 </g>
 <g partID="854207160">
  <line x1="68.9501" x2="57.3293" stroke="black" y1="131.694" stroke-width="1.728" y2="131.694" stroke-linecap="round"/>
 </g>
 <g partID="854207090">
  <line x1="68.9501" x2="68.9501" stroke="black" y1="24.8923" stroke-width="1.728" y2="131.694" stroke-linecap="round"/>
 </g>
 <g partID="854207020">
  <line x1="53.9724" x2="68.9501" stroke="black" y1="24.8923" stroke-width="1.728" y2="24.8923" stroke-linecap="round"/>
 </g>
 <g partID="854206670">
  <line x1="53.9724" x2="53.9724" stroke="black" y1="8.90272" stroke-width="1.728" y2="24.8923" stroke-linecap="round"/>
 </g>
 <g partID="854202310">
  <line x1="178.21" x2="169.184" stroke="black" y1="123.666" stroke-width="1.728" y2="123.666" stroke-linecap="round"/>
 </g>
 <g partID="854211790">
  <line x1="41.5747" x2="11.2868" stroke="black" y1="13.4766" stroke-width="1.728" y2="13.4766" stroke-linecap="round"/>
 </g>
 <g partID="854211900">
  <line x1="11.2868" x2="11.0749" stroke="black" y1="13.4766" stroke-width="1.728" y2="14.0645" stroke-linecap="round"/>
 </g>
 <g partID="854212220">
  <line x1="184.644" x2="165.471" stroke="black" y1="39.4412" stroke-width="1.728" y2="39.3423" stroke-linecap="round"/>
 </g>
 <g partID="854212980">
  <line x1="41.4619" x2="13.978" stroke="black" y1="19.3241" stroke-width="1.728" y2="19.2322" stroke-linecap="round"/>
 </g>
 <g partID="854214020">
  <line x1="188.582" x2="143.809" stroke="black" y1="103.266" stroke-width="1.728" y2="103.266" stroke-linecap="round"/>
 </g>
 <g partID="854210070">
  <line x1="188.582" x2="188.582" stroke="black" y1="102.325" stroke-width="1.728" y2="103.266" stroke-linecap="round"/>
 </g>
 <g partID="854214240">
  <line x1="23.2935" x2="14.3224" stroke="black" y1="103.222" stroke-width="1.728" y2="103.257" stroke-linecap="round"/>
 </g>
 <g partID="854213810">
  <line x1="141.074" x2="35.0875" stroke="black" y1="103.266" stroke-width="1.728" y2="103.266" stroke-linecap="round"/>
 </g>
 <g partID="854215410">
  <line x1="20.8499" x2="20.9465" stroke="black" y1="108.422" stroke-width="1.728" y2="113.06" stroke-linecap="round"/>
 </g>
 <g partID="854222740">
  <line x1="28.4188" x2="28.4412" stroke="black" y1="89.057" stroke-width="1.728" y2="111.995" stroke-linecap="round"/>
 </g>
 <g partID="854222310">
  <line x1="28.7211" x2="28.4315" stroke="black" y1="58.2265" stroke-width="1.728" y2="86.3232" stroke-linecap="round"/>
 </g>
 <g partID="854223590">
  <line x1="14.1736" x2="28.4174" stroke="black" y1="87.2792" stroke-width="1.728" y2="87.2792" stroke-linecap="round"/>
 </g>
 <g partID="854252530">
  <line x1="28.4174" x2="28.4173" stroke="black" y1="87.2792" stroke-width="1.728" y2="86.3231" stroke-linecap="round"/>
 </g>
 <g partID="854225240">
  <line x1="34.8566" x2="30.1021" stroke="black" y1="56.8597" stroke-width="1.728" y2="56.8597" stroke-linecap="round"/>
 </g>
 <g partID="854224810">
  <line x1="34.8567" x2="34.8566" stroke="black" y1="27.8957" stroke-width="1.728" y2="56.8597" stroke-linecap="round"/>
 </g>
 <g partID="854224380">
  <line x1="13.9779" x2="33.4898" stroke="black" y1="26.4347" stroke-width="1.728" y2="26.5226" stroke-linecap="round"/>
 </g>
 <g partID="854226840">
  <line x1="63.7315" x2="62.96" stroke="black" y1="42.3239" stroke-width="1.728" y2="41.8619" stroke-linecap="round"/>
 </g>
 <g partID="854249500">
  <line x1="183.353" x2="183.353" stroke="black" y1="42.414" stroke-width="1.728" y2="60.7026" stroke-linecap="round"/>
 </g>
 <g partID="854226630">
  <line x1="80.2094" x2="183.353" stroke="black" y1="42.3852" stroke-width="1.728" y2="42.414" stroke-linecap="round"/>
 </g>
 <g partID="854226390">
  <line x1="183.353" x2="186.122" stroke="black" y1="60.7026" stroke-width="1.728" y2="60.7026" stroke-linecap="round"/>
 </g>
 <g partID="854226180">
  <line x1="41.9925" x2="63.7315" stroke="black" y1="42.4435" stroke-width="1.728" y2="42.3239" stroke-linecap="round"/>
 </g>
 <g partID="854226070">
  <line x1="13.984" x2="28.5032" stroke="black" y1="42.4507" stroke-width="1.728" y2="42.3905" stroke-linecap="round"/>
 </g>
 <g partID="854227520">
  <line x1="145.388" x2="186.122" stroke="black" y1="70.6239" stroke-width="1.728" y2="70.6239" stroke-linecap="round"/>
 </g>
 <g partID="854249610">
  <line x1="145.39" x2="145.388" stroke="black" y1="70.6239" stroke-width="1.728" y2="70.6239" stroke-linecap="round"/>
 </g>
 <g partID="854249720">
  <line x1="145.39" x2="145.39" stroke="black" y1="49.6597" stroke-width="1.728" y2="70.6239" stroke-linecap="round"/>
 </g>
 <g partID="854227910">
  <line x1="145.388" x2="145.39" stroke="black" y1="49.6597" stroke-width="1.728" y2="49.6597" stroke-linecap="round"/>
 </g>
 <g partID="854228120">
  <line x1="80.5211" x2="142.654" stroke="black" y1="49.8026" stroke-width="1.728" y2="49.6627" stroke-linecap="round"/>
 </g>
 <g partID="854253000">
  <line x1="64.1201" x2="64.1201" stroke="black" y1="49.7016" stroke-width="1.728" y2="48.4387" stroke-linecap="round"/>
 </g>
 <g partID="854228540">
  <line x1="42.1361" x2="64.1201" stroke="black" y1="49.7016" stroke-width="1.728" y2="49.7016" stroke-linecap="round"/>
 </g>
 <g partID="854227410">
  <line x1="13.984" x2="28.5559" stroke="black" y1="49.6532" stroke-width="1.728" y2="49.6097" stroke-linecap="round"/>
 </g>
 <g partID="854230390">
  <line x1="157.287" x2="136.081" stroke="black" y1="98.2116" stroke-width="1.728" y2="98.2116" stroke-linecap="round"/>
 </g>
 <g partID="854230500">
  <line x1="136.081" x2="135.115" stroke="black" y1="98.2116" stroke-width="1.728" y2="97.245" stroke-linecap="round"/>
 </g>
 <g partID="854233370">
  <line x1="23.1454" x2="14.1735" stroke="black" y1="72.9396" stroke-width="1.728" y2="72.8909" stroke-linecap="round"/>
 </g>
 <g partID="854233260">
  <line x1="22.6609" x2="14.1735" stroke="black" y1="80.1453" stroke-width="1.728" y2="80.0926" stroke-linecap="round"/>
 </g>
 <g partID="854143500">
  <line x1="27.1144" x2="14.3224" stroke="black" y1="117.666" stroke-width="1.728" y2="117.666" stroke-linecap="round"/>
 </g>
 <g partID="854144030">
  <line x1="27.3682" x2="13.984" stroke="black" y1="56.8597" stroke-width="1.728" y2="56.8597" stroke-linecap="round"/>
 </g>
 <g partID="854207660">
  <line x1="48.9213" x2="49.0493" stroke="black" y1="149.53" stroke-width="1.728" y2="137.916" stroke-linecap="round"/>
 </g>
 <g partID="854154760">
  <line x1="130.045" x2="48.9206" stroke="black" y1="149.167" stroke-width="1.728" y2="149.531" stroke-linecap="round"/>
 </g>
 <g partID="854154580">
  <line x1="130.222" x2="130.045" stroke="black" y1="148.077" stroke-width="1.728" y2="149.167" stroke-linecap="round"/>
 </g>
 <g partID="854207800">
  <line x1="32.9494" x2="14.3096" stroke="black" y1="140.709" stroke-width="1.728" y2="140.709" stroke-linecap="round"/>
 </g>
 <g partID="854207730">
  <line x1="32.9494" x2="32.9494" stroke="black" y1="137.792" stroke-width="1.728" y2="140.708" stroke-linecap="round"/>
 </g>
 <g partID="854154510">
  <line x1="49.0493" x2="32.9494" stroke="black" y1="137.916" stroke-width="1.728" y2="137.792" stroke-linecap="round"/>
 </g>
 <g partID="854154440">
  <line x1="14.3096" x2="8.88045" stroke="black" y1="140.709" stroke-width="1.728" y2="140.709" stroke-linecap="round"/>
 </g>
 <g partID="854154140">
  <line x1="130.023" x2="130.222" stroke="black" y1="146.675" stroke-width="1.728" y2="148.077" stroke-linecap="round"/>
 </g>
 <g partID="854156120">
  <line x1="28.4816" x2="28.4816" stroke="black" y1="123.548" stroke-width="1.728" y2="130.787" stroke-linecap="round"/>
 </g>
 <g partID="854155690">
  <line x1="28.4816" x2="14.3094" stroke="black" y1="130.787" stroke-width="1.728" y2="130.787" stroke-linecap="round"/>
 </g>
 <g partID="854155260">
  <line x1="14.3094" x2="8.88046" stroke="black" y1="130.787" stroke-width="1.728" y2="130.787" stroke-linecap="round"/>
 </g>
 <g partID="854154830">
  <line x1="28.4814" x2="28.4816" stroke="black" y1="119.033" stroke-width="1.728" y2="123.548" stroke-linecap="round"/>
 </g>
 <g partID="854209850">
  <line x1="172.08" x2="172.08" stroke="black" y1="6.87324" stroke-width="1.728" y2="32.15" stroke-linecap="round"/>
 </g>
 <g partID="854170320">
  <line x1="171.728" x2="172.08" stroke="black" y1="6.89051" stroke-width="1.728" y2="6.87324" stroke-linecap="round"/>
 </g>
 <g partID="854247060">
  <line x1="142.595" x2="160.48" stroke="black" y1="112.284" stroke-width="1.728" y2="112.284" stroke-linecap="round"/>
 </g>
 <g partID="854246950">
  <line x1="160.48" x2="160.48" stroke="black" y1="112.284" stroke-width="1.728" y2="114.433" stroke-linecap="round"/>
 </g>
 <g partID="854241060">
  <line x1="142.595" x2="142.595" stroke="black" y1="113.213" stroke-width="1.728" y2="112.284" stroke-linecap="round"/>
 </g>
 <g partID="854246840">
  <line x1="160.48" x2="186.342" stroke="black" y1="114.433" stroke-width="1.728" y2="114.482" stroke-linecap="round"/>
 </g>
 <g partID="854245910">
  <line x1="149.741" x2="149.866" stroke="black" y1="118.586" stroke-width="1.728" y2="135.894" stroke-linecap="round"/>
 </g>
 <g partID="854252100">
  <line x1="125.254" x2="125.254" stroke="black" y1="11.6785" stroke-width="1.728" y2="1.69557" stroke-linecap="round"/>
 </g>
 <g partID="854252210">
  <line x1="125.254" x2="185.898" stroke="black" y1="1.69557" stroke-width="1.728" y2="1.69557" stroke-linecap="round"/>
 </g>
 <g partID="854252320">
  <line x1="185.898" x2="185.898" stroke="black" y1="1.69557" stroke-width="1.728" y2="12.1097" stroke-linecap="round"/>
 </g>
</svg>
