G04 MADE WITH FRITZING*
G04 WWW.FRITZING.ORG*
G04 DOUBLE SIDED*
G04 HOLES PLATED*
G04 CONTOUR ON CENTER OF CONTOUR VECTOR*
%ASAXBY*%
%FSLAX23Y23*%
%MOIN*%
%OFA0B0*%
%SFA1.0B1.0*%
%ADD10C,0.135984*%
%ADD11C,0.049370*%
%ADD12C,0.088000*%
%ADD13C,0.093307*%
%ADD14C,0.084000*%
%ADD15C,0.090000*%
%ADD16C,0.072992*%
%ADD17C,0.085000*%
%ADD18R,0.084000X0.084000*%
%ADD19R,0.090000X0.090000*%
%ADD20R,0.072992X0.072992*%
%LNMASK0*%
G90*
G70*
G54D10*
X2618Y360D03*
X2627Y1437D03*
X567Y94D03*
X564Y2012D03*
G54D11*
X395Y534D03*
X2331Y390D03*
X2443Y1907D03*
X2582Y1921D03*
X596Y1921D03*
X2584Y1560D03*
X2279Y1562D03*
X595Y1840D03*
X1980Y517D03*
X1978Y674D03*
X468Y674D03*
X343Y674D03*
X289Y621D03*
X291Y519D03*
X399Y1318D03*
X395Y890D03*
X415Y1519D03*
X564Y1518D03*
X891Y1517D03*
X1095Y1519D03*
X2000Y1127D03*
X2000Y1418D03*
X1099Y1416D03*
X891Y1416D03*
X566Y1418D03*
X416Y1419D03*
X2204Y744D03*
X1890Y744D03*
X340Y1095D03*
X334Y995D03*
G54D12*
X2512Y100D03*
X2412Y100D03*
X2312Y100D03*
X2212Y100D03*
X2112Y100D03*
X2012Y100D03*
X1802Y101D03*
X1702Y101D03*
X1602Y101D03*
X1502Y101D03*
X1402Y101D03*
X1302Y101D03*
X1202Y101D03*
X1102Y101D03*
G54D13*
X2518Y2014D03*
X2418Y2014D03*
X2318Y2014D03*
X2218Y2014D03*
X2118Y2014D03*
X2018Y2014D03*
X1918Y2014D03*
X1818Y2014D03*
G54D12*
X1650Y2014D03*
X1550Y2014D03*
X1450Y2014D03*
X1350Y2014D03*
X1250Y2014D03*
X1150Y2014D03*
X1050Y2014D03*
X950Y2014D03*
X850Y2014D03*
X750Y2014D03*
G54D14*
X857Y341D03*
X757Y341D03*
X657Y341D03*
X557Y341D03*
X457Y341D03*
X857Y441D03*
X757Y441D03*
X657Y441D03*
X557Y441D03*
X457Y441D03*
G54D15*
X2619Y656D03*
X2619Y518D03*
G54D12*
X167Y1196D03*
X167Y1096D03*
X167Y996D03*
X167Y896D03*
X59Y772D03*
X59Y672D03*
X59Y572D03*
X59Y472D03*
X169Y774D03*
X169Y674D03*
X169Y574D03*
X169Y474D03*
X57Y1194D03*
X57Y1094D03*
X57Y994D03*
X57Y894D03*
X164Y1618D03*
X164Y1518D03*
X164Y1418D03*
X164Y1318D03*
X55Y1617D03*
X55Y1517D03*
X55Y1417D03*
X55Y1317D03*
X164Y2041D03*
X164Y1941D03*
X164Y1841D03*
X164Y1741D03*
X55Y2039D03*
X55Y1939D03*
X55Y1839D03*
X55Y1739D03*
G54D11*
X396Y474D03*
X339Y1196D03*
X339Y1618D03*
X339Y774D03*
G54D15*
X934Y89D03*
X796Y89D03*
X92Y154D03*
X92Y292D03*
X2514Y1810D03*
X2514Y1672D03*
X2616Y1265D03*
X2616Y1127D03*
X2616Y961D03*
X2616Y823D03*
G54D11*
X1509Y202D03*
G54D16*
X2270Y1750D03*
X2270Y1849D03*
X1770Y1750D03*
X1770Y1848D03*
X1170Y1644D03*
X1170Y1742D03*
G54D17*
X2082Y1330D03*
X2082Y1730D03*
X424Y1618D03*
X824Y1618D03*
X1947Y1335D03*
X1947Y1735D03*
G54D11*
X2082Y202D03*
X2390Y1642D03*
X2389Y294D03*
X2494Y390D03*
X484Y1740D03*
X2080Y480D03*
X1740Y1927D03*
G54D18*
X857Y441D03*
G54D19*
X2619Y656D03*
X934Y89D03*
X92Y154D03*
X2514Y1810D03*
X2616Y1265D03*
X2616Y961D03*
G54D20*
X2270Y1750D03*
X1770Y1750D03*
X1170Y1644D03*
G04 End of Mask0*
M02*